<svg className="h-10 sm:h-16 md:h-20 lg:h-24 z-0" xmlns="http://www.w3.org/2000/svg" version="1.1" viewBox="0.00 0.00 1200.00 164.00">
   <g strokeWidth="2.00" fill="none" strokeLinecap="butt">
   <path stroke="#f7ad94" vector-effect="non-scaling-stroke" d="   M 95.18 60.90   C 103.00 56.12 112.08 57.08 119.19 62.60   C 121.43 64.35 124.94 63.89 124.96 60.51   Q 125.05 50.17 125.01 40.21   C 124.99 34.97 121.34 33.20 116.58 33.22   Q 80.84 33.34 48.85 33.23   C 43.70 33.21 39.75 34.64 39.76 40.63   Q 39.80 78.00 39.72 116.74   C 39.71 120.76 42.30 123.97 46.49 124.02   Q 68.65 124.25 117.94 124.06   C 122.36 124.05 125.02 121.07 125.03 116.90   Q 125.04 106.10 124.97 96.94   Q 124.95 93.85 121.75 93.73   C 120.15 93.66 118.83 94.92 117.61 95.82   C 111.05 100.67 101.99 100.45 95.31 96.52   C 81.95 88.66 82.19 68.84 95.18 60.90"/>
   <path stroke="#feca9d" vector-effect="non-scaling-stroke" d="   M 216.30 70.80   A 19.34 19.34 0.0 0 0 227.74 76.60   A 19.32 19.30 -65.0 0 0 244.51 70.50"/>
   <path stroke="#fdb3bd" vector-effect="non-scaling-stroke" d="   M 244.51 70.50   A 19.31 19.31 0.0 0 0 249.45 59.75   A 19.32 19.31 28.3 0 0 245.03 44.99   A 19.32 19.31 74.8 0 0 233.53 38.41   A 19.33 19.30 -56.3 0 0 219.90 41.15   A 19.30 19.29 70.0 0 0 211.12 59.99   A 19.28 19.26 19.4 0 0 216.30 70.80"/>
   <path stroke="#fb7e5b" vector-effect="non-scaling-stroke" d="   M 244.51 70.50   Q 239.67 67.11 232.49 66.51   C 228.61 66.19 224.43 66.20 221.14 68.24   Q 219.32 69.37 217.23 70.33   Q 217.12 70.38 217.04 70.29   Q 216.98 70.24 216.92 70.20   Q 216.77 70.08 216.60 70.18   Q 216.36 70.32 216.30 70.80"/>
   <path stroke="#feca9d" vector-effect="non-scaling-stroke" d="   M 224.38 99.22   A 19.34 19.32 2.7 0 0 208.52 81.80"/>
   <path stroke="#fdb3bd" vector-effect="non-scaling-stroke" d="   M 208.52 81.80   A 19.36 19.27 -52.2 0 0 196.99 83.28   A 19.35 19.31 89.1 0 0 187.33 93.27   A 19.32 19.30 -44.0 0 0 187.07 107.73   A 19.31 19.30 -89.3 0 0 197.76 118.69   A 19.33 19.31 -55.9 0 0 218.61 114.65   A 19.33 19.30 65.5 0 0 224.38 99.22"/>
   <path stroke="#fb7e5b" vector-effect="non-scaling-stroke" d="   M 208.52 81.80   L 207.56 81.90   Q 206.77 81.99 207.05 82.74   Q 208.86 87.61 210.90 91.85   Q 211.35 92.79 212.15 93.65   Q 212.93 94.49 213.74 95.34   Q 216.87 98.61 222.43 102.73   Q 223.06 103.19 223.33 102.47   Q 223.35 102.39 223.43 102.42   Q 223.96 102.61 224.07 101.99   Q 224.29 100.70 224.38 99.22"/>
   <path stroke="#fdb3bd" vector-effect="non-scaling-stroke" d="   M 274.74 100.82   A 19.36 19.36 0.0 0 0 255.38 81.46   A 19.36 19.36 0.0 0 0 236.02 100.82   A 19.36 19.36 0.0 0 0 255.38 120.18   A 19.36 19.36 0.0 0 0 274.74 100.82"/>
   <path stroke="#82ace9" vector-effect="non-scaling-stroke" d="   M 485.35 90.30   Q 485.31 98.47 485.44 106.67   Q 485.51 111.65 486.96 114.03   Q 489.78 118.67 496.25 118.67   Q 529.90 118.67 557.75 118.62   Q 563.24 118.61 566.30 114.18   Q 566.59 113.77 566.60 113.26   L 566.69 100.21"/>
   <path stroke="#87b3f0" vector-effect="non-scaling-stroke" d="   M 566.69 100.21   L 566.68 67.97"/>
   <path stroke="#90bdfb" vector-effect="non-scaling-stroke" d="   M 566.68 67.97   Q 566.77 55.88 566.73 43.82   C 566.72 39.02 561.52 36.70 557.43 36.72   Q 526.76 36.89 495.28 36.76   C 489.10 36.74 485.35 41.22 485.32 47.50   Q 485.23 68.88 485.35 90.30"/>
   <path stroke="#1871eb" vector-effect="non-scaling-stroke" d="   M 566.68 67.97   L 566.53 60.94   Q 566.49 58.98 565.15 60.41   L 563.62 62.05   Q 563.26 62.43 562.76 62.60   Q 562.20 62.78 561.83 63.23   Q 561.43 63.71 560.81 63.83   Q 558.26 64.29 555.69 63.64   Q 555.17 63.51 554.95 63.02   Q 554.51 62.03 553.95 61.16   Q 553.59 60.59 553.87 61.20   Q 553.93 61.33 553.87 61.45   Q 553.49 62.24 553.41 61.37   Q 553.31 60.26 553.41 59.22   Q 553.45 58.80 553.78 59.06   Q 554.06 59.29 554.14 58.93   Q 554.63 56.74 554.24 54.58   Q 554.07 53.69 553.28 53.26   Q 552.70 52.94 552.40 52.40   Q 551.99 51.67 551.15 51.63   Q 550.31 51.60 549.27 51.25   Q 547.32 50.59 546.02 51.73"/>
   <path stroke="#90bdfb" vector-effect="non-scaling-stroke" d="   M 546.02 51.73   L 534.91 52.00   A 2.46 2.46 0.0 0 0 532.51 54.44   L 532.36 73.22"/>
   <path stroke="#1871eb" vector-effect="non-scaling-stroke" d="   M 532.36 73.22   L 532.17 66.11   Q 532.15 65.42 531.48 65.59   Q 530.92 65.73 530.85 65.14   A 0.70 0.70 0.0 0 0 529.85 64.60   Q 527.77 65.62 525.49 64.50   Q 525.15 64.33 524.79 64.46   Q 523.72 64.84 522.53 64.46   Q 522.25 64.37 522.35 64.66   Q 522.38 64.75 522.35 64.84   Q 522.28 65.06 522.06 65.01   Q 522.00 65.00 521.97 64.96   Q 521.81 64.76 521.86 65.01   Q 521.91 65.24 521.79 65.43   Q 521.73 65.51 521.65 65.57   Q 521.52 65.65 521.39 65.58   Q 521.03 65.38 521.08 65.79   Q 521.20 66.71 520.81 67.30"/>
   <path stroke="#90bdfb" vector-effect="non-scaling-stroke" d="   M 520.81 67.30   L 520.72 54.99   Q 520.69 51.99 517.70 51.86   Q 510.33 51.54 503.44 52.09   Q 500.72 52.30 500.72 55.03   L 500.66 89.71"/>
   <path stroke="#136ae5" vector-effect="non-scaling-stroke" d="   M 500.66 89.71   Q 500.78 88.36 500.29 87.38   Q 499.99 86.76 499.58 87.31   L 498.70 88.46   Q 498.40 88.84 498.00 88.58   Q 496.88 87.84 495.35 88.05   Q 494.22 88.19 493.12 88.05   Q 489.99 87.65 486.95 87.13   Q 486.47 87.05 486.44 87.53   Q 486.34 89.23 485.35 90.30"/>
   <path stroke="#0a60da" vector-effect="non-scaling-stroke" d="   M 566.69 100.21   L 566.58 99.18   Q 566.51 98.50 565.88 98.78   Q 565.62 98.89 565.56 99.14   Q 565.52 99.30 565.37 99.36   Q 565.11 99.45 565.10 99.29   Q 565.10 99.03 564.84 99.01   Q 552.93 98.14 540.56 97.21   Q 537.45 96.97 534.92 97.09   Q 532.24 97.22 529.26 97.48   Q 528.74 97.53 528.38 97.82   Q 528.01 98.12 527.53 98.14   L 520.55 98.37"/>
   <path stroke="#87b3f0" vector-effect="non-scaling-stroke" d="   M 520.55 98.37   L 520.81 67.30"/>
   <path stroke="#87b3f0" vector-effect="non-scaling-stroke" d="   M 532.36 73.22   C 532.28 76.13 531.78 80.08 535.39 80.18   Q 542.44 80.38 549.85 80.18   A 2.78 2.78 0.0 0 0 552.55 77.39   Q 552.49 66.28 552.50 55.00   C 552.50 51.62 548.72 51.43 546.02 51.73"/>
   <path stroke="#82ace9" vector-effect="non-scaling-stroke" d="   M 520.55 98.37   Q 513.72 99.26 504.25 98.91   C 501.64 98.81 500.76 97.70 500.71 95.10   Q 500.66 92.40 500.66 89.71"/>
   <path stroke="#d4e3fd" vector-effect="non-scaling-stroke" d="   M 1150.15 57.91   L 1125.80 33.57"/>
   <path stroke="#a6c6fa" vector-effect="non-scaling-stroke" d="   M 1125.80 33.57   Q 1115.89 33.34 1091.00 33.37   Q 1087.30 33.38 1085.61 35.79   Q 1084.52 37.34 1084.52 39.26   Q 1084.38 77.81 1084.42 117.41   C 1084.42 121.08 1086.64 123.97 1090.56 124.02   Q 1113.28 124.32 1143.79 124.08   C 1149.66 124.03 1150.31 119.69 1150.32 114.48   Q 1150.35 85.89 1150.15 57.91"/>
   <path stroke="#7aa9f8" vector-effect="non-scaling-stroke" d="   M 1125.80 33.57   Q 1125.37 40.86 1125.55 47.95   C 1125.68 53.31 1125.41 57.63 1131.74 57.88   Q 1138.67 58.15 1150.15 57.91"/>
   <path stroke="#87b3f0" vector-effect="non-scaling-stroke" d="   M 385.18 55.58   Q 379.68 56.30 374.43 53.90   Q 364.75 49.46 354.72 44.55   A 2.47 2.46 25.1 0 0 351.38 45.76   L 343.94 62.48   A 2.28 2.28 0.0 0 0 345.09 65.49   L 369.92 76.59"/>
   <path stroke="#90bdfb" vector-effect="non-scaling-stroke" d="   M 369.92 76.59   Q 378.07 79.39 386.26 78.99   C 399.92 78.34 409.73 67.40 415.75 55.71   A 1.78 1.78 0.0 0 0 415.09 53.38   L 399.15 43.64   A 2.42 2.41 31.9 0 0 395.86 44.40   C 392.92 49.04 390.87 53.63 385.18 55.58"/>
   <path stroke="#1871eb" vector-effect="non-scaling-stroke" d="   M 369.92 76.59   Q 371.40 75.90 371.83 74.70   A 2.47 2.42 81.6 0 1 372.60 73.64   Q 374.24 72.34 374.99 70.49   Q 376.24 67.42 378.28 65.54   Q 378.63 65.22 378.71 64.74   Q 378.77 64.39 379.06 64.19   Q 379.30 64.02 379.45 63.78   L 382.93 58.28   Q 383.19 57.87 383.67 57.81   Q 384.23 57.73 383.94 57.31   Q 383.64 56.89 384.12 56.68   Q 384.97 56.32 385.18 55.58"/>
   <path stroke="#87b3f0" vector-effect="non-scaling-stroke" d="   M 374.22 102.49   Q 378.92 103.14 380.77 103.97   Q 391.82 108.90 401.38 113.57   Q 404.11 114.90 405.34 112.13   L 412.60 95.75   A 2.14 2.13 -65.9 0 0 411.53 92.94   L 387.10 81.84"/>
   <path stroke="#90bdfb" vector-effect="non-scaling-stroke" d="   M 387.10 81.84   Q 380.10 79.43 372.24 79.36   C 357.64 79.22 348.66 88.92 341.33 101.59   Q 339.97 103.95 342.26 105.39   Q 350.18 110.38 357.33 114.54   A 2.52 2.51 29.5 0 0 360.80 113.58   C 363.83 108.05 367.10 102.51 374.22 102.49"/>
   <path stroke="#1871eb" vector-effect="non-scaling-stroke" d="   M 387.10 81.84   Q 386.66 85.42 384.67 86.08   Q 384.08 86.28 383.80 86.83   Q 381.88 90.62 379.71 94.28   Q 379.15 95.23 378.27 95.90   C 376.91 96.93 376.69 98.73 375.08 99.50   A 0.81 0.81 0.0 0 0 374.84 100.79   Q 375.55 101.52 374.22 102.49"/>
   <path stroke="#e0a093" vector-effect="non-scaling-stroke" d="   M 714.10 60.70   C 698.68 25.63 649.48 24.84 632.84 59.27   C 620.69 84.43 635.36 114.32 662.30 121.20   Q 667.85 122.62 676.78 122.59   Q 695.95 122.51 714.20 122.61   A 3.47 3.46 -89.8 0 0 717.68 119.15   Q 717.73 100.82 717.75 81.08   C 717.76 73.82 717.00 67.30 714.10 60.70"/>
   <path stroke="#ffe680" vector-effect="non-scaling-stroke" d="   M 854.5542 64.9560   A 11.54 11.54 0.0 0 0 850.9385 49.0415   L 850.3800 48.6898   A 11.54 11.54 0.0 0 0 834.4656 52.3055   L 812.4258 87.3040   A 11.54 11.54 0.0 0 0 816.0415 103.2185   L 816.6000 103.5702   A 11.54 11.54 0.0 0 0 832.5144 99.9545   L 854.5542 64.9560"/>
   <path stroke="#ff9eac" vector-effect="non-scaling-stroke" d="   M 817.8964 64.8140   A 11.51 11.51 0.0 0 0 814.2625 48.9472   L 813.7034 48.5965   A 11.51 11.51 0.0 0 0 797.8366 52.2305   L 775.7836 87.3860   A 11.51 11.51 0.0 0 0 779.4175 103.2528   L 779.9766 103.6035   A 11.51 11.51 0.0 0 0 795.8434 99.9695   L 817.8964 64.8140"/>
   <path stroke="#80eba3" vector-effect="non-scaling-stroke" d="   M 871.1521 93.2765   A 11.83 11.62 -2.1 0 0 858.9042 82.0978   A 11.83 11.62 -2.1 0 0 847.5079 94.1435   A 11.83 11.62 -2.1 0 0 859.7558 105.3222   A 11.83 11.62 -2.1 0 0 871.1521 93.2765"/>
   <path stroke="#808080" vector-effect="non-scaling-stroke" d="   M 966.99 40.23   Q 963.19 40.93 956.40 43.17   Q 946.98 46.27 939.62 51.37   C 934.07 55.21 930.69 60.93 930.45 67.84   Q 929.82 86.07 939.32 103.73   C 944.18 112.79 950.47 118.07 961.18 117.96   Q 979.18 117.76 996.33 108.28   C 1004.72 103.64 1009.80 96.19 1009.34 86.80   Q 1008.49 69.19 1000.66 54.02   C 996.17 45.32 990.12 39.65 980.27 39.32"/>
   <path stroke="#d4e3fd" vector-effect="non-scaling-stroke" d="   M 980.27 39.32   Q 973.44 38.31 966.99 40.23"/>
   <path stroke="#55647e" vector-effect="non-scaling-stroke" d="   M 980.27 39.32   L 966.99 40.23"/>
   <path stroke="#a6c6fa" vector-effect="non-scaling-stroke" d="   M 1133.8053 79.2927   A 0.70 0.70 0.0 0 0 1133.1029 78.5951   L 1101.6630 78.7049   A 0.70 0.70 0.0 0 0 1100.9655 79.4073   L 1100.9747 82.0473   A 0.70 0.70 0.0 0 0 1101.6771 82.7449   L 1133.1170 82.6351   A 0.70 0.70 0.0 0 0 1133.8145 81.9327   L 1133.8053 79.2927"/>
   <path stroke="#a6c6fa" vector-effect="non-scaling-stroke" d="   M 1133.83 87.79   A 0.78 0.78 0.0 0 0 1133.05 87.01   L 1101.67 87.01   A 0.78 0.78 0.0 0 0 1100.89 87.79   L 1100.89 90.19   A 0.78 0.78 0.0 0 0 1101.67 90.97   L 1133.05 90.97   A 0.78 0.78 0.0 0 0 1133.83 90.19   L 1133.83 87.79"/>
   <path stroke="#a6c6fa" vector-effect="non-scaling-stroke" d="   M 1133.85 95.99   A 0.73 0.73 0.0 0 0 1133.12 95.26   L 1101.54 95.26   A 0.73 0.73 0.0 0 0 1100.81 95.99   L 1100.81 98.51   A 0.73 0.73 0.0 0 0 1101.54 99.24   L 1133.12 99.24   A 0.73 0.73 0.0 0 0 1133.85 98.51   L 1133.85 95.99"/>
   <path stroke="#a6c6fa" vector-effect="non-scaling-stroke" d="   M 1125.5479 104.2184   A 0.74 0.74 0.0 0 0 1124.8066 103.4797   L 1101.5666 103.5203   A 0.74 0.74 0.0 0 0 1100.8279 104.2616   L 1100.8321 106.6816   A 0.74 0.74 0.0 0 0 1101.5734 107.4203   L 1124.8134 107.3797   A 0.74 0.74 0.0 0 0 1125.5521 106.6384   L 1125.5479 104.2184"/>
   <path stroke="#da5c40" vector-effect="non-scaling-stroke" d="   M 710.95 114.86   Q 710.55 98.46 710.87 81.90   Q 711.04 73.04 709.46 67.71   C 705.37 53.86 693.90 43.94 679.74 41.33   C 656.84 37.11 634.63 55.57 635.62 79.15   C 636.34 96.25 647.03 109.91 663.46 114.41   Q 669.18 115.98 678.92 115.75   Q 693.88 115.40 709.81 115.99   Q 710.98 116.03 710.95 114.86"/>
   <path stroke="#808080" vector-effect="non-scaling-stroke" d="   M 985.29 66.13   C 978.89 58.29 967.44 56.07 958.83 62.04   C 946.57 70.52 947.55 88.14 960.55 95.68   C 968.16 100.09 978.07 98.58 984.14 91.99   Q 987.42 88.43 987.97 83.89   A 0.53 0.52 77.2 0 0 987.17 83.38   C 985.84 84.23 984.27 84.91 983.50 86.41   C 979.26 94.64 968.52 96.76 961.12 91.61   C 951.40 84.85 951.30 70.33 962.05 64.41   C 969.66 60.22 976.28 62.62 982.32 68.16   Q 983.52 69.26 984.81 68.26   L 985.07 68.06   A 1.36 1.35 51.6 0 0 985.29 66.13"/>
   <path stroke="#808080" vector-effect="non-scaling-stroke" d="   M 984.96 76.94   Q 979.81 73.16 974.09 74.10   C 969.87 74.80 967.45 79.86 970.90 82.90   C 974.16 85.77 979.68 84.80 983.29 83.07   Q 988.58 80.52 992.51 76.29   A 1.61 1.61 0.0 0 0 992.35 73.96   L 991.88 73.57   A 1.38 1.37 -45.9 0 0 990.10 73.60   L 986.36 76.88   Q 985.69 77.47 984.96 76.94"/>
   <path stroke="#f9bbac" vector-effect="non-scaling-stroke" d="   M 691.8796 62.6374   A 3.13 3.13 0.0 0 0 688.7441 59.5128   L 657.6042 59.5672   A 3.13 3.13 0.0 0 0 654.4796 62.7026   L 654.4804 63.1626   A 3.13 3.13 0.0 0 0 657.6159 66.2872   L 688.7558 66.2328   A 3.13 3.13 0.0 0 0 691.8804 63.0974   L 691.8796 62.6374"/>
   <path stroke="#f9bbac" vector-effect="non-scaling-stroke" d="   M 702.2197 78.0394   A 3.29 3.29 0.0 0 0 698.9240 74.7551   L 647.4841 74.8449   A 3.29 3.29 0.0 0 0 644.1998 78.1406   L 644.2003 78.3806   A 3.29 3.29 0.0 0 0 647.4960 81.6649   L 698.9359 81.5751   A 3.29 3.29 0.0 0 0 702.2202 78.2794   L 702.2197 78.0394"/>
   <path stroke="#f9bbac" vector-effect="non-scaling-stroke" d="   M 691.95 93.45   A 3.22 3.22 0.0 0 0 688.73 90.23   L 657.53 90.23   A 3.22 3.22 0.0 0 0 654.31 93.45   L 654.31 93.75   A 3.22 3.22 0.0 0 0 657.53 96.97   L 688.73 96.97   A 3.22 3.22 0.0 0 0 691.95 93.75   L 691.95 93.45"/>
   <path stroke="#808080" vector-effect="non-scaling-stroke" d="   M 980.42 80.46   A 1.03 1.03 0.0 0 0 980.57 78.45   L 976.43 77.30   A 1.03 1.03 0.0 0 0 975.76 77.35   L 973.60 78.24   A 1.03 1.03 0.0 0 0 973.42 80.05   L 974.66 80.89   A 1.03 1.03 0.0 0 0 975.36 81.06   L 980.42 80.46"/>
   </g>
   <path fill="#010101" fill-opacity="0.004" d="   M 0.00 0.00   L 1200.00 0.00   L 1200.00 164.00   L 0.00 164.00   L 0.00 0.00   Z   M 146.18 27.20   A 12.04 12.04 0.0 0 0 134.14 15.16   L 30.66 15.16   A 12.04 12.04 0.0 0 0 18.62 27.20   L 18.62 130.08   A 12.04 12.04 0.0 0 0 30.66 142.12   L 134.14 142.12   A 12.04 12.04 0.0 0 0 146.18 130.08   L 146.18 27.20   Z   M 294.18 27.30   A 12.12 12.12 0.0 0 0 282.06 15.18   L 178.62 15.18   A 12.12 12.12 0.0 0 0 166.50 27.30   L 166.50 130.00   A 12.12 12.12 0.0 0 0 178.62 142.12   L 282.06 142.12   A 12.12 12.12 0.0 0 0 294.18 130.00   L 294.18 27.30   Z   M 589.8903 27.1986   A 12.12 12.12 0.0 0 0 577.7491 15.0998   L 474.2893 15.2804   A 12.12 12.12 0.0 0 0 462.1905 27.4215   L 462.3697 130.1214   A 12.12 12.12 0.0 0 0 474.5109 142.2202   L 577.9707 142.0396   A 12.12 12.12 0.0 0 0 590.0695 129.8985   L 589.8903 27.1986   Z   M 1181.8297 27.3415   A 12.04 12.04 0.0 0 0 1169.8107 15.2805   L 1066.2509 15.0997   A 12.04 12.04 0.0 0 0 1054.1899 27.1187   L 1054.0103 129.9785   A 12.04 12.04 0.0 0 0 1066.0293 142.0395   L 1169.5891 142.2203   A 12.04 12.04 0.0 0 0 1181.6501 130.2013   L 1181.8297 27.3415   Z   M 442.05 27.19   A 11.99 11.99 0.0 0 0 430.06 15.20   L 326.46 15.20   A 11.99 11.99 0.0 0 0 314.47 27.19   L 314.47 130.13   A 11.99 11.99 0.0 0 0 326.46 142.12   L 430.06 142.12   A 11.99 11.99 0.0 0 0 442.05 130.13   L 442.05 27.19   Z   M 737.9103 27.2186   A 12.14 12.14 0.0 0 0 725.7491 15.0998   L 622.2693 15.2804   A 12.14 12.14 0.0 0 0 610.1505 27.4416   L 610.3297 130.1014   A 12.14 12.14 0.0 0 0 622.4909 142.2202   L 725.9707 142.0396   A 12.14 12.14 0.0 0 0 738.0895 129.8784   L 737.9103 27.2186   Z   M 885.87 27.23   A 12.04 12.04 0.0 0 0 873.83 15.19   L 770.27 15.19   A 12.04 12.04 0.0 0 0 758.23 27.23   L 758.23 130.09   A 12.04 12.04 0.0 0 0 770.27 142.13   L 873.83 142.13   A 12.04 12.04 0.0 0 0 885.87 130.09   L 885.87 27.23   Z   M 1033.82 27.31   A 12.11 12.11 0.0 0 0 1021.71 15.20   L 918.19 15.20   A 12.11 12.11 0.0 0 0 906.08 27.31   L 906.08 130.01   A 12.11 12.11 0.0 0 0 918.19 142.12   L 1021.71 142.12   A 12.11 12.11 0.0 0 0 1033.82 130.01   L 1033.82 27.31   Z"/>
   <path fill="#ffffff" d="   M 146.18 130.08   A 12.04 12.04 0.0 0 1 134.14 142.12   L 30.66 142.12   A 12.04 12.04 0.0 0 1 18.62 130.08   L 18.62 27.20   A 12.04 12.04 0.0 0 1 30.66 15.16   L 134.14 15.16   A 12.04 12.04 0.0 0 1 146.18 27.20   L 146.18 130.08   Z   M 95.18 60.90   C 103.00 56.12 112.08 57.08 119.19 62.60   C 121.43 64.35 124.94 63.89 124.96 60.51   Q 125.05 50.17 125.01 40.21   C 124.99 34.97 121.34 33.20 116.58 33.22   Q 80.84 33.34 48.85 33.23   C 43.70 33.21 39.75 34.64 39.76 40.63   Q 39.80 78.00 39.72 116.74   C 39.71 120.76 42.30 123.97 46.49 124.02   Q 68.65 124.25 117.94 124.06   C 122.36 124.05 125.02 121.07 125.03 116.90   Q 125.04 106.10 124.97 96.94   Q 124.95 93.85 121.75 93.73   C 120.15 93.66 118.83 94.92 117.61 95.82   C 111.05 100.67 101.99 100.45 95.31 96.52   C 81.95 88.66 82.19 68.84 95.18 60.90   Z"/>
   <path fill="#ffffff" d="   M 294.18 130.00   A 12.12 12.12 0.0 0 1 282.06 142.12   L 178.62 142.12   A 12.12 12.12 0.0 0 1 166.50 130.00   L 166.50 27.30   A 12.12 12.12 0.0 0 1 178.62 15.18   L 282.06 15.18   A 12.12 12.12 0.0 0 1 294.18 27.30   L 294.18 130.00   Z   M 216.30 70.80   A 19.34 19.34 0.0 0 0 227.74 76.60   A 19.32 19.30 -65.0 0 0 244.51 70.50   A 19.31 19.31 0.0 0 0 249.45 59.75   A 19.32 19.31 28.3 0 0 245.03 44.99   A 19.32 19.31 74.8 0 0 233.53 38.41   A 19.33 19.30 -56.3 0 0 219.90 41.15   A 19.30 19.29 70.0 0 0 211.12 59.99   A 19.28 19.26 19.4 0 0 216.30 70.80   Z   M 224.38 99.22   A 19.34 19.32 2.7 0 0 208.52 81.80   A 19.36 19.27 -52.2 0 0 196.99 83.28   A 19.35 19.31 89.1 0 0 187.33 93.27   A 19.32 19.30 -44.0 0 0 187.07 107.73   A 19.31 19.30 -89.3 0 0 197.76 118.69   A 19.33 19.31 -55.9 0 0 218.61 114.65   A 19.33 19.30 65.5 0 0 224.38 99.22   Z   M 274.74 100.82   A 19.36 19.36 0.0 0 0 255.38 81.46   A 19.36 19.36 0.0 0 0 236.02 100.82   A 19.36 19.36 0.0 0 0 255.38 120.18   A 19.36 19.36 0.0 0 0 274.74 100.82   Z"/>
   <path fill="#ffffff" d="   M 590.0695 129.8985   A 12.12 12.12 0.0 0 1 577.9707 142.0396   L 474.5109 142.2202   A 12.12 12.12 0.0 0 1 462.3697 130.1214   L 462.1905 27.4215   A 12.12 12.12 0.0 0 1 474.2893 15.2804   L 577.7491 15.0998   A 12.12 12.12 0.0 0 1 589.8903 27.1986   L 590.0695 129.8985   Z   M 485.35 90.30   Q 485.31 98.47 485.44 106.67   Q 485.51 111.65 486.96 114.03   Q 489.78 118.67 496.25 118.67   Q 529.90 118.67 557.75 118.62   Q 563.24 118.61 566.30 114.18   Q 566.59 113.77 566.60 113.26   L 566.69 100.21   L 566.68 67.97   Q 566.77 55.88 566.73 43.82   C 566.72 39.02 561.52 36.70 557.43 36.72   Q 526.76 36.89 495.28 36.76   C 489.10 36.74 485.35 41.22 485.32 47.50   Q 485.23 68.88 485.35 90.30   Z"/>
   <path fill="#ffffff" d="   M 1181.6501 130.2013   A 12.04 12.04 0.0 0 1 1169.5891 142.2203   L 1066.0293 142.0395   A 12.04 12.04 0.0 0 1 1054.0103 129.9785   L 1054.1899 27.1187   A 12.04 12.04 0.0 0 1 1066.2509 15.0997   L 1169.8107 15.2805   A 12.04 12.04 0.0 0 1 1181.8297 27.3415   L 1181.6501 130.2013   Z   M 1150.15 57.91   L 1125.80 33.57   Q 1115.89 33.34 1091.00 33.37   Q 1087.30 33.38 1085.61 35.79   Q 1084.52 37.34 1084.52 39.26   Q 1084.38 77.81 1084.42 117.41   C 1084.42 121.08 1086.64 123.97 1090.56 124.02   Q 1113.28 124.32 1143.79 124.08   C 1149.66 124.03 1150.31 119.69 1150.32 114.48   Q 1150.35 85.89 1150.15 57.91   Z"/>
   <path fill="#ffffff" d="   M 442.05 130.13   A 11.99 11.99 0.0 0 1 430.06 142.12   L 326.46 142.12   A 11.99 11.99 0.0 0 1 314.47 130.13   L 314.47 27.19   A 11.99 11.99 0.0 0 1 326.46 15.20   L 430.06 15.20   A 11.99 11.99 0.0 0 1 442.05 27.19   L 442.05 130.13   Z   M 385.18 55.58   Q 379.68 56.30 374.43 53.90   Q 364.75 49.46 354.72 44.55   A 2.47 2.46 25.1 0 0 351.38 45.76   L 343.94 62.48   A 2.28 2.28 0.0 0 0 345.09 65.49   L 369.92 76.59   Q 378.07 79.39 386.26 78.99   C 399.92 78.34 409.73 67.40 415.75 55.71   A 1.78 1.78 0.0 0 0 415.09 53.38   L 399.15 43.64   A 2.42 2.41 31.9 0 0 395.86 44.40   C 392.92 49.04 390.87 53.63 385.18 55.58   Z   M 374.22 102.49   Q 378.92 103.14 380.77 103.97   Q 391.82 108.90 401.38 113.57   Q 404.11 114.90 405.34 112.13   L 412.60 95.75   A 2.14 2.13 -65.9 0 0 411.53 92.94   L 387.10 81.84   Q 380.10 79.43 372.24 79.36   C 357.64 79.22 348.66 88.92 341.33 101.59   Q 339.97 103.95 342.26 105.39   Q 350.18 110.38 357.33 114.54   A 2.52 2.51 29.5 0 0 360.80 113.58   C 363.83 108.05 367.10 102.51 374.22 102.49   Z"/>
   <path fill="#ffffff" d="   M 738.0895 129.8784   A 12.14 12.14 0.0 0 1 725.9707 142.0396   L 622.4909 142.2202   A 12.14 12.14 0.0 0 1 610.3297 130.1014   L 610.1505 27.4416   A 12.14 12.14 0.0 0 1 622.2693 15.2804   L 725.7491 15.0998   A 12.14 12.14 0.0 0 1 737.9103 27.2186   L 738.0895 129.8784   Z   M 714.10 60.70   C 698.68 25.63 649.48 24.84 632.84 59.27   C 620.69 84.43 635.36 114.32 662.30 121.20   Q 667.85 122.62 676.78 122.59   Q 695.95 122.51 714.20 122.61   A 3.47 3.46 -89.8 0 0 717.68 119.15   Q 717.73 100.82 717.75 81.08   C 717.76 73.82 717.00 67.30 714.10 60.70   Z"/>
   <path fill="#ffffff" d="   M 885.87 130.09   A 12.04 12.04 0.0 0 1 873.83 142.13   L 770.27 142.13   A 12.04 12.04 0.0 0 1 758.23 130.09   L 758.23 27.23   A 12.04 12.04 0.0 0 1 770.27 15.19   L 873.83 15.19   A 12.04 12.04 0.0 0 1 885.87 27.23   L 885.87 130.09   Z   M 854.5542 64.9560   A 11.54 11.54 0.0 0 0 850.9385 49.0415   L 850.3800 48.6898   A 11.54 11.54 0.0 0 0 834.4656 52.3055   L 812.4258 87.3040   A 11.54 11.54 0.0 0 0 816.0415 103.2185   L 816.6000 103.5702   A 11.54 11.54 0.0 0 0 832.5144 99.9545   L 854.5542 64.9560   Z   M 817.8964 64.8140   A 11.51 11.51 0.0 0 0 814.2625 48.9472   L 813.7034 48.5965   A 11.51 11.51 0.0 0 0 797.8366 52.2305   L 775.7836 87.3860   A 11.51 11.51 0.0 0 0 779.4175 103.2528   L 779.9766 103.6035   A 11.51 11.51 0.0 0 0 795.8434 99.9695   L 817.8964 64.8140   Z   M 871.1521 93.2765   A 11.83 11.62 -2.1 0 0 858.9042 82.0978   A 11.83 11.62 -2.1 0 0 847.5079 94.1435   A 11.83 11.62 -2.1 0 0 859.7558 105.3222   A 11.83 11.62 -2.1 0 0 871.1521 93.2765   Z"/>
   <path fill="#ffffff" d="   M 1033.82 130.01   A 12.11 12.11 0.0 0 1 1021.71 142.12   L 918.19 142.12   A 12.11 12.11 0.0 0 1 906.08 130.01   L 906.08 27.31   A 12.11 12.11 0.0 0 1 918.19 15.20   L 1021.71 15.20   A 12.11 12.11 0.0 0 1 1033.82 27.31   L 1033.82 130.01   Z   M 966.99 40.23   Q 963.19 40.93 956.40 43.17   Q 946.98 46.27 939.62 51.37   C 934.07 55.21 930.69 60.93 930.45 67.84   Q 929.82 86.07 939.32 103.73   C 944.18 112.79 950.47 118.07 961.18 117.96   Q 979.18 117.76 996.33 108.28   C 1004.72 103.64 1009.80 96.19 1009.34 86.80   Q 1008.49 69.19 1000.66 54.02   C 996.17 45.32 990.12 39.65 980.27 39.32   Q 973.44 38.31 966.99 40.23   Z"/>
   <path fill="#ee5b28" d="   M 119.19 62.60   C 112.08 57.08 103.00 56.12 95.18 60.90   C 82.19 68.84 81.95 88.66 95.31 96.52   C 101.99 100.45 111.05 100.67 117.61 95.82   C 118.83 94.92 120.15 93.66 121.75 93.73   Q 124.95 93.85 124.97 96.94   Q 125.04 106.10 125.03 116.90   C 125.02 121.07 122.36 124.05 117.94 124.06   Q 68.65 124.25 46.49 124.02   C 42.30 123.97 39.71 120.76 39.72 116.74   Q 39.80 78.00 39.76 40.63   C 39.75 34.64 43.70 33.21 48.85 33.23   Q 80.84 33.34 116.58 33.22   C 121.34 33.20 124.99 34.97 125.01 40.21   Q 125.05 50.17 124.96 60.51   C 124.94 63.89 121.43 64.35 119.19 62.60   Z"/>
   <path fill="#4c8cf4" d="   M 1125.80 33.57   Q 1125.37 40.86 1125.55 47.95   C 1125.68 53.31 1125.41 57.63 1131.74 57.88   Q 1138.67 58.15 1150.15 57.91   Q 1150.35 85.89 1150.32 114.48   C 1150.31 119.69 1149.66 124.03 1143.79 124.08   Q 1113.28 124.32 1090.56 124.02   C 1086.64 123.97 1084.42 121.08 1084.42 117.41   Q 1084.38 77.81 1084.52 39.26   Q 1084.52 37.34 1085.61 35.79   Q 1087.30 33.38 1091.00 33.37   Q 1115.89 33.34 1125.80 33.57   Z   M 1133.8053 79.2927   A 0.70 0.70 0.0 0 0 1133.1029 78.5951   L 1101.6630 78.7049   A 0.70 0.70 0.0 0 0 1100.9655 79.4073   L 1100.9747 82.0473   A 0.70 0.70 0.0 0 0 1101.6771 82.7449   L 1133.1170 82.6351   A 0.70 0.70 0.0 0 0 1133.8145 81.9327   L 1133.8053 79.2927   Z   M 1133.83 87.79   A 0.78 0.78 0.0 0 0 1133.05 87.01   L 1101.67 87.01   A 0.78 0.78 0.0 0 0 1100.89 87.79   L 1100.89 90.19   A 0.78 0.78 0.0 0 0 1101.67 90.97   L 1133.05 90.97   A 0.78 0.78 0.0 0 0 1133.83 90.19   L 1133.83 87.79   Z   M 1133.85 95.99   A 0.73 0.73 0.0 0 0 1133.12 95.26   L 1101.54 95.26   A 0.73 0.73 0.0 0 0 1100.81 95.99   L 1100.81 98.51   A 0.73 0.73 0.0 0 0 1101.54 99.24   L 1133.12 99.24   A 0.73 0.73 0.0 0 0 1133.85 98.51   L 1133.85 95.99   Z   M 1125.5479 104.2184   A 0.74 0.74 0.0 0 0 1124.8066 103.4797   L 1101.5666 103.5203   A 0.74 0.74 0.0 0 0 1100.8279 104.2616   L 1100.8321 106.6816   A 0.74 0.74 0.0 0 0 1101.5734 107.4203   L 1124.8134 107.3797   A 0.74 0.74 0.0 0 0 1125.5521 106.6384   L 1125.5479 104.2184   Z"/>
   <path fill="#c14127" d="   M 714.10 60.70   C 717.00 67.30 717.76 73.82 717.75 81.08   Q 717.73 100.82 717.68 119.15   A 3.47 3.46 -89.8 0 1 714.20 122.61   Q 695.95 122.51 676.78 122.59   Q 667.85 122.62 662.30 121.20   C 635.36 114.32 620.69 84.43 632.84 59.27   C 649.48 24.84 698.68 25.63 714.10 60.70   Z   M 710.95 114.86   Q 710.55 98.46 710.87 81.90   Q 711.04 73.04 709.46 67.71   C 705.37 53.86 693.90 43.94 679.74 41.33   C 656.84 37.11 634.63 55.57 635.62 79.15   C 636.34 96.25 647.03 109.91 663.46 114.41   Q 669.18 115.98 678.92 115.75   Q 693.88 115.40 709.81 115.99   Q 710.98 116.03 710.95 114.86   Z"/>
   <path fill="#a8c6fb" d="   M 1125.80 33.57   L 1150.15 57.91   Q 1138.67 58.15 1131.74 57.88   C 1125.41 57.63 1125.68 53.31 1125.55 47.95   Q 1125.37 40.86 1125.80 33.57   Z"/>
   <path fill="#207bf6" d="   M 566.68 67.97   L 566.53 60.94   Q 566.49 58.98 565.15 60.41   L 563.62 62.05   Q 563.26 62.43 562.76 62.60   Q 562.20 62.78 561.83 63.23   Q 561.43 63.71 560.81 63.83   Q 558.26 64.29 555.69 63.64   Q 555.17 63.51 554.95 63.02   Q 554.51 62.03 553.95 61.16   Q 553.59 60.59 553.87 61.20   Q 553.93 61.33 553.87 61.45   Q 553.49 62.24 553.41 61.37   Q 553.31 60.26 553.41 59.22   Q 553.45 58.80 553.78 59.06   Q 554.06 59.29 554.14 58.93   Q 554.63 56.74 554.24 54.58   Q 554.07 53.69 553.28 53.26   Q 552.70 52.94 552.40 52.40   Q 551.99 51.67 551.15 51.63   Q 550.31 51.60 549.27 51.25   Q 547.32 50.59 546.02 51.73   L 534.91 52.00   A 2.46 2.46 0.0 0 0 532.51 54.44   L 532.36 73.22   L 532.17 66.11   Q 532.15 65.42 531.48 65.59   Q 530.92 65.73 530.85 65.14   A 0.70 0.70 0.0 0 0 529.85 64.60   Q 527.77 65.62 525.49 64.50   Q 525.15 64.33 524.79 64.46   Q 523.72 64.84 522.53 64.46   Q 522.25 64.37 522.35 64.66   Q 522.38 64.75 522.35 64.84   Q 522.28 65.06 522.06 65.01   Q 522.00 65.00 521.97 64.96   Q 521.81 64.76 521.86 65.01   Q 521.91 65.24 521.79 65.43   Q 521.73 65.51 521.65 65.57   Q 521.52 65.65 521.39 65.58   Q 521.03 65.38 521.08 65.79   Q 521.20 66.71 520.81 67.30   L 520.72 54.99   Q 520.69 51.99 517.70 51.86   Q 510.33 51.54 503.44 52.09   Q 500.72 52.30 500.72 55.03   L 500.66 89.71   Q 500.78 88.36 500.29 87.38   Q 499.99 86.76 499.58 87.31   L 498.70 88.46   Q 498.40 88.84 498.00 88.58   Q 496.88 87.84 495.35 88.05   Q 494.22 88.19 493.12 88.05   Q 489.99 87.65 486.95 87.13   Q 486.47 87.05 486.44 87.53   Q 486.34 89.23 485.35 90.30   Q 485.23 68.88 485.32 47.50   C 485.35 41.22 489.10 36.74 495.28 36.76   Q 526.76 36.89 557.43 36.72   C 561.52 36.70 566.72 39.02 566.73 43.82   Q 566.77 55.88 566.68 67.97   Z"/>
   <path fill="#fa677b" d="   M 244.51 70.50   Q 239.67 67.11 232.49 66.51   C 228.61 66.19 224.43 66.20 221.14 68.24   Q 219.32 69.37 217.23 70.33   Q 217.12 70.38 217.04 70.29   Q 216.98 70.24 216.92 70.20   Q 216.77 70.08 216.60 70.18   Q 216.36 70.32 216.30 70.80   A 19.28 19.26 19.4 0 1 211.12 59.99   A 19.30 19.29 70.0 0 1 219.90 41.15   A 19.33 19.30 -56.3 0 1 233.53 38.41   A 19.32 19.31 74.8 0 1 245.03 44.99   A 19.32 19.31 28.3 0 1 249.45 59.75   A 19.31 19.31 0.0 0 1 244.51 70.50   Z"/>
   <path fill="#a8c6fb" d="   M 980.27 39.32   L 966.99 40.23   Q 973.44 38.31 980.27 39.32   Z"/>
   <path fill="#010101" d="   M 980.27 39.32   C 990.12 39.65 996.17 45.32 1000.66 54.02   Q 1008.49 69.19 1009.34 86.80   C 1009.80 96.19 1004.72 103.64 996.33 108.28   Q 979.18 117.76 961.18 117.96   C 950.47 118.07 944.18 112.79 939.32 103.73   Q 929.82 86.07 930.45 67.84   C 930.69 60.93 934.07 55.21 939.62 51.37   Q 946.98 46.27 956.40 43.17   Q 963.19 40.93 966.99 40.23   L 980.27 39.32   Z   M 985.29 66.13   C 978.89 58.29 967.44 56.07 958.83 62.04   C 946.57 70.52 947.55 88.14 960.55 95.68   C 968.16 100.09 978.07 98.58 984.14 91.99   Q 987.42 88.43 987.97 83.89   A 0.53 0.52 77.2 0 0 987.17 83.38   C 985.84 84.23 984.27 84.91 983.50 86.41   C 979.26 94.64 968.52 96.76 961.12 91.61   C 951.40 84.85 951.30 70.33 962.05 64.41   C 969.66 60.22 976.28 62.62 982.32 68.16   Q 983.52 69.26 984.81 68.26   L 985.07 68.06   A 1.36 1.35 51.6 0 0 985.29 66.13   Z   M 984.96 76.94   Q 979.81 73.16 974.09 74.10   C 969.87 74.80 967.45 79.86 970.90 82.90   C 974.16 85.77 979.68 84.80 983.29 83.07   Q 988.58 80.52 992.51 76.29   A 1.61 1.61 0.0 0 0 992.35 73.96   L 991.88 73.57   A 1.38 1.37 -45.9 0 0 990.10 73.60   L 986.36 76.88   Q 985.69 77.47 984.96 76.94   Z"/>
   <path fill="#f27658" d="   M 710.95 114.86   Q 710.98 116.03 709.81 115.99   Q 693.88 115.40 678.92 115.75   Q 669.18 115.98 663.46 114.41   C 647.03 109.91 636.34 96.25 635.62 79.15   C 634.63 55.57 656.84 37.11 679.74 41.33   C 693.90 43.94 705.37 53.86 709.46 67.71   Q 711.04 73.04 710.87 81.90   Q 710.55 98.46 710.95 114.86   Z   M 691.8796 62.6374   A 3.13 3.13 0.0 0 0 688.7441 59.5128   L 657.6042 59.5672   A 3.13 3.13 0.0 0 0 654.4796 62.7026   L 654.4804 63.1626   A 3.13 3.13 0.0 0 0 657.6159 66.2872   L 688.7558 66.2328   A 3.13 3.13 0.0 0 0 691.8804 63.0974   L 691.8796 62.6374   Z   M 702.2197 78.0394   A 3.29 3.29 0.0 0 0 698.9240 74.7551   L 647.4841 74.8449   A 3.29 3.29 0.0 0 0 644.1998 78.1406   L 644.2003 78.3806   A 3.29 3.29 0.0 0 0 647.4960 81.6649   L 698.9359 81.5751   A 3.29 3.29 0.0 0 0 702.2202 78.2794   L 702.2197 78.0394   Z   M 691.95 93.45   A 3.22 3.22 0.0 0 0 688.73 90.23   L 657.53 90.23   A 3.22 3.22 0.0 0 0 654.31 93.45   L 654.31 93.75   A 3.22 3.22 0.0 0 0 657.53 96.97   L 688.73 96.97   A 3.22 3.22 0.0 0 0 691.95 93.75   L 691.95 93.45   Z"/>
   <path fill="#207bf6" d="   M 369.92 76.59   Q 371.40 75.90 371.83 74.70   A 2.47 2.42 81.6 0 1 372.60 73.64   Q 374.24 72.34 374.99 70.49   Q 376.24 67.42 378.28 65.54   Q 378.63 65.22 378.71 64.74   Q 378.77 64.39 379.06 64.19   Q 379.30 64.02 379.45 63.78   L 382.93 58.28   Q 383.19 57.87 383.67 57.81   Q 384.23 57.73 383.94 57.31   Q 383.64 56.89 384.12 56.68   Q 384.97 56.32 385.18 55.58   C 390.87 53.63 392.92 49.04 395.86 44.40   A 2.42 2.41 31.9 0 1 399.15 43.64   L 415.09 53.38   A 1.78 1.78 0.0 0 1 415.75 55.71   C 409.73 67.40 399.92 78.34 386.26 78.99   Q 378.07 79.39 369.92 76.59   Z"/>
   <path fill="#0f66e0" d="   M 385.18 55.58   Q 384.97 56.32 384.12 56.68   Q 383.64 56.89 383.94 57.31   Q 384.23 57.73 383.67 57.81   Q 383.19 57.87 382.93 58.28   L 379.45 63.78   Q 379.30 64.02 379.06 64.19   Q 378.77 64.39 378.71 64.74   Q 378.63 65.22 378.28 65.54   Q 376.24 67.42 374.99 70.49   Q 374.24 72.34 372.60 73.64   A 2.47 2.42 81.6 0 0 371.83 74.70   Q 371.40 75.90 369.92 76.59   L 345.09 65.49   A 2.28 2.28 0.0 0 1 343.94 62.48   L 351.38 45.76   A 2.47 2.46 25.1 0 1 354.72 44.55   Q 364.75 49.46 374.43 53.90   Q 379.68 56.30 385.18 55.58   Z"/>
   <rect fill="#ffcc00" x="-11.87" y="-32.22" transform="translate(833.49,76.13) rotate(32.2)" width="23.74" height="64.44" rx="11.54"/>
   <rect fill="#ff3d58" x="-11.84" y="-32.26" transform="translate(796.84,76.10) rotate(32.1)" width="23.68" height="64.52" rx="11.51"/>
   <path fill="#0f66e0" d="   M 566.68 67.97   L 566.69 100.21   L 566.58 99.18   Q 566.51 98.50 565.88 98.78   Q 565.62 98.89 565.56 99.14   Q 565.52 99.30 565.37 99.36   Q 565.11 99.45 565.10 99.29   Q 565.10 99.03 564.84 99.01   Q 552.93 98.14 540.56 97.21   Q 537.45 96.97 534.92 97.09   Q 532.24 97.22 529.26 97.48   Q 528.74 97.53 528.38 97.82   Q 528.01 98.12 527.53 98.14   L 520.55 98.37   L 520.81 67.30   Q 521.20 66.71 521.08 65.79   Q 521.03 65.38 521.39 65.58   Q 521.52 65.65 521.65 65.57   Q 521.73 65.51 521.79 65.43   Q 521.91 65.24 521.86 65.01   Q 521.81 64.76 521.97 64.96   Q 522.00 65.00 522.06 65.01   Q 522.28 65.06 522.35 64.84   Q 522.38 64.75 522.35 64.66   Q 522.25 64.37 522.53 64.46   Q 523.72 64.84 524.79 64.46   Q 525.15 64.33 525.49 64.50   Q 527.77 65.62 529.85 64.60   A 0.70 0.70 0.0 0 1 530.85 65.14   Q 530.92 65.73 531.48 65.59   Q 532.15 65.42 532.17 66.11   L 532.36 73.22   C 532.28 76.13 531.78 80.08 535.39 80.18   Q 542.44 80.38 549.85 80.18   A 2.78 2.78 0.0 0 0 552.55 77.39   Q 552.49 66.28 552.50 55.00   C 552.50 51.62 548.72 51.43 546.02 51.73   Q 547.32 50.59 549.27 51.25   Q 550.31 51.60 551.15 51.63   Q 551.99 51.67 552.40 52.40   Q 552.70 52.94 553.28 53.26   Q 554.07 53.69 554.24 54.58   Q 554.63 56.74 554.14 58.93   Q 554.06 59.29 553.78 59.06   Q 553.45 58.80 553.41 59.22   Q 553.31 60.26 553.41 61.37   Q 553.49 62.24 553.87 61.45   Q 553.93 61.33 553.87 61.20   Q 553.59 60.59 553.95 61.16   Q 554.51 62.03 554.95 63.02   Q 555.17 63.51 555.69 63.64   Q 558.26 64.29 560.81 63.83   Q 561.43 63.71 561.83 63.23   Q 562.20 62.78 562.76 62.60   Q 563.26 62.43 563.62 62.05   L 565.15 60.41   Q 566.49 58.98 566.53 60.94   L 566.68 67.97   Z"/>
   <path fill="#ffffff" d="   M 532.36 73.22   L 532.51 54.44   A 2.46 2.46 0.0 0 1 534.91 52.00   L 546.02 51.73   C 548.72 51.43 552.50 51.62 552.50 55.00   Q 552.49 66.28 552.55 77.39   A 2.78 2.78 0.0 0 1 549.85 80.18   Q 542.44 80.38 535.39 80.18   C 531.78 80.08 532.28 76.13 532.36 73.22   Z"/>
   <path fill="#ffffff" d="   M 520.81 67.30   L 520.55 98.37   Q 513.72 99.26 504.25 98.91   C 501.64 98.81 500.76 97.70 500.71 95.10   Q 500.66 92.40 500.66 89.71   L 500.72 55.03   Q 500.72 52.30 503.44 52.09   Q 510.33 51.54 517.70 51.86   Q 520.69 51.99 520.72 54.99   L 520.81 67.30   Z"/>
   <path fill="#ffffff" d="   M 958.83 62.04   C 967.44 56.07 978.89 58.29 985.29 66.13   A 1.36 1.35 51.6 0 1 985.07 68.06   L 984.81 68.26   Q 983.52 69.26 982.32 68.16   C 976.28 62.62 969.66 60.22 962.05 64.41   C 951.30 70.33 951.40 84.85 961.12 91.61   C 968.52 96.76 979.26 94.64 983.50 86.41   C 984.27 84.91 985.84 84.23 987.17 83.38   A 0.53 0.52 77.2 0 1 987.97 83.89   Q 987.42 88.43 984.14 91.99   C 978.07 98.58 968.16 100.09 960.55 95.68   C 947.55 88.14 946.57 70.52 958.83 62.04   Z"/>
   <rect fill="#ffffff" x="-18.70" y="-3.36" transform="translate(673.18,62.90) rotate(-0.1)" width="37.40" height="6.72" rx="3.13"/>
   <path fill="#fc943a" d="   M 244.51 70.50   A 19.32 19.30 -65.0 0 1 227.74 76.60   A 19.34 19.34 0.0 0 1 216.30 70.80   Q 216.36 70.32 216.60 70.18   Q 216.77 70.08 216.92 70.20   Q 216.98 70.24 217.04 70.29   Q 217.12 70.38 217.23 70.33   Q 219.32 69.37 221.14 68.24   C 224.43 66.20 228.61 66.19 232.49 66.51   Q 239.67 67.11 244.51 70.50   Z"/>
   <path fill="#ffffff" d="   M 986.36 76.88   L 990.10 73.60   A 1.38 1.37 -45.9 0 1 991.88 73.57   L 992.35 73.96   A 1.61 1.61 0.0 0 1 992.51 76.29   Q 988.58 80.52 983.29 83.07   C 979.68 84.80 974.16 85.77 970.90 82.90   C 967.45 79.86 969.87 74.80 974.09 74.10   Q 979.81 73.16 984.96 76.94   Q 985.69 77.47 986.36 76.88   Z   M 980.42 80.46   A 1.03 1.03 0.0 0 0 980.57 78.45   L 976.43 77.30   A 1.03 1.03 0.0 0 0 975.76 77.35   L 973.60 78.24   A 1.03 1.03 0.0 0 0 973.42 80.05   L 974.66 80.89   A 1.03 1.03 0.0 0 0 975.36 81.06   L 980.42 80.46   Z"/>
   <rect fill="#ffffff" x="-29.01" y="-3.41" transform="translate(673.21,78.21) rotate(-0.1)" width="58.02" height="6.82" rx="3.29"/>
   <path fill="#010101" d="   M 980.42 80.46   L 975.36 81.06   A 1.03 1.03 0.0 0 1 974.66 80.89   L 973.42 80.05   A 1.03 1.03 0.0 0 1 973.60 78.24   L 975.76 77.35   A 1.03 1.03 0.0 0 1 976.43 77.30   L 980.57 78.45   A 1.03 1.03 0.0 0 1 980.42 80.46   Z"/>
   <rect fill="#ffffff" x="-16.42" y="-2.02" transform="translate(1117.39,80.67) rotate(-0.2)" width="32.84" height="4.04" rx="0.70"/>
   <path fill="#207bf6" d="   M 387.10 81.84   Q 386.66 85.42 384.67 86.08   Q 384.08 86.28 383.80 86.83   Q 381.88 90.62 379.71 94.28   Q 379.15 95.23 378.27 95.90   C 376.91 96.93 376.69 98.73 375.08 99.50   A 0.81 0.81 0.0 0 0 374.84 100.79   Q 375.55 101.52 374.22 102.49   C 367.10 102.51 363.83 108.05 360.80 113.58   A 2.52 2.51 29.5 0 1 357.33 114.54   Q 350.18 110.38 342.26 105.39   Q 339.97 103.95 341.33 101.59   C 348.66 88.92 357.64 79.22 372.24 79.36   Q 380.10 79.43 387.10 81.84   Z"/>
   <path fill="#fa677b" d="   M 208.52 81.80   L 207.56 81.90   Q 206.77 81.99 207.05 82.74   Q 208.86 87.61 210.90 91.85   Q 211.35 92.79 212.15 93.65   Q 212.93 94.49 213.74 95.34   Q 216.87 98.61 222.43 102.73   Q 223.06 103.19 223.33 102.47   Q 223.35 102.39 223.43 102.42   Q 223.96 102.61 224.07 101.99   Q 224.29 100.70 224.38 99.22   A 19.33 19.30 65.5 0 1 218.61 114.65   A 19.33 19.31 -55.9 0 1 197.76 118.69   A 19.31 19.30 -89.3 0 1 187.07 107.73   A 19.32 19.30 -44.0 0 1 187.33 93.27   A 19.35 19.31 89.1 0 1 196.99 83.28   A 19.36 19.27 -52.2 0 1 208.52 81.80   Z"/>
   <circle fill="#fa677b" cx="255.38" cy="100.82" r="19.36"/>
   <path fill="#fc943a" d="   M 208.52 81.80   A 19.34 19.32 2.7 0 1 224.38 99.22   Q 224.29 100.70 224.07 101.99   Q 223.96 102.61 223.43 102.42   Q 223.35 102.39 223.33 102.47   Q 223.06 103.19 222.43 102.73   Q 216.87 98.61 213.74 95.34   Q 212.93 94.49 212.15 93.65   Q 211.35 92.79 210.90 91.85   Q 208.86 87.61 207.05 82.74   Q 206.77 81.99 207.56 81.90   L 208.52 81.80   Z"/>
   <path fill="#0f66e0" d="   M 387.10 81.84   L 411.53 92.94   A 2.14 2.13 -65.9 0 1 412.60 95.75   L 405.34 112.13   Q 404.11 114.90 401.38 113.57   Q 391.82 108.90 380.77 103.97   Q 378.92 103.14 374.22 102.49   Q 375.55 101.52 374.84 100.79   A 0.81 0.81 0.0 0 1 375.08 99.50   C 376.69 98.73 376.91 96.93 378.27 95.90   Q 379.15 95.23 379.71 94.28   Q 381.88 90.62 383.80 86.83   Q 384.08 86.28 384.67 86.08   Q 386.66 85.42 387.10 81.84   Z"/>
   <ellipse fill="#00d647" cx="0.00" cy="0.00" transform="translate(859.33,93.71) rotate(-2.1)" rx="11.83" ry="11.62"/>
   <path fill="#0559d3" d="   M 500.66 89.71   Q 500.66 92.40 500.71 95.10   C 500.76 97.70 501.64 98.81 504.25 98.91   Q 513.72 99.26 520.55 98.37   L 527.53 98.14   Q 528.01 98.12 528.38 97.82   Q 528.74 97.53 529.26 97.48   Q 532.24 97.22 534.92 97.09   Q 537.45 96.97 540.56 97.21   Q 552.93 98.14 564.84 99.01   Q 565.10 99.03 565.10 99.29   Q 565.11 99.45 565.37 99.36   Q 565.52 99.30 565.56 99.14   Q 565.62 98.89 565.88 98.78   Q 566.51 98.50 566.58 99.18   L 566.69 100.21   L 566.60 113.26   Q 566.59 113.77 566.30 114.18   Q 563.24 118.61 557.75 118.62   Q 529.90 118.67 496.25 118.67   Q 489.78 118.67 486.96 114.03   Q 485.51 111.65 485.44 106.67   Q 485.31 98.47 485.35 90.30   Q 486.34 89.23 486.44 87.53   Q 486.47 87.05 486.95 87.13   Q 489.99 87.65 493.12 88.05   Q 494.22 88.19 495.35 88.05   Q 496.88 87.84 498.00 88.58   Q 498.40 88.84 498.70 88.46   L 499.58 87.31   Q 499.99 86.76 500.29 87.38   Q 500.78 88.36 500.66 89.71   Z"/>
   <rect fill="#ffffff" x="1100.89" y="87.01" width="32.94" height="3.96" rx="0.78"/>
   <rect fill="#ffffff" x="654.31" y="90.23" width="37.64" height="6.74" rx="3.22"/>
   <rect fill="#ffffff" x="1100.81" y="95.26" width="33.04" height="3.98" rx="0.73"/>
   <rect fill="#ffffff" x="-12.36" y="-1.95" transform="translate(1113.19,105.45) rotate(-0.1)" width="24.72" height="3.90" rx="0.74"/>
</svg>