<svg xmlns="http://www.w3.org/2000/svg" version="1.1" viewBox="0.00 0.00 1860.00 1040.00">
    <g stroke-width="2.00" fill="none" stroke-linecap="butt">
    <path stroke="#808080" vector-effect="non-scaling-stroke" d="   M 580.08 0.00   L 580.00 157.99   Q 580.00 158.29 580.30 158.29   L 1278.46 158.29   Q 1278.95 158.29 1278.95 157.81   L 1278.99 0.00"/>
    <path stroke="#808080" vector-effect="non-scaling-stroke" d="   M 1054.08 335.67   C 1100.67 335.67 1125.46 281.37 1094.39 246.45   C 1084.37 235.19 1069.56 228.72 1054.58 228.73   Q 934.72 228.81 812.65 228.70   Q 802.88 228.70 796.77 230.24   Q 777.13 235.22 765.72 251.18   C 740.11 286.99 766.19 335.62 809.66 335.63   Q 931.14 335.66 1054.08 335.67"/>
    <path stroke="#808080" vector-effect="non-scaling-stroke" d="   M 1194.50 267.40   C 1198.72 263.20 1199.35 257.23 1195.72 252.49   C 1191.61 247.14 1184.00 246.74 1179.19 251.54   Q 1156.77 273.89 1134.56 296.16   Q 1132.34 298.38 1131.64 301.22   Q 1129.57 309.68 1127.74 318.11   A 0.32 0.32 0.0 0 0 1128.12 318.49   Q 1135.60 316.88 1143.85 314.94   C 1146.56 314.30 1148.77 313.08 1150.69 311.15   Q 1171.12 290.64 1194.50 267.40"/>
    <path stroke="#808080" vector-effect="non-scaling-stroke" d="   M 1107.51 460.35   C 1112.28 428.62 1087.95 398.78 1055.20 398.78   Q 931.48 398.78 815.18 398.73   Q 803.00 398.72 796.66 400.23   C 767.66 407.13 749.81 436.98 757.53 466.01   C 762.63 485.14 777.98 499.88 797.18 504.30   Q 803.33 505.71 814.67 505.69   Q 948.52 505.43 1054.96 505.62   C 1081.05 505.67 1103.61 486.24 1107.51 460.35"/>
    <path stroke="#808080" vector-effect="non-scaling-stroke" d="   M 1127.79 487.80   Q 1127.59 488.69 1128.48 488.48   Q 1135.95 486.70 1143.66 485.02   C 1146.72 484.35 1149.09 482.81 1151.26 480.63   Q 1172.43 459.42 1194.31 437.58   C 1205.39 426.52 1189.76 410.92 1178.79 421.91   Q 1156.22 444.53 1135.28 465.43   C 1133.73 466.98 1132.12 469.26 1131.61 471.33   Q 1129.73 479.00 1127.79 487.80"/>
    <path stroke="#808080" vector-effect="non-scaling-stroke" d="   M 756.34 630.18   C 759.95 655.83 782.77 675.68 808.60 675.69   Q 930.82 675.75 1053.79 675.69   Q 1074.70 675.68 1089.59 662.69   C 1122.79 633.71 1109.24 579.96 1066.25 570.08   Q 1060.09 568.66 1046.86 568.68   Q 929.49 568.89 816.23 568.69   Q 803.35 568.67 797.16 570.18   C 769.75 576.85 752.38 602.13 756.34 630.18"/>
    <path stroke="#808080" vector-effect="non-scaling-stroke" d="   M 1144.66 654.76   C 1147.21 654.15 1149.56 652.37 1151.39 650.53   Q 1171.72 630.13 1194.06 607.86   C 1198.63 603.32 1199.85 596.62 1195.03 591.68   C 1190.71 587.25 1183.63 587.08 1179.36 591.36   Q 1157.79 612.94 1135.52 635.26   Q 1132.35 638.44 1131.63 641.34   Q 1129.63 649.29 1127.72 658.20   A 0.28 0.28 0.0 0 0 1128.05 658.53   Q 1136.81 656.63 1144.66 654.76"/>
    <path stroke="#808080" vector-effect="non-scaling-stroke" d="   M 1105.97 807.31   C 1113.81 779.34 1099.48 751.94 1072.41 741.85   C 1067.26 739.93 1060.97 738.81 1055.42 738.81   Q 930.51 738.87 813.52 738.76   Q 803.64 738.75 797.64 740.12   Q 777.34 744.75 765.49 761.55   C 740.30 797.29 766.32 845.75 809.72 845.72   Q 932.23 845.63 1050.06 845.77   Q 1058.84 845.78 1064.94 844.68   C 1084.20 841.21 1100.69 826.12 1105.97 807.31"/>
    <path stroke="#808080" vector-effect="non-scaling-stroke" d="   M 1127.78 827.76   Q 1127.56 828.70 1128.50 828.48   Q 1135.66 826.82 1143.88 825.01   Q 1147.75 824.15 1150.87 821.03   Q 1170.56 801.34 1194.74 777.16   C 1205.18 766.72 1189.60 751.19 1179.19 761.57   Q 1157.53 783.17 1135.13 805.61   Q 1132.21 808.53 1131.38 812.17   Q 1129.73 819.31 1127.78 827.76"/>
    <path stroke="#808080" vector-effect="non-scaling-stroke" d="   M 755.70 962.26   C 755.96 991.78 779.49 1015.70 809.08 1015.70   Q 929.48 1015.71 1054.36 1015.72   C 1080.50 1015.73 1102.87 997.37 1107.35 971.37   C 1112.21 943.22 1094.06 916.17 1066.08 910.07   Q 1059.83 908.71 1051.64 908.73   Q 931.60 908.93 811.10 908.71   Q 804.54 908.69 798.04 910.05   C 773.68 915.12 755.48 937.29 755.70 962.26"/>
    <path stroke="#808080" vector-effect="non-scaling-stroke" d="   M 1259.31 28.32   A 0.33 0.33 0.0 0 1 1259.32 27.85   L 1270.59 16.88   A 0.33 0.33 0.0 0 0 1270.60 16.41   L 1264.70 10.43   A 0.33 0.33 0.0 0 0 1264.23 10.43   L 1253.05 21.63   A 0.33 0.33 0.0 0 1 1252.59 21.63   L 1241.18 10.15   A 0.33 0.33 0.0 0 0 1240.72 10.15   L 1234.76 16.00   A 0.33 0.33 0.0 0 0 1234.75 16.47   L 1246.32 28.09   A 0.33 0.33 0.0 0 1 1246.32 28.55   L 1234.79 39.97   A 0.33 0.33 0.0 0 0 1234.79 40.43   L 1240.68 46.40   A 0.33 0.33 0.0 0 0 1241.14 46.40   L 1252.54 34.94   A 0.33 0.33 0.0 0 1 1253.00 34.94   L 1264.42 46.18   A 0.33 0.33 0.0 0 0 1264.88 46.18   L 1270.71 40.34   A 0.33 0.33 0.0 0 0 1270.71 39.88   L 1259.31 28.32"/>
    <path stroke="#808080" vector-effect="non-scaling-stroke" d="   M 876.77 54.89   A 0.32 0.32 0.0 0 1 877.09 54.57   L 898.26 54.39   A 0.32 0.32 0.0 0 0 898.58 54.07   L 898.60 42.02   A 0.32 0.32 0.0 0 0 898.28 41.70   L 839.78 41.71   A 0.32 0.32 0.0 0 0 839.46 42.03   L 839.47 54.21   A 0.32 0.32 0.0 0 0 839.79 54.53   L 860.88 54.54   A 0.32 0.32 0.0 0 1 861.20 54.86   L 861.21 109.40   A 0.32 0.32 0.0 0 0 861.53 109.72   L 876.49 109.73   A 0.32 0.32 0.0 0 0 876.81 109.41   L 876.77 54.89"/>
    <path stroke="#808080" vector-effect="non-scaling-stroke" d="   M 926.37 57.13   Q 920.70 56.96 915.33 57.47   C 913.66 57.63 911.88 58.34 910.21 58.80   Q 908.39 59.29 907.02 60.22   Q 905.52 61.23 903.89 61.97   Q 902.03 62.82 902.92 64.65   L 907.02 73.03   Q 907.26 73.52 907.79 73.36   Q 909.00 72.99 909.78 71.97   A 1.62 1.59 9.9 0 1 910.58 71.42   Q 912.29 70.89 914.04 70.26   Q 919.50 68.26 925.07 68.96   C 930.78 69.67 934.13 72.60 934.54 78.32   Q 934.60 79.16 933.76 79.14   Q 925.66 78.96 917.98 79.30   C 908.16 79.73 899.27 84.82 900.14 96.00   Q 900.75 103.80 907.59 107.66   C 914.90 111.78 928.76 112.38 934.85 104.27   Q 935.53 103.36 935.53 104.50   L 935.52 109.13   Q 935.52 109.74 936.13 109.74   L 949.27 109.72   A 0.40 0.39 -0.0 0 0 949.67 109.33   Q 949.75 94.13 949.67 78.55   Q 949.65 73.31 947.72 68.74   Q 945.46 63.38 940.46 60.28   C 938.92 59.33 937.10 58.82 935.42 58.10   Q 933.53 57.28 931.53 57.09   Q 927.01 56.64 922.38 56.73   Q 922.17 56.73 922.18 56.94   L 922.18 56.95   Q 922.18 57.10 922.34 57.10   Q 924.28 57.10 926.37 57.13   Q 926.62 57.14 926.37 57.13"/>
    <path stroke="#808080" vector-effect="non-scaling-stroke" d="   M 1002.66 63.42   Q 998.79 58.83 992.03 57.31   Q 985.42 55.81 978.49 57.65   Q 968.13 60.39 963.05 69.38   Q 958.57 77.32 960.51 87.68   Q 962.34 97.47 971.53 103.31   C 979.99 108.69 994.78 109.07 1002.08 101.26   A 0.22 0.21 62.7 0 1 1002.45 101.38   C 1003.16 107.22 1000.84 114.79 994.37 116.31   Q 981.01 119.47 969.14 111.73   Q 968.69 111.44 968.43 111.90   L 962.97 121.80   A 0.56 0.55 32.6 0 0 963.13 122.52   Q 966.30 124.85 969.87 126.17   C 988.92 133.24 1017.50 130.56 1017.66 103.63   Q 1017.79 80.78 1017.70 57.74   A 0.24 0.24 0.0 0 0 1017.46 57.50   L 1003.96 57.50   Q 1003.43 57.50 1003.41 58.03   L 1003.25 63.22   Q 1003.22 64.08 1002.66 63.42"/>
    <path stroke="#808080" vector-effect="non-scaling-stroke" d="   M 917.53 89.19   C 913.83 91.51 913.77 97.22 917.85 99.12   Q 922.99 101.52 928.44 99.38   Q 935.72 96.53 934.44 88.43   Q 934.36 87.87 933.80 87.86   Q 927.46 87.73 921.27 88.07   Q 919.12 88.19 917.53 89.19"/>
    <path stroke="#808080" vector-effect="non-scaling-stroke" d="   M 1002.9874 82.2776   A 13.94 12.91 1.1 0 0 989.2978 69.1024   A 13.94 12.91 1.1 0 0 975.1126 81.7424   A 13.94 12.91 1.1 0 0 988.8022 94.9176   A 13.94 12.91 1.1 0 0 1002.9874 82.2776"/>
    <path stroke="#808080" vector-effect="non-scaling-stroke" d="   M 1089.44 312.53   C 1101.04 299.41 1103.96 280.73 1097.40 264.75   C 1091.62 250.64 1078.77 239.61 1063.26 236.90   Q 1057.85 235.96 1051.86 235.96   Q 930.46 236.06 816.60 235.94   Q 804.68 235.92 798.91 237.20   C 772.64 242.98 757.36 270.36 765.05 295.66   C 771.25 316.06 789.41 328.46 810.86 328.46   Q 931.25 328.43 1053.46 328.43   Q 1075.38 328.43 1089.44 312.53"/>
    <path stroke="#808080" vector-effect="non-scaling-stroke" d="   M 920.48 261.82   A 0.38 0.38 0.0 0 0 920.86 262.20   L 928.66 262.13   A 0.38 0.38 0.0 0 1 929.04 262.51   L 929.00 296.34   A 0.38 0.38 0.0 0 0 929.38 296.72   L 938.39 296.74   A 0.38 0.38 0.0 0 0 938.77 296.36   L 938.77 254.65   A 0.38 0.38 0.0 0 0 938.39 254.27   L 920.84 254.29   A 0.38 0.38 0.0 0 0 920.46 254.67   L 920.48 261.82"/>
    <path stroke="#808080" vector-effect="non-scaling-stroke" d="   M 1181.68 257.45   L 1188.79 264.58   A 0.50 0.50 0.0 0 0 1189.49 264.58   L 1190.76 263.32   A 5.77 5.35 -44.9 0 0 1191.07 255.45   L 1190.82 255.20   A 5.77 5.35 -44.9 0 0 1182.95 255.48   L 1181.69 256.74   A 0.50 0.50 0.0 0 0 1181.68 257.45"/>
    <path stroke="#808080" vector-effect="non-scaling-stroke" d="   M 1184.7927 269.2638   A 0.66 0.66 0.0 0 0 1184.7927 268.3304   L 1177.9196 261.4573   A 0.66 0.66 0.0 0 0 1176.9862 261.4573   L 1174.9073 263.5362   A 0.66 0.66 0.0 0 0 1174.9073 264.4696   L 1181.7804 271.3427   A 0.66 0.66 0.0 0 0 1182.7138 271.3427   L 1184.7927 269.2638"/>
    <path stroke="#808080" vector-effect="non-scaling-stroke" d="   M 1170.9074 268.2250   A 0.48 0.48 0.0 0 0 1170.2286 268.2250   L 1139.6250 298.8286   A 0.48 0.48 0.0 0 0 1139.6250 299.5074   L 1146.7526 306.6350   A 0.48 0.48 0.0 0 0 1147.4314 306.6350   L 1178.0350 276.0314   A 0.48 0.48 0.0 0 0 1178.0350 275.3526   L 1170.9074 268.2250"/>
    <path stroke="#808080" vector-effect="non-scaling-stroke" d="   M 1141.56 309.90   A 0.31 0.31 0.0 0 0 1141.72 309.38   L 1136.93 304.54   A 0.31 0.31 0.0 0 0 1136.41 304.69   L 1135.09 310.79   A 0.31 0.31 0.0 0 0 1135.45 311.16   L 1141.56 309.90"/>
    <path stroke="#808080" vector-effect="non-scaling-stroke" d="   M 1100.5576 450.7257   A 44.85 44.85 0.0 0 0 1055.6294 405.9540   L 808.0698 406.3861   A 44.85 44.85 0.0 0 0 763.2981 451.3143   L 763.3024 453.7343   A 44.85 44.85 0.0 0 0 808.2306 498.5060   L 1055.7902 498.0739   A 44.85 44.85 0.0 0 0 1100.5619 453.1457   L 1100.5576 450.7257"/>
    <path stroke="#808080" vector-effect="non-scaling-stroke" d="   M 929.97 457.99   A 0.43 0.43 0.0 0 1 929.69 457.24   Q 934.90 452.74 939.30 448.03   C 944.91 442.01 943.36 432.36 934.63 430.39   Q 924.29 428.04 917.17 434.88   Q 916.17 435.85 917.33 436.62   L 921.09 439.14   Q 922.08 439.80 922.91 438.95   Q 925.93 435.85 930.43 436.49   C 937.04 437.44 934.67 443.64 931.49 446.61   Q 925.23 452.44 919.53 457.74   Q 916.87 460.21 918.10 463.96   Q 918.26 464.46 918.78 464.46   L 943.04 464.48   Q 943.56 464.48 943.56 463.96   L 943.59 458.55   A 0.55 0.55 0.0 0 0 943.04 457.99   L 929.97 457.99"/>
    <path stroke="#808080" vector-effect="non-scaling-stroke" d="   M 1181.77 427.63   L 1188.74 434.50   A 0.68 0.68 0.0 0 0 1189.70 434.49   L 1190.69 433.48   A 5.98 5.38 -45.4 0 0 1191.06 425.45   L 1190.79 425.18   A 5.98 5.38 -45.4 0 0 1182.76 425.66   L 1181.76 426.67   A 0.68 0.68 0.0 0 0 1181.77 427.63"/>
    <path stroke="#808080" vector-effect="non-scaling-stroke" d="   M 1184.8338 439.2494   A 0.66 0.66 0.0 0 0 1184.8306 438.3160   L 1177.9194 431.4529   A 0.66 0.66 0.0 0 0 1176.9860 431.4561   L 1174.8862 433.5706   A 0.66 0.66 0.0 0 0 1174.8894 434.5040   L 1181.8006 441.3671   A 0.66 0.66 0.0 0 0 1182.7340 441.3639   L 1184.8338 439.2494"/>
    <path stroke="#808080" vector-effect="non-scaling-stroke" d="   M 1170.9610 438.2986   A 0.58 0.58 0.0 0 0 1170.1408 438.2986   L 1139.6786 468.7608   A 0.58 0.58 0.0 0 0 1139.6786 469.5810   L 1146.6790 476.5814   A 0.58 0.58 0.0 0 0 1147.4992 476.5814   L 1177.9614 446.1192   A 0.58 0.58 0.0 0 0 1177.9614 445.2990   L 1170.9610 438.2986"/>
    <path stroke="#808080" vector-effect="non-scaling-stroke" d="   M 1141.41 479.90   A 0.41 0.41 0.0 0 0 1141.60 479.21   L 1137.03 474.73   A 0.41 0.41 0.0 0 0 1136.35 474.94   L 1135.08 480.80   A 0.41 0.41 0.0 0 0 1135.58 481.29   L 1141.41 479.90"/>
    <path stroke="#808080" vector-effect="non-scaling-stroke" d="   M 1100.5320 621.2943   A 44.82 44.82 0.0 0 0 1055.7903 576.3961   L 808.2106 575.9640   A 44.82 44.82 0.0 0 0 763.3125 620.7057   L 763.3080 623.2457   A 44.82 44.82 0.0 0 0 808.0497 668.1439   L 1055.6294 668.5760   A 44.82 44.82 0.0 0 0 1100.5275 623.8343   L 1100.5320 621.2943"/>
    <path stroke="#808080" vector-effect="non-scaling-stroke" d="   M 932.77 606.73   Q 933.61 606.73 933.07 607.37   Q 930.46 610.48 927.61 613.49   C 926.21 614.97 926.64 617.20 926.67 619.06   Q 926.68 619.83 927.45 619.80   C 930.55 619.68 935.98 619.38 936.60 623.40   Q 937.01 626.00 934.81 627.27   C 930.75 629.61 924.93 628.05 921.24 625.69   A 0.68 0.68 0.0 0 0 920.27 625.96   L 917.89 630.71   A 0.88 0.88 0.0 0 0 918.25 631.87   C 925.36 635.74 937.62 637.18 942.92 629.59   C 945.61 625.73 945.09 619.65 941.12 616.58   Q 938.95 614.90 936.08 614.32   A 0.43 0.43 0.0 0 1 935.84 613.61   L 942.56 606.07   Q 942.96 605.62 942.96 605.02   L 943.01 601.11   Q 943.02 600.44 942.36 600.44   L 919.78 600.44   Q 919.25 600.44 919.25 600.97   L 919.26 606.25   A 0.49 0.48 0.0 0 0 919.75 606.73   L 932.77 606.73"/>
    <path stroke="#808080" vector-effect="non-scaling-stroke" d="   M 1181.77 597.64   L 1188.73 604.50   A 0.70 0.70 0.0 0 0 1189.72 604.50   L 1190.60 603.61   A 6.11 5.48 -45.4 0 0 1190.99 595.41   L 1190.83 595.25   A 6.11 5.48 -45.4 0 0 1182.64 595.76   L 1181.76 596.65   A 0.70 0.70 0.0 0 0 1181.77 597.64"/>
    <path stroke="#808080" vector-effect="non-scaling-stroke" d="   M 1177.9791 601.5227   A 0.72 0.72 0.0 0 0 1176.9609 601.5227   L 1174.9527 603.5309   A 0.72 0.72 0.0 0 0 1174.9527 604.5491   L 1181.7409 611.3373   A 0.72 0.72 0.0 0 0 1182.7591 611.3373   L 1184.7673 609.3291   A 0.72 0.72 0.0 0 0 1184.7673 608.3109   L 1177.9791 601.5227"/>
    <path stroke="#808080" vector-effect="non-scaling-stroke" d="   M 1178.0945 616.0119   A 0.41 0.41 0.0 0 0 1178.0945 615.4321   L 1170.8679 608.2055   A 0.41 0.41 0.0 0 0 1170.2881 608.2055   L 1139.5855 638.9081   A 0.41 0.41 0.0 0 0 1139.5855 639.4879   L 1146.8121 646.7145   A 0.41 0.41 0.0 0 0 1147.3919 646.7145   L 1178.0945 616.0119"/>
    <path stroke="#808080" vector-effect="non-scaling-stroke" d="   M 1141.47 649.97   A 0.36 0.36 0.0 0 0 1141.65 649.36   L 1137.03 644.69   A 0.36 0.36 0.0 0 0 1136.42 644.87   L 1135.11 650.78   A 0.36 0.36 0.0 0 0 1135.54 651.21   L 1141.47 649.97"/>
    <path stroke="#808080" vector-effect="non-scaling-stroke" d="   M 1100.5320 791.3143   A 44.80 44.80 0.0 0 0 1055.8102 746.4362   L 808.1706 746.0040   A 44.80 44.80 0.0 0 0 763.2925 790.7257   L 763.2880 793.2657   A 44.80 44.80 0.0 0 0 808.0098 838.1438   L 1055.6494 838.5760   A 44.80 44.80 0.0 0 0 1100.5275 793.8543   L 1100.5320 791.3143"/>
    <path stroke="#808080" vector-effect="non-scaling-stroke" d="   M 934.98 797.88   L 934.96 804.21   Q 934.96 804.47 935.21 804.47   L 942.47 804.47   Q 942.70 804.47 942.70 804.25   L 942.70 797.92   Q 942.70 797.28 943.33 797.28   L 947.22 797.29   Q 948.24 797.30 948.24 796.28   L 948.24 792.04   Q 948.25 790.84 947.04 790.83   L 943.26 790.81   Q 942.72 790.80 942.72 790.26   L 942.69 785.19   Q 942.68 784.46 941.95 784.46   L 936.00 784.51   A 0.74 0.74 0.0 0 0 935.27 785.25   L 935.29 790.29   Q 935.29 790.86 934.71 790.86   L 926.77 790.84   A 0.35 0.35 0.0 0 1 926.49 790.29   L 940.42 771.21   A 0.50 0.50 0.0 0 0 940.01 770.42   L 933.27 770.44   Q 932.67 770.44 932.31 770.93   Q 925.31 780.48 917.58 790.76   C 916.34 792.41 916.66 794.84 916.72 796.74   Q 916.74 797.27 917.28 797.28   L 934.38 797.28   Q 934.99 797.28 934.98 797.88"/>
    <path stroke="#808080" vector-effect="non-scaling-stroke" d="   M 1181.81 767.66   L 1188.62 774.54   A 0.75 0.75 0.0 0 0 1189.68 774.54   L 1190.60 773.63   A 6.08 5.46 -44.7 0 0 1191.08 765.48   L 1190.89 765.29   A 6.08 5.46 -44.7 0 0 1182.73 765.69   L 1181.82 766.59   A 0.75 0.75 0.0 0 0 1181.81 767.66"/>
    <path stroke="#808080" vector-effect="non-scaling-stroke" d="   M 1184.7565 779.3264   A 0.70 0.70 0.0 0 0 1184.7548 778.3365   L 1177.9264 771.5319   A 0.70 0.70 0.0 0 0 1176.9364 771.5336   L 1174.9035 773.5736   A 0.70 0.70 0.0 0 0 1174.9052 774.5635   L 1181.7336 781.3681   A 0.70 0.70 0.0 0 0 1182.7236 781.3664   L 1184.7565 779.3264"/>
    <path stroke="#808080" vector-effect="non-scaling-stroke" d="   M 1178.1157 786.0149   A 0.39 0.39 0.0 0 0 1178.1157 785.4633   L 1170.8467 778.1943   A 0.39 0.39 0.0 0 0 1170.2951 778.1943   L 1139.5643 808.9251   A 0.39 0.39 0.0 0 0 1139.5643 809.4767   L 1146.8333 816.7457   A 0.39 0.39 0.0 0 0 1147.3849 816.7457   L 1178.1157 786.0149"/>
    <path stroke="#808080" vector-effect="non-scaling-stroke" d="   M 1141.41 819.96   A 0.36 0.36 0.0 0 0 1141.60 819.36   L 1137.02 814.68   A 0.36 0.36 0.0 0 0 1136.41 814.85   L 1135.06 820.76   A 0.36 0.36 0.0 0 0 1135.48 821.20   L 1141.41 819.96"/>
    <path stroke="#808080" vector-effect="non-scaling-stroke" d="   M 1085.95 928.34   C 1079.92 922.66 1071.67 918.49 1063.32 916.90   Q 1059.60 916.20 1052.13 916.20   Q 937.81 916.19 823.49 916.19   Q 806.29 916.19 803.53 916.54   C 774.79 920.10 756.27 948.96 765.32 976.53   C 771.68 995.94 789.31 1008.50 809.93 1008.48   Q 925.30 1008.36 1047.52 1008.52   Q 1060.48 1008.53 1066.03 1007.06   C 1101.76 997.57 1112.68 953.53 1085.95 928.34"/>
    <path stroke="#808080" vector-effect="non-scaling-stroke" d="   M 927.91 959.04   A 0.42 0.42 0.0 0 1 927.49 959.46   L 894.70 959.47   A 0.42 0.42 0.0 0 0 894.28 959.90   L 894.35 964.80   A 0.42 0.42 0.0 0 0 894.77 965.21   L 927.48 965.18   A 0.42 0.42 0.0 0 1 927.90 965.60   L 927.91 998.21   A 0.42 0.42 0.0 0 0 928.32 998.63   L 933.04 998.73   A 0.42 0.42 0.0 0 0 933.47 998.31   L 933.47 965.64   A 0.42 0.42 0.0 0 1 933.89 965.22   L 966.75 965.12   A 0.42 0.42 0.0 0 0 967.17 964.70   L 967.20 959.91   A 0.42 0.42 0.0 0 0 966.78 959.49   L 933.89 959.45   A 0.42 0.42 0.0 0 1 933.47 959.03   L 933.47 926.17   A 0.42 0.42 0.0 0 0 933.05 925.75   L 928.34 925.78   A 0.42 0.42 0.0 0 0 927.92 926.20   L 927.91 959.04"/>
    </g>
    <path fill="#ffffff" d="   M 0.00 0.00   L 580.08 0.00   L 580.00 157.99   Q 580.00 158.29 580.30 158.29   L 1278.46 158.29   Q 1278.95 158.29 1278.95 157.81   L 1278.99 0.00   L 1860.00 0.00   L 1860.00 1040.00   L 0.00 1040.00   L 0.00 0.00   Z   M 1054.08 335.67   C 1100.67 335.67 1125.46 281.37 1094.39 246.45   C 1084.37 235.19 1069.56 228.72 1054.58 228.73   Q 934.72 228.81 812.65 228.70   Q 802.88 228.70 796.77 230.24   Q 777.13 235.22 765.72 251.18   C 740.11 286.99 766.19 335.62 809.66 335.63   Q 931.14 335.66 1054.08 335.67   Z   M 1194.50 267.40   C 1198.72 263.20 1199.35 257.23 1195.72 252.49   C 1191.61 247.14 1184.00 246.74 1179.19 251.54   Q 1156.77 273.89 1134.56 296.16   Q 1132.34 298.38 1131.64 301.22   Q 1129.57 309.68 1127.74 318.11   A 0.32 0.32 0.0 0 0 1128.12 318.49   Q 1135.60 316.88 1143.85 314.94   C 1146.56 314.30 1148.77 313.08 1150.69 311.15   Q 1171.12 290.64 1194.50 267.40   Z   M 1107.51 460.35   C 1112.28 428.62 1087.95 398.78 1055.20 398.78   Q 931.48 398.78 815.18 398.73   Q 803.00 398.72 796.66 400.23   C 767.66 407.13 749.81 436.98 757.53 466.01   C 762.63 485.14 777.98 499.88 797.18 504.30   Q 803.33 505.71 814.67 505.69   Q 948.52 505.43 1054.96 505.62   C 1081.05 505.67 1103.61 486.24 1107.51 460.35   Z   M 1127.79 487.80   Q 1127.59 488.69 1128.48 488.48   Q 1135.95 486.70 1143.66 485.02   C 1146.72 484.35 1149.09 482.81 1151.26 480.63   Q 1172.43 459.42 1194.31 437.58   C 1205.39 426.52 1189.76 410.92 1178.79 421.91   Q 1156.22 444.53 1135.28 465.43   C 1133.73 466.98 1132.12 469.26 1131.61 471.33   Q 1129.73 479.00 1127.79 487.80   Z   M 756.34 630.18   C 759.95 655.83 782.77 675.68 808.60 675.69   Q 930.82 675.75 1053.79 675.69   Q 1074.70 675.68 1089.59 662.69   C 1122.79 633.71 1109.24 579.96 1066.25 570.08   Q 1060.09 568.66 1046.86 568.68   Q 929.49 568.89 816.23 568.69   Q 803.35 568.67 797.16 570.18   C 769.75 576.85 752.38 602.13 756.34 630.18   Z   M 1144.66 654.76   C 1147.21 654.15 1149.56 652.37 1151.39 650.53   Q 1171.72 630.13 1194.06 607.86   C 1198.63 603.32 1199.85 596.62 1195.03 591.68   C 1190.71 587.25 1183.63 587.08 1179.36 591.36   Q 1157.79 612.94 1135.52 635.26   Q 1132.35 638.44 1131.63 641.34   Q 1129.63 649.29 1127.72 658.20   A 0.28 0.28 0.0 0 0 1128.05 658.53   Q 1136.81 656.63 1144.66 654.76   Z   M 1105.97 807.31   C 1113.81 779.34 1099.48 751.94 1072.41 741.85   C 1067.26 739.93 1060.97 738.81 1055.42 738.81   Q 930.51 738.87 813.52 738.76   Q 803.64 738.75 797.64 740.12   Q 777.34 744.75 765.49 761.55   C 740.30 797.29 766.32 845.75 809.72 845.72   Q 932.23 845.63 1050.06 845.77   Q 1058.84 845.78 1064.94 844.68   C 1084.20 841.21 1100.69 826.12 1105.97 807.31   Z   M 1127.78 827.76   Q 1127.56 828.70 1128.50 828.48   Q 1135.66 826.82 1143.88 825.01   Q 1147.75 824.15 1150.87 821.03   Q 1170.56 801.34 1194.74 777.16   C 1205.18 766.72 1189.60 751.19 1179.19 761.57   Q 1157.53 783.17 1135.13 805.61   Q 1132.21 808.53 1131.38 812.17   Q 1129.73 819.31 1127.78 827.76   Z   M 755.70 962.26   C 755.96 991.78 779.49 1015.70 809.08 1015.70   Q 929.48 1015.71 1054.36 1015.72   C 1080.50 1015.73 1102.87 997.37 1107.35 971.37   C 1112.21 943.22 1094.06 916.17 1066.08 910.07   Q 1059.83 908.71 1051.64 908.73   Q 931.60 908.93 811.10 908.71   Q 804.54 908.69 798.04 910.05   C 773.68 915.12 755.48 937.29 755.70 962.26   Z"/>
    <path fill="#000000" d="   M 580.08 0.00   L 1278.99 0.00   L 1278.95 157.81   Q 1278.95 158.29 1278.46 158.29   L 580.30 158.29   Q 580.00 158.29 580.00 157.99   L 580.08 0.00   Z   M 1259.31 28.32   A 0.33 0.33 0.0 0 1 1259.32 27.85   L 1270.59 16.88   A 0.33 0.33 0.0 0 0 1270.60 16.41   L 1264.70 10.43   A 0.33 0.33 0.0 0 0 1264.23 10.43   L 1253.05 21.63   A 0.33 0.33 0.0 0 1 1252.59 21.63   L 1241.18 10.15   A 0.33 0.33 0.0 0 0 1240.72 10.15   L 1234.76 16.00   A 0.33 0.33 0.0 0 0 1234.75 16.47   L 1246.32 28.09   A 0.33 0.33 0.0 0 1 1246.32 28.55   L 1234.79 39.97   A 0.33 0.33 0.0 0 0 1234.79 40.43   L 1240.68 46.40   A 0.33 0.33 0.0 0 0 1241.14 46.40   L 1252.54 34.94   A 0.33 0.33 0.0 0 1 1253.00 34.94   L 1264.42 46.18   A 0.33 0.33 0.0 0 0 1264.88 46.18   L 1270.71 40.34   A 0.33 0.33 0.0 0 0 1270.71 39.88   L 1259.31 28.32   Z   M 876.77 54.89   A 0.32 0.32 0.0 0 1 877.09 54.57   L 898.26 54.39   A 0.32 0.32 0.0 0 0 898.58 54.07   L 898.60 42.02   A 0.32 0.32 0.0 0 0 898.28 41.70   L 839.78 41.71   A 0.32 0.32 0.0 0 0 839.46 42.03   L 839.47 54.21   A 0.32 0.32 0.0 0 0 839.79 54.53   L 860.88 54.54   A 0.32 0.32 0.0 0 1 861.20 54.86   L 861.21 109.40   A 0.32 0.32 0.0 0 0 861.53 109.72   L 876.49 109.73   A 0.32 0.32 0.0 0 0 876.81 109.41   L 876.77 54.89   Z   M 926.37 57.13   Q 920.70 56.96 915.33 57.47   C 913.66 57.63 911.88 58.34 910.21 58.80   Q 908.39 59.29 907.02 60.22   Q 905.52 61.23 903.89 61.97   Q 902.03 62.82 902.92 64.65   L 907.02 73.03   Q 907.26 73.52 907.79 73.36   Q 909.00 72.99 909.78 71.97   A 1.62 1.59 9.9 0 1 910.58 71.42   Q 912.29 70.89 914.04 70.26   Q 919.50 68.26 925.07 68.96   C 930.78 69.67 934.13 72.60 934.54 78.32   Q 934.60 79.16 933.76 79.14   Q 925.66 78.96 917.98 79.30   C 908.16 79.73 899.27 84.82 900.14 96.00   Q 900.75 103.80 907.59 107.66   C 914.90 111.78 928.76 112.38 934.85 104.27   Q 935.53 103.36 935.53 104.50   L 935.52 109.13   Q 935.52 109.74 936.13 109.74   L 949.27 109.72   A 0.40 0.39 -0.0 0 0 949.67 109.33   Q 949.75 94.13 949.67 78.55   Q 949.65 73.31 947.72 68.74   Q 945.46 63.38 940.46 60.28   C 938.92 59.33 937.10 58.82 935.42 58.10   Q 933.53 57.28 931.53 57.09   Q 927.01 56.64 922.38 56.73   Q 922.17 56.73 922.18 56.94   L 922.18 56.95   Q 922.18 57.10 922.34 57.10   Q 924.28 57.10 926.37 57.13   Q 926.62 57.14 926.37 57.13   Z   M 1002.66 63.42   Q 998.79 58.83 992.03 57.31   Q 985.42 55.81 978.49 57.65   Q 968.13 60.39 963.05 69.38   Q 958.57 77.32 960.51 87.68   Q 962.34 97.47 971.53 103.31   C 979.99 108.69 994.78 109.07 1002.08 101.26   A 0.22 0.21 62.7 0 1 1002.45 101.38   C 1003.16 107.22 1000.84 114.79 994.37 116.31   Q 981.01 119.47 969.14 111.73   Q 968.69 111.44 968.43 111.90   L 962.97 121.80   A 0.56 0.55 32.6 0 0 963.13 122.52   Q 966.30 124.85 969.87 126.17   C 988.92 133.24 1017.50 130.56 1017.66 103.63   Q 1017.79 80.78 1017.70 57.74   A 0.24 0.24 0.0 0 0 1017.46 57.50   L 1003.96 57.50   Q 1003.43 57.50 1003.41 58.03   L 1003.25 63.22   Q 1003.22 64.08 1002.66 63.42   Z"/>
    <path fill="#ffffff" d="   M 1259.31 28.32   L 1270.71 39.88   A 0.33 0.33 0.0 0 1 1270.71 40.34   L 1264.88 46.18   A 0.33 0.33 0.0 0 1 1264.42 46.18   L 1253.00 34.94   A 0.33 0.33 0.0 0 0 1252.54 34.94   L 1241.14 46.40   A 0.33 0.33 0.0 0 1 1240.68 46.40   L 1234.79 40.43   A 0.33 0.33 0.0 0 1 1234.79 39.97   L 1246.32 28.55   A 0.33 0.33 0.0 0 0 1246.32 28.09   L 1234.75 16.47   A 0.33 0.33 0.0 0 1 1234.76 16.00   L 1240.72 10.15   A 0.33 0.33 0.0 0 1 1241.18 10.15   L 1252.59 21.63   A 0.33 0.33 0.0 0 0 1253.05 21.63   L 1264.23 10.43   A 0.33 0.33 0.0 0 1 1264.70 10.43   L 1270.60 16.41   A 0.33 0.33 0.0 0 1 1270.59 16.88   L 1259.32 27.85   A 0.33 0.33 0.0 0 0 1259.31 28.32   Z"/>
    <path fill="#ffffff" d="   M 876.77 54.89   L 876.81 109.41   A 0.32 0.32 0.0 0 1 876.49 109.73   L 861.53 109.72   A 0.32 0.32 0.0 0 1 861.21 109.40   L 861.20 54.86   A 0.32 0.32 0.0 0 0 860.88 54.54   L 839.79 54.53   A 0.32 0.32 0.0 0 1 839.47 54.21   L 839.46 42.03   A 0.32 0.32 0.0 0 1 839.78 41.71   L 898.28 41.70   A 0.32 0.32 0.0 0 1 898.60 42.02   L 898.58 54.07   A 0.32 0.32 0.0 0 1 898.26 54.39   L 877.09 54.57   A 0.32 0.32 0.0 0 0 876.77 54.89   Z"/>
    <path fill="#ffffff" d="   M 926.37 57.13   Q 924.28 57.10 922.34 57.10   Q 922.18 57.10 922.18 56.95   L 922.18 56.94   Q 922.17 56.73 922.38 56.73   Q 927.01 56.64 931.53 57.09   Q 933.53 57.28 935.42 58.10   C 937.10 58.82 938.92 59.33 940.46 60.28   Q 945.46 63.38 947.72 68.74   Q 949.65 73.31 949.67 78.55   Q 949.75 94.13 949.67 109.33   A 0.40 0.39 -0.0 0 1 949.27 109.72   L 936.13 109.74   Q 935.52 109.74 935.52 109.13   L 935.53 104.50   Q 935.53 103.36 934.85 104.27   C 928.76 112.38 914.90 111.78 907.59 107.66   Q 900.75 103.80 900.14 96.00   C 899.27 84.82 908.16 79.73 917.98 79.30   Q 925.66 78.96 933.76 79.14   Q 934.60 79.16 934.54 78.32   C 934.13 72.60 930.78 69.67 925.07 68.96   Q 919.50 68.26 914.04 70.26   Q 912.29 70.89 910.58 71.42   A 1.62 1.59 9.9 0 0 909.78 71.97   Q 909.00 72.99 907.79 73.36   Q 907.26 73.52 907.02 73.03   L 902.92 64.65   Q 902.03 62.82 903.89 61.97   Q 905.52 61.23 907.02 60.22   Q 908.39 59.29 910.21 58.80   C 911.88 58.34 913.66 57.63 915.33 57.47   Q 920.70 56.96 926.37 57.13   Q 926.62 57.14 926.37 57.13   Z   M 917.53 89.19   C 913.83 91.51 913.77 97.22 917.85 99.12   Q 922.99 101.52 928.44 99.38   Q 935.72 96.53 934.44 88.43   Q 934.36 87.87 933.80 87.86   Q 927.46 87.73 921.27 88.07   Q 919.12 88.19 917.53 89.19   Z"/>
    <path fill="#ffffff" d="   M 1003.25 63.22   L 1003.41 58.03   Q 1003.43 57.50 1003.96 57.50   L 1017.46 57.50   A 0.24 0.24 0.0 0 1 1017.70 57.74   Q 1017.79 80.78 1017.66 103.63   C 1017.50 130.56 988.92 133.24 969.87 126.17   Q 966.30 124.85 963.13 122.52   A 0.56 0.55 32.6 0 1 962.97 121.80   L 968.43 111.90   Q 968.69 111.44 969.14 111.73   Q 981.01 119.47 994.37 116.31   C 1000.84 114.79 1003.16 107.22 1002.45 101.38   A 0.22 0.21 62.7 0 0 1002.08 101.26   C 994.78 109.07 979.99 108.69 971.53 103.31   Q 962.34 97.47 960.51 87.68   Q 958.57 77.32 963.05 69.38   Q 968.13 60.39 978.49 57.65   Q 985.42 55.81 992.03 57.31   Q 998.79 58.83 1002.66 63.42   Q 1003.22 64.08 1003.25 63.22   Z   M 1002.9874 82.2776   A 13.94 12.91 1.1 0 0 989.2978 69.1024   A 13.94 12.91 1.1 0 0 975.1126 81.7424   A 13.94 12.91 1.1 0 0 988.8022 94.9176   A 13.94 12.91 1.1 0 0 1002.9874 82.2776   Z"/>
    <ellipse fill="#000000" cx="0.00" cy="0.00" transform="translate(989.05,82.01) rotate(1.1)" rx="13.94" ry="12.91"/>
    <path fill="#000000" d="   M 917.53 89.19   Q 919.12 88.19 921.27 88.07   Q 927.46 87.73 933.80 87.86   Q 934.36 87.87 934.44 88.43   Q 935.72 96.53 928.44 99.38   Q 922.99 101.52 917.85 99.12   C 913.77 97.22 913.83 91.51 917.53 89.19   Z"/>
    <path fill="#000000" d="   M 1094.39 246.45   C 1125.46 281.37 1100.67 335.67 1054.08 335.67   Q 931.14 335.66 809.66 335.63   C 766.19 335.62 740.11 286.99 765.72 251.18   Q 777.13 235.22 796.77 230.24   Q 802.88 228.70 812.65 228.70   Q 934.72 228.81 1054.58 228.73   C 1069.56 228.72 1084.37 235.19 1094.39 246.45   Z   M 1089.44 312.53   C 1101.04 299.41 1103.96 280.73 1097.40 264.75   C 1091.62 250.64 1078.77 239.61 1063.26 236.90   Q 1057.85 235.96 1051.86 235.96   Q 930.46 236.06 816.60 235.94   Q 804.68 235.92 798.91 237.20   C 772.64 242.98 757.36 270.36 765.05 295.66   C 771.25 316.06 789.41 328.46 810.86 328.46   Q 931.25 328.43 1053.46 328.43   Q 1075.38 328.43 1089.44 312.53   Z"/>
    <path fill="#ffffff" d="   M 1089.44 312.53   Q 1075.38 328.43 1053.46 328.43   Q 931.25 328.43 810.86 328.46   C 789.41 328.46 771.25 316.06 765.05 295.66   C 757.36 270.36 772.64 242.98 798.91 237.20   Q 804.68 235.92 816.60 235.94   Q 930.46 236.06 1051.86 235.96   Q 1057.85 235.96 1063.26 236.90   C 1078.77 239.61 1091.62 250.64 1097.40 264.75   C 1103.96 280.73 1101.04 299.41 1089.44 312.53   Z   M 920.48 261.82   A 0.38 0.38 0.0 0 0 920.86 262.20   L 928.66 262.13   A 0.38 0.38 0.0 0 1 929.04 262.51   L 929.00 296.34   A 0.38 0.38 0.0 0 0 929.38 296.72   L 938.39 296.74   A 0.38 0.38 0.0 0 0 938.77 296.36   L 938.77 254.65   A 0.38 0.38 0.0 0 0 938.39 254.27   L 920.84 254.29   A 0.38 0.38 0.0 0 0 920.46 254.67   L 920.48 261.82   Z"/>
    <path fill="#000000" d="   M 1195.72 252.49   C 1199.35 257.23 1198.72 263.20 1194.50 267.40   Q 1171.12 290.64 1150.69 311.15   C 1148.77 313.08 1146.56 314.30 1143.85 314.94   Q 1135.60 316.88 1128.12 318.49   A 0.32 0.32 0.0 0 1 1127.74 318.11   Q 1129.57 309.68 1131.64 301.22   Q 1132.34 298.38 1134.56 296.16   Q 1156.77 273.89 1179.19 251.54   C 1184.00 246.74 1191.61 247.14 1195.72 252.49   Z   M 1181.68 257.45   L 1188.79 264.58   A 0.50 0.50 0.0 0 0 1189.49 264.58   L 1190.76 263.32   A 5.77 5.35 -44.9 0 0 1191.07 255.45   L 1190.82 255.20   A 5.77 5.35 -44.9 0 0 1182.95 255.48   L 1181.69 256.74   A 0.50 0.50 0.0 0 0 1181.68 257.45   Z   M 1184.7927 269.2638   A 0.66 0.66 0.0 0 0 1184.7927 268.3304   L 1177.9196 261.4573   A 0.66 0.66 0.0 0 0 1176.9862 261.4573   L 1174.9073 263.5362   A 0.66 0.66 0.0 0 0 1174.9073 264.4696   L 1181.7804 271.3427   A 0.66 0.66 0.0 0 0 1182.7138 271.3427   L 1184.7927 269.2638   Z   M 1170.9074 268.2250   A 0.48 0.48 0.0 0 0 1170.2286 268.2250   L 1139.6250 298.8286   A 0.48 0.48 0.0 0 0 1139.6250 299.5074   L 1146.7526 306.6350   A 0.48 0.48 0.0 0 0 1147.4314 306.6350   L 1178.0350 276.0314   A 0.48 0.48 0.0 0 0 1178.0350 275.3526   L 1170.9074 268.2250   Z   M 1141.56 309.90   A 0.31 0.31 0.0 0 0 1141.72 309.38   L 1136.93 304.54   A 0.31 0.31 0.0 0 0 1136.41 304.69   L 1135.09 310.79   A 0.31 0.31 0.0 0 0 1135.45 311.16   L 1141.56 309.90   Z"/>
    <path fill="#ffffff" d="   M 1181.68 257.45   A 0.50 0.50 0.0 0 1 1181.69 256.74   L 1182.95 255.48   A 5.77 5.35 -44.9 0 1 1190.82 255.20   L 1191.07 255.45   A 5.77 5.35 -44.9 0 1 1190.76 263.32   L 1189.49 264.58   A 0.50 0.50 0.0 0 1 1188.79 264.58   L 1181.68 257.45   Z"/>
    <path fill="#000000" d="   M 920.48 261.82   L 920.46 254.67   A 0.38 0.38 0.0 0 1 920.84 254.29   L 938.39 254.27   A 0.38 0.38 0.0 0 1 938.77 254.65   L 938.77 296.36   A 0.38 0.38 0.0 0 1 938.39 296.74   L 929.38 296.72   A 0.38 0.38 0.0 0 1 929.00 296.34   L 929.04 262.51   A 0.38 0.38 0.0 0 0 928.66 262.13   L 920.86 262.20   A 0.38 0.38 0.0 0 1 920.48 261.82   Z"/>
    <rect fill="#ffffff" x="-5.52" y="-2.13" transform="translate(1179.85,266.40) rotate(45.0)" width="11.04" height="4.26" rx="0.66"/>
    <rect fill="#ffffff" x="-22.12" y="-5.52" transform="translate(1158.83,287.43) rotate(-45.0)" width="44.24" height="11.04" rx="0.48"/>
    <path fill="#ffffff" d="   M 1141.56 309.90   L 1135.45 311.16   A 0.31 0.31 0.0 0 1 1135.09 310.79   L 1136.41 304.69   A 0.31 0.31 0.0 0 1 1136.93 304.54   L 1141.72 309.38   A 0.31 0.31 0.0 0 1 1141.56 309.90   Z"/>
    <path fill="#000000" d="   M 1055.20 398.78   C 1087.95 398.78 1112.28 428.62 1107.51 460.35   C 1103.61 486.24 1081.05 505.67 1054.96 505.62   Q 948.52 505.43 814.67 505.69   Q 803.33 505.71 797.18 504.30   C 777.98 499.88 762.63 485.14 757.53 466.01   C 749.81 436.98 767.66 407.13 796.66 400.23   Q 803.00 398.72 815.18 398.73   Q 931.48 398.78 1055.20 398.78   Z   M 1100.5576 450.7257   A 44.85 44.85 0.0 0 0 1055.6294 405.9540   L 808.0698 406.3861   A 44.85 44.85 0.0 0 0 763.2981 451.3143   L 763.3024 453.7343   A 44.85 44.85 0.0 0 0 808.2306 498.5060   L 1055.7902 498.0739   A 44.85 44.85 0.0 0 0 1100.5619 453.1457   L 1100.5576 450.7257   Z"/>
    <path fill="#ffffff" d="   M 1100.5619 453.1457   A 44.85 44.85 0.0 0 1 1055.7902 498.0739   L 808.2306 498.5060   A 44.85 44.85 0.0 0 1 763.3024 453.7343   L 763.2981 451.3143   A 44.85 44.85 0.0 0 1 808.0698 406.3861   L 1055.6294 405.9540   A 44.85 44.85 0.0 0 1 1100.5576 450.7257   L 1100.5619 453.1457   Z   M 929.97 457.99   A 0.43 0.43 0.0 0 1 929.69 457.24   Q 934.90 452.74 939.30 448.03   C 944.91 442.01 943.36 432.36 934.63 430.39   Q 924.29 428.04 917.17 434.88   Q 916.17 435.85 917.33 436.62   L 921.09 439.14   Q 922.08 439.80 922.91 438.95   Q 925.93 435.85 930.43 436.49   C 937.04 437.44 934.67 443.64 931.49 446.61   Q 925.23 452.44 919.53 457.74   Q 916.87 460.21 918.10 463.96   Q 918.26 464.46 918.78 464.46   L 943.04 464.48   Q 943.56 464.48 943.56 463.96   L 943.59 458.55   A 0.55 0.55 0.0 0 0 943.04 457.99   L 929.97 457.99   Z"/>
    <path fill="#000000" d="   M 1127.79 487.80   Q 1129.73 479.00 1131.61 471.33   C 1132.12 469.26 1133.73 466.98 1135.28 465.43   Q 1156.22 444.53 1178.79 421.91   C 1189.76 410.92 1205.39 426.52 1194.31 437.58   Q 1172.43 459.42 1151.26 480.63   C 1149.09 482.81 1146.72 484.35 1143.66 485.02   Q 1135.95 486.70 1128.48 488.48   Q 1127.59 488.69 1127.79 487.80   Z   M 1181.77 427.63   L 1188.74 434.50   A 0.68 0.68 0.0 0 0 1189.70 434.49   L 1190.69 433.48   A 5.98 5.38 -45.4 0 0 1191.06 425.45   L 1190.79 425.18   A 5.98 5.38 -45.4 0 0 1182.76 425.66   L 1181.76 426.67   A 0.68 0.68 0.0 0 0 1181.77 427.63   Z   M 1184.8338 439.2494   A 0.66 0.66 0.0 0 0 1184.8306 438.3160   L 1177.9194 431.4529   A 0.66 0.66 0.0 0 0 1176.9860 431.4561   L 1174.8862 433.5706   A 0.66 0.66 0.0 0 0 1174.8894 434.5040   L 1181.8006 441.3671   A 0.66 0.66 0.0 0 0 1182.7340 441.3639   L 1184.8338 439.2494   Z   M 1170.9610 438.2986   A 0.58 0.58 0.0 0 0 1170.1408 438.2986   L 1139.6786 468.7608   A 0.58 0.58 0.0 0 0 1139.6786 469.5810   L 1146.6790 476.5814   A 0.58 0.58 0.0 0 0 1147.4992 476.5814   L 1177.9614 446.1192   A 0.58 0.58 0.0 0 0 1177.9614 445.2990   L 1170.9610 438.2986   Z   M 1141.41 479.90   A 0.41 0.41 0.0 0 0 1141.60 479.21   L 1137.03 474.73   A 0.41 0.41 0.0 0 0 1136.35 474.94   L 1135.08 480.80   A 0.41 0.41 0.0 0 0 1135.58 481.29   L 1141.41 479.90   Z"/>
    <path fill="#ffffff" d="   M 1181.77 427.63   A 0.68 0.68 0.0 0 1 1181.76 426.67   L 1182.76 425.66   A 5.98 5.38 -45.4 0 1 1190.79 425.18   L 1191.06 425.45   A 5.98 5.38 -45.4 0 1 1190.69 433.48   L 1189.70 434.49   A 0.68 0.68 0.0 0 1 1188.74 434.50   L 1181.77 427.63   Z"/>
    <path fill="#000000" d="   M 929.97 457.99   L 943.04 457.99   A 0.55 0.55 0.0 0 1 943.59 458.55   L 943.56 463.96   Q 943.56 464.48 943.04 464.48   L 918.78 464.46   Q 918.26 464.46 918.10 463.96   Q 916.87 460.21 919.53 457.74   Q 925.23 452.44 931.49 446.61   C 934.67 443.64 937.04 437.44 930.43 436.49   Q 925.93 435.85 922.91 438.95   Q 922.08 439.80 921.09 439.14   L 917.33 436.62   Q 916.17 435.85 917.17 434.88   Q 924.29 428.04 934.63 430.39   C 943.36 432.36 944.91 442.01 939.30 448.03   Q 934.90 452.74 929.69 457.24   A 0.43 0.43 0.0 0 0 929.97 457.99   Z"/>
    <rect fill="#ffffff" x="-5.53" y="-2.15" transform="translate(1179.86,436.41) rotate(44.8)" width="11.06" height="4.30" rx="0.66"/>
    <rect fill="#ffffff" x="-22.12" y="-5.53" transform="translate(1158.82,457.44) rotate(-45.0)" width="44.24" height="11.06" rx="0.58"/>
    <path fill="#ffffff" d="   M 1141.41 479.90   L 1135.58 481.29   A 0.41 0.41 0.0 0 1 1135.08 480.80   L 1136.35 474.94   A 0.41 0.41 0.0 0 1 1137.03 474.73   L 1141.60 479.21   A 0.41 0.41 0.0 0 1 1141.41 479.90   Z"/>
    <path fill="#000000" d="   M 808.60 675.69   C 782.77 675.68 759.95 655.83 756.34 630.18   C 752.38 602.13 769.75 576.85 797.16 570.18   Q 803.35 568.67 816.23 568.69   Q 929.49 568.89 1046.86 568.68   Q 1060.09 568.66 1066.25 570.08   C 1109.24 579.96 1122.79 633.71 1089.59 662.69   Q 1074.70 675.68 1053.79 675.69   Q 930.82 675.75 808.60 675.69   Z   M 1100.5320 621.2943   A 44.82 44.82 0.0 0 0 1055.7903 576.3961   L 808.2106 575.9640   A 44.82 44.82 0.0 0 0 763.3125 620.7057   L 763.3080 623.2457   A 44.82 44.82 0.0 0 0 808.0497 668.1439   L 1055.6294 668.5760   A 44.82 44.82 0.0 0 0 1100.5275 623.8343   L 1100.5320 621.2943   Z"/>
    <path fill="#ffffff" d="   M 1100.5275 623.8343   A 44.82 44.82 0.0 0 1 1055.6294 668.5760   L 808.0497 668.1439   A 44.82 44.82 0.0 0 1 763.3080 623.2457   L 763.3125 620.7057   A 44.82 44.82 0.0 0 1 808.2106 575.9640   L 1055.7903 576.3961   A 44.82 44.82 0.0 0 1 1100.5320 621.2943   L 1100.5275 623.8343   Z   M 932.77 606.73   Q 933.61 606.73 933.07 607.37   Q 930.46 610.48 927.61 613.49   C 926.21 614.97 926.64 617.20 926.67 619.06   Q 926.68 619.83 927.45 619.80   C 930.55 619.68 935.98 619.38 936.60 623.40   Q 937.01 626.00 934.81 627.27   C 930.75 629.61 924.93 628.05 921.24 625.69   A 0.68 0.68 0.0 0 0 920.27 625.96   L 917.89 630.71   A 0.88 0.88 0.0 0 0 918.25 631.87   C 925.36 635.74 937.62 637.18 942.92 629.59   C 945.61 625.73 945.09 619.65 941.12 616.58   Q 938.95 614.90 936.08 614.32   A 0.43 0.43 0.0 0 1 935.84 613.61   L 942.56 606.07   Q 942.96 605.62 942.96 605.02   L 943.01 601.11   Q 943.02 600.44 942.36 600.44   L 919.78 600.44   Q 919.25 600.44 919.25 600.97   L 919.26 606.25   A 0.49 0.48 0.0 0 0 919.75 606.73   L 932.77 606.73   Z"/>
    <path fill="#000000" d="   M 1144.66 654.76   Q 1136.81 656.63 1128.05 658.53   A 0.28 0.28 0.0 0 1 1127.72 658.20   Q 1129.63 649.29 1131.63 641.34   Q 1132.35 638.44 1135.52 635.26   Q 1157.79 612.94 1179.36 591.36   C 1183.63 587.08 1190.71 587.25 1195.03 591.68   C 1199.85 596.62 1198.63 603.32 1194.06 607.86   Q 1171.72 630.13 1151.39 650.53   C 1149.56 652.37 1147.21 654.15 1144.66 654.76   Z   M 1181.77 597.64   L 1188.73 604.50   A 0.70 0.70 0.0 0 0 1189.72 604.50   L 1190.60 603.61   A 6.11 5.48 -45.4 0 0 1190.99 595.41   L 1190.83 595.25   A 6.11 5.48 -45.4 0 0 1182.64 595.76   L 1181.76 596.65   A 0.70 0.70 0.0 0 0 1181.77 597.64   Z   M 1177.9791 601.5227   A 0.72 0.72 0.0 0 0 1176.9609 601.5227   L 1174.9527 603.5309   A 0.72 0.72 0.0 0 0 1174.9527 604.5491   L 1181.7409 611.3373   A 0.72 0.72 0.0 0 0 1182.7591 611.3373   L 1184.7673 609.3291   A 0.72 0.72 0.0 0 0 1184.7673 608.3109   L 1177.9791 601.5227   Z   M 1178.0945 616.0119   A 0.41 0.41 0.0 0 0 1178.0945 615.4321   L 1170.8679 608.2055   A 0.41 0.41 0.0 0 0 1170.2881 608.2055   L 1139.5855 638.9081   A 0.41 0.41 0.0 0 0 1139.5855 639.4879   L 1146.8121 646.7145   A 0.41 0.41 0.0 0 0 1147.3919 646.7145   L 1178.0945 616.0119   Z   M 1141.47 649.97   A 0.36 0.36 0.0 0 0 1141.65 649.36   L 1137.03 644.69   A 0.36 0.36 0.0 0 0 1136.42 644.87   L 1135.11 650.78   A 0.36 0.36 0.0 0 0 1135.54 651.21   L 1141.47 649.97   Z"/>
    <path fill="#ffffff" d="   M 1181.77 597.64   A 0.70 0.70 0.0 0 1 1181.76 596.65   L 1182.64 595.76   A 6.11 5.48 -45.4 0 1 1190.83 595.25   L 1190.99 595.41   A 6.11 5.48 -45.4 0 1 1190.60 603.61   L 1189.72 604.50   A 0.70 0.70 0.0 0 1 1188.73 604.50   L 1181.77 597.64   Z"/>
    <path fill="#000000" d="   M 932.77 606.73   L 919.75 606.73   A 0.49 0.48 0.0 0 1 919.26 606.25   L 919.25 600.97   Q 919.25 600.44 919.78 600.44   L 942.36 600.44   Q 943.02 600.44 943.01 601.11   L 942.96 605.02   Q 942.96 605.62 942.56 606.07   L 935.84 613.61   A 0.43 0.43 0.0 0 0 936.08 614.32   Q 938.95 614.90 941.12 616.58   C 945.09 619.65 945.61 625.73 942.92 629.59   C 937.62 637.18 925.36 635.74 918.25 631.87   A 0.88 0.88 0.0 0 1 917.89 630.71   L 920.27 625.96   A 0.68 0.68 0.0 0 1 921.24 625.69   C 924.93 628.05 930.75 629.61 934.81 627.27   Q 937.01 626.00 936.60 623.40   C 935.98 619.38 930.55 619.68 927.45 619.80   Q 926.68 619.83 926.67 619.06   C 926.64 617.20 926.21 614.97 927.61 613.49   Q 930.46 610.48 933.07 607.37   Q 933.61 606.73 932.77 606.73   Z"/>
    <rect fill="#ffffff" x="-2.14" y="-5.52" transform="translate(1179.86,606.43) rotate(-45.0)" width="4.28" height="11.04" rx="0.72"/>
    <rect fill="#ffffff" x="-5.52" y="-22.12" transform="translate(1158.84,627.46) rotate(45.0)" width="11.04" height="44.24" rx="0.41"/>
    <path fill="#ffffff" d="   M 1141.47 649.97   L 1135.54 651.21   A 0.36 0.36 0.0 0 1 1135.11 650.78   L 1136.42 644.87   A 0.36 0.36 0.0 0 1 1137.03 644.69   L 1141.65 649.36   A 0.36 0.36 0.0 0 1 1141.47 649.97   Z"/>
    <path fill="#000000" d="   M 1105.97 807.31   C 1100.69 826.12 1084.20 841.21 1064.94 844.68   Q 1058.84 845.78 1050.06 845.77   Q 932.23 845.63 809.72 845.72   C 766.32 845.75 740.30 797.29 765.49 761.55   Q 777.34 744.75 797.64 740.12   Q 803.64 738.75 813.52 738.76   Q 930.51 738.87 1055.42 738.81   C 1060.97 738.81 1067.26 739.93 1072.41 741.85   C 1099.48 751.94 1113.81 779.34 1105.97 807.31   Z   M 1100.5320 791.3143   A 44.80 44.80 0.0 0 0 1055.8102 746.4362   L 808.1706 746.0040   A 44.80 44.80 0.0 0 0 763.2925 790.7257   L 763.2880 793.2657   A 44.80 44.80 0.0 0 0 808.0098 838.1438   L 1055.6494 838.5760   A 44.80 44.80 0.0 0 0 1100.5275 793.8543   L 1100.5320 791.3143   Z"/>
    <path fill="#ffffff" d="   M 1100.5275 793.8543   A 44.80 44.80 0.0 0 1 1055.6494 838.5760   L 808.0098 838.1438   A 44.80 44.80 0.0 0 1 763.2880 793.2657   L 763.2925 790.7257   A 44.80 44.80 0.0 0 1 808.1706 746.0040   L 1055.8102 746.4362   A 44.80 44.80 0.0 0 1 1100.5320 791.3143   L 1100.5275 793.8543   Z   M 934.98 797.88   L 934.96 804.21   Q 934.96 804.47 935.21 804.47   L 942.47 804.47   Q 942.70 804.47 942.70 804.25   L 942.70 797.92   Q 942.70 797.28 943.33 797.28   L 947.22 797.29   Q 948.24 797.30 948.24 796.28   L 948.24 792.04   Q 948.25 790.84 947.04 790.83   L 943.26 790.81   Q 942.72 790.80 942.72 790.26   L 942.69 785.19   Q 942.68 784.46 941.95 784.46   L 936.00 784.51   A 0.74 0.74 0.0 0 0 935.27 785.25   L 935.29 790.29   Q 935.29 790.86 934.71 790.86   L 926.77 790.84   A 0.35 0.35 0.0 0 1 926.49 790.29   L 940.42 771.21   A 0.50 0.50 0.0 0 0 940.01 770.42   L 933.27 770.44   Q 932.67 770.44 932.31 770.93   Q 925.31 780.48 917.58 790.76   C 916.34 792.41 916.66 794.84 916.72 796.74   Q 916.74 797.27 917.28 797.28   L 934.38 797.28   Q 934.99 797.28 934.98 797.88   Z"/>
    <path fill="#000000" d="   M 1127.78 827.76   Q 1129.73 819.31 1131.38 812.17   Q 1132.21 808.53 1135.13 805.61   Q 1157.53 783.17 1179.19 761.57   C 1189.60 751.19 1205.18 766.72 1194.74 777.16   Q 1170.56 801.34 1150.87 821.03   Q 1147.75 824.15 1143.88 825.01   Q 1135.66 826.82 1128.50 828.48   Q 1127.56 828.70 1127.78 827.76   Z   M 1181.81 767.66   L 1188.62 774.54   A 0.75 0.75 0.0 0 0 1189.68 774.54   L 1190.60 773.63   A 6.08 5.46 -44.7 0 0 1191.08 765.48   L 1190.89 765.29   A 6.08 5.46 -44.7 0 0 1182.73 765.69   L 1181.82 766.59   A 0.75 0.75 0.0 0 0 1181.81 767.66   Z   M 1184.7565 779.3264   A 0.70 0.70 0.0 0 0 1184.7548 778.3365   L 1177.9264 771.5319   A 0.70 0.70 0.0 0 0 1176.9364 771.5336   L 1174.9035 773.5736   A 0.70 0.70 0.0 0 0 1174.9052 774.5635   L 1181.7336 781.3681   A 0.70 0.70 0.0 0 0 1182.7236 781.3664   L 1184.7565 779.3264   Z   M 1178.1157 786.0149   A 0.39 0.39 0.0 0 0 1178.1157 785.4633   L 1170.8467 778.1943   A 0.39 0.39 0.0 0 0 1170.2951 778.1943   L 1139.5643 808.9251   A 0.39 0.39 0.0 0 0 1139.5643 809.4767   L 1146.8333 816.7457   A 0.39 0.39 0.0 0 0 1147.3849 816.7457   L 1178.1157 786.0149   Z   M 1141.41 819.96   A 0.36 0.36 0.0 0 0 1141.60 819.36   L 1137.02 814.68   A 0.36 0.36 0.0 0 0 1136.41 814.85   L 1135.06 820.76   A 0.36 0.36 0.0 0 0 1135.48 821.20   L 1141.41 819.96   Z"/>
    <path fill="#ffffff" d="   M 1181.81 767.66   A 0.75 0.75 0.0 0 1 1181.82 766.59   L 1182.73 765.69   A 6.08 5.46 -44.7 0 1 1190.89 765.29   L 1191.08 765.48   A 6.08 5.46 -44.7 0 1 1190.60 773.63   L 1189.68 774.54   A 0.75 0.75 0.0 0 1 1188.62 774.54   L 1181.81 767.66   Z"/>
    <path fill="#000000" d="   M 934.38 797.28   L 917.28 797.28   Q 916.74 797.27 916.72 796.74   C 916.66 794.84 916.34 792.41 917.58 790.76   Q 925.31 780.48 932.31 770.93   Q 932.67 770.44 933.27 770.44   L 940.01 770.42   A 0.50 0.50 0.0 0 1 940.42 771.21   L 926.49 790.29   A 0.35 0.35 0.0 0 0 926.77 790.84   L 934.71 790.86   Q 935.29 790.86 935.29 790.29   L 935.27 785.25   A 0.74 0.74 0.0 0 1 936.00 784.51   L 941.95 784.46   Q 942.68 784.46 942.69 785.19   L 942.72 790.26   Q 942.72 790.80 943.26 790.81   L 947.04 790.83   Q 948.25 790.84 948.24 792.04   L 948.24 796.28   Q 948.24 797.30 947.22 797.29   L 943.33 797.28   Q 942.70 797.28 942.70 797.92   L 942.70 804.25   Q 942.70 804.47 942.47 804.47   L 935.21 804.47   Q 934.96 804.47 934.96 804.21   L 934.98 797.88   Q 934.99 797.28 934.38 797.28   Z"/>
    <rect fill="#ffffff" x="-5.52" y="-2.14" transform="translate(1179.83,776.45) rotate(44.9)" width="11.04" height="4.28" rx="0.70"/>
    <rect fill="#ffffff" x="-5.53" y="-22.12" transform="translate(1158.84,797.47) rotate(45.0)" width="11.06" height="44.24" rx="0.39"/>
    <path fill="#ffffff" d="   M 1141.41 819.96   L 1135.48 821.20   A 0.36 0.36 0.0 0 1 1135.06 820.76   L 1136.41 814.85   A 0.36 0.36 0.0 0 1 1137.02 814.68   L 1141.60 819.36   A 0.36 0.36 0.0 0 1 1141.41 819.96   Z"/>
    <path fill="#000000" d="   M 809.08 1015.70   C 779.49 1015.70 755.96 991.78 755.70 962.26   C 755.48 937.29 773.68 915.12 798.04 910.05   Q 804.54 908.69 811.10 908.71   Q 931.60 908.93 1051.64 908.73   Q 1059.83 908.71 1066.08 910.07   C 1094.06 916.17 1112.21 943.22 1107.35 971.37   C 1102.87 997.37 1080.50 1015.73 1054.36 1015.72   Q 929.48 1015.71 809.08 1015.70   Z   M 1085.95 928.34   C 1079.92 922.66 1071.67 918.49 1063.32 916.90   Q 1059.60 916.20 1052.13 916.20   Q 937.81 916.19 823.49 916.19   Q 806.29 916.19 803.53 916.54   C 774.79 920.10 756.27 948.96 765.32 976.53   C 771.68 995.94 789.31 1008.50 809.93 1008.48   Q 925.30 1008.36 1047.52 1008.52   Q 1060.48 1008.53 1066.03 1007.06   C 1101.76 997.57 1112.68 953.53 1085.95 928.34   Z"/>
    <path fill="#ffffff" d="   M 1063.32 916.90   C 1071.67 918.49 1079.92 922.66 1085.95 928.34   C 1112.68 953.53 1101.76 997.57 1066.03 1007.06   Q 1060.48 1008.53 1047.52 1008.52   Q 925.30 1008.36 809.93 1008.48   C 789.31 1008.50 771.68 995.94 765.32 976.53   C 756.27 948.96 774.79 920.10 803.53 916.54   Q 806.29 916.19 823.49 916.19   Q 937.81 916.19 1052.13 916.20   Q 1059.60 916.20 1063.32 916.90   Z   M 927.91 959.04   A 0.42 0.42 0.0 0 1 927.49 959.46   L 894.70 959.47   A 0.42 0.42 0.0 0 0 894.28 959.90   L 894.35 964.80   A 0.42 0.42 0.0 0 0 894.77 965.21   L 927.48 965.18   A 0.42 0.42 0.0 0 1 927.90 965.60   L 927.91 998.21   A 0.42 0.42 0.0 0 0 928.32 998.63   L 933.04 998.73   A 0.42 0.42 0.0 0 0 933.47 998.31   L 933.47 965.64   A 0.42 0.42 0.0 0 1 933.89 965.22   L 966.75 965.12   A 0.42 0.42 0.0 0 0 967.17 964.70   L 967.20 959.91   A 0.42 0.42 0.0 0 0 966.78 959.49   L 933.89 959.45   A 0.42 0.42 0.0 0 1 933.47 959.03   L 933.47 926.17   A 0.42 0.42 0.0 0 0 933.05 925.75   L 928.34 925.78   A 0.42 0.42 0.0 0 0 927.92 926.20   L 927.91 959.04   Z"/>
    <path fill="#000000" d="   M 927.91 959.04   L 927.92 926.20   A 0.42 0.42 0.0 0 1 928.34 925.78   L 933.05 925.75   A 0.42 0.42 0.0 0 1 933.47 926.17   L 933.47 959.03   A 0.42 0.42 0.0 0 0 933.89 959.45   L 966.78 959.49   A 0.42 0.42 0.0 0 1 967.20 959.91   L 967.17 964.70   A 0.42 0.42 0.0 0 1 966.75 965.12   L 933.89 965.22   A 0.42 0.42 0.0 0 0 933.47 965.64   L 933.47 998.31   A 0.42 0.42 0.0 0 1 933.04 998.73   L 928.32 998.63   A 0.42 0.42 0.0 0 1 927.91 998.21   L 927.90 965.60   A 0.42 0.42 0.0 0 0 927.48 965.18   L 894.77 965.21   A 0.42 0.42 0.0 0 1 894.35 964.80   L 894.28 959.90   A 0.42 0.42 0.0 0 1 894.70 959.47   L 927.49 959.46   A 0.42 0.42 0.0 0 0 927.91 959.04   Z"/>
</svg>