<?xml version="1.0" encoding="UTF-8" standalone="no"?>
<!DOCTYPE svg PUBLIC "-//W3C//DTD SVG 1.1//EN" "http://www.w3.org/Graphics/SVG/1.1/DTD/svg11.dtd">
<svg xmlns="http://www.w3.org/2000/svg" version="1.1" viewBox="0.00 0.00 1448.00 1447.00">
<g stroke-width="2.00" fill="none" stroke-linecap="butt">
<path stroke="#808080" vector-effect="non-scaling-stroke" d="
  M 863.93 562.19
  C 869.96 560.02 873.69 554.74 876.36 549.03
  Q 877.77 546.00 878.55 538.47
  Q 882.39 501.65 886.05 466.42
  Q 886.79 459.30 886.22 456.09
  C 884.23 444.79 873.08 438.46 862.18 441.07
  C 854.55 442.90 848.71 449.86 847.87 457.76
  Q 843.94 494.89 840.27 530.42
  Q 840.22 530.87 839.82 531.07
  L 781.47 561.05
  Q 780.96 561.31 780.39 561.22
  C 778.63 560.94 776.97 560.50 775.15 560.50
  Q 721.56 560.49 672.05 560.53
  C 670.55 560.53 669.12 560.99 667.64 561.23
  Q 667.06 561.32 666.52 561.05
  L 608.19 531.04
  A 0.83 0.82 -80.1 0 1 607.74 530.39
  Q 604.12 495.97 600.51 461.46
  Q 599.85 455.15 598.87 452.67
  C 593.64 439.49 576.52 436.20 566.81 446.37
  Q 560.48 452.99 561.49 462.32
  Q 565.73 501.38 569.25 537.78
  Q 569.88 544.26 571.13 547.65
  C 573.13 553.07 576.97 558.76 582.37 561.53
  Q 600.50 570.84 618.63 580.15
  A 0.43 0.43 0.0 0 1 618.62 580.92
  L 588.06 596.07
  Q 587.49 596.36 586.93 596.03
  Q 556.86 578.45 525.43 559.86
  Q 521.25 557.39 517.54 556.78
  C 508.79 555.37 500.29 559.76 496.59 567.87
  C 492.11 577.68 496.25 587.90 505.21 593.15
  Q 539.42 613.20 574.11 633.61
  Q 576.38 634.94 579.06 635.73
  C 584.62 637.36 591.52 637.69 596.61 635.20
  Q 610.70 628.31 627.26 620.04
  Q 628.63 619.36 627.89 620.69
  L 614.68 644.41
  Q 614.33 645.03 613.62 645.08
  Q 577.52 647.61 541.25 650.19
  C 524.64 651.36 516.91 671.20 528.50 683.09
  C 533.52 688.25 539.26 689.33 546.59 688.79
  Q 585.74 685.96 622.89 683.46
  Q 632.34 682.83 639.59 676.80
  Q 642.78 674.15 644.84 670.35
  Q 648.47 663.67 651.97 657.40
  Q 652.54 656.37 652.55 657.55
  Q 652.73 679.40 652.69 703.75
  C 652.68 708.02 652.43 712.16 653.52 715.96
  Q 656.26 725.53 665.80 729.30
  Q 669.13 730.61 677.24 730.58
  Q 725.06 730.40 773.66 730.53
  C 779.15 730.54 784.09 729.43 788.19 725.76
  Q 795.35 719.34 795.31 709.70
  Q 795.20 684.33 795.31 657.46
  Q 795.32 656.08 795.99 657.29
  Q 799.75 664.13 803.86 671.44
  Q 806.24 675.66 810.03 678.11
  C 815.13 681.40 819.25 683.07 825.19 683.46
  Q 862.52 685.91 898.87 688.64
  Q 907.17 689.26 911.11 688.14
  C 920.79 685.38 926.56 675.53 924.56 665.60
  Q 922.89 657.35 915.13 652.54
  Q 914.31 652.03 913.40 651.74
  C 911.84 651.22 910.19 650.54 908.57 650.38
  Q 893.08 648.84 874.35 647.83
  Q 867.74 647.47 861.21 646.77
  Q 855.94 646.20 848.13 645.96
  Q 841.23 645.74 834.54 644.88
  Q 834.10 644.83 833.83 644.47
  Q 832.19 642.26 831.05 640.23
  Q 825.61 630.54 820.40 621.16
  Q 820.18 620.77 820.04 620.32
  Q 819.74 619.41 820.58 619.87
  Q 823.46 621.45 826.78 623.02
  Q 830.29 624.69 833.47 626.34
  Q 837.07 628.20 840.15 629.66
  Q 845.08 632.00 849.95 634.45
  Q 852.90 635.93 855.31 636.55
  C 859.27 637.55 863.55 636.73 867.60 636.17
  Q 870.24 635.80 872.58 634.42
  Q 908.80 613.10 943.27 592.86
  C 958.37 583.99 955.54 561.86 938.67 557.14
  C 933.01 555.56 927.67 556.87 922.64 559.84
  Q 890.83 578.63 860.97 596.09
  Q 860.55 596.34 860.12 596.12
  L 829.53 581.00
  A 0.51 0.51 0.0 0 1 829.52 580.09
  Q 846.63 571.35 863.69 562.52
  Q 863.74 562.50 863.77 562.45
  Q 863.81 562.40 863.81 562.33
  Q 863.83 562.23 863.93 562.19"
/>
<path stroke="#808080" vector-effect="non-scaling-stroke" d="
  M 773.59 503.84
  A 49.60 49.60 0.0 0 0 723.99 454.24
  A 49.60 49.60 0.0 0 0 674.39 503.84
  A 49.60 49.60 0.0 0 0 723.99 553.44
  A 49.60 49.60 0.0 0 0 773.59 503.84"
/>
<path stroke="#808080" vector-effect="non-scaling-stroke" d="
  M 838.19 813.03
  Q 839.88 816.33 843.98 818.90
  Q 846.44 820.44 848.79 821.12
  Q 861.19 824.70 872.99 821.15
  C 883.42 818.02 887.29 809.21 885.62 798.68
  C 883.13 782.96 863.18 781.71 851.11 784.36
  C 845.64 785.55 839.92 788.90 837.69 794.05
  Q 833.47 803.82 838.19 813.03"
/>
<path stroke="#808080" vector-effect="non-scaling-stroke" d="
  M 284.34 849.11
  C 285.18 846.33 286.35 843.71 287.36 841.05
  C 293.81 823.86 305.75 806.93 325.34 805.57
  A 0.81 0.80 88.0 0 1 326.20 806.38
  Q 326.22 874.89 326.19 937.92
  Q 326.19 942.94 325.15 948.27
  C 323.66 955.88 318.34 957.48 311.58 958.20
  Q 306.51 958.74 301.21 958.71
  Q 300.60 958.71 300.60 959.32
  L 300.59 962.71
  Q 300.59 963.39 301.27 963.37
  Q 349.54 961.96 397.78 963.39
  Q 398.49 963.41 398.49 962.70
  L 398.48 959.26
  Q 398.48 958.71 397.93 958.71
  Q 391.20 958.72 384.68 957.84
  C 378.75 957.03 374.82 953.89 373.84 947.90
  Q 372.87 941.95 372.87 933.39
  Q 372.93 869.87 372.92 806.08
  A 0.45 0.45 0.0 0 1 373.38 805.63
  C 388.58 806.18 399.37 816.76 406.54 829.81
  Q 414.32 843.97 418.35 862.24
  Q 418.40 862.43 418.59 862.43
  L 423.53 862.49
  Q 423.76 862.49 423.74 862.26
  C 422.53 842.09 423.39 821.37 424.69 800.81
  Q 424.72 800.37 424.28 800.37
  Q 349.91 801.69 274.76 800.37
  A 0.41 0.40 -2.0 0 0 274.35 800.80
  Q 276.02 825.98 275.91 850.89
  Q 275.88 856.80 275.30 862.25
  Q 275.27 862.50 275.53 862.50
  L 280.27 862.50
  A 0.34 0.33 -81.9 0 0 280.59 862.25
  Q 282.32 855.79 284.34 849.11"
/>
<path stroke="#808080" vector-effect="non-scaling-stroke" d="
  M 788.86 823.21
  Q 789.52 822.89 789.99 822.43
  Q 802.34 810.20 819.85 804.87
  Q 820.38 804.71 820.39 804.16
  L 820.42 801.23
  Q 820.43 800.48 819.68 800.51
  Q 789.06 801.53 758.50 800.30
  Q 758.26 800.29 758.25 800.53
  L 758.22 804.51
  Q 758.22 804.72 758.43 804.73
  Q 767.56 804.99 772.80 809.85
  C 777.22 813.95 778.13 819.80 776.53 825.24
  Q 774.58 831.86 767.53 839.94
  Q 757.33 851.64 748.32 860.72
  Q 740.13 868.98 732.55 872.85
  Q 726.61 875.88 720.35 876.63
  A 0.49 0.49 0.0 0 1 719.80 876.14
  Q 719.67 849.85 719.77 822.53
  C 719.79 818.85 720.05 814.87 721.16 811.45
  C 723.02 805.75 730.33 805.15 735.51 804.95
  A 0.71 0.71 0.0 0 0 736.19 804.24
  L 736.18 801.20
  Q 736.17 800.32 735.29 800.34
  Q 696.67 801.55 657.26 800.34
  Q 656.64 800.32 656.64 800.94
  L 656.65 804.47
  Q 656.65 804.96 657.14 804.97
  C 663.44 805.14 670.96 805.88 672.16 813.61
  Q 673.03 819.18 673.02 825.28
  Q 672.95 879.21 673.01 938.39
  Q 673.02 945.00 672.08 950.23
  Q 670.96 956.51 664.51 957.73
  Q 660.76 958.44 657.25 958.65
  Q 656.64 958.69 656.65 959.29
  L 656.66 962.73
  Q 656.67 963.41 657.35 963.37
  Q 666.41 962.74 675.52 962.71
  Q 699.09 962.65 720.19 962.78
  Q 727.22 962.83 735.55 963.33
  Q 736.14 963.36 736.12 962.77
  L 736.03 959.21
  Q 736.02 958.76 735.56 958.72
  C 729.38 958.18 722.19 957.84 720.74 950.26
  C 720.17 947.26 719.73 944.00 719.74 940.94
  Q 719.83 911.51 719.73 882.69
  A 0.84 0.84 0.0 0 1 720.87 881.90
  Q 724.79 883.36 727.18 886.87
  Q 728.26 888.46 729.10 889.84
  Q 745.53 916.93 765.02 950.22
  Q 766.25 952.32 766.23 955.05
  Q 766.22 955.62 765.83 956.03
  C 763.69 958.36 756.73 958.61 753.78 958.63
  A 0.62 0.62 0.0 0 0 753.16 959.26
  L 753.18 962.80
  Q 753.18 963.37 753.75 963.35
  Q 789.22 962.00 826.76 963.28
  Q 827.54 963.31 827.54 962.52
  L 827.51 959.55
  A 1.52 1.50 13.6 0 0 826.69 958.23
  Q 819.34 954.42 813.42 944.57
  Q 786.82 900.35 760.42 856.29
  A 1.04 1.04 0.0 0 1 760.53 855.07
  Q 771.32 842.89 783.03 829.53
  Q 784.20 828.20 785.58 827.12
  Q 786.90 826.09 787.44 824.74
  Q 787.85 823.70 788.86 823.21"
/>
<path stroke="#808080" vector-effect="non-scaling-stroke" d="
  M 1128.11 847.17
  Q 1126.76 846.38 1125.24 845.90
  Q 1123.77 845.43 1122.34 844.83
  Q 1120.33 843.99 1118.24 843.44
  Q 1096.57 837.73 1075.10 843.42
  Q 1068.97 845.04 1062.75 848.61
  C 1050.20 855.80 1046.49 867.73 1047.46 881.48
  C 1048.84 901.14 1065.47 910.72 1083.30 913.18
  Q 1084.32 913.32 1083.54 914.00
  Q 1083.01 914.47 1082.36 914.78
  Q 1077.85 916.92 1073.51 919.94
  C 1064.03 926.55 1057.11 934.67 1059.71 947.18
  Q 1060.80 952.44 1064.47 956.07
  Q 1069.39 960.92 1075.98 962.63
  Q 1078.97 963.41 1082.32 964.01
  Q 1085.69 964.61 1088.88 964.64
  Q 1098.63 964.72 1107.79 964.86
  C 1113.50 964.95 1121.03 966.01 1124.65 970.74
  Q 1131.37 979.51 1125.75 990.14
  C 1121.37 998.41 1111.24 1001.84 1101.99 1002.51
  C 1089.87 1003.38 1067.03 1001.74 1065.88 985.55
  C 1065.42 979.05 1067.62 974.23 1071.56 969.45
  Q 1071.88 969.07 1071.61 968.65
  L 1069.84 965.89
  Q 1069.56 965.46 1069.06 965.57
  C 1061.42 967.32 1053.58 970.03 1047.94 975.40
  C 1042.81 980.28 1040.67 987.28 1044.89 993.39
  C 1049.42 999.96 1060.63 1003.28 1068.03 1004.53
  Q 1093.14 1008.77 1119.60 1004.60
  Q 1131.87 1002.66 1142.62 997.13
  Q 1147.25 994.75 1151.45 991.24
  Q 1163.37 981.29 1164.79 966.56
  C 1165.84 955.68 1161.84 944.56 1152.06 939.16
  Q 1138.66 931.77 1120.95 931.36
  Q 1107.36 931.04 1093.33 931.20
  C 1089.89 931.24 1085.74 930.36 1084.75 926.46
  Q 1082.84 918.98 1089.99 914.55
  Q 1090.73 914.09 1091.58 914.13
  Q 1101.39 914.65 1110.92 913.17
  Q 1119.30 911.87 1127.61 907.89
  C 1143.92 900.08 1149.02 884.30 1145.12 867.39
  Q 1143.47 860.27 1138.47 854.67
  A 1.16 1.15 -47.6 0 1 1138.41 853.21
  Q 1143.83 846.03 1151.66 842.83
  Q 1152.44 842.51 1152.15 843.30
  Q 1151.53 845.01 1150.81 846.73
  C 1148.22 852.97 1148.79 862.46 1155.85 865.53
  Q 1162.78 868.53 1167.85 865.29
  Q 1171.99 862.65 1173.08 858.02
  C 1174.80 850.70 1172.62 842.26 1165.39 839.21
  Q 1160.15 836.99 1153.25 838.26
  Q 1141.80 840.38 1134.43 850.30
  Q 1134.09 850.76 1133.64 850.41
  C 1131.95 849.10 1129.94 848.25 1128.11 847.17"
/>
<path stroke="#808080" vector-effect="non-scaling-stroke" d="
  M 959.00 856.04
  L 959.06 841.99
  Q 959.06 841.40 958.48 841.49
  Q 931.47 845.82 905.04 843.90
  Q 904.69 843.87 904.70 844.22
  L 904.75 848.58
  Q 904.76 848.74 904.92 848.74
  C 911.80 848.50 915.15 852.29 916.60 858.50
  Q 917.45 862.14 917.47 865.83
  Q 917.68 906.16 917.49 944.73
  Q 917.47 948.59 916.16 952.37
  C 914.56 956.95 909.93 958.54 905.21 958.49
  Q 904.71 958.48 904.72 958.98
  L 904.74 962.79
  A 0.51 0.50 87.9 0 0 905.28 963.30
  C 927.34 961.99 948.91 962.19 969.29 963.34
  A 0.31 0.31 0.0 0 0 969.61 963.03
  L 969.62 958.72
  Q 969.62 958.51 969.41 958.51
  C 958.63 958.47 959.15 948.34 959.11 940.74
  Q 958.95 909.67 959.09 873.74
  C 959.10 870.40 958.83 866.44 959.97 863.50
  Q 963.57 854.23 973.82 852.78
  Q 977.43 852.27 981.10 853.77
  Q 983.85 854.89 985.06 857.61
  Q 986.87 861.69 986.87 865.54
  Q 986.89 900.74 986.91 943.06
  C 986.91 950.09 986.09 958.64 976.86 958.45
  Q 976.33 958.44 976.33 958.96
  L 976.33 962.77
  Q 976.33 963.39 976.94 963.36
  Q 1009.66 961.53 1040.63 963.38
  Q 1041.26 963.42 1041.26 962.79
  L 1041.26 959.01
  Q 1041.26 958.45 1040.70 958.47
  C 1029.90 958.89 1028.38 950.94 1028.38 942.17
  Q 1028.35 909.98 1028.37 879.96
  C 1028.37 871.01 1028.08 861.49 1024.12 853.62
  C 1016.47 838.44 993.26 839.15 979.88 842.55
  C 971.59 844.66 964.82 849.21 960.01 856.35
  Q 958.99 857.86 959.00 856.04"
/>
<path stroke="#808080" vector-effect="non-scaling-stroke" d="
  M 489.32 948.71
  Q 491.69 962.33 504.99 964.24
  C 517.31 966.02 532.54 964.77 542.40 956.80
  Q 542.96 956.34 542.57 955.73
  L 540.90 953.13
  Q 540.47 952.46 539.86 952.98
  C 537.48 955.03 531.81 958.33 530.65 953.30
  Q 529.99 950.42 530.00 947.45
  Q 530.05 914.29 529.94 879.85
  Q 529.91 869.88 528.04 862.41
  C 525.53 852.38 515.58 844.78 505.83 842.83
  Q 480.86 837.83 457.62 843.99
  Q 450.95 845.75 443.58 850.92
  C 436.08 856.18 432.64 863.60 434.00 872.75
  Q 435.34 881.81 442.27 886.37
  C 447.97 890.12 456.96 889.91 463.04 887.12
  Q 473.54 882.31 474.59 871.60
  C 475.60 861.30 469.82 853.25 460.13 849.51
  A 0.54 0.53 -50.0 0 1 460.05 848.55
  C 467.26 844.16 480.07 843.03 485.16 851.57
  Q 488.49 857.15 488.49 863.90
  Q 488.49 873.08 488.58 883.45
  C 488.62 888.23 486.98 891.48 482.90 894.10
  Q 478.15 897.15 472.91 899.01
  Q 464.55 901.98 457.05 904.58
  C 445.23 908.69 430.85 915.74 428.06 929.43
  Q 425.93 939.87 429.51 948.65
  C 435.31 962.88 448.48 966.22 462.77 964.61
  Q 478.88 962.80 488.53 948.54
  Q 489.13 947.65 489.32 948.71"
/>
<path stroke="#808080" vector-effect="non-scaling-stroke" d="
  M 596.64 869.34
  C 591.84 862.05 592.53 848.96 603.13 846.72
  C 624.82 842.14 633.71 865.23 635.61 881.92
  Q 635.65 882.30 636.03 882.30
  L 639.94 882.29
  Q 640.29 882.29 640.29 881.94
  Q 640.16 862.31 641.17 841.56
  Q 641.20 840.85 640.49 840.83
  L 637.35 840.78
  Q 636.61 840.77 636.48 841.51
  C 635.91 844.84 633.75 849.76 629.56 848.01
  Q 626.94 846.91 623.96 845.66
  C 608.66 839.21 589.31 838.56 574.01 845.74
  C 563.68 850.59 555.39 859.27 554.55 871.02
  C 553.53 885.30 560.59 896.09 570.63 905.68
  Q 579.86 914.48 588.92 922.99
  Q 594.10 927.86 598.12 933.01
  C 602.94 939.16 605.87 953.13 597.73 958.38
  C 591.21 962.58 582.19 960.95 576.19 956.45
  C 565.41 948.38 560.66 933.08 559.18 919.77
  Q 559.08 918.93 558.24 918.92
  L 555.19 918.88
  Q 554.41 918.87 554.41 919.65
  Q 554.49 941.62 553.55 964.27
  Q 553.52 964.97 554.22 964.97
  L 557.37 964.97
  Q 558.13 964.98 558.34 964.25
  C 560.15 957.97 563.32 955.15 570.07 958.07
  C 575.60 960.47 580.53 963.59 586.48 965.02
  C 612.51 971.31 650.37 958.28 645.91 925.11
  Q 644.51 914.70 636.54 906.26
  C 627.79 896.99 617.97 889.03 607.90 881.12
  Q 600.67 875.45 596.64 869.34"
/>
<path stroke="#808080" vector-effect="non-scaling-stroke" d="
  M 895.30 958.54
  C 882.70 958.23 883.06 948.74 883.05 939.24
  Q 883.00 889.93 883.05 841.92
  Q 883.05 841.40 882.54 841.48
  Q 855.72 845.82 828.88 843.89
  Q 828.72 843.88 828.72 844.04
  L 828.71 848.42
  Q 828.71 848.72 829.01 848.72
  Q 838.53 848.56 840.59 858.49
  Q 841.45 862.63 841.46 866.33
  Q 841.65 901.72 841.52 943.90
  C 841.50 952.13 839.23 958.53 829.44 958.47
  A 0.71 0.70 -89.6 0 0 828.73 959.18
  L 828.72 962.76
  Q 828.72 963.42 829.39 963.38
  Q 861.42 961.62 893.99 963.21
  Q 894.72 963.25 895.42 963.26
  A 0.47 0.46 0.6 0 0 895.90 962.80
  L 895.92 959.19
  Q 895.93 958.56 895.30 958.54"
/>
<path stroke="#808080" vector-effect="non-scaling-stroke" d="
  M 1103.20 850.62
  C 1101.43 845.46 1095.08 841.96 1091.56 848.23
  Q 1089.07 852.68 1088.40 858.04
  Q 1086.75 871.18 1087.61 888.72
  C 1087.84 893.46 1089.41 913.97 1099.01 909.55
  C 1102.70 907.85 1104.57 900.88 1105.12 897.39
  Q 1106.11 891.14 1106.20 876.14
  C 1106.23 870.57 1105.65 865.15 1105.33 859.65
  C 1105.14 856.55 1104.21 853.54 1103.20 850.62"
/>
<path stroke="#808080" vector-effect="non-scaling-stroke" d="
  M 471.29 914.87
  Q 468.07 921.44 468.26 931.21
  C 468.41 938.73 470.71 945.82 479.27 946.49
  Q 484.45 946.89 488.07 943.14
  A 1.60 1.57 67.5 0 0 488.52 942.03
  L 488.52 895.06
  Q 488.52 894.19 488.03 894.91
  C 486.73 896.84 485.34 898.88 483.63 900.45
  C 478.99 904.72 474.13 909.09 471.29 914.87"
/>
</g>
<path fill="#ffffff" d="
  M 1447.32 723.49
  A 723.32 723.32 0.0 0 1 724.00 1446.81
  A 723.32 723.32 0.0 0 1 0.68 723.49
  A 723.32 723.32 0.0 0 1 724.00 0.17
  A 723.32 723.32 0.0 0 1 1447.32 723.49
  Z
  M 1427.20 723.49
  A 703.20 703.20 0.0 0 0 724.00 20.29
  A 703.20 703.20 0.0 0 0 20.80 723.49
  A 703.20 703.20 0.0 0 0 724.00 1426.69
  A 703.20 703.20 0.0 0 0 1427.20 723.49
  Z"
/>
<path fill="#ffffff" d="
  M 1418.37 723.49
  A 694.37 694.37 0.0 0 1 724.00 1417.86
  A 694.37 694.37 0.0 0 1 29.63 723.49
  A 694.37 694.37 0.0 0 1 724.00 29.12
  A 694.37 694.37 0.0 0 1 1418.37 723.49
  Z
  M 863.93 562.19
  C 869.96 560.02 873.69 554.74 876.36 549.03
  Q 877.77 546.00 878.55 538.47
  Q 882.39 501.65 886.05 466.42
  Q 886.79 459.30 886.22 456.09
  C 884.23 444.79 873.08 438.46 862.18 441.07
  C 854.55 442.90 848.71 449.86 847.87 457.76
  Q 843.94 494.89 840.27 530.42
  Q 840.22 530.87 839.82 531.07
  L 781.47 561.05
  Q 780.96 561.31 780.39 561.22
  C 778.63 560.94 776.97 560.50 775.15 560.50
  Q 721.56 560.49 672.05 560.53
  C 670.55 560.53 669.12 560.99 667.64 561.23
  Q 667.06 561.32 666.52 561.05
  L 608.19 531.04
  A 0.83 0.82 -80.1 0 1 607.74 530.39
  Q 604.12 495.97 600.51 461.46
  Q 599.85 455.15 598.87 452.67
  C 593.64 439.49 576.52 436.20 566.81 446.37
  Q 560.48 452.99 561.49 462.32
  Q 565.73 501.38 569.25 537.78
  Q 569.88 544.26 571.13 547.65
  C 573.13 553.07 576.97 558.76 582.37 561.53
  Q 600.50 570.84 618.63 580.15
  A 0.43 0.43 0.0 0 1 618.62 580.92
  L 588.06 596.07
  Q 587.49 596.36 586.93 596.03
  Q 556.86 578.45 525.43 559.86
  Q 521.25 557.39 517.54 556.78
  C 508.79 555.37 500.29 559.76 496.59 567.87
  C 492.11 577.68 496.25 587.90 505.21 593.15
  Q 539.42 613.20 574.11 633.61
  Q 576.38 634.94 579.06 635.73
  C 584.62 637.36 591.52 637.69 596.61 635.20
  Q 610.70 628.31 627.26 620.04
  Q 628.63 619.36 627.89 620.69
  L 614.68 644.41
  Q 614.33 645.03 613.62 645.08
  Q 577.52 647.61 541.25 650.19
  C 524.64 651.36 516.91 671.20 528.50 683.09
  C 533.52 688.25 539.26 689.33 546.59 688.79
  Q 585.74 685.96 622.89 683.46
  Q 632.34 682.83 639.59 676.80
  Q 642.78 674.15 644.84 670.35
  Q 648.47 663.67 651.97 657.40
  Q 652.54 656.37 652.55 657.55
  Q 652.73 679.40 652.69 703.75
  C 652.68 708.02 652.43 712.16 653.52 715.96
  Q 656.26 725.53 665.80 729.30
  Q 669.13 730.61 677.24 730.58
  Q 725.06 730.40 773.66 730.53
  C 779.15 730.54 784.09 729.43 788.19 725.76
  Q 795.35 719.34 795.31 709.70
  Q 795.20 684.33 795.31 657.46
  Q 795.32 656.08 795.99 657.29
  Q 799.75 664.13 803.86 671.44
  Q 806.24 675.66 810.03 678.11
  C 815.13 681.40 819.25 683.07 825.19 683.46
  Q 862.52 685.91 898.87 688.64
  Q 907.17 689.26 911.11 688.14
  C 920.79 685.38 926.56 675.53 924.56 665.60
  Q 922.89 657.35 915.13 652.54
  Q 914.31 652.03 913.40 651.74
  C 911.84 651.22 910.19 650.54 908.57 650.38
  Q 893.08 648.84 874.35 647.83
  Q 867.74 647.47 861.21 646.77
  Q 855.94 646.20 848.13 645.96
  Q 841.23 645.74 834.54 644.88
  Q 834.10 644.83 833.83 644.47
  Q 832.19 642.26 831.05 640.23
  Q 825.61 630.54 820.40 621.16
  Q 820.18 620.77 820.04 620.32
  Q 819.74 619.41 820.58 619.87
  Q 823.46 621.45 826.78 623.02
  Q 830.29 624.69 833.47 626.34
  Q 837.07 628.20 840.15 629.66
  Q 845.08 632.00 849.95 634.45
  Q 852.90 635.93 855.31 636.55
  C 859.27 637.55 863.55 636.73 867.60 636.17
  Q 870.24 635.80 872.58 634.42
  Q 908.80 613.10 943.27 592.86
  C 958.37 583.99 955.54 561.86 938.67 557.14
  C 933.01 555.56 927.67 556.87 922.64 559.84
  Q 890.83 578.63 860.97 596.09
  Q 860.55 596.34 860.12 596.12
  L 829.53 581.00
  A 0.51 0.51 0.0 0 1 829.52 580.09
  Q 846.63 571.35 863.69 562.52
  Q 863.74 562.50 863.77 562.45
  Q 863.81 562.40 863.81 562.33
  Q 863.83 562.23 863.93 562.19
  Z
  M 773.59 503.84
  A 49.60 49.60 0.0 0 0 723.99 454.24
  A 49.60 49.60 0.0 0 0 674.39 503.84
  A 49.60 49.60 0.0 0 0 723.99 553.44
  A 49.60 49.60 0.0 0 0 773.59 503.84
  Z
  M 838.19 813.03
  Q 839.88 816.33 843.98 818.90
  Q 846.44 820.44 848.79 821.12
  Q 861.19 824.70 872.99 821.15
  C 883.42 818.02 887.29 809.21 885.62 798.68
  C 883.13 782.96 863.18 781.71 851.11 784.36
  C 845.64 785.55 839.92 788.90 837.69 794.05
  Q 833.47 803.82 838.19 813.03
  Z
  M 284.34 849.11
  C 285.18 846.33 286.35 843.71 287.36 841.05
  C 293.81 823.86 305.75 806.93 325.34 805.57
  A 0.81 0.80 88.0 0 1 326.20 806.38
  Q 326.22 874.89 326.19 937.92
  Q 326.19 942.94 325.15 948.27
  C 323.66 955.88 318.34 957.48 311.58 958.20
  Q 306.51 958.74 301.21 958.71
  Q 300.60 958.71 300.60 959.32
  L 300.59 962.71
  Q 300.59 963.39 301.27 963.37
  Q 349.54 961.96 397.78 963.39
  Q 398.49 963.41 398.49 962.70
  L 398.48 959.26
  Q 398.48 958.71 397.93 958.71
  Q 391.20 958.72 384.68 957.84
  C 378.75 957.03 374.82 953.89 373.84 947.90
  Q 372.87 941.95 372.87 933.39
  Q 372.93 869.87 372.92 806.08
  A 0.45 0.45 0.0 0 1 373.38 805.63
  C 388.58 806.18 399.37 816.76 406.54 829.81
  Q 414.32 843.97 418.35 862.24
  Q 418.40 862.43 418.59 862.43
  L 423.53 862.49
  Q 423.76 862.49 423.74 862.26
  C 422.53 842.09 423.39 821.37 424.69 800.81
  Q 424.72 800.37 424.28 800.37
  Q 349.91 801.69 274.76 800.37
  A 0.41 0.40 -2.0 0 0 274.35 800.80
  Q 276.02 825.98 275.91 850.89
  Q 275.88 856.80 275.30 862.25
  Q 275.27 862.50 275.53 862.50
  L 280.27 862.50
  A 0.34 0.33 -81.9 0 0 280.59 862.25
  Q 282.32 855.79 284.34 849.11
  Z
  M 788.86 823.21
  Q 789.52 822.89 789.99 822.43
  Q 802.34 810.20 819.85 804.87
  Q 820.38 804.71 820.39 804.16
  L 820.42 801.23
  Q 820.43 800.48 819.68 800.51
  Q 789.06 801.53 758.50 800.30
  Q 758.26 800.29 758.25 800.53
  L 758.22 804.51
  Q 758.22 804.72 758.43 804.73
  Q 767.56 804.99 772.80 809.85
  C 777.22 813.95 778.13 819.80 776.53 825.24
  Q 774.58 831.86 767.53 839.94
  Q 757.33 851.64 748.32 860.72
  Q 740.13 868.98 732.55 872.85
  Q 726.61 875.88 720.35 876.63
  A 0.49 0.49 0.0 0 1 719.80 876.14
  Q 719.67 849.85 719.77 822.53
  C 719.79 818.85 720.05 814.87 721.16 811.45
  C 723.02 805.75 730.33 805.15 735.51 804.95
  A 0.71 0.71 0.0 0 0 736.19 804.24
  L 736.18 801.20
  Q 736.17 800.32 735.29 800.34
  Q 696.67 801.55 657.26 800.34
  Q 656.64 800.32 656.64 800.94
  L 656.65 804.47
  Q 656.65 804.96 657.14 804.97
  C 663.44 805.14 670.96 805.88 672.16 813.61
  Q 673.03 819.18 673.02 825.28
  Q 672.95 879.21 673.01 938.39
  Q 673.02 945.00 672.08 950.23
  Q 670.96 956.51 664.51 957.73
  Q 660.76 958.44 657.25 958.65
  Q 656.64 958.69 656.65 959.29
  L 656.66 962.73
  Q 656.67 963.41 657.35 963.37
  Q 666.41 962.74 675.52 962.71
  Q 699.09 962.65 720.19 962.78
  Q 727.22 962.83 735.55 963.33
  Q 736.14 963.36 736.12 962.77
  L 736.03 959.21
  Q 736.02 958.76 735.56 958.72
  C 729.38 958.18 722.19 957.84 720.74 950.26
  C 720.17 947.26 719.73 944.00 719.74 940.94
  Q 719.83 911.51 719.73 882.69
  A 0.84 0.84 0.0 0 1 720.87 881.90
  Q 724.79 883.36 727.18 886.87
  Q 728.26 888.46 729.10 889.84
  Q 745.53 916.93 765.02 950.22
  Q 766.25 952.32 766.23 955.05
  Q 766.22 955.62 765.83 956.03
  C 763.69 958.36 756.73 958.61 753.78 958.63
  A 0.62 0.62 0.0 0 0 753.16 959.26
  L 753.18 962.80
  Q 753.18 963.37 753.75 963.35
  Q 789.22 962.00 826.76 963.28
  Q 827.54 963.31 827.54 962.52
  L 827.51 959.55
  A 1.52 1.50 13.6 0 0 826.69 958.23
  Q 819.34 954.42 813.42 944.57
  Q 786.82 900.35 760.42 856.29
  A 1.04 1.04 0.0 0 1 760.53 855.07
  Q 771.32 842.89 783.03 829.53
  Q 784.20 828.20 785.58 827.12
  Q 786.90 826.09 787.44 824.74
  Q 787.85 823.70 788.86 823.21
  Z
  M 1128.11 847.17
  Q 1126.76 846.38 1125.24 845.90
  Q 1123.77 845.43 1122.34 844.83
  Q 1120.33 843.99 1118.24 843.44
  Q 1096.57 837.73 1075.10 843.42
  Q 1068.97 845.04 1062.75 848.61
  C 1050.20 855.80 1046.49 867.73 1047.46 881.48
  C 1048.84 901.14 1065.47 910.72 1083.30 913.18
  Q 1084.32 913.32 1083.54 914.00
  Q 1083.01 914.47 1082.36 914.78
  Q 1077.85 916.92 1073.51 919.94
  C 1064.03 926.55 1057.11 934.67 1059.71 947.18
  Q 1060.80 952.44 1064.47 956.07
  Q 1069.39 960.92 1075.98 962.63
  Q 1078.97 963.41 1082.32 964.01
  Q 1085.69 964.61 1088.88 964.64
  Q 1098.63 964.72 1107.79 964.86
  C 1113.50 964.95 1121.03 966.01 1124.65 970.74
  Q 1131.37 979.51 1125.75 990.14
  C 1121.37 998.41 1111.24 1001.84 1101.99 1002.51
  C 1089.87 1003.38 1067.03 1001.74 1065.88 985.55
  C 1065.42 979.05 1067.62 974.23 1071.56 969.45
  Q 1071.88 969.07 1071.61 968.65
  L 1069.84 965.89
  Q 1069.56 965.46 1069.06 965.57
  C 1061.42 967.32 1053.58 970.03 1047.94 975.40
  C 1042.81 980.28 1040.67 987.28 1044.89 993.39
  C 1049.42 999.96 1060.63 1003.28 1068.03 1004.53
  Q 1093.14 1008.77 1119.60 1004.60
  Q 1131.87 1002.66 1142.62 997.13
  Q 1147.25 994.75 1151.45 991.24
  Q 1163.37 981.29 1164.79 966.56
  C 1165.84 955.68 1161.84 944.56 1152.06 939.16
  Q 1138.66 931.77 1120.95 931.36
  Q 1107.36 931.04 1093.33 931.20
  C 1089.89 931.24 1085.74 930.36 1084.75 926.46
  Q 1082.84 918.98 1089.99 914.55
  Q 1090.73 914.09 1091.58 914.13
  Q 1101.39 914.65 1110.92 913.17
  Q 1119.30 911.87 1127.61 907.89
  C 1143.92 900.08 1149.02 884.30 1145.12 867.39
  Q 1143.47 860.27 1138.47 854.67
  A 1.16 1.15 -47.6 0 1 1138.41 853.21
  Q 1143.83 846.03 1151.66 842.83
  Q 1152.44 842.51 1152.15 843.30
  Q 1151.53 845.01 1150.81 846.73
  C 1148.22 852.97 1148.79 862.46 1155.85 865.53
  Q 1162.78 868.53 1167.85 865.29
  Q 1171.99 862.65 1173.08 858.02
  C 1174.80 850.70 1172.62 842.26 1165.39 839.21
  Q 1160.15 836.99 1153.25 838.26
  Q 1141.80 840.38 1134.43 850.30
  Q 1134.09 850.76 1133.64 850.41
  C 1131.95 849.10 1129.94 848.25 1128.11 847.17
  Z
  M 959.00 856.04
  L 959.06 841.99
  Q 959.06 841.40 958.48 841.49
  Q 931.47 845.82 905.04 843.90
  Q 904.69 843.87 904.70 844.22
  L 904.75 848.58
  Q 904.76 848.74 904.92 848.74
  C 911.80 848.50 915.15 852.29 916.60 858.50
  Q 917.45 862.14 917.47 865.83
  Q 917.68 906.16 917.49 944.73
  Q 917.47 948.59 916.16 952.37
  C 914.56 956.95 909.93 958.54 905.21 958.49
  Q 904.71 958.48 904.72 958.98
  L 904.74 962.79
  A 0.51 0.50 87.9 0 0 905.28 963.30
  C 927.34 961.99 948.91 962.19 969.29 963.34
  A 0.31 0.31 0.0 0 0 969.61 963.03
  L 969.62 958.72
  Q 969.62 958.51 969.41 958.51
  C 958.63 958.47 959.15 948.34 959.11 940.74
  Q 958.95 909.67 959.09 873.74
  C 959.10 870.40 958.83 866.44 959.97 863.50
  Q 963.57 854.23 973.82 852.78
  Q 977.43 852.27 981.10 853.77
  Q 983.85 854.89 985.06 857.61
  Q 986.87 861.69 986.87 865.54
  Q 986.89 900.74 986.91 943.06
  C 986.91 950.09 986.09 958.64 976.86 958.45
  Q 976.33 958.44 976.33 958.96
  L 976.33 962.77
  Q 976.33 963.39 976.94 963.36
  Q 1009.66 961.53 1040.63 963.38
  Q 1041.26 963.42 1041.26 962.79
  L 1041.26 959.01
  Q 1041.26 958.45 1040.70 958.47
  C 1029.90 958.89 1028.38 950.94 1028.38 942.17
  Q 1028.35 909.98 1028.37 879.96
  C 1028.37 871.01 1028.08 861.49 1024.12 853.62
  C 1016.47 838.44 993.26 839.15 979.88 842.55
  C 971.59 844.66 964.82 849.21 960.01 856.35
  Q 958.99 857.86 959.00 856.04
  Z
  M 489.32 948.71
  Q 491.69 962.33 504.99 964.24
  C 517.31 966.02 532.54 964.77 542.40 956.80
  Q 542.96 956.34 542.57 955.73
  L 540.90 953.13
  Q 540.47 952.46 539.86 952.98
  C 537.48 955.03 531.81 958.33 530.65 953.30
  Q 529.99 950.42 530.00 947.45
  Q 530.05 914.29 529.94 879.85
  Q 529.91 869.88 528.04 862.41
  C 525.53 852.38 515.58 844.78 505.83 842.83
  Q 480.86 837.83 457.62 843.99
  Q 450.95 845.75 443.58 850.92
  C 436.08 856.18 432.64 863.60 434.00 872.75
  Q 435.34 881.81 442.27 886.37
  C 447.97 890.12 456.96 889.91 463.04 887.12
  Q 473.54 882.31 474.59 871.60
  C 475.60 861.30 469.82 853.25 460.13 849.51
  A 0.54 0.53 -50.0 0 1 460.05 848.55
  C 467.26 844.16 480.07 843.03 485.16 851.57
  Q 488.49 857.15 488.49 863.90
  Q 488.49 873.08 488.58 883.45
  C 488.62 888.23 486.98 891.48 482.90 894.10
  Q 478.15 897.15 472.91 899.01
  Q 464.55 901.98 457.05 904.58
  C 445.23 908.69 430.85 915.74 428.06 929.43
  Q 425.93 939.87 429.51 948.65
  C 435.31 962.88 448.48 966.22 462.77 964.61
  Q 478.88 962.80 488.53 948.54
  Q 489.13 947.65 489.32 948.71
  Z
  M 596.64 869.34
  C 591.84 862.05 592.53 848.96 603.13 846.72
  C 624.82 842.14 633.71 865.23 635.61 881.92
  Q 635.65 882.30 636.03 882.30
  L 639.94 882.29
  Q 640.29 882.29 640.29 881.94
  Q 640.16 862.31 641.17 841.56
  Q 641.20 840.85 640.49 840.83
  L 637.35 840.78
  Q 636.61 840.77 636.48 841.51
  C 635.91 844.84 633.75 849.76 629.56 848.01
  Q 626.94 846.91 623.96 845.66
  C 608.66 839.21 589.31 838.56 574.01 845.74
  C 563.68 850.59 555.39 859.27 554.55 871.02
  C 553.53 885.30 560.59 896.09 570.63 905.68
  Q 579.86 914.48 588.92 922.99
  Q 594.10 927.86 598.12 933.01
  C 602.94 939.16 605.87 953.13 597.73 958.38
  C 591.21 962.58 582.19 960.95 576.19 956.45
  C 565.41 948.38 560.66 933.08 559.18 919.77
  Q 559.08 918.93 558.24 918.92
  L 555.19 918.88
  Q 554.41 918.87 554.41 919.65
  Q 554.49 941.62 553.55 964.27
  Q 553.52 964.97 554.22 964.97
  L 557.37 964.97
  Q 558.13 964.98 558.34 964.25
  C 560.15 957.97 563.32 955.15 570.07 958.07
  C 575.60 960.47 580.53 963.59 586.48 965.02
  C 612.51 971.31 650.37 958.28 645.91 925.11
  Q 644.51 914.70 636.54 906.26
  C 627.79 896.99 617.97 889.03 607.90 881.12
  Q 600.67 875.45 596.64 869.34
  Z
  M 895.30 958.54
  C 882.70 958.23 883.06 948.74 883.05 939.24
  Q 883.00 889.93 883.05 841.92
  Q 883.05 841.40 882.54 841.48
  Q 855.72 845.82 828.88 843.89
  Q 828.72 843.88 828.72 844.04
  L 828.71 848.42
  Q 828.71 848.72 829.01 848.72
  Q 838.53 848.56 840.59 858.49
  Q 841.45 862.63 841.46 866.33
  Q 841.65 901.72 841.52 943.90
  C 841.50 952.13 839.23 958.53 829.44 958.47
  A 0.71 0.70 -89.6 0 0 828.73 959.18
  L 828.72 962.76
  Q 828.72 963.42 829.39 963.38
  Q 861.42 961.62 893.99 963.21
  Q 894.72 963.25 895.42 963.26
  A 0.47 0.46 0.6 0 0 895.90 962.80
  L 895.92 959.19
  Q 895.93 958.56 895.30 958.54
  Z"
/>
<path fill="#000000" d="
  M 863.81 562.33
  Q 863.81 562.40 863.77 562.45
  Q 863.74 562.50 863.69 562.52
  Q 846.63 571.35 829.52 580.09
  A 0.51 0.51 0.0 0 0 829.53 581.00
  L 860.12 596.12
  Q 860.55 596.34 860.97 596.09
  Q 890.83 578.63 922.64 559.84
  C 927.67 556.87 933.01 555.56 938.67 557.14
  C 955.54 561.86 958.37 583.99 943.27 592.86
  Q 908.80 613.10 872.58 634.42
  Q 870.24 635.80 867.60 636.17
  C 863.55 636.73 859.27 637.55 855.31 636.55
  Q 852.90 635.93 849.95 634.45
  Q 845.08 632.00 840.15 629.66
  Q 837.07 628.20 833.47 626.34
  Q 830.29 624.69 826.78 623.02
  Q 823.46 621.45 820.58 619.87
  Q 819.74 619.41 820.04 620.32
  Q 820.18 620.77 820.40 621.16
  Q 825.61 630.54 831.05 640.23
  Q 832.19 642.26 833.83 644.47
  Q 834.10 644.83 834.54 644.88
  Q 841.23 645.74 848.13 645.96
  Q 855.94 646.20 861.21 646.77
  Q 867.74 647.47 874.35 647.83
  Q 893.08 648.84 908.57 650.38
  C 910.19 650.54 911.84 651.22 913.40 651.74
  Q 914.31 652.03 915.13 652.54
  Q 922.89 657.35 924.56 665.60
  C 926.56 675.53 920.79 685.38 911.11 688.14
  Q 907.17 689.26 898.87 688.64
  Q 862.52 685.91 825.19 683.46
  C 819.25 683.07 815.13 681.40 810.03 678.11
  Q 806.24 675.66 803.86 671.44
  Q 799.75 664.13 795.99 657.29
  Q 795.32 656.08 795.31 657.46
  Q 795.20 684.33 795.31 709.70
  Q 795.35 719.34 788.19 725.76
  C 784.09 729.43 779.15 730.54 773.66 730.53
  Q 725.06 730.40 677.24 730.58
  Q 669.13 730.61 665.80 729.30
  Q 656.26 725.53 653.52 715.96
  C 652.43 712.16 652.68 708.02 652.69 703.75
  Q 652.73 679.40 652.55 657.55
  Q 652.54 656.37 651.97 657.40
  Q 648.47 663.67 644.84 670.35
  Q 642.78 674.15 639.59 676.80
  Q 632.34 682.83 622.89 683.46
  Q 585.74 685.96 546.59 688.79
  C 539.26 689.33 533.52 688.25 528.50 683.09
  C 516.91 671.20 524.64 651.36 541.25 650.19
  Q 577.52 647.61 613.62 645.08
  Q 614.33 645.03 614.68 644.41
  L 627.89 620.69
  Q 628.63 619.36 627.26 620.04
  Q 610.70 628.31 596.61 635.20
  C 591.52 637.69 584.62 637.36 579.06 635.73
  Q 576.38 634.94 574.11 633.61
  Q 539.42 613.20 505.21 593.15
  C 496.25 587.90 492.11 577.68 496.59 567.87
  C 500.29 559.76 508.79 555.37 517.54 556.78
  Q 521.25 557.39 525.43 559.86
  Q 556.86 578.45 586.93 596.03
  Q 587.49 596.36 588.06 596.07
  L 618.62 580.92
  A 0.43 0.43 0.0 0 0 618.63 580.15
  Q 600.50 570.84 582.37 561.53
  C 576.97 558.76 573.13 553.07 571.13 547.65
  Q 569.88 544.26 569.25 537.78
  Q 565.73 501.38 561.49 462.32
  Q 560.48 452.99 566.81 446.37
  C 576.52 436.20 593.64 439.49 598.87 452.67
  Q 599.85 455.15 600.51 461.46
  Q 604.12 495.97 607.74 530.39
  A 0.83 0.82 -80.1 0 0 608.19 531.04
  L 666.52 561.05
  Q 667.06 561.32 667.64 561.23
  C 669.12 560.99 670.55 560.53 672.05 560.53
  Q 721.56 560.49 775.15 560.50
  C 776.97 560.50 778.63 560.94 780.39 561.22
  Q 780.96 561.31 781.47 561.05
  L 839.82 531.07
  Q 840.22 530.87 840.27 530.42
  Q 843.94 494.89 847.87 457.76
  C 848.71 449.86 854.55 442.90 862.18 441.07
  C 873.08 438.46 884.23 444.79 886.22 456.09
  Q 886.79 459.30 886.05 466.42
  Q 882.39 501.65 878.55 538.47
  Q 877.77 546.00 876.36 549.03
  C 873.69 554.74 869.96 560.02 863.93 562.19
  Q 863.83 562.23 863.81 562.33
  Z"
/>
<circle fill="#000000" cx="723.99" cy="503.84" r="49.60"/>
<path fill="#000000" d="
  M 838.19 813.03
  Q 833.47 803.82 837.69 794.05
  C 839.92 788.90 845.64 785.55 851.11 784.36
  C 863.18 781.71 883.13 782.96 885.62 798.68
  C 887.29 809.21 883.42 818.02 872.99 821.15
  Q 861.19 824.70 848.79 821.12
  Q 846.44 820.44 843.98 818.90
  Q 839.88 816.33 838.19 813.03
  Z"
/>
<path fill="#000000" d="
  M 284.34 849.11
  Q 282.32 855.79 280.59 862.25
  A 0.34 0.33 -81.9 0 1 280.27 862.50
  L 275.53 862.50
  Q 275.27 862.50 275.30 862.25
  Q 275.88 856.80 275.91 850.89
  Q 276.02 825.98 274.35 800.80
  A 0.41 0.40 -2.0 0 1 274.76 800.37
  Q 349.91 801.69 424.28 800.37
  Q 424.72 800.37 424.69 800.81
  C 423.39 821.37 422.53 842.09 423.74 862.26
  Q 423.76 862.49 423.53 862.49
  L 418.59 862.43
  Q 418.40 862.43 418.35 862.24
  Q 414.32 843.97 406.54 829.81
  C 399.37 816.76 388.58 806.18 373.38 805.63
  A 0.45 0.45 0.0 0 0 372.92 806.08
  Q 372.93 869.87 372.87 933.39
  Q 372.87 941.95 373.84 947.90
  C 374.82 953.89 378.75 957.03 384.68 957.84
  Q 391.20 958.72 397.93 958.71
  Q 398.48 958.71 398.48 959.26
  L 398.49 962.70
  Q 398.49 963.41 397.78 963.39
  Q 349.54 961.96 301.27 963.37
  Q 300.59 963.39 300.59 962.71
  L 300.60 959.32
  Q 300.60 958.71 301.21 958.71
  Q 306.51 958.74 311.58 958.20
  C 318.34 957.48 323.66 955.88 325.15 948.27
  Q 326.19 942.94 326.19 937.92
  Q 326.22 874.89 326.20 806.38
  A 0.81 0.80 88.0 0 0 325.34 805.57
  C 305.75 806.93 293.81 823.86 287.36 841.05
  C 286.35 843.71 285.18 846.33 284.34 849.11
  Z"
/>
<path fill="#000000" d="
  M 788.86 823.21
  Q 787.85 823.70 787.44 824.74
  Q 786.90 826.09 785.58 827.12
  Q 784.20 828.20 783.03 829.53
  Q 771.32 842.89 760.53 855.07
  A 1.04 1.04 0.0 0 0 760.42 856.29
  Q 786.82 900.35 813.42 944.57
  Q 819.34 954.42 826.69 958.23
  A 1.52 1.50 13.6 0 1 827.51 959.55
  L 827.54 962.52
  Q 827.54 963.31 826.76 963.28
  Q 789.22 962.00 753.75 963.35
  Q 753.18 963.37 753.18 962.80
  L 753.16 959.26
  A 0.62 0.62 0.0 0 1 753.78 958.63
  C 756.73 958.61 763.69 958.36 765.83 956.03
  Q 766.22 955.62 766.23 955.05
  Q 766.25 952.32 765.02 950.22
  Q 745.53 916.93 729.10 889.84
  Q 728.26 888.46 727.18 886.87
  Q 724.79 883.36 720.87 881.90
  A 0.84 0.84 0.0 0 0 719.73 882.69
  Q 719.83 911.51 719.74 940.94
  C 719.73 944.00 720.17 947.26 720.74 950.26
  C 722.19 957.84 729.38 958.18 735.56 958.72
  Q 736.02 958.76 736.03 959.21
  L 736.12 962.77
  Q 736.14 963.36 735.55 963.33
  Q 727.22 962.83 720.19 962.78
  Q 699.09 962.65 675.52 962.71
  Q 666.41 962.74 657.35 963.37
  Q 656.67 963.41 656.66 962.73
  L 656.65 959.29
  Q 656.64 958.69 657.25 958.65
  Q 660.76 958.44 664.51 957.73
  Q 670.96 956.51 672.08 950.23
  Q 673.02 945.00 673.01 938.39
  Q 672.95 879.21 673.02 825.28
  Q 673.03 819.18 672.16 813.61
  C 670.96 805.88 663.44 805.14 657.14 804.97
  Q 656.65 804.96 656.65 804.47
  L 656.64 800.94
  Q 656.64 800.32 657.26 800.34
  Q 696.67 801.55 735.29 800.34
  Q 736.17 800.32 736.18 801.20
  L 736.19 804.24
  A 0.71 0.71 0.0 0 1 735.51 804.95
  C 730.33 805.15 723.02 805.75 721.16 811.45
  C 720.05 814.87 719.79 818.85 719.77 822.53
  Q 719.67 849.85 719.80 876.14
  A 0.49 0.49 0.0 0 0 720.35 876.63
  Q 726.61 875.88 732.55 872.85
  Q 740.13 868.98 748.32 860.72
  Q 757.33 851.64 767.53 839.94
  Q 774.58 831.86 776.53 825.24
  C 778.13 819.80 777.22 813.95 772.80 809.85
  Q 767.56 804.99 758.43 804.73
  Q 758.22 804.72 758.22 804.51
  L 758.25 800.53
  Q 758.26 800.29 758.50 800.30
  Q 789.06 801.53 819.68 800.51
  Q 820.43 800.48 820.42 801.23
  L 820.39 804.16
  Q 820.38 804.71 819.85 804.87
  Q 802.34 810.20 789.99 822.43
  Q 789.52 822.89 788.86 823.21
  Z"
/>
<path fill="#000000" d="
  M 1128.11 847.17
  C 1129.94 848.25 1131.95 849.10 1133.64 850.41
  Q 1134.09 850.76 1134.43 850.30
  Q 1141.80 840.38 1153.25 838.26
  Q 1160.15 836.99 1165.39 839.21
  C 1172.62 842.26 1174.80 850.70 1173.08 858.02
  Q 1171.99 862.65 1167.85 865.29
  Q 1162.78 868.53 1155.85 865.53
  C 1148.79 862.46 1148.22 852.97 1150.81 846.73
  Q 1151.53 845.01 1152.15 843.30
  Q 1152.44 842.51 1151.66 842.83
  Q 1143.83 846.03 1138.41 853.21
  A 1.16 1.15 -47.6 0 0 1138.47 854.67
  Q 1143.47 860.27 1145.12 867.39
  C 1149.02 884.30 1143.92 900.08 1127.61 907.89
  Q 1119.30 911.87 1110.92 913.17
  Q 1101.39 914.65 1091.58 914.13
  Q 1090.73 914.09 1089.99 914.55
  Q 1082.84 918.98 1084.75 926.46
  C 1085.74 930.36 1089.89 931.24 1093.33 931.20
  Q 1107.36 931.04 1120.95 931.36
  Q 1138.66 931.77 1152.06 939.16
  C 1161.84 944.56 1165.84 955.68 1164.79 966.56
  Q 1163.37 981.29 1151.45 991.24
  Q 1147.25 994.75 1142.62 997.13
  Q 1131.87 1002.66 1119.60 1004.60
  Q 1093.14 1008.77 1068.03 1004.53
  C 1060.63 1003.28 1049.42 999.96 1044.89 993.39
  C 1040.67 987.28 1042.81 980.28 1047.94 975.40
  C 1053.58 970.03 1061.42 967.32 1069.06 965.57
  Q 1069.56 965.46 1069.84 965.89
  L 1071.61 968.65
  Q 1071.88 969.07 1071.56 969.45
  C 1067.62 974.23 1065.42 979.05 1065.88 985.55
  C 1067.03 1001.74 1089.87 1003.38 1101.99 1002.51
  C 1111.24 1001.84 1121.37 998.41 1125.75 990.14
  Q 1131.37 979.51 1124.65 970.74
  C 1121.03 966.01 1113.50 964.95 1107.79 964.86
  Q 1098.63 964.72 1088.88 964.64
  Q 1085.69 964.61 1082.32 964.01
  Q 1078.97 963.41 1075.98 962.63
  Q 1069.39 960.92 1064.47 956.07
  Q 1060.80 952.44 1059.71 947.18
  C 1057.11 934.67 1064.03 926.55 1073.51 919.94
  Q 1077.85 916.92 1082.36 914.78
  Q 1083.01 914.47 1083.54 914.00
  Q 1084.32 913.32 1083.30 913.18
  C 1065.47 910.72 1048.84 901.14 1047.46 881.48
  C 1046.49 867.73 1050.20 855.80 1062.75 848.61
  Q 1068.97 845.04 1075.10 843.42
  Q 1096.57 837.73 1118.24 843.44
  Q 1120.33 843.99 1122.34 844.83
  Q 1123.77 845.43 1125.24 845.90
  Q 1126.76 846.38 1128.11 847.17
  Z
  M 1103.20 850.62
  C 1101.43 845.46 1095.08 841.96 1091.56 848.23
  Q 1089.07 852.68 1088.40 858.04
  Q 1086.75 871.18 1087.61 888.72
  C 1087.84 893.46 1089.41 913.97 1099.01 909.55
  C 1102.70 907.85 1104.57 900.88 1105.12 897.39
  Q 1106.11 891.14 1106.20 876.14
  C 1106.23 870.57 1105.65 865.15 1105.33 859.65
  C 1105.14 856.55 1104.21 853.54 1103.20 850.62
  Z"
/>
<path fill="#000000" d="
  M 959.00 856.04
  Q 958.99 857.86 960.01 856.35
  C 964.82 849.21 971.59 844.66 979.88 842.55
  C 993.26 839.15 1016.47 838.44 1024.12 853.62
  C 1028.08 861.49 1028.37 871.01 1028.37 879.96
  Q 1028.35 909.98 1028.38 942.17
  C 1028.38 950.94 1029.90 958.89 1040.70 958.47
  Q 1041.26 958.45 1041.26 959.01
  L 1041.26 962.79
  Q 1041.26 963.42 1040.63 963.38
  Q 1009.66 961.53 976.94 963.36
  Q 976.33 963.39 976.33 962.77
  L 976.33 958.96
  Q 976.33 958.44 976.86 958.45
  C 986.09 958.64 986.91 950.09 986.91 943.06
  Q 986.89 900.74 986.87 865.54
  Q 986.87 861.69 985.06 857.61
  Q 983.85 854.89 981.10 853.77
  Q 977.43 852.27 973.82 852.78
  Q 963.57 854.23 959.97 863.50
  C 958.83 866.44 959.10 870.40 959.09 873.74
  Q 958.95 909.67 959.11 940.74
  C 959.15 948.34 958.63 958.47 969.41 958.51
  Q 969.62 958.51 969.62 958.72
  L 969.61 963.03
  A 0.31 0.31 0.0 0 1 969.29 963.34
  C 948.91 962.19 927.34 961.99 905.28 963.30
  A 0.51 0.50 87.9 0 1 904.74 962.79
  L 904.72 958.98
  Q 904.71 958.48 905.21 958.49
  C 909.93 958.54 914.56 956.95 916.16 952.37
  Q 917.47 948.59 917.49 944.73
  Q 917.68 906.16 917.47 865.83
  Q 917.45 862.14 916.60 858.50
  C 915.15 852.29 911.80 848.50 904.92 848.74
  Q 904.76 848.74 904.75 848.58
  L 904.70 844.22
  Q 904.69 843.87 905.04 843.90
  Q 931.47 845.82 958.48 841.49
  Q 959.06 841.40 959.06 841.99
  L 959.00 856.04
  Z"
/>
<path fill="#000000" d="
  M 489.32 948.71
  Q 489.13 947.65 488.53 948.54
  Q 478.88 962.80 462.77 964.61
  C 448.48 966.22 435.31 962.88 429.51 948.65
  Q 425.93 939.87 428.06 929.43
  C 430.85 915.74 445.23 908.69 457.05 904.58
  Q 464.55 901.98 472.91 899.01
  Q 478.15 897.15 482.90 894.10
  C 486.98 891.48 488.62 888.23 488.58 883.45
  Q 488.49 873.08 488.49 863.90
  Q 488.49 857.15 485.16 851.57
  C 480.07 843.03 467.26 844.16 460.05 848.55
  A 0.54 0.53 -50.0 0 0 460.13 849.51
  C 469.82 853.25 475.60 861.30 474.59 871.60
  Q 473.54 882.31 463.04 887.12
  C 456.96 889.91 447.97 890.12 442.27 886.37
  Q 435.34 881.81 434.00 872.75
  C 432.64 863.60 436.08 856.18 443.58 850.92
  Q 450.95 845.75 457.62 843.99
  Q 480.86 837.83 505.83 842.83
  C 515.58 844.78 525.53 852.38 528.04 862.41
  Q 529.91 869.88 529.94 879.85
  Q 530.05 914.29 530.00 947.45
  Q 529.99 950.42 530.65 953.30
  C 531.81 958.33 537.48 955.03 539.86 952.98
  Q 540.47 952.46 540.90 953.13
  L 542.57 955.73
  Q 542.96 956.34 542.40 956.80
  C 532.54 964.77 517.31 966.02 504.99 964.24
  Q 491.69 962.33 489.32 948.71
  Z
  M 471.29 914.87
  Q 468.07 921.44 468.26 931.21
  C 468.41 938.73 470.71 945.82 479.27 946.49
  Q 484.45 946.89 488.07 943.14
  A 1.60 1.57 67.5 0 0 488.52 942.03
  L 488.52 895.06
  Q 488.52 894.19 488.03 894.91
  C 486.73 896.84 485.34 898.88 483.63 900.45
  C 478.99 904.72 474.13 909.09 471.29 914.87
  Z"
/>
<path fill="#000000" d="
  M 596.64 869.34
  Q 600.67 875.45 607.90 881.12
  C 617.97 889.03 627.79 896.99 636.54 906.26
  Q 644.51 914.70 645.91 925.11
  C 650.37 958.28 612.51 971.31 586.48 965.02
  C 580.53 963.59 575.60 960.47 570.07 958.07
  C 563.32 955.15 560.15 957.97 558.34 964.25
  Q 558.13 964.98 557.37 964.97
  L 554.22 964.97
  Q 553.52 964.97 553.55 964.27
  Q 554.49 941.62 554.41 919.65
  Q 554.41 918.87 555.19 918.88
  L 558.24 918.92
  Q 559.08 918.93 559.18 919.77
  C 560.66 933.08 565.41 948.38 576.19 956.45
  C 582.19 960.95 591.21 962.58 597.73 958.38
  C 605.87 953.13 602.94 939.16 598.12 933.01
  Q 594.10 927.86 588.92 922.99
  Q 579.86 914.48 570.63 905.68
  C 560.59 896.09 553.53 885.30 554.55 871.02
  C 555.39 859.27 563.68 850.59 574.01 845.74
  C 589.31 838.56 608.66 839.21 623.96 845.66
  Q 626.94 846.91 629.56 848.01
  C 633.75 849.76 635.91 844.84 636.48 841.51
  Q 636.61 840.77 637.35 840.78
  L 640.49 840.83
  Q 641.20 840.85 641.17 841.56
  Q 640.16 862.31 640.29 881.94
  Q 640.29 882.29 639.94 882.29
  L 636.03 882.30
  Q 635.65 882.30 635.61 881.92
  C 633.71 865.23 624.82 842.14 603.13 846.72
  C 592.53 848.96 591.84 862.05 596.64 869.34
  Z"
/>
<path fill="#000000" d="
  M 883.05 939.24
  C 883.06 948.74 882.70 958.23 895.30 958.54
  Q 895.93 958.56 895.92 959.19
  L 895.90 962.80
  A 0.47 0.46 0.6 0 1 895.42 963.26
  Q 894.72 963.25 893.99 963.21
  Q 861.42 961.62 829.39 963.38
  Q 828.72 963.42 828.72 962.76
  L 828.73 959.18
  A 0.71 0.70 -89.6 0 1 829.44 958.47
  C 839.23 958.53 841.50 952.13 841.52 943.90
  Q 841.65 901.72 841.46 866.33
  Q 841.45 862.63 840.59 858.49
  Q 838.53 848.56 829.01 848.72
  Q 828.71 848.72 828.71 848.42
  L 828.72 844.04
  Q 828.72 843.88 828.88 843.89
  Q 855.72 845.82 882.54 841.48
  Q 883.05 841.40 883.05 841.92
  Q 883.00 889.93 883.05 939.24
  Z"
/>
<path fill="#ffffff" d="
  M 1091.56 848.23
  C 1095.08 841.96 1101.43 845.46 1103.20 850.62
  C 1104.21 853.54 1105.14 856.55 1105.33 859.65
  C 1105.65 865.15 1106.23 870.57 1106.20 876.14
  Q 1106.11 891.14 1105.12 897.39
  C 1104.57 900.88 1102.70 907.85 1099.01 909.55
  C 1089.41 913.97 1087.84 893.46 1087.61 888.72
  Q 1086.75 871.18 1088.40 858.04
  Q 1089.07 852.68 1091.56 848.23
  Z"
/>
<path fill="#ffffff" d="
  M 471.29 914.87
  C 474.13 909.09 478.99 904.72 483.63 900.45
  C 485.34 898.88 486.73 896.84 488.03 894.91
  Q 488.52 894.19 488.52 895.06
  L 488.52 942.03
  A 1.60 1.57 67.5 0 1 488.07 943.14
  Q 484.45 946.89 479.27 946.49
  C 470.71 945.82 468.41 938.73 468.26 931.21
  Q 468.07 921.44 471.29 914.87
  Z"
/>
</svg>
