<svg className="lg:h-80" xmlns="http://www.w3.org/2000/svg" version="1.1" viewBox="0.00 0.00 750.00 369.00">
    <g strokeWidth="2.00" fill="none" strokeLinecap="butt">
    <path stroke="#000000" stroke-opacity="0.588" vector-effect="non-scaling-stroke" d="   M 409.13 138.62   Q 407.90 137.90 407.29 136.24   Q 406.89 135.15 405.82 135.45   A 1.47 1.46 75.6 0 1 404.00 134.37   C 403.59 132.59 403.58 126.72 406.88 127.37   C 407.28 127.45 407.75 127.78 407.96 128.14   Q 408.29 128.71 408.81 128.31   Q 412.17 125.69 416.56 127.22   Q 416.94 127.35 416.99 126.96   L 417.39 123.46   Q 417.46 122.91 416.91 122.87   Q 410.10 122.36 402.80 124.44   A 0.52 0.52 0.0 0 0 402.51 125.22   Q 405.51 129.88 400.60 133.16   Q 400.10 133.49 400.43 134.00   C 402.52 137.27 402.43 141.44 398.40 143.11   Q 397.90 143.32 398.13 143.80   C 398.60 144.80 399.44 145.63 399.64 146.72   Q 400.32 150.27 398.13 152.87   Q 397.72 153.35 398.27 153.65   Q 405.32 157.54 406.08 164.05   Q 406.23 165.35 406.67 164.12   L 410.10 154.40   Q 410.31 153.80 409.72 153.56   Q 407.18 152.53 405.86 150.03   Q 405.54 149.42 404.88 149.61   Q 402.41 150.35 401.70 147.75   Q 400.85 144.65 402.25 141.92   A 1.76 1.76 0.0 0 1 405.00 141.42   Q 405.38 141.76 405.89 141.76   Q 406.43 141.76 406.83 141.39   Q 408.04 140.30 409.48 139.69"/>
    <path stroke="#000000" stroke-opacity="0.588" vector-effect="non-scaling-stroke" d="   M 418.15 173.19   A 0.59 0.59 0.0 0 1 419.16 172.75   Q 420.21 173.80 421.43 173.09   Q 421.97 172.77 422.54 172.57   Q 429.82 169.94 433.92 165.64   Q 445.25 153.76 439.58 138.49   Q 437.20 132.10 431.61 128.32   Q 425.93 124.48 419.80 123.36   A 0.38 0.37 8.3 0 0 419.35 123.69   L 418.93 127.58   Q 418.87 128.12 419.30 128.47   C 423.61 132.05 424.85 136.55 420.40 140.50   A 0.35 0.35 0.0 0 0 420.65 141.11   Q 422.08 141.01 423.14 141.85   Q 424.33 142.79 422.85 143.12   Q 421.73 143.36 420.61 143.19   Q 419.78 143.07 420.12 143.83   Q 422.86 149.94 417.71 153.55   C 416.39 154.48 414.66 154.53 413.09 154.56   A 0.95 0.94 -80.5 0 0 412.22 155.19   L 408.49 165.74   A 0.63 0.63 0.0 0 0 408.89 166.55   C 410.55 167.07 411.96 168.35 411.14 170.15   C 410.34 171.92 408.10 172.03 406.45 171.84   Q 405.90 171.77 405.63 172.25   Q 402.30 178.19 406.92 181.33   C 409.24 182.91 412.79 182.61 414.99 180.79   Q 418.35 178.04 418.15 173.19"/>
    <path stroke="#000000" stroke-opacity="0.588" vector-effect="non-scaling-stroke" d="   M 430.23 145.35   Q 429.29 145.92 428.08 145.79   A 0.60 0.60 0.0 0 0 427.44 146.25   L 427.34 146.70   Q 427.14 147.64 428.08 147.81   Q 430.63 148.28 432.02 146.26   A 1.44 1.44 0.0 0 0 432.12 144.80   Q 431.31 143.16 430.02 142.38   Q 429.50 142.06 428.95 142.35   Q 428.30 142.68 428.68 143.30   Q 429.15 144.10 430.19 144.61   Q 430.89 144.95 430.23 145.35"/>
    <path stroke="#000000" stroke-opacity="0.588" vector-effect="non-scaling-stroke" d="   M 550.10 168.99   Q 554.32 170.91 558.46 173.32   A 0.66 0.65 16.4 0 1 558.79 173.92   Q 558.76 174.52 558.33 174.65   Q 557.18 174.99 556.14 174.50   Q 548.73 171.02 541.37 169.56   A 0.46 0.45 -54.1 0 0 541.03 169.62   Q 540.09 170.23 541.33 170.92   Q 546.40 173.79 551.82 176.32   Q 552.69 176.72 552.49 177.66   L 552.43 177.94   A 0.55 0.54 16.5 0 1 551.70 178.33   Q 545.71 175.91 540.25 174.67   Q 539.31 174.46 538.39 174.62   Q 537.10 174.85 538.21 175.55   Q 542.99 178.56 548.37 180.89   A 0.75 0.75 0.0 0 1 548.71 181.95   L 548.49 182.32   A 0.62 0.61 23.0 0 1 547.79 182.60   C 545.17 181.90 540.01 180.08 537.80 180.70   Q 536.80 180.98 537.70 181.51   C 545.47 186.11 557.89 186.95 563.34 178.37   C 567.33 172.07 563.21 164.85 556.27 163.81   A 0.62 0.62 0.0 0 0 555.73 164.86   Q 558.34 167.51 562.12 169.92   A 0.62 0.62 0.0 0 1 562.39 170.57   Q 562.27 171.09 561.86 171.18   Q 560.71 171.42 559.68 170.84   Q 554.24 167.76 548.73 165.58   Q 546.80 164.82 544.78 164.66   Q 543.04 164.53 544.43 165.58   Q 547.14 167.64 550.10 168.99"/>
    </g>
    <path fill="#000000" d="   M 679.79 0.00   L 682.36 0.00   Q 694.51 0.57 707.11 4.22   A 0.52 0.52 0.0 0 1 707.44 4.93   L 707.32 5.20   Q 706.93 6.08 706.01 5.81   C 689.63 1.06 661.76 -2.46 651.51 15.02   C 649.87 17.81 650.51 20.67 650.79 23.58   Q 654.30 59.77 657.33 88.50   Q 657.52 90.25 656.06 90.68   Q 655.57 90.83 655.22 90.45   C 638.49 72.04 615.98 76.38 597.41 89.00   Q 596.59 89.57 597.57 89.71   Q 628.79 94.26 650.12 97.40   Q 651.10 97.54 652.01 97.98   Q 652.40 98.17 652.78 97.96   C 658.51 94.69 663.76 97.86 665.91 103.56   A 1.89 1.89 0.0 0 1 664.21 106.11   L 649.78 106.68   A 1.05 1.05 0.0 0 1 648.71 105.78   Q 648.69 105.57 648.68 105.35   A 1.29 1.28 87.7 0 1 649.89 104.03   L 662.77 103.33   Q 663.62 103.29 663.19 102.55   Q 659.58 96.31 653.90 99.56   Q 651.76 100.78 650.67 103.23   A 0.56 0.54 -66.9 0 1 649.97 103.52   L 649.62 103.39   Q 648.98 103.14 649.14 102.47   Q 649.29 101.85 649.69 101.43   Q 650.20 100.89 649.47 100.78   L 592.49 92.16   A 1.86 1.85 -87.9 0 1 590.92 90.46   L 585.31 21.39   A 0.82 0.82 0.0 0 1 586.12 20.50   L 586.52 20.49   Q 587.30 20.48 587.37 21.25   Q 590.26 54.81 592.91 88.00   Q 592.96 88.62 593.50 89.02   Q 594.03 89.42 593.90 88.77   Q 593.21 85.26 593.18 81.93   C 593.17 79.91 592.65 77.97 592.55 75.95   Q 592.31 71.12 591.68 63.80   Q 589.85 42.66 587.97 18.47   A 1.12 1.10 -17.1 0 1 588.54 17.41   Q 591.95 15.50 595.41 13.45   C 611.62 3.86 633.24 2.54 647.84 16.41   A 0.60 0.60 0.0 0 0 648.80 16.21   Q 652.14 8.52 659.57 4.57   Q 667.97 0.09 679.79 0.00   Z   M 596.49 87.66   C 614.37 74.19 637.34 69.66 654.98 86.70   Q 655.52 87.22 655.44 86.47   L 648.51 20.58   Q 648.45 20.00 648.05 19.57   Q 644.85 16.06 641.09 13.74   C 624.95 3.81 606.01 8.25 590.77 18.55   A 1.09 1.08 71.2 0 0 590.29 19.54   L 595.47 88.78   Q 595.52 89.45 595.85 88.87   Q 595.97 88.66 596.01 88.43   Q 596.10 87.95 596.49 87.66   Z"/>
    <rect fill="#000000" x="-0.97" y="-34.62" transform="translate(713.96,40.17) rotate(-6.2)" width="1.94" height="69.24" rx="0.65"/>
    <path fill="#000000" d="   M 492.20 131.22   A 0.61 0.61 0.0 0 0 491.65 131.94   L 492.81 138.09   Q 492.95 138.87 493.74 138.80   Q 506.57 137.71 523.03 134.93   Q 525.24 134.55 527.56 134.83   Q 528.62 134.96 527.64 135.39   Q 525.37 136.38 522.76 136.84   Q 508.23 139.36 493.89 140.61   Q 493.32 140.66 493.44 141.22   L 494.55 146.75   A 0.70 0.70 0.0 0 0 495.36 147.30   Q 499.21 146.63 503.49 146.78   A 0.32 0.32 0.0 0 1 503.78 147.18   L 503.67 147.60   A 0.84 0.83 -85.4 0 1 502.95 148.22   L 495.83 148.92   A 0.72 0.71 -9.2 0 0 495.20 149.79   L 498.04 162.20   A 0.60 0.60 0.0 0 0 498.72 162.66   Q 503.14 161.95 508.42 161.39   Q 510.33 161.18 509.01 162.58   Q 508.67 162.95 507.25 163.25   Q 503.27 164.09 499.13 164.38   A 0.50 0.49 80.4 0 0 498.69 165.01   Q 501.03 173.60 503.01 181.74   Q 503.34 183.10 503.07 184.80   Q 502.99 185.36 502.67 184.89   Q 501.22 182.75 500.57 180.53   Q 496.27 165.82 492.80 149.47   A 0.32 0.31 83.6 0 0 492.48 149.21   L 486.45 149.36   A 0.26 0.25 -6.3 0 0 486.20 149.67   Q 489.66 166.11 494.58 181.87   Q 494.71 182.31 494.26 182.35   L 493.93 182.38   Q 493.15 182.45 492.91 181.71   Q 476.72 131.33 475.29 81.85   Q 475.28 81.19 474.64 81.37   Q 467.38 83.37 459.28 84.38   Q 458.17 84.52 458.11 83.40   L 457.15 64.64   A 1.40 1.39 -6.5 0 1 458.31 63.19   Q 488.84 58.06 514.99 39.66   A 1.36 1.35 -24.2 0 1 517.09 40.45   Q 518.95 48.21 521.60 58.55   Q 521.74 59.11 522.03 59.51   Q 522.64 60.37 521.77 60.97   C 511.11 68.30 498.66 73.67 486.38 77.88   A 0.88 0.87 -11.7 0 0 485.79 78.77   L 487.60 101.74   A 0.86 0.86 0.0 0 0 488.49 102.54   L 512.55 101.66   Q 513.04 101.64 512.86 102.10   L 512.75 102.37   Q 512.46 103.08 511.71 103.14   Q 498.59 104.27 488.38 103.93   Q 487.70 103.91 487.79 104.58   L 490.92 128.35   Q 491.00 128.93 491.58 128.91   L 499.51 128.59   Q 500.09 128.57 500.45 129.03   Q 500.81 129.50 500.47 129.98   Q 500.14 130.47 499.55 130.52   L 492.20 131.22   Z   M 514.92 41.83   C 498.31 53.64 480.09 61.55 459.86 65.05   A 0.89 0.89 0.0 0 0 459.13 65.98   L 460.06 80.75   Q 460.11 81.55 460.90 81.41   Q 486.16 77.18 510.20 64.80   Q 515.13 62.26 519.51 59.52   Q 519.99 59.22 519.84 58.67   L 515.51 42.04   A 0.38 0.38 0.0 0 0 514.92 41.83   Z   M 485.07 129.34   Q 486.36 129.04 488.10 129.26   A 0.53 0.52 -1.2 0 0 488.68 128.66   Q 485.10 104.54 484.08 78.96   A 0.22 0.22 0.0 0 0 483.80 78.76   L 477.78 80.55   Q 477.55 80.62 477.57 80.85   Q 478.46 98.03 479.69 110.25   Q 481.47 127.94 485.69 147.31   Q 485.78 147.73 486.21 147.71   L 491.91 147.48   Q 492.25 147.46 492.19 147.12   L 489.24 131.94   Q 489.11 131.28 488.43 131.29   L 485.24 131.33   Q 484.62 131.34 484.52 130.74   L 484.44 130.26   Q 484.32 129.50 485.07 129.34   Z"/>
    <path fill="#000000" d="   M 272.21 81.76   Q 255.32 76.28 248.49 59.19   Q 248.28 58.68 247.74 58.78   Q 236.27 60.86 225.13 61.92   Q 224.07 62.02 224.42 63.03   Q 231.10 82.35 248.29 90.44   Q 248.35 90.47 248.37 90.52   Q 248.68 91.15 248.56 91.68   A 0.94 0.94 0.0 0 1 247.31 92.34   C 234.32 87.38 224.96 75.11 221.46 61.91   A 1.30 1.30 0.0 0 1 222.31 60.35   Q 223.38 60.00 224.45 59.86   Q 235.83 58.32 248.12 55.97   Q 249.52 55.70 250.94 55.83   A 0.66 0.66 0.0 0 1 251.53 56.61   Q 251.44 57.14 251.09 57.56   Q 250.74 57.98 250.95 58.48   Q 258.49 76.71 277.94 80.93   Q 278.24 81.00 278.26 81.31   L 278.32 82.46   Q 278.34 82.86 277.94 82.80   C 276.30 82.56 275.22 83.81 273.71 84.30   Q 262.17 88.04 250.78 91.19   Q 249.96 91.42 249.65 90.63   L 249.53 90.31   A 0.94 0.93 70.7 0 1 250.12 89.08   L 272.21 82.17   Q 272.86 81.97 272.21 81.76   Z"/>
    <path fill="#000000" d="   M 534.04 80.39   Q 535.52 80.31 537.00 80.08   A 0.59 0.58 84.4 0 1 537.68 80.64   Q 538.32 101.05 542.08 122.22   Q 546.49 147.10 552.16 161.59   Q 552.45 162.33 551.80 162.78   Q 551.59 162.93 551.33 162.95   A 1.21 1.21 0.0 0 1 550.08 162.16   Q 541.85 140.14 538.30 115.29   Q 538.22 114.74 537.69 114.89   Q 526.10 118.25 513.01 118.95   A 0.87 0.87 0.0 0 1 512.14 118.38   Q 511.96 117.86 512.39 117.55   Q 513.71 116.60 515.23 116.43   Q 525.23 115.30 534.54 113.19   Q 536.01 112.86 537.33 112.22   A 0.53 0.53 0.0 0 0 537.63 111.66   Q 536.04 100.85 535.45 91.87   Q 535.41 91.26 534.81 91.38   Q 518.33 94.87 501.03 96.28   Q 498.37 96.50 500.50 94.90   Q 500.91 94.59 502.74 94.36   Q 513.78 93.03 524.75 91.40   Q 529.79 90.65 534.79 89.35   Q 535.47 89.18 535.32 88.49   Q 534.81 86.23 535.06 83.85   Q 535.25 82.06 533.47 82.23   Q 524.55 83.07 516.99 83.32   Q 512.45 83.47 516.87 82.44   Q 525.14 80.50 533.88 77.51   Q 534.80 77.19 534.79 76.22   L 534.73 71.42   Q 534.72 70.60 533.97 70.93   Q 515.52 78.79 493.72 80.00   A 0.55 0.55 0.0 0 1 493.14 79.50   L 493.12 79.17   Q 493.05 78.28 493.94 78.21   Q 515.64 76.69 534.57 68.90   A 0.42 0.42 0.0 0 0 534.82 68.55   Q 535.02 65.18 535.15 61.50   A 0.15 0.14 -9.4 0 0 534.95 61.36   Q 526.84 64.46 518.26 66.53   Q 517.54 66.70 517.33 65.98   L 517.25 65.71   A 0.46 0.46 0.0 0 1 517.57 65.15   Q 527.23 62.32 537.21 58.46   Q 538.23 58.07 538.15 59.16   Q 537.54 66.73 537.62 73.43   C 537.66 76.75 538.00 78.61 533.93 79.73   Q 530.91 80.56 534.04 80.39   Z"/>
    <path fill="#000000" d="   M 659.17 89.42   A 0.31 0.31 0.0 0 1 658.68 89.54   L 658.42 89.30   Q 657.84 88.79 658.05 88.05   C 659.43 83.03 664.55 79.02 669.09 76.79   Q 679.86 71.51 691.96 71.88   Q 702.47 72.20 713.54 74.49   A 0.61 0.60 19.1 0 1 713.96 75.35   Q 713.85 75.58 713.64 75.73   Q 712.79 76.32 711.84 76.16   C 695.70 73.44 675.55 71.63 662.79 83.80   Q 660.52 85.97 659.17 89.42   Z"/>
    <path fill="#000000" d="   M 194.15 93.16   C 189.38 105.79 178.46 115.88 166.14 120.68   A 1.20 1.20 0.0 0 1 164.78 120.32   Q 156.95 110.87 148.65 100.31   Q 147.56 98.92 146.97 97.37   Q 146.78 96.88 147.30 96.81   Q 166.46 94.03 174.21 76.66   C 174.55 75.90 174.64 74.81 174.77 74.05   A 0.84 0.84 0.0 0 1 176.19 73.59   Q 184.36 81.72 192.49 89.91   Q 192.91 90.33 193.37 90.67   Q 194.72 91.65 194.15 93.16   Z   M 176.75 76.70   Q 169.70 94.85 150.75 98.92   A 0.25 0.25 0.0 0 0 150.61 99.33   L 165.60 117.30   A 0.73 0.73 0.0 0 0 166.46 117.49   Q 183.47 109.70 191.55 93.11   A 1.33 1.33 0.0 0 0 191.31 91.60   L 176.83 76.68   A 0.05 0.05 0.0 0 0 176.75 76.70   Z"/>
    <rect fill="#000000" x="-29.18" y="-1.23" transform="translate(691.26,87.95) rotate(-22.2)" width="58.36" height="2.46" rx="1.21"/>
    <path fill="#000000" d="   M 708.63 88.60   Q 709.26 87.02 708.01 88.18   Q 701.27 94.48 702.38 104.08   A 0.30 0.29 85.3 0 1 702.11 104.41   Q 701.47 104.46 701.11 103.93   Q 700.65 103.25 700.59 102.42   Q 699.76 91.95 708.12 85.64   Q 709.87 84.31 711.12 85.96   Q 711.55 86.53 711.98 85.95   C 714.57 82.47 717.80 78.39 721.76 76.54   A 1.72 1.72 0.0 0 1 724.21 78.22   Q 724.12 79.53 723.40 80.70   Q 719.28 87.38 713.91 93.50   A 0.47 0.46 -46.2 0 1 713.22 93.52   L 712.95 93.24   Q 712.48 92.74 712.88 92.19   L 722.19 79.44   Q 722.41 79.14 722.14 78.89   L 721.88 78.64   Q 721.75 78.51 721.60 78.63   Q 718.12 81.46 715.73 84.29   Q 711.31 89.52 707.26 95.06   A 0.66 0.63 20.8 0 1 706.65 95.32   Q 706.01 95.22 706.01 94.58   Q 706.02 93.65 706.48 92.88   Q 707.81 90.66 708.63 88.60   Z"/>
    <path fill="#000000" d="   M 715.71 95.99   A 0.41 0.41 0.0 0 1 715.61 95.42   L 719.15 90.37   A 13.10 0.50 -55.0 0 1 727.07 79.93   L 727.94 80.53   A 13.10 0.50 -55.0 0 1 720.83 91.55   L 717.29 96.61   A 0.41 0.41 0.0 0 1 716.72 96.71   L 715.71 95.99   Z"/>
    <path fill="#000000" d="   M 730.59 93.20   Q 733.45 89.90 729.93 92.49   C 727.09 94.57 724.42 97.12 721.38 99.42   A 1.49 1.49 0.0 0 1 719.23 97.41   Q 723.06 91.54 727.06 85.16   Q 727.93 83.76 728.68 82.05   Q 728.85 81.66 729.27 81.61   Q 729.47 81.58 729.66 81.66   Q 730.10 81.85 730.02 82.33   Q 729.73 84.10 729.09 85.31   Q 726.80 89.67 723.24 94.81   Q 723.12 94.98 723.24 95.12   Q 723.28 95.16 723.33 95.17   Q 723.45 95.21 723.53 95.13   Q 727.44 91.46 732.25 88.75   A 1.75 1.74 -28.8 0 1 734.64 89.44   Q 735.18 90.44 734.51 91.47   Q 728.68 100.40 721.11 106.10   Q 720.45 106.59 721.26 106.48   Q 722.60 106.30 723.66 106.71   Q 724.17 106.90 724.25 107.44   Q 726.71 123.73 724.26 138.03   Q 719.50 165.80 695.07 179.25   Q 694.60 179.51 694.71 180.04   L 698.93 200.69   A 1.15 1.14 59.3 0 1 698.69 201.65   Q 698.06 202.42 697.43 202.19   Q 695.65 201.51 695.35 199.73   Q 693.62 189.49 691.83 179.25   A 2.52 2.52 0.0 0 1 693.24 176.54   C 706.64 170.25 716.70 156.33 720.23 142.74   Q 724.07 127.96 722.30 110.32   Q 722.25 109.84 721.77 109.86   L 702.77 110.45   A 0.35 0.35 0.0 0 0 702.43 110.82   Q 702.82 117.38 702.73 124.09   Q 702.47 141.91 688.64 152.93   Q 686.69 154.49 684.37 154.60   A 0.52 0.52 0.0 0 1 683.87 153.86   Q 684.81 151.85 686.50 150.48   Q 698.83 140.50 699.62 124.04   Q 700.02 115.84 698.95 108.12   A 0.41 0.41 0.0 0 1 699.34 107.65   L 716.28 106.76   A 1.72 1.70 -66.3 0 0 717.29 106.36   Q 724.53 100.20 730.59 93.20   Z"/>
    <path fill="#000000" d="   M 580.48 227.22   C 583.71 225.48 590.20 221.41 593.30 224.43   C 596.90 227.94 590.47 233.98 587.82 236.07   Q 583.54 239.43 578.92 243.05   A 0.95 0.94 -32.9 0 0 578.66 244.24   Q 582.84 252.14 579.52 260.53   Q 579.31 261.06 579.85 261.24   L 592.70 265.50   A 0.59 0.58 6.4 0 1 593.10 265.99   Q 593.19 266.85 592.01 267.10   A 1.15 1.15 0.0 0 1 591.45 267.10   Q 584.88 265.45 579.12 263.04   Q 578.50 262.78 578.08 263.30   L 576.62 265.14   A 0.54 0.53 -57.9 0 0 576.80 265.95   Q 583.11 269.12 590.11 271.66   A 0.41 0.40 26.7 0 1 590.32 272.27   L 590.13 272.55   Q 589.68 273.23 588.91 272.97   Q 581.61 270.51 575.48 267.19   A 1.02 1.01 41.7 0 0 574.40 267.25   Q 565.83 273.37 554.88 268.70   C 553.80 268.24 553.05 268.63 551.99 268.68   C 548.01 268.88 544.65 268.36 541.49 266.70   Q 540.79 266.33 540.13 266.78   Q 509.79 287.58 471.01 289.85   Q 464.95 290.20 459.75 289.92   C 453.87 289.61 448.17 289.65 442.31 288.93   A 0.33 0.33 0.0 0 0 441.95 289.19   Q 441.04 293.47 439.84 297.89   A 0.13 0.12 5.6 0 0 439.98 298.05   Q 444.14 297.64 446.63 299.55   C 449.31 301.61 447.01 306.22 445.41 308.55   Q 441.87 313.72 438.30 318.17   Q 437.81 318.78 437.15 318.36   L 436.89 318.19   A 0.56 0.55 33.5 0 1 436.73 317.41   Q 443.42 307.73 445.18 303.03   Q 445.82 301.31 444.05 300.80   Q 442.19 300.28 440.30 300.16   Q 439.27 300.10 439.02 301.09   Q 434.95 317.37 430.90 332.98   C 429.89 336.86 428.60 340.58 428.06 344.51   A 0.92 0.92 0.0 0 1 427.15 345.30   L 418.12 345.29   Q 417.56 345.29 417.13 345.65   L 412.01 349.88   A 0.60 0.59 -65.5 0 1 411.67 350.01   Q 410.44 350.03 410.44 348.57   A 0.76 0.76 0.0 0 1 410.65 348.07   L 413.40 345.35   Q 414.32 344.45 413.03 344.41   Q 410.96 344.36 409.15 343.71   Q 408.57 343.50 408.32 344.06   C 405.69 349.99 408.64 352.64 413.59 354.73   Q 418.79 356.92 424.11 359.67   C 426.26 360.78 432.50 364.42 429.04 367.20   Q 427.23 368.65 424.35 368.73   Q 410.02 369.11 396.82 366.77   C 390.57 365.66 386.66 362.72 386.59 355.68   Q 386.53 348.93 388.34 343.62   Q 388.76 342.40 389.76 343.20   L 390.05 343.44   Q 391.40 344.52 391.18 346.24   Q 389.83 356.72 391.30 359.75   C 392.95 363.19 399.52 363.94 402.87 364.35   C 410.43 365.29 418.46 366.11 426.28 365.64   Q 428.12 365.53 426.64 364.42   C 422.65 361.43 417.77 359.40 413.26 357.33   C 407.04 354.48 403.78 350.81 405.91 343.96   Q 406.09 343.37 405.48 343.26   Q 393.64 341.17 382.36 338.13   A 1.07 1.06 15.1 0 1 381.61 336.83   Q 386.56 317.89 391.45 299.43   C 391.65 298.66 392.04 298.00 392.27 297.26   Q 392.47 296.59 391.79 296.43   C 386.26 295.13 380.83 293.56 375.34 292.11   Q 368.88 290.41 363.97 287.47   C 362.04 286.32 360.30 283.65 360.64 281.32   C 361.81 273.33 375.63 275.59 381.02 276.43   Q 388.49 277.59 396.37 278.96   A 0.45 0.44 11.8 0 0 396.88 278.63   L 413.31 216.81   Q 413.43 216.33 413.18 215.90   Q 412.85 215.34 412.37 214.87   C 404.46 206.97 415.12 192.07 421.10 186.31   Q 421.54 185.88 421.06 185.48   Q 419.22 183.99 418.58 181.58   A 0.38 0.38 0.0 0 0 417.93 181.42   Q 412.95 187.04 406.11 184.30   Q 405.50 184.06 405.16 184.62   Q 401.10 191.21 392.55 192.26   C 379.66 193.85 365.59 185.45 369.65 170.75   C 370.89 166.23 372.79 162.64 369.91 158.01   C 367.49 154.13 364.47 150.02 363.38 145.64   C 360.96 135.93 365.48 128.53 374.05 124.14   A 0.88 0.87 -20.8 0 0 374.50 123.15   C 372.25 113.65 370.99 101.90 378.12 93.97   Q 384.63 86.72 395.14 88.89   C 413.32 92.65 419.70 107.62 426.28 122.67   Q 426.50 123.19 427.01 123.44   Q 445.39 132.13 443.67 152.13   Q 443.09 158.80 437.91 165.73   Q 437.53 166.24 438.16 166.18   C 446.43 165.29 450.40 172.01 447.14 179.23   Q 446.84 179.90 447.56 180.07   Q 459.63 182.88 464.20 182.77   Q 477.42 182.46 485.61 182.85   C 491.64 183.13 499.21 185.09 502.95 190.18   Q 503.34 190.71 503.78 190.22   Q 508.96 184.51 516.11 181.88   Q 518.42 181.03 519.62 182.97   A 1.15 1.13 -51.8 0 1 519.73 183.95   Q 519.09 185.76 517.67 187.01   Q 517.60 187.07 517.62 187.15   Q 517.67 187.34 517.81 187.36   Q 518.08 187.42 518.34 187.29   Q 523.23 184.77 529.71 183.50   Q 532.04 183.05 532.92 184.74   Q 533.17 185.23 532.86 185.68   Q 531.40 187.75 529.14 188.99   Q 523.32 192.20 516.93 194.18   A 0.64 0.63 -16.1 0 1 516.12 193.74   Q 516.04 193.46 516.08 193.21   Q 516.22 192.28 517.09 191.95   Q 523.30 189.60 529.37 186.42   Q 531.42 185.34 529.11 185.57   Q 526.54 185.82 523.82 186.93   Q 518.95 188.91 513.81 190.86   A 1.04 1.03 -19.5 0 1 512.47 190.22   Q 512.20 189.42 512.85 188.88   Q 514.95 187.08 516.74 185.11   Q 518.81 182.81 515.95 184.00   C 512.43 185.47 507.07 188.74 504.92 192.29   Q 504.67 192.72 504.79 193.20   C 507.24 202.51 501.07 210.26 493.25 214.48   Q 483.24 219.89 470.43 222.01   Q 469.94 222.09 470.14 222.54   Q 483.27 252.78 497.06 282.07   A 1.23 1.22 69.7 0 0 498.49 282.73   Q 523.34 275.94 542.93 261.80   Q 543.70 261.25 542.97 260.65   C 533.93 253.26 528.62 239.15 539.43 230.34   Q 539.98 229.89 539.82 229.20   Q 538.00 221.59 538.18 212.25   A 0.43 0.43 0.0 0 1 538.81 211.87   L 539.10 212.02   Q 539.88 212.43 539.89 213.30   Q 540.00 221.37 541.34 228.07   Q 541.51 228.95 542.36 228.66   L 542.97 228.45   A 1.22 1.22 0.0 0 0 543.79 227.19   Q 543.12 219.85 544.95 211.75   A 0.59 0.58 14.1 0 1 545.68 211.32   L 545.96 211.41   Q 546.91 211.69 546.76 212.67   Q 545.59 220.37 545.66 226.98   A 0.40 0.40 0.0 0 0 546.15 227.37   Q 553.27 225.84 560.38 229.08   Q 561.16 229.44 561.11 230.29   L 561.09 230.65   A 0.38 0.37 12.9 0 1 560.57 230.97   Q 553.02 227.96 546.07 229.31   Q 545.67 229.39 545.71 229.79   L 546.64 238.68   Q 546.71 239.34 546.09 239.07   L 545.73 238.90   Q 545.00 238.57 544.89 237.78   L 543.94 230.77   Q 543.83 229.98 543.14 230.36   L 542.59 230.66   Q 541.85 231.07 542.09 231.88   L 544.46 239.86   A 0.43 0.43 0.0 0 1 544.04 240.41   L 543.64 240.41   A 0.90 0.90 0.0 0 1 542.78 239.78   L 540.48 232.74   A 0.35 0.35 0.0 0 0 539.90 232.61   C 532.84 240.01 535.58 250.12 542.06 256.64   C 549.19 263.80 561.14 271.94 571.47 265.70   A 0.42 0.42 0.0 0 0 571.47 264.98   Q 564.38 260.65 558.06 255.14   Q 557.52 254.66 557.89 254.05   L 558.03 253.80   A 0.46 0.46 0.0 0 1 558.72 253.69   Q 565.46 259.53 572.74 263.76   Q 573.47 264.19 574.06 263.57   L 575.26 262.31   Q 575.83 261.71 575.07 261.37   Q 567.84 258.11 561.16 253.63   Q 560.56 253.23 560.80 252.54   L 560.90 252.28   A 0.37 0.37 0.0 0 1 561.44 252.09   Q 568.80 256.46 576.13 259.57   A 0.62 0.62 0.0 0 0 576.97 259.20   Q 579.88 250.96 574.33 243.05   A 1.03 1.03 0.0 0 1 575.22 241.43   L 575.83 241.46   Q 576.29 241.48 576.67 241.21   Q 583.65 236.18 588.67 231.92   Q 590.82 230.09 591.88 227.59   A 1.56 1.56 0.0 0 0 590.00 225.49   C 582.74 227.63 575.75 232.33 569.15 236.06   Q 568.10 236.66 566.94 236.17   Q 566.40 235.93 566.93 234.95   A 1.16 1.15 86.0 0 1 567.25 234.58   Q 573.76 229.50 579.77 224.04   Q 581.79 222.20 583.13 219.76   A 1.37 1.37 0.0 0 0 581.64 217.76   C 574.71 219.28 568.73 223.97 562.69 227.88   Q 561.95 228.36 561.21 227.89   L 560.88 227.69   A 0.37 0.37 0.0 0 1 560.85 227.09   C 566.33 222.88 572.40 218.15 579.01 215.85   C 581.24 215.07 585.02 215.25 585.62 218.18   C 586.27 221.42 582.34 224.95 580.28 226.94   Q 579.35 227.84 580.48 227.22   Z   M 409.48 139.69   Q 411.63 139.15 415.48 139.77   Q 418.73 140.29 420.55 137.40   C 421.85 135.34 420.68 132.50 419.24 130.80   Q 418.74 130.21 418.56 130.97   L 418.32 132.03   A 0.73 0.73 0.0 0 1 417.66 132.60   Q 415.42 132.79 414.74 130.65   Q 414.50 129.89 414.98 129.32   Q 415.41 128.80 414.74 128.74   C 410.19 128.26 406.43 132.44 409.92 136.49   Q 410.36 137.00 410.51 137.63   Q 410.71 138.45 409.87 138.54   L 409.13 138.62   Q 407.90 137.90 407.29 136.24   Q 406.89 135.15 405.82 135.45   A 1.47 1.46 75.6 0 1 404.00 134.37   C 403.59 132.59 403.58 126.72 406.88 127.37   C 407.28 127.45 407.75 127.78 407.96 128.14   Q 408.29 128.71 408.81 128.31   Q 412.17 125.69 416.56 127.22   Q 416.94 127.35 416.99 126.96   L 417.39 123.46   Q 417.46 122.91 416.91 122.87   Q 410.10 122.36 402.80 124.44   A 0.52 0.52 0.0 0 0 402.51 125.22   Q 405.51 129.88 400.60 133.16   Q 400.10 133.49 400.43 134.00   C 402.52 137.27 402.43 141.44 398.40 143.11   Q 397.90 143.32 398.13 143.80   C 398.60 144.80 399.44 145.63 399.64 146.72   Q 400.32 150.27 398.13 152.87   Q 397.72 153.35 398.27 153.65   Q 405.32 157.54 406.08 164.05   Q 406.23 165.35 406.67 164.12   L 410.10 154.40   Q 410.31 153.80 409.72 153.56   Q 407.18 152.53 405.86 150.03   Q 405.54 149.42 404.88 149.61   Q 402.41 150.35 401.70 147.75   Q 400.85 144.65 402.25 141.92   A 1.76 1.76 0.0 0 1 405.00 141.42   Q 405.38 141.76 405.89 141.76   Q 406.43 141.76 406.83 141.39   Q 408.04 140.30 409.48 139.69   Z   M 418.15 173.19   A 0.59 0.59 0.0 0 1 419.16 172.75   Q 420.21 173.80 421.43 173.09   Q 421.97 172.77 422.54 172.57   Q 429.82 169.94 433.92 165.64   Q 445.25 153.76 439.58 138.49   Q 437.20 132.10 431.61 128.32   Q 425.93 124.48 419.80 123.36   A 0.38 0.37 8.3 0 0 419.35 123.69   L 418.93 127.58   Q 418.87 128.12 419.30 128.47   C 423.61 132.05 424.85 136.55 420.40 140.50   A 0.35 0.35 0.0 0 0 420.65 141.11   Q 422.08 141.01 423.14 141.85   Q 424.33 142.79 422.85 143.12   Q 421.73 143.36 420.61 143.19   Q 419.78 143.07 420.12 143.83   Q 422.86 149.94 417.71 153.55   C 416.39 154.48 414.66 154.53 413.09 154.56   A 0.95 0.94 -80.5 0 0 412.22 155.19   L 408.49 165.74   A 0.63 0.63 0.0 0 0 408.89 166.55   C 410.55 167.07 411.96 168.35 411.14 170.15   C 410.34 171.92 408.10 172.03 406.45 171.84   Q 405.90 171.77 405.63 172.25   Q 402.30 178.19 406.92 181.33   C 409.24 182.91 412.79 182.61 414.99 180.79   Q 418.35 178.04 418.15 173.19   Z   M 412.93 141.86   Q 413.31 141.42 412.73 141.43   Q 408.21 141.51 407.31 144.95   C 405.87 150.45 412.12 154.92 416.84 151.87   C 420.27 149.65 419.05 144.97 416.20 142.79   Q 415.57 142.31 415.88 143.04   Q 416.55 144.61 415.18 145.27   A 1.55 1.55 0.0 0 1 413.39 144.95   Q 411.75 143.23 412.93 141.86   Z   M 425.61 179.97   L 425.28 177.24   Q 425.22 176.76 424.73 176.72   L 422.60 176.54   Q 422.02 176.50 421.81 177.03   Q 420.20 181.03 423.06 183.77   Q 423.46 184.15 423.90 183.83   Q 428.62 180.39 433.48 179.15   C 435.25 178.71 437.04 178.86 438.79 178.57   Q 439.32 178.49 439.30 177.95   Q 439.22 176.31 440.08 175.29   Q 440.94 174.27 441.60 175.43   Q 442.33 176.71 441.65 178.21   A 0.67 0.66 15.1 0 0 442.20 179.15   L 443.45 179.27   Q 443.98 179.32 444.22 178.83   Q 446.09 175.08 444.89 171.48   Q 444.43 170.10 443.37 171.09   C 439.78 174.40 433.56 175.78 428.81 176.58   Q 427.46 176.81 427.61 178.17   Q 427.80 180.00 426.40 180.47   A 0.61 0.60 -12.2 0 1 425.61 179.97   Z   M 438.55 190.19   A 0.78 0.78 0.0 0 1 437.36 190.76   Q 432.68 187.79 432.24 183.00   Q 432.19 182.43 431.66 182.64   C 423.46 185.91 415.86 195.95 413.73 204.28   Q 413.40 205.57 414.36 204.65   C 416.62 202.46 421.93 200.06 425.16 201.93   A 0.74 0.73 35.0 0 1 425.36 203.04   Q 424.32 204.26 422.81 204.45   Q 417.78 205.09 414.45 208.27   A 1.89 1.89 0.0 0 0 414.17 210.66   C 420.16 219.83 441.58 221.05 451.57 220.94   A 0.73 0.73 0.0 0 0 452.28 220.37   Q 452.64 218.76 452.37 216.96   Q 452.27 216.25 452.83 215.81   Q 453.70 215.11 454.55 215.39   C 456.24 215.94 456.26 218.83 456.06 220.23   A 0.37 0.37 0.0 0 0 456.46 220.65   C 467.79 219.29 479.70 217.29 489.95 212.45   A 0.50 0.49 74.1 0 0 490.22 211.95   Q 489.38 205.21 483.16 201.84   A 1.92 1.92 0.0 0 1 482.25 199.56   Q 482.52 198.75 483.23 198.26   Q 483.67 197.95 484.18 198.14   Q 492.43 201.20 494.36 209.39   A 0.34 0.34 0.0 0 0 494.88 209.59   Q 500.46 205.88 502.22 199.62   Q 502.35 199.14 501.88 198.96   Q 499.95 198.25 498.30 199.05   Q 497.95 199.21 497.59 199.08   Q 496.39 198.61 495.87 197.50   A 0.70 0.69 -33.1 0 1 496.05 196.67   Q 498.79 194.36 501.93 195.05   A 0.30 0.30 0.0 0 0 502.27 194.65   C 499.75 188.32 493.08 186.47 486.88 185.91   A 0.95 0.93 24.3 0 0 486.12 186.19   C 485.41 186.92 485.10 187.86 484.35 188.66   Q 480.09 193.19 474.81 192.65   A 1.00 1.00 0.0 0 1 474.17 190.99   C 474.68 190.42 475.24 189.89 476.01 189.70   Q 479.56 188.86 482.61 186.48   Q 483.93 185.44 482.25 185.49   C 474.41 185.71 466.89 186.00 459.68 185.39   Q 457.70 185.22 455.61 184.73   Q 447.26 182.75 441.30 181.69   Q 438.60 181.21 435.43 181.69   Q 434.97 181.76 435.03 182.22   Q 435.46 186.01 438.11 188.91   Q 438.63 189.48 438.55 190.19   Z   M 453.04 286.89   A 0.32 0.32 0.0 0 0 453.36 286.46   L 447.22 270.48   A 0.32 0.32 0.0 0 0 446.61 270.52   L 442.95 285.80   A 0.32 0.32 0.0 0 0 443.24 286.20   L 453.04 286.89   Z   M 395.98 282.15   A 0.26 0.26 0.0 0 0 395.77 281.83   Q 384.66 279.75 373.13 278.46   Q 369.91 278.10 367.23 278.42   Q 364.19 278.78 363.73 282.16   Q 363.66 282.73 364.00 283.18   Q 365.26 284.84 366.96 285.54   Q 374.56 288.65 387.90 292.07   Q 390.16 292.65 392.63 292.93   Q 393.14 292.98 393.27 292.49   L 395.98 282.15   Z"/>
    <path fill="#000000" d="   M 604.58 99.82   Q 604.03 97.37 606.37 97.42   Q 607.79 97.45 609.26 98.20   Q 619.84 103.60 616.46 115.31   A 0.79 0.77 -81.3 0 1 615.72 115.87   L 615.21 115.87   A 0.36 0.36 0.0 0 1 614.86 115.42   C 616.74 108.59 613.97 102.07 607.29 99.59   Q 606.22 99.19 606.89 100.12   Q 608.01 101.66 609.39 103.20   Q 609.96 103.84 610.51 104.50   Q 613.34 107.92 610.73 107.27   Q 609.86 107.05 609.15 106.49   Q 603.47 102.00 597.24 97.37   Q 595.51 96.08 593.81 95.30   Q 591.02 94.00 593.18 96.19   Q 597.20 100.26 602.49 104.43   Q 603.22 105.01 602.77 105.83   L 602.61 106.12   A 0.51 0.51 0.0 0 1 601.86 106.29   C 597.81 103.38 592.50 99.22 590.04 94.76   A 1.36 1.36 0.0 0 1 591.55 92.78   C 595.84 93.81 600.41 97.47 604.02 100.18   Q 604.79 100.76 604.58 99.82   Z"/>
    <path fill="#000000" d="   M 234.23 233.50   C 230.79 232.55 227.52 233.83 224.01 233.80   Q 223.38 233.80 223.55 233.19   C 223.72 232.58 224.00 231.94 224.62 231.67   C 227.90 230.22 231.70 230.05 235.17 229.41   Q 237.32 229.01 235.16 228.68   Q 230.36 227.95 225.55 229.28   A 1.32 1.30 -38.1 0 1 224.58 229.17   Q 223.75 228.71 223.91 228.29   Q 224.32 227.22 225.23 226.93   Q 229.44 225.62 234.05 224.53   Q 234.33 224.46 234.43 224.19   Q 234.48 224.03 234.39 223.90   Q 234.28 223.73 234.08 223.71   Q 227.33 223.17 223.38 226.15   Q 217.45 230.62 216.22 239.07   Q 216.10 239.92 215.24 239.94   L 214.92 239.95   A 0.49 0.49 0.0 0 1 214.41 239.45   Q 214.48 233.82 217.85 229.29   Q 218.29 228.70 217.57 228.57   Q 214.05 227.92 211.55 225.30   Q 211.09 224.82 210.64 225.31   Q 206.14 230.21 204.01 235.92   A 0.50 0.50 0.0 0 1 203.36 236.21   L 203.06 236.10   A 0.92 0.91 -72.5 0 1 202.50 235.02   Q 204.36 227.82 209.09 222.99   Q 209.45 222.62 209.31 222.12   Q 208.38 218.77 210.90 215.32   C 213.24 212.08 217.51 211.58 220.78 213.49   A 2.36 2.33 13.8 0 1 221.94 215.38   L 222.48 223.81   Q 222.53 224.54 223.16 224.17   C 226.76 222.03 231.37 220.84 235.45 222.44   C 237.07 223.08 237.19 224.93 235.60 225.81   Q 234.34 226.50 235.75 226.79   Q 237.18 227.08 238.59 228.08   A 1.39 1.39 0.0 0 1 238.29 230.51   L 236.46 231.22   Q 235.71 231.51 236.42 231.90   L 237.53 232.50   Q 238.04 232.78 238.22 233.32   C 238.97 235.56 235.53 236.22 234.02 236.42   A 0.31 0.31 0.0 0 0 233.92 237.00   Q 236.53 238.31 234.70 240.33   Q 234.00 241.10 235.02 240.87   L 259.73 235.34   Q 260.20 235.24 260.05 234.78   L 247.32 195.82   Q 247.17 195.36 247.50 195.00   Q 247.90 194.57 248.51 194.54   A 1.30 1.27 62.0 0 1 249.39 194.82   L 255.84 199.95   A 0.26 0.26 0.0 0 0 256.27 199.75   Q 256.22 193.51 256.22 187.08   Q 256.22 185.15 257.99 183.99   C 274.04 173.48 287.83 161.07 297.25 145.02   C 298.19 143.43 296.73 142.15 296.52 140.48   Q 295.57 132.96 299.51 127.31   Q 299.92 126.72 299.28 126.39   L 295.31 124.38   Q 294.86 124.15 295.05 123.69   C 296.29 120.73 298.41 118.40 300.22 115.72   Q 307.23 105.30 312.19 93.38   A 0.68 0.68 0.0 0 1 313.07 93.01   Q 328.86 99.30 342.72 109.67   Q 343.23 110.05 342.97 110.63   Q 338.91 119.65 335.56 124.84   Q 330.07 133.36 323.42 142.01   A 0.67 0.67 0.0 0 1 322.49 142.14   L 320.31 140.57   Q 319.87 140.25 319.59 140.72   C 318.14 143.18 313.21 150.72 310.23 151.31   Q 309.21 151.51 309.81 150.66   L 317.85 139.26   A 0.58 0.57 35.3 0 0 317.70 138.45   L 306.89 131.04   A 0.62 0.61 -65.5 0 0 305.94 131.40   L 304.66 136.56   Q 304.42 137.53 303.42 137.62   L 303.04 137.65   A 0.47 0.47 0.0 0 1 302.53 137.16   Q 302.85 131.50 305.54 126.21   A 0.67 0.67 0.0 0 0 304.90 125.23   Q 304.07 125.28 303.42 125.90   Q 297.37 131.56 298.62 139.25   Q 299.09 142.10 300.91 144.21   Q 302.15 145.63 303.31 147.21   Q 304.32 148.57 305.83 150.04   Q 311.44 155.49 316.78 161.34   Q 317.26 161.87 316.94 162.51   C 307.23 181.71 291.54 198.70 272.31 208.77   Q 271.84 209.01 272.11 209.47   Q 277.49 218.43 281.34 227.32   A 0.87 0.87 0.0 0 1 281.21 228.22   Q 280.92 228.57 280.56 228.52   Q 279.24 228.31 278.64 227.16   Q 274.25 218.85 269.42 209.08   A 1.49 1.48 63.0 0 1 270.05 207.12   Q 290.51 196.23 304.92 177.23   Q 305.30 176.73 304.83 176.32   Q 299.56 171.61 294.95 166.63   Q 294.65 166.31 295.04 166.11   L 295.47 165.89   Q 296.21 165.52 296.83 166.08   L 306.31 174.81   A 0.33 0.31 -49.7 0 0 306.78 174.76   Q 311.35 168.72 314.47 162.93   A 0.87 0.86 -53.2 0 0 314.33 161.92   L 299.48 146.47   Q 299.11 146.08 298.86 146.56   C 290.33 163.06 274.51 177.22 258.69 186.64   Q 258.26 186.89 258.25 187.39   L 258.13 201.31   A 1.68 1.68 0.0 0 1 255.37 202.58   L 250.98 198.89   Q 249.87 197.95 250.33 199.33   L 261.84 233.99   A 0.70 0.70 0.0 0 0 262.69 234.44   Q 270.14 232.35 277.29 230.10   C 278.53 229.71 279.81 229.67 281.09 229.77   Q 282.51 229.88 281.41 230.78   Q 280.64 231.41 279.72 231.84   A 1.09 1.08 64.8 0 0 279.20 233.30   Q 302.11 281.28 319.69 331.44   Q 320.01 332.36 320.78 333.08   A 2.00 1.99 -36.5 0 1 320.29 336.33   L 305.98 343.34   Q 305.19 343.73 305.48 344.56   L 306.82 348.43   A 2.33 2.33 0.0 0 0 309.91 349.82   Q 320.82 345.28 327.68 344.99   Q 330.51 344.87 331.27 347.38   C 332.91 352.74 313.45 363.69 309.43 365.65   C 304.49 368.06 299.54 368.79 296.24 363.57   Q 293.79 359.69 293.15 354.98   Q 293.00 353.89 294.10 353.88   Q 294.27 353.88 294.44 353.94   Q 296.04 354.55 296.51 356.04   C 298.08 361.06 300.24 366.71 306.94 363.75   C 314.29 360.50 323.50 354.98 328.52 348.61   A 0.61 0.61 0.0 0 0 328.02 347.63   C 322.07 347.82 316.37 350.07 310.72 352.02   C 305.70 353.75 304.62 348.33 304.03 344.98   A 0.67 0.67 0.0 0 0 303.08 344.49   Q 295.10 348.26 287.13 351.30   A 1.00 0.99 -21.2 0 1 285.85 350.74   Q 273.94 320.66 261.13 292.18   Q 260.63 291.07 260.30 289.96   Q 259.55 287.44 259.37 290.06   Q 258.70 299.97 254.26 308.76   C 248.47 320.24 237.81 326.50 226.03 331.30   Q 212.90 336.65 201.30 340.58   Q 200.36 340.90 199.65 341.43   Q 198.57 342.22 197.32 341.53   A 1.31 1.30 -83.6 0 1 196.71 340.76   L 195.65 337.23   A 0.53 0.52 64.8 0 0 194.86 336.94   Q 191.20 339.32 190.52 344.01   Q 189.81 348.89 189.37 354.45   C 189.23 356.30 188.80 358.14 188.17 359.90   C 187.33 362.25 184.74 363.27 182.85 361.22   Q 181.06 359.27 180.07 356.67   Q 175.41 344.42 175.40 334.18   C 175.39 326.90 181.26 322.25 188.03 321.25   A 0.40 0.39 87.0 0 1 188.48 321.66   L 188.47 321.94   A 1.31 1.29 83.2 0 1 187.54 323.14   C 181.65 324.87 177.14 328.19 177.57 335.13   Q 178.19 345.38 182.47 356.54   Q 183.13 358.26 184.36 359.56   A 1.02 1.02 0.0 0 0 186.09 359.07   Q 187.29 353.65 187.79 347.33   C 188.16 342.68 189.41 336.89 194.30 335.03   A 0.66 0.66 0.0 0 0 194.70 334.22   L 187.81 310.85   A 0.82 0.82 0.0 0 1 188.28 309.87   C 189.39 309.41 190.45 308.86 191.61 308.51   Q 205.19 304.50 213.03 299.77   C 222.41 294.13 222.56 284.56 222.11 274.73   Q 221.46 260.41 219.51 246.79   A 1.08 1.08 0.0 0 0 218.43 245.87   C 204.28 246.02 191.98 240.07 188.53 225.23   C 185.95 214.15 191.19 202.72 200.47 196.95   Q 204.65 194.34 210.89 192.81   Q 218.47 190.94 226.33 190.47   Q 228.20 190.36 229.51 191.63   Q 235.60 197.52 241.18 204.25   A 0.64 0.63 34.0 0 0 242.28 204.04   L 245.07 195.26   A 0.75 0.75 0.0 0 1 246.07 194.79   L 246.35 194.91   A 0.48 0.47 18.9 0 1 246.63 195.47   L 243.46 206.36   A 1.71 1.71 0.0 0 1 240.55 207.03   L 227.88 193.01   Q 227.52 192.61 226.99 192.55   Q 226.19 192.47 225.43 192.54   Q 217.67 193.27 209.44 195.75   Q 197.72 199.28 193.34 208.74   C 189.38 217.30 190.62 227.60 196.95 234.50   Q 200.47 238.33 206.63 240.25   Q 212.78 242.17 218.20 242.06   Q 221.48 241.99 225.23 240.93   Q 225.64 240.81 226.01 240.59   Q 226.51 240.29 227.12 240.33   Q 227.74 240.38 228.34 240.20   Q 229.75 239.78 231.04 239.44   Q 234.03 238.64 230.94 238.41   Q 227.75 238.17 224.42 238.36   Q 223.79 238.39 223.74 237.76   C 223.65 236.74 224.33 235.88 225.30 235.63   Q 229.32 234.59 234.16 234.18   Q 236.12 234.02 234.23 233.50   Z   M 313.30 96.59   C 309.38 105.96 304.95 114.50 298.81 122.32   Q 298.31 122.95 299.02 123.35   L 301.07 124.51   A 1.00 0.98 39.0 0 0 302.20 124.40   C 305.22 121.80 308.04 123.80 307.34 127.52   Q 307.24 128.04 307.69 128.32   Q 315.35 133.14 322.22 138.65   A 0.44 0.43 -52.2 0 0 322.84 138.57   Q 332.36 125.77 339.25 110.89   A 0.76 0.75 -61.9 0 0 338.96 109.93   C 330.65 104.77 322.79 99.97 314.02 96.29   A 0.55 0.55 0.0 0 0 313.30 96.59   Z"/>
    <path fill="#000000" d="   M 592.86 101.39   Q 595.46 104.09 601.20 109.30   A 0.55 0.55 0.0 0 1 601.06 110.21   L 600.79 110.34   Q 599.98 110.73 599.30 110.15   Q 594.11 105.76 589.49 100.21   Q 588.33 98.83 587.69 97.22   A 0.56 0.55 72.2 0 1 588.07 96.47   Q 588.27 96.42 588.46 96.46   Q 588.71 96.52 588.87 96.71   Q 591.76 100.25 592.86 101.39   Z"/>
    <path fill="#000000" d="   M 587.64 100.86   Q 592.47 106.66 597.58 111.37   Q 598.30 112.03 597.78 112.86   L 597.59 113.16   A 0.57 0.57 0.0 0 1 596.76 113.30   Q 590.95 108.64 586.96 102.75   Q 586.47 102.02 586.81 101.21   L 586.91 100.97   A 0.43 0.43 0.0 0 1 587.64 100.86   Z"/>
    <path fill="#000000" d="   M 664.86 292.23   Q 664.78 291.50 664.50 292.17   Q 653.82 318.14 638.62 343.34   Q 638.32 343.84 637.85 343.48   L 622.03 331.46   Q 621.52 331.07 621.19 331.62   Q 617.92 337.13 621.08 342.83   Q 623.77 347.67 626.77 352.85   Q 628.51 355.86 629.15 359.15   C 629.73 362.12 627.66 365.76 624.17 364.77   Q 622.46 364.29 621.07 363.18   Q 612.68 356.48 604.26 347.19   C 600.13 342.62 597.62 337.72 600.19 331.46   Q 602.58 325.65 606.25 320.51   Q 606.64 319.97 606.12 319.54   L 602.00 316.13   A 0.92 0.92 0.0 0 1 601.88 314.83   C 608.15 307.28 612.92 297.98 617.88 289.66   Q 624.07 279.25 627.23 271.59   Q 634.63 253.62 637.09 233.26   Q 637.17 232.60 636.51 232.47   Q 632.15 231.59 627.99 229.38   C 617.68 223.90 614.04 213.93 613.43 202.94   Q 612.64 188.81 616.48 174.65   A 1.13 1.12 -62.6 0 0 616.12 173.49   C 608.29 166.96 601.96 158.67 598.06 148.92   Q 592.68 135.49 591.26 122.52   Q 591.20 121.94 591.77 121.84   L 597.95 120.75   Q 598.84 120.60 598.08 120.10   Q 589.66 114.61 585.07 105.52   Q 584.74 104.85 585.34 104.42   L 585.58 104.25   Q 585.96 103.98 586.20 104.38   Q 591.87 113.92 601.75 119.74   Q 602.27 120.04 602.86 119.95   L 616.92 117.78   A 1.33 1.32 -16.9 0 1 618.32 118.52   Q 618.51 118.91 618.53 119.38   Q 619.07 130.76 624.76 140.76   Q 625.44 141.96 625.57 140.58   Q 626.68 128.93 633.57 121.21   C 639.25 114.83 645.70 114.33 653.71 113.67   C 657.64 113.34 661.36 112.38 665.11 111.14   A 1.43 1.42 -24.9 0 1 666.78 111.75   C 673.52 122.79 690.18 127.87 685.92 143.79   Q 684.71 148.35 681.06 152.96   Q 680.75 153.35 681.06 153.75   C 686.86 161.13 683.11 169.64 675.41 173.88   Q 674.95 174.13 675.31 174.50   Q 683.54 183.20 680.13 194.19   Q 679.52 196.12 678.18 197.44   Q 677.58 198.02 676.84 197.61   Q 676.41 197.37 675.92 197.35   Q 672.23 197.20 669.79 193.92   Q 668.71 192.47 667.57 191.00   Q 667.27 190.61 666.86 190.90   Q 662.58 193.93 657.06 195.31   Q 656.61 195.42 656.54 194.96   L 656.49 194.64   Q 656.39 193.90 657.09 193.67   C 662.00 192.04 668.08 188.18 669.35 182.81   Q 670.27 178.93 669.45 175.37   A 2.78 2.78 0.0 0 1 671.46 172.06   Q 675.21 171.09 678.86 167.09   C 680.09 165.75 680.54 164.11 681.22 162.48   A 0.84 0.84 0.0 0 0 680.10 161.39   Q 676.32 163.07 672.13 162.84   A 1.58 1.58 0.0 0 1 670.77 160.63   C 671.19 159.65 671.68 158.57 672.48 157.85   C 680.74 150.28 689.54 139.97 680.32 128.95   Q 679.95 128.51 679.40 128.68   C 676.59 129.59 671.36 129.74 669.82 126.48   Q 669.60 126.00 669.84 125.53   Q 670.98 123.30 673.61 123.34   Q 675.05 123.36 673.94 122.45   Q 668.77 118.19 666.01 113.64   Q 665.73 113.18 665.22 113.36   Q 657.78 115.87 647.98 116.63   Q 644.41 116.91 640.98 118.61   Q 640.42 118.89 640.85 119.35   Q 648.89 127.93 651.93 140.16   A 0.77 0.77 0.0 0 1 651.21 141.11   Q 645.98 141.30 644.79 145.50   C 643.83 148.88 646.15 152.26 649.51 152.95   A 0.73 0.57 38.0 0 0 649.74 152.95   L 653.40 152.29   Q 654.16 152.15 654.36 152.89   Q 655.20 155.92 655.22 158.86   Q 655.22 159.40 655.74 159.56   Q 664.64 162.23 670.14 168.69   Q 670.72 169.37 670.21 170.11   Q 670.07 170.30 669.85 170.39   Q 668.61 170.91 667.67 169.96   C 663.42 165.68 657.31 162.00 651.23 161.16   Q 648.47 160.77 645.83 160.13   A 0.57 0.57 0.0 0 0 645.12 160.68   Q 645.15 167.03 649.86 170.40   C 651.62 171.66 654.80 172.83 657.00 173.06   Q 659.73 173.34 662.64 173.85   Q 663.39 173.98 663.79 174.59   Q 664.19 175.22 663.84 175.82   A 1.22 1.21 -83.4 0 1 663.14 176.38   Q 659.83 177.44 658.69 180.99   C 658.37 182.00 657.45 182.65 657.17 183.74   Q 655.73 189.28 654.86 195.50   A 0.75 0.74 -84.1 0 1 654.08 196.14   Q 652.86 196.07 652.83 194.44   Q 652.81 193.54 652.90 192.45   C 653.37 187.15 655.15 181.04 658.41 177.17   Q 658.88 176.62 658.16 176.54   C 649.35 175.57 642.06 169.79 643.38 160.25   Q 643.49 159.49 642.77 159.22   C 626.67 153.31 617.38 138.19 615.65 121.34   A 0.52 0.51 -7.9 0 0 615.05 120.89   L 594.97 124.30   A 0.68 0.67 80.9 0 0 594.42 125.07   C 596.28 137.03 599.86 150.42 607.49 160.00   Q 620.17 175.95 638.97 182.59   A 0.58 0.58 0.0 0 1 639.36 183.20   L 637.39 200.45   Q 637.31 201.13 637.98 201.29   Q 654.83 205.28 669.10 205.42   Q 680.94 205.54 696.31 203.17   A 0.53 0.53 0.0 0 1 696.92 203.64   L 696.96 203.97   Q 697.05 204.78 696.27 204.97   L 694.61 205.39   A 0.61 0.60 -14.6 0 0 694.17 206.13   Q 710.51 269.40 722.33 334.61   Q 722.53 335.73 721.50 336.20   Q 720.15 336.81 718.52 336.90   Q 707.72 337.45 696.26 337.95   Q 695.71 337.98 695.70 338.52   Q 695.49 347.22 703.19 349.25   Q 710.31 351.12 716.95 353.73   Q 721.21 355.41 723.26 357.88   C 727.08 362.48 720.04 364.12 716.81 364.41   Q 704.34 365.53 690.51 364.18   C 684.08 363.55 679.84 361.58 678.99 354.22   Q 678.33 348.50 677.99 343.12   A 0.71 0.71 0.0 0 1 678.56 342.38   Q 679.33 342.23 679.88 342.80   Q 680.72 343.66 680.96 344.63   Q 681.89 348.44 682.13 352.75   C 682.37 357.10 683.68 360.79 688.60 361.41   Q 704.47 363.41 720.51 361.37   A 1.27 1.27 0.0 0 0 721.20 359.17   Q 718.78 356.97 715.71 355.84   Q 709.24 353.45 701.59 351.16   C 694.86 349.15 693.53 345.11 692.74 338.71   A 0.53 0.53 0.0 0 0 692.19 338.25   L 672.41 339.01   A 2.51 2.50 -4.3 0 1 669.82 336.79   L 664.86 292.23   Z   M 674.67 194.83   L 675.80 196.53   Q 676.13 197.03 676.34 196.46   Q 677.75 192.55 678.12 189.58   Q 679.03 182.20 673.26 176.05   Q 672.65 175.40 672.77 176.29   Q 673.80 183.54 669.64 188.50   Q 669.29 188.91 669.52 189.40   Q 671.02 192.51 673.93 194.14   Q 674.39 194.39 674.67 194.83   Z   M 619.44 343.88   C 616.89 339.15 617.03 334.93 619.44 330.36   A 0.80 0.79 32.5 0 0 619.21 329.36   L 609.86 322.32   A 0.66 0.66 0.0 0 0 608.92 322.47   Q 605.87 326.95 603.28 332.43   C 600.99 337.28 603.03 341.26 606.23 344.94   Q 613.32 353.08 621.90 361.14   Q 623.04 362.21 624.45 362.90   A 1.85 1.84 -77.0 0 0 627.10 361.24   Q 627.10 357.78 625.48 354.88   Q 622.49 349.52 619.44 343.88   Z"/>
    <ellipse fill="#000000" cx="0.00" cy="0.00" transform="translate(200.55,112.90) rotate(88.7)" rx="8.08" ry="3.68"/>
    <path fill="#000000" d="   M 243.98 139.85   A 0.44 0.44 0.0 0 0 243.80 140.46   C 248.20 148.16 251.65 157.46 251.09 166.14   C 250.06 182.41 234.48 186.87 222.29 178.41   Q 216.98 174.73 213.34 170.62   Q 212.94 170.16 212.40 170.42   C 209.48 171.82 206.44 171.37 203.69 169.77   Q 203.03 169.38 202.36 169.77   C 192.61 175.48 183.20 166.31 179.60 157.63   Q 176.07 149.12 178.85 141.02   C 182.04 131.73 192.13 127.14 200.49 123.22   C 205.95 120.67 210.90 116.42 215.46 112.60   C 225.58 104.13 237.47 102.30 247.33 112.24   C 255.45 120.43 254.81 134.42 243.98 139.85   Z   M 213.75 165.02   C 214.58 165.87 214.98 166.98 215.82 167.89   C 221.34 173.76 227.66 179.53 236.18 179.38   C 241.51 179.29 245.22 176.16 247.35 171.46   C 247.84 170.38 247.44 169.80 247.85 168.77   Q 248.24 167.79 248.34 166.70   C 249.29 156.41 244.89 146.02 239.33 137.34   Q 238.17 135.52 237.46 133.47   A 0.62 0.62 0.0 0 0 236.56 133.14   Q 231.13 136.25 230.44 141.94   Q 230.17 144.23 231.51 142.36   Q 233.06 140.19 235.32 139.36   C 238.25 138.30 241.05 139.76 240.90 143.01   A 2.20 2.19 3.9 0 1 238.51 145.09   Q 235.77 144.86 236.01 142.26   A 0.56 0.56 0.0 0 0 235.19 141.72   Q 232.44 143.17 231.46 146.69   Q 230.87 148.83 232.05 150.54   Q 233.99 153.35 236.35 155.12   Q 236.78 155.44 236.42 155.84   Q 236.15 156.14 235.76 156.20   A 2.19 2.18 57.7 0 1 234.23 155.85   Q 227.61 151.36 227.80 142.66   Q 227.87 139.42 228.94 137.30   Q 229.19 136.81 228.67 137.01   L 221.20 139.97   Q 220.71 140.17 220.99 140.62   Q 221.07 140.75 221.22 140.80   Q 221.83 141.02 221.59 141.61   Q 221.23 142.51 220.28 142.70   Q 213.82 143.98 212.15 149.35   Q 211.81 150.43 211.20 149.48   L 211.02 149.20   Q 210.57 148.52 210.80 147.74   Q 211.83 144.19 214.95 142.21   Q 215.61 141.79 214.83 141.85   Q 213.46 141.96 212.02 142.75   Q 211.61 142.97 211.23 142.69   Q 211.00 142.52 210.71 142.62   Q 208.94 143.28 207.21 143.24   A 0.67 0.66 75.6 0 0 206.62 144.24   Q 210.85 151.49 209.72 159.96   A 1.39 1.36 28.5 0 0 210.05 161.04   Q 211.87 163.11 213.75 165.02   Z   M 211.51 168.19   L 203.43 158.49   A 0.13 0.13 0.0 0 0 203.24 158.48   L 203.24 158.48   A 6.31 4.99 50.2 0 0 203.45 166.52   L 203.62 166.72   A 6.31 4.99 50.2 0 0 211.49 168.37   L 211.49 168.37   A 0.13 0.13 0.0 0 0 211.51 168.19   Z"/>
    <path fill="#000000" d="   M 706.06 116.21   A 0.80 0.80 0.0 0 1 706.83 115.38   L 717.33 114.99   A 2.66 1.85 -2.1 0 1 720.05 116.74   L 720.06 116.90   A 2.66 1.85 -2.1 0 1 717.47 118.85   L 706.97 119.24   A 0.80 0.80 0.0 0 1 706.15 118.47   L 706.06 116.21   Z"/>
    <path fill="#000000" d="   M 650.99 122.47   L 654.05 125.70   A 1.00 1.00 0.0 0 1 653.50 127.38   Q 652.60 127.54 651.79 126.70   C 649.80 124.64 647.80 122.80 646.02 120.54   Q 645.52 119.92 646.31 119.77   Q 646.98 119.65 647.68 119.74   A 1.48 1.45 -57.1 0 0 648.70 119.51   Q 651.12 117.91 654.00 118.11   A 1.36 1.36 0.0 0 1 654.97 120.32   Q 653.83 121.73 651.28 121.78   Q 650.36 121.79 650.99 122.47   Z"/>
    <path fill="#000000" fill-opacity="0.176" d="   M 409.13 138.62   Q 409.81 138.61 409.48 139.69   Q 408.04 140.30 406.83 141.39   Q 406.43 141.76 405.89 141.76   Q 405.38 141.76 405.00 141.42   A 1.76 1.76 0.0 0 0 402.25 141.92   Q 400.85 144.65 401.70 147.75   Q 402.41 150.35 404.88 149.61   Q 405.54 149.42 405.86 150.03   Q 407.18 152.53 409.72 153.56   Q 410.31 153.80 410.10 154.40   L 406.67 164.12   Q 406.23 165.35 406.08 164.05   Q 405.32 157.54 398.27 153.65   Q 397.72 153.35 398.13 152.87   Q 400.32 150.27 399.64 146.72   C 399.44 145.63 398.60 144.80 398.13 143.80   Q 397.90 143.32 398.40 143.11   C 402.43 141.44 402.52 137.27 400.43 134.00   Q 400.10 133.49 400.60 133.16   Q 405.51 129.88 402.51 125.22   A 0.52 0.52 0.0 0 1 402.80 124.44   Q 410.10 122.36 416.91 122.87   Q 417.46 122.91 417.39 123.46   L 416.99 126.96   Q 416.94 127.35 416.56 127.22   Q 412.17 125.69 408.81 128.31   Q 408.29 128.71 407.96 128.14   C 407.75 127.78 407.28 127.45 406.88 127.37   C 403.58 126.72 403.59 132.59 404.00 134.37   A 1.47 1.46 75.6 0 0 405.82 135.45   Q 406.89 135.15 407.29 136.24   Q 407.90 137.90 409.13 138.62   Z"/>
    <path fill="#000000" fill-opacity="0.176" d="   M 418.15 173.19   Q 418.35 178.04 414.99 180.79   C 412.79 182.61 409.24 182.91 406.92 181.33   Q 402.30 178.19 405.63 172.25   Q 405.90 171.77 406.45 171.84   C 408.10 172.03 410.34 171.92 411.14 170.15   C 411.96 168.35 410.55 167.07 408.89 166.55   A 0.63 0.63 0.0 0 1 408.49 165.74   L 412.22 155.19   A 0.95 0.94 -80.5 0 1 413.09 154.56   C 414.66 154.53 416.39 154.48 417.71 153.55   Q 422.86 149.94 420.12 143.83   Q 419.78 143.07 420.61 143.19   Q 421.73 143.36 422.85 143.12   Q 424.33 142.79 423.14 141.85   Q 422.08 141.01 420.65 141.11   A 0.35 0.35 0.0 0 1 420.40 140.50   C 424.85 136.55 423.61 132.05 419.30 128.47   Q 418.87 128.12 418.93 127.58   L 419.35 123.69   A 0.38 0.37 8.3 0 1 419.80 123.36   Q 425.93 124.48 431.61 128.32   Q 437.20 132.10 439.58 138.49   Q 445.25 153.76 433.92 165.64   Q 429.82 169.94 422.54 172.57   Q 421.97 172.77 421.43 173.09   Q 420.21 173.80 419.16 172.75   A 0.59 0.59 0.0 0 0 418.15 173.19   Z   M 430.23 145.35   Q 429.29 145.92 428.08 145.79   A 0.60 0.60 0.0 0 0 427.44 146.25   L 427.34 146.70   Q 427.14 147.64 428.08 147.81   Q 430.63 148.28 432.02 146.26   A 1.44 1.44 0.0 0 0 432.12 144.80   Q 431.31 143.16 430.02 142.38   Q 429.50 142.06 428.95 142.35   Q 428.30 142.68 428.68 143.30   Q 429.15 144.10 430.19 144.61   Q 430.89 144.95 430.23 145.35   Z"/>
    <rect fill="#000000" x="-7.74" y="-1.90" transform="translate(712.67,128.29) rotate(1.1)" width="15.48" height="3.80" rx="1.64"/>
    <rect fill="#000000" x="-7.33" y="-2.04" transform="translate(606.54,130.39) rotate(-9.4)" width="14.66" height="4.08" rx="1.52"/>
    <rect fill="#000000" x="-7.17" y="-2.31" transform="translate(609.10,141.34) rotate(-10.7)" width="14.34" height="4.62" rx="1.96"/>
    <rect fill="#000000" x="-7.31" y="-1.60" transform="translate(709.74,140.34) rotate(0.3)" width="14.62" height="3.20" rx="1.55"/>
    <path fill="#000000" d="   M 430.19 144.61   Q 429.15 144.10 428.68 143.30   Q 428.30 142.68 428.95 142.35   Q 429.50 142.06 430.02 142.38   Q 431.31 143.16 432.12 144.80   A 1.44 1.44 0.0 0 1 432.02 146.26   Q 430.63 148.28 428.08 147.81   Q 427.14 147.64 427.34 146.70   L 427.44 146.25   A 0.60 0.60 0.0 0 1 428.08 145.79   Q 429.29 145.92 430.23 145.35   Q 430.89 144.95 430.19 144.61   Z"/>
    <path fill="#000000" d="   M 222.75 149.56   A 0.45 0.45 0.0 0 0 222.17 149.53   Q 218.42 152.29 218.04 157.48   Q 217.89 159.61 216.74 157.80   Q 216.55 157.49 216.43 157.14   Q 216.29 156.75 216.32 156.33   C 216.61 152.34 219.41 147.10 223.91 146.71   Q 226.71 146.47 227.70 149.95   A 2.09 2.09 0.0 0 1 224.18 151.96   L 222.76 150.47   A 0.29 0.28 -44.3 0 1 222.77 150.07   Q 223.03 149.82 222.75 149.56   Z"/>
    <path fill="#000000" d="   M 608.00 150.21   Q 615.44 147.60 620.78 148.03   A 0.80 0.79 -2.3 0 1 621.50 148.69   C 621.86 150.71 620.69 151.79 618.76 152.13   Q 614.77 152.83 610.51 153.98   Q 608.40 154.55 607.42 152.60   L 607.21 152.19   Q 606.47 150.74 608.00 150.21   Z"/>
    <rect fill="#000000" x="-9.22" y="-1.90" transform="translate(702.14,152.21) rotate(-1.5)" width="18.44" height="3.80" rx="1.79"/>
    <path fill="#000000" d="   M 503.93 156.38   A 0.15 0.15 0.0 0 1 504.06 156.20   L 522.23 153.07   A 12.51 0.65 -9.8 0 1 534.67 151.58   L 534.74 152.01   A 12.51 0.65 -9.8 0 1 522.52 154.78   L 504.35 157.92   A 0.15 0.15 0.0 0 1 504.18 157.80   L 503.93 156.38   Z"/>
    <path fill="#000000" d="   M 627.21 156.18   A 1.47 1.47 0.0 0 1 628.95 157.45   Q 629.22 159.69 625.21 160.80   Q 623.43 161.29 621.27 161.72   Q 618.82 162.22 616.18 162.48   Q 614.62 162.63 614.35 161.09   L 614.27 160.64   Q 613.94 158.78 615.79 158.42   L 627.21 156.18   Z"/>
    <ellipse fill="#000000" cx="0.00" cy="0.00" transform="translate(304.24,161.76) rotate(41.0)" rx="2.45" ry="1.38"/>
    <path fill="#000000" d="   M 165.28 171.90   C 163.23 183.43 157.61 194.67 150.57 203.72   Q 150.18 204.21 149.63 203.92   Q 138.58 198.08 127.57 191.42   Q 126.89 191.01 127.40 190.40   C 133.89 182.41 139.82 172.06 141.87 161.79   A 1.11 1.11 0.0 0 1 143.43 161.00   L 164.80 170.98   Q 165.39 171.26 165.28 171.90   Z   M 143.79 164.57   C 141.76 173.57 136.90 182.58 131.38 189.74   Q 130.98 190.25 131.54 190.57   L 149.08 200.69   A 0.68 0.68 0.0 0 0 149.97 200.50   Q 159.24 187.69 162.70 173.17   A 0.53 0.52 -70.8 0 0 162.41 172.56   L 144.40 164.27   Q 143.90 164.04 143.79 164.57   Z"/>
    <path fill="#000000" d="   M 236.25 164.11   C 237.90 164.40 239.08 162.55 240.05 161.58   A 1.69 1.69 0.0 0 1 242.72 161.94   Q 245.36 166.62 241.75 169.61   Q 240.01 171.05 237.40 170.39   Q 234.50 169.65 233.61 167.27   A 2.37 2.37 0.0 0 1 236.25 164.11   Z"/>
    <path fill="#000000" d="   M 543.75 168.23   Q 545.11 168.39 543.96 167.64   Q 542.66 166.81 542.12 165.95   A 2.03 2.03 0.0 0 1 543.86 162.83   C 547.33 162.87 550.32 164.21 553.42 165.61   Q 554.38 166.04 553.95 165.09   Q 553.14 163.30 554.86 162.37   C 557.21 161.10 561.61 163.99 563.25 165.48   C 571.41 172.83 566.10 183.27 556.99 186.07   Q 545.60 189.57 535.74 182.35   A 1.76 1.76 0.0 0 1 535.83 179.44   Q 536.91 178.76 538.24 178.76   Q 538.52 178.76 538.67 178.53   Q 538.74 178.42 538.76 178.29   Q 538.78 178.21 538.71 178.18   Q 535.88 177.01 535.68 174.59   Q 535.63 174.01 536.10 173.67   Q 537.61 172.56 539.28 172.81   Q 541.33 173.12 539.68 171.86   Q 537.80 170.43 538.86 168.71   A 1.79 1.78 -70.8 0 1 540.60 167.86   L 543.75 168.23   Z   M 550.10 168.99   Q 554.32 170.91 558.46 173.32   A 0.66 0.65 16.4 0 1 558.79 173.92   Q 558.76 174.52 558.33 174.65   Q 557.18 174.99 556.14 174.50   Q 548.73 171.02 541.37 169.56   A 0.46 0.45 -54.1 0 0 541.03 169.62   Q 540.09 170.23 541.33 170.92   Q 546.40 173.79 551.82 176.32   Q 552.69 176.72 552.49 177.66   L 552.43 177.94   A 0.55 0.54 16.5 0 1 551.70 178.33   Q 545.71 175.91 540.25 174.67   Q 539.31 174.46 538.39 174.62   Q 537.10 174.85 538.21 175.55   Q 542.99 178.56 548.37 180.89   A 0.75 0.75 0.0 0 1 548.71 181.95   L 548.49 182.32   A 0.62 0.61 23.0 0 1 547.79 182.60   C 545.17 181.90 540.01 180.08 537.80 180.70   Q 536.80 180.98 537.70 181.51   C 545.47 186.11 557.89 186.95 563.34 178.37   C 567.33 172.07 563.21 164.85 556.27 163.81   A 0.62 0.62 0.0 0 0 555.73 164.86   Q 558.34 167.51 562.12 169.92   A 0.62 0.62 0.0 0 1 562.39 170.57   Q 562.27 171.09 561.86 171.18   Q 560.71 171.42 559.68 170.84   Q 554.24 167.76 548.73 165.58   Q 546.80 164.82 544.78 164.66   Q 543.04 164.53 544.43 165.58   Q 547.14 167.64 550.10 168.99   Z"/>
    <rect fill="#000000" x="-8.98" y="-1.90" transform="translate(694.20,164.46) rotate(-0.9)" width="17.96" height="3.80" rx="1.73"/>
    <path fill="#000000" fill-opacity="0.176" d="   M 550.10 168.99   Q 547.14 167.64 544.43 165.58   Q 543.04 164.53 544.78 164.66   Q 546.80 164.82 548.73 165.58   Q 554.24 167.76 559.68 170.84   Q 560.71 171.42 561.86 171.18   Q 562.27 171.09 562.39 170.57   A 0.62 0.62 0.0 0 0 562.12 169.92   Q 558.34 167.51 555.73 164.86   A 0.62 0.62 0.0 0 1 556.27 163.81   C 563.21 164.85 567.33 172.07 563.34 178.37   C 557.89 186.95 545.47 186.11 537.70 181.51   Q 536.80 180.98 537.80 180.70   C 540.01 180.08 545.17 181.90 547.79 182.60   A 0.62 0.61 23.0 0 0 548.49 182.32   L 548.71 181.95   A 0.75 0.75 0.0 0 0 548.37 180.89   Q 542.99 178.56 538.21 175.55   Q 537.10 174.85 538.39 174.62   Q 539.31 174.46 540.25 174.67   Q 545.71 175.91 551.70 178.33   A 0.55 0.54 16.5 0 0 552.43 177.94   L 552.49 177.66   Q 552.69 176.72 551.82 176.32   Q 546.40 173.79 541.33 170.92   Q 540.09 170.23 541.03 169.62   A 0.46 0.45 -54.1 0 1 541.37 169.56   Q 548.73 171.02 556.14 174.50   Q 557.18 174.99 558.33 174.65   Q 558.76 174.52 558.79 173.92   A 0.66 0.65 16.4 0 0 558.46 173.32   Q 554.32 170.91 550.10 168.99   Z"/>
    <rect fill="#000000" x="-7.91" y="-2.12" transform="translate(630.34,168.12) rotate(-9.6)" width="15.82" height="4.24" rx="2.05"/>
    <path fill="#000000" d="   M 680.77 176.38   L 680.19 174.32   Q 680.05 173.79 680.59 173.72   Q 685.10 173.10 688.79 173.48   Q 689.37 173.54 689.57 174.09   Q 689.90 174.99 689.61 175.85   Q 689.41 176.44 688.78 176.52   L 682.21 177.34   A 1.33 1.33 0.0 0 1 680.77 176.38   Z"/>
    <rect fill="#000000" x="-6.05" y="-2.04" transform="translate(641.83,176.69) rotate(-5.5)" width="12.10" height="4.08" rx="1.94"/>
    <rect fill="#000000" x="-4.13" y="-0.85" transform="translate(179.64,181.56) rotate(0.5)" width="8.26" height="1.70" rx="0.80"/>
    <path fill="#000000" d="   M 244.47 187.61   C 240.69 183.15 248.10 179.33 251.67 182.04   C 254.64 184.30 253.59 188.10 250.47 189.65   C 245.75 191.99 237.58 190.83 232.60 189.20   Q 231.27 188.76 231.16 187.37   Q 231.12 186.94 231.48 186.56   A 0.79 0.78 -59.4 0 1 232.29 186.35   Q 238.70 188.32 244.16 188.28   Q 245.03 188.28 244.47 187.61   Z"/>
    <rect fill="#000000" x="-3.64" y="-1.63" transform="translate(686.88,185.80) rotate(-5.8)" width="7.28" height="3.26" rx="1.39"/>
    <rect fill="#000000" x="-4.39" y="-1.70" transform="translate(646.60,186.22) rotate(-0.8)" width="8.78" height="3.40" rx="1.61"/>
    <rect fill="#000000" x="-5.81" y="-1.12" transform="translate(180.02,187.57) rotate(-21.8)" width="11.62" height="2.24" rx="1.03"/>
    <rect fill="#000000" x="-2.69" y="-1.06" transform="translate(536.92,186.63) rotate(-23.2)" width="5.38" height="2.12" rx="1.01"/>
    <path fill="#000000" d="   M 750.00 192.69   L 750.00 194.56   Q 743.04 192.85 736.26 190.03   Q 735.07 189.54 734.41 188.44   Q 734.14 188.00 734.64 187.87   Q 736.13 187.47 737.25 187.78   Q 744.04 189.64 750.00 192.69   Z"/>
    <path fill="#000000" d="   M 520.12 197.38   Q 519.23 197.68 519.01 196.77   Q 518.96 196.56 519.04 196.36   Q 519.43 195.35 520.42 194.93   Q 527.29 192.04 533.50 188.48   Q 534.13 188.13 534.25 188.83   Q 534.28 189.03 534.21 189.21   Q 533.87 190.15 533.06 190.74   Q 527.15 195.05 520.12 197.38   Z"/>
    <path fill="#000000" d="   M 463.21 195.60   Q 458.32 190.50 450.16 192.70   A 1.10 1.09 -11.5 0 1 448.79 191.80   Q 448.52 189.92 451.18 189.25   Q 452.42 188.94 453.61 188.80   C 459.95 188.06 466.84 191.99 468.08 198.38   A 1.29 1.29 0.0 0 1 466.05 199.67   C 464.66 198.66 464.40 196.85 463.21 195.60   Z"/>
    <path fill="#000000" d="   M 187.74 191.03   A 0.44 0.44 0.0 0 1 187.72 191.65   L 181.52 197.43   A 3.05 1.12 -43.0 0 1 178.53 198.69   L 178.49 198.65   A 3.05 1.12 -43.0 0 1 179.95 195.75   L 186.15 189.97   A 0.44 0.44 0.0 0 1 186.77 189.99   L 187.74 191.03   Z"/>
    <path fill="#000000" d="   M 427.32 192.38   C 432.87 194.02 437.78 200.64 436.45 206.69   A 0.94 0.93 16.6 0 1 435.20 207.36   C 434.10 206.95 433.49 205.80 433.36 204.67   Q 432.46 197.27 425.87 193.87   Q 425.75 193.81 425.71 193.67   Q 425.43 192.74 426.57 192.39   A 1.30 1.26 43.4 0 1 427.32 192.38   Z"/>
    <path fill="#000000" d="   M 525.22 202.75   Q 522.87 203.56 520.25 202.99   A 1.44 1.43 -68.9 0 1 519.32 200.87   Q 520.14 199.45 521.92 198.69   Q 528.43 195.90 533.52 192.66   Q 533.97 192.38 534.36 192.70   A 0.82 0.82 0.0 0 1 534.42 193.92   C 531.57 196.69 527.20 198.50 523.64 200.25   Q 521.40 201.36 523.88 201.09   C 525.38 200.93 528.22 200.33 529.44 201.48   A 1.30 1.30 0.0 0 1 529.20 203.55   C 522.79 207.27 514.04 208.04 506.85 207.96   A 1.56 1.39 48.4 0 1 506.51 207.92   Q 504.30 207.48 504.72 206.51   Q 505.16 205.48 506.28 205.45   Q 515.91 205.22 525.19 203.28   Q 525.38 203.24 525.35 203.04   L 525.30 202.79   Q 525.28 202.73 525.22 202.75   Z"/>
    <path fill="#000000" d="   M 640.15 195.59   Q 639.86 195.37 639.81 195.13   Q 639.68 194.56 640.27 194.56   C 642.28 194.57 644.26 194.72 646.25 194.77   Q 648.84 194.83 648.61 197.64   A 1.14 1.14 0.0 0 1 647.68 198.67   Q 644.46 199.23 641.53 198.52   A 1.05 1.03 83.2 0 1 640.82 197.95   Q 640.27 196.79 640.15 195.59   Z"/>
    <rect fill="#000000" x="-5.50" y="-1.81" transform="translate(686.88,197.75) rotate(-1.4)" width="11.00" height="3.62" rx="1.40"/>
    <rect fill="#000000" x="-5.55" y="-1.71" transform="translate(664.28,197.90) rotate(2.2)" width="11.10" height="3.42" rx="1.43"/>
    <path fill="#000000" d="   M 448.52 202.57   Q 448.87 201.65 449.93 201.58   Q 451.75 201.47 451.51 203.28   Q 451.22 205.49 449.74 207.66   Q 444.63 215.16 436.61 216.24   Q 434.90 216.47 433.78 215.20   A 1.17 1.17 0.0 0 1 434.17 213.37   Q 437.50 211.84 440.98 210.57   Q 444.74 209.21 448.23 203.29   Q 448.27 203.22 448.52 202.57   Z"/>
    <path fill="#000000" d="   M 744.36 211.38   A 0.45 0.45 0.0 0 1 743.73 211.42   L 736.47 205.06   A 3.96 1.13 41.2 0 1 734.23 201.60   L 734.31 201.51   A 3.96 1.13 41.2 0 1 738.03 203.27   L 745.29 209.63   A 0.45 0.45 0.0 0 1 745.34 210.26   L 744.36 211.38   Z"/>
    <path fill="#000000" d="   M 461.86 203.50   C 465.31 207.56 471.09 211.62 476.56 210.69   A 1.22 1.20 80.2 0 1 477.95 211.68   L 478.07 212.37   Q 478.31 213.71 476.95 213.86   Q 467.55 214.83 461.48 208.60   Q 460.54 207.63 459.74 206.44   Q 458.37 204.39 459.94 203.26   A 1.42 1.42 0.0 0 1 461.86 203.50   Z"/>
    <circle fill="#000000" cx="247.94" cy="204.77" r="1.08"/>
    <ellipse fill="#000000" cx="0.00" cy="0.00" transform="translate(250.30,212.96) rotate(76.2)" rx="1.24" ry="0.99"/>
    <rect fill="#000000" x="-1.03" y="-4.98" transform="translate(731.59,218.34) rotate(-32.0)" width="2.06" height="9.96" rx="1.00"/>
    <path fill="#000000" d="   M 96.10 317.22   Q 77.56 325.45 58.45 323.15   Q 56.69 322.93 54.98 322.23   A 0.79 0.79 0.0 0 1 54.94 320.78   C 57.00 319.78 61.57 320.52 63.97 320.62   Q 80.99 321.34 96.47 314.46   Q 101.39 312.27 99.34 317.25   Q 94.06 330.11 91.65 344.62   Q 90.22 353.26 90.92 361.31   A 1.22 1.21 63.7 0 0 93.03 362.03   Q 93.86 361.12 94.17 359.70   Q 100.30 332.49 111.67 306.90   Q 119.66 288.90 127.52 271.23   A 1.62 1.62 0.0 0 0 127.50 269.90   L 124.00 262.39   Q 123.49 261.30 124.38 260.49   L 128.21 257.01   Q 128.99 256.30 129.58 257.18   L 131.32 259.75   Q 131.75 260.39 132.02 259.66   Q 137.05 246.06 139.89 233.12   Q 140.96 228.27 140.58 223.64   Q 140.46 222.15 139.64 223.40   Q 138.88 224.58 137.60 224.03   Q 137.05 223.79 136.70 224.28   C 133.09 229.48 130.56 235.88 128.04 241.73   A 1.99 1.98 -73.4 0 1 125.89 242.90   Q 119.64 241.84 113.72 244.51   A 1.05 1.04 -10.5 0 0 113.11 245.39   Q 112.62 252.93 111.99 261.04   C 111.44 268.12 108.58 284.92 100.01 286.82   Q 94.55 288.03 91.75 283.12   C 89.87 279.83 91.03 275.49 92.44 272.40   C 95.84 264.93 100.07 256.76 105.05 249.81   C 109.94 242.99 116.76 239.64 125.32 240.77   Q 125.98 240.86 126.24 240.25   C 128.93 233.88 131.98 225.85 136.55 221.03   C 137.83 219.69 140.33 218.92 141.70 220.61   C 143.94 223.38 142.89 229.73 142.11 233.18   Q 140.07 242.23 137.53 250.11   Q 137.34 250.71 137.74 251.20   C 144.13 258.84 152.11 265.41 159.88 271.75   A 1.76 1.76 0.0 0 1 160.14 274.21   Q 153.86 282.05 145.09 288.37   Q 144.25 288.97 143.41 288.37   C 137.93 284.44 133.55 279.10 129.69 273.51   Q 129.20 272.80 128.87 273.60   Q 125.96 280.82 122.64 287.96   Q 121.49 290.41 121.35 293.68   Q 120.40 315.80 123.40 335.45   Q 125.25 347.58 127.32 358.65   C 127.65 360.41 128.28 363.68 126.46 364.87   Q 124.47 366.18 122.94 364.79   Q 119.79 361.94 117.88 357.14   Q 112.35 343.29 110.51 325.95   A 1.20 1.19 67.1 0 1 110.93 324.90   Q 111.90 324.09 112.43 325.00   Q 112.95 325.90 113.06 326.70   Q 114.93 339.36 118.05 350.29   Q 119.81 356.43 123.12 361.73   Q 123.62 362.53 124.46 362.69   A 0.65 0.65 0.0 0 0 125.21 361.93   Q 123.04 350.78 121.28 340.54   Q 118.48 324.17 118.60 307.19   Q 118.61 305.93 117.83 306.92   Q 115.73 309.60 113.13 311.89   Q 111.61 313.22 110.91 314.92   Q 101.25 338.56 96.30 360.87   Q 95.85 362.93 94.30 364.29   C 91.98 366.32 89.11 363.71 88.78 361.29   C 86.86 347.10 91.00 331.08 96.57 317.68   Q 96.91 316.86 96.10 317.22   Z   M 132.38 263.88   Q 130.44 262.04 129.12 259.80   Q 128.72 259.12 128.09 259.59   L 126.55 260.75   Q 125.79 261.32 126.18 262.18   Q 131.94 274.96 143.30 285.82   Q 143.69 286.20 144.10 285.85   Q 151.08 280.14 157.49 273.62   Q 158.03 273.07 157.40 272.63   Q 145.84 264.47 136.91 253.16   A 0.20 0.20 0.0 0 0 136.56 253.22   L 132.92 263.75   Q 132.75 264.24 132.38 263.88   Z"/>
    <path fill="#000000" d="   M 251.91 221.09   A 1.07 1.07 0.0 0 1 253.61 220.70   Q 254.35 221.37 253.83 222.40   A 0.86 0.86 0.0 0 1 252.49 222.65   Q 251.59 221.86 251.91 221.09   Z"/>
    <path fill="#000000" d="   M 254.61 229.28   A 0.89 0.89 0.0 0 1 255.98 228.88   Q 256.69 229.41 256.42 230.28   A 0.91 0.90 31.0 0 1 254.92 230.65   Q 254.31 230.05 254.61 229.28   Z"/>
    <ellipse fill="#000000" cx="0.00" cy="0.00" transform="translate(210.74,232.53) rotate(-28.4)" rx="1.93" ry="1.77"/>
    <path fill="#000000" d="   M 556.81 236.99   L 554.79 236.37   A 1.56 1.56 0.0 0 1 554.73 233.40   C 557.50 232.45 559.80 234.96 559.08 237.82   Q 558.96 238.29 558.55 238.56   Q 558.38 238.67 558.17 238.70   Q 557.44 238.78 557.50 238.06   Q 557.52 237.80 557.43 237.58   Q 557.27 237.13 556.81 236.99   Z"/>
    <path fill="#000000" d="   M 564.18 242.65   Q 562.45 242.64 561.25 241.36   A 1.18 1.17 -22.3 0 1 562.08 239.38   Q 567.11 239.28 567.10 243.60   A 0.66 0.65 63.0 0 1 566.98 243.98   Q 566.59 244.56 565.95 244.29   A 0.81 0.79 -0.7 0 1 565.53 243.89   L 565.28 243.36   Q 564.95 242.66 564.18 242.65   Z"/>
    <path fill="#000000" d="   M 551.25 249.45   Q 551.52 249.47 551.77 249.59   A 1.42 1.40 89.2 0 1 552.44 250.25   C 554.67 254.65 543.71 256.12 544.78 248.90   Q 545.03 247.17 546.81 246.64   Q 547.32 246.49 547.71 246.84   L 548.49 247.54   Q 548.93 247.94 549.40 247.56   Q 552.48 245.04 554.33 242.12   A 1.15 1.14 -50.2 0 1 556.14 241.95   Q 556.78 242.65 556.58 243.63   Q 556.47 244.14 555.96 244.20   L 555.51 244.25   A 1.57 1.55 17.5 0 0 554.54 244.75   L 550.95 248.70   Q 550.34 249.37 551.25 249.45   Z"/>
    <ellipse fill="#000000" cx="0.00" cy="0.00" transform="translate(120.67,247.22) rotate(1.2)" rx="1.86" ry="1.22"/>
    <path fill="#000000" d="   M 11.05 265.78   A 0.47 0.46 57.9 0 1 10.90 266.45   Q 10.58 266.62 10.23 266.56   Q 9.41 266.42 8.87 265.80   Q 3.25 259.43 2.33 250.38   Q 2.24 249.58 3.04 249.44   Q 3.24 249.41 3.43 249.50   Q 4.32 249.96 4.54 250.94   Q 6.37 259.14 11.05 265.78   Z"/>
    <path fill="#000000" d="   M 9.30 252.19   C 24.28 268.53 41.94 281.34 63.93 285.28   Q 76.70 287.58 90.69 283.79   Q 91.23 283.64 91.13 284.19   L 91.09 284.48   A 1.35 1.33 83.9 0 1 90.29 285.48   C 79.68 289.95 65.94 289.14 55.10 285.97   Q 27.85 277.99 8.01 254.38   Q 7.24 253.46 7.27 252.05   Q 7.28 251.40 8.63 251.78   A 1.43 1.36 -12.1 0 1 9.30 252.19   Z"/>
    <path fill="#000000" d="   M 0.00 262.37   L 0.00 259.87   Q 0.64 259.64 1.50 260.23   Q 2.04 260.61 2.33 261.19   Q 7.75 272.07 18.49 278.01   A 0.48 0.47 -57.5 0 1 18.64 278.71   L 18.44 278.97   Q 17.94 279.63 17.19 279.29   Q 5.42 273.96 0.00 262.37   Z"/>
    <path fill="#000000" d="   M 538.06 312.16   Q 533.73 322.30 529.07 332.51   Q 527.91 335.04 526.35 337.90   A 0.43 0.43 0.0 0 1 525.75 338.06   L 525.41 337.86   A 0.83 0.82 -63.5 0 1 525.08 336.84   L 552.02 271.01   A 0.55 0.50 -15.9 0 1 552.10 270.88   Q 553.57 269.40 553.88 269.95   Q 554.66 271.30 554.14 272.74   Q 548.25 289.16 540.08 307.62   Q 539.90 308.03 540.00 308.47   Q 540.44 310.33 541.55 312.02   Q 546.95 320.20 552.04 324.90   Q 556.15 328.71 560.49 332.19   C 563.95 334.97 565.95 338.71 566.87 343.12   C 567.47 345.98 568.26 351.56 570.39 353.35   Q 571.34 354.15 571.48 352.91   Q 573.15 338.31 564.69 326.85   Q 562.10 323.34 559.09 319.70   Q 550.44 309.24 548.43 296.23   Q 548.28 295.29 548.58 294.32   Q 548.74 293.80 549.41 294.02   A 0.70 0.69 -85.9 0 1 549.88 294.57   Q 551.80 307.25 560.98 318.31   Q 564.00 321.95 566.62 325.51   Q 575.28 337.30 574.03 351.67   Q 573.71 355.36 570.34 355.58   Q 569.77 355.62 569.37 355.20   C 566.39 352.16 565.49 347.10 564.62 342.94   C 563.21 336.16 557.77 332.62 552.68 328.56   C 546.94 323.97 542.68 318.23 538.94 312.09   Q 538.44 311.27 538.06 312.16   Z"/>
    <path fill="#000000" d="   M 27.33 286.14   C 19.67 286.48 10.93 283.06 5.77 277.58   A 0.82 0.82 0.0 0 1 5.59 276.75   Q 5.75 276.25 6.16 276.25   Q 7.45 276.22 8.40 276.96   Q 17.45 283.97 28.09 284.55   A 0.45 0.45 0.0 0 1 28.47 285.19   L 28.35 285.45   Q 28.05 286.11 27.33 286.14   Z"/>
    <path fill="#000000" d="   M 36.70 288.74   Q 26.42 292.13 17.21 287.96   A 0.40 0.39 -57.0 0 1 17.08 287.34   L 17.31 287.08   Q 17.91 286.39 18.79 286.63   Q 28.55 289.33 37.12 286.97   A 0.42 0.42 0.0 0 1 37.64 287.45   L 37.57 287.76   Q 37.42 288.50 36.70 288.74   Z"/>
    <path fill="#000000" d="   M 32.33 290.94   C 36.09 290.05 38.74 289.30 42.63 287.25   A 0.74 0.73 -28.5 0 1 43.62 287.54   L 43.74 287.77   A 0.43 0.43 0.0 0 1 43.61 288.34   Q 39.33 291.36 33.01 292.33   Q 32.30 292.44 32.10 291.75   L 32.02 291.48   A 0.43 0.42 75.3 0 1 32.33 290.94   Z"/>
    <path fill="#000000" d="   M 45.37 362.12   Q 46.84 362.76 46.46 361.21   Q 45.16 356.00 43.83 351.01   C 42.91 347.59 43.58 344.30 45.83 341.48   C 48.10 338.63 50.62 335.08 51.22 331.49   Q 51.97 326.99 51.78 321.35   A 0.66 0.66 0.0 0 1 52.61 320.69   Q 52.73 320.72 52.86 320.76   Q 53.82 321.03 53.92 322.02   Q 54.55 328.40 52.66 334.31   C 51.52 337.87 48.78 340.85 46.68 343.96   C 45.22 346.13 45.57 349.19 46.27 351.48   Q 47.82 356.49 48.60 360.96   C 49.11 363.91 46.12 365.63 43.83 363.67   Q 42.05 362.14 41.13 360.10   Q 35.62 347.86 32.71 335.97   A 0.35 0.35 0.0 0 0 32.16 335.77   Q 29.47 337.77 26.13 339.28   C 21.69 341.28 18.48 344.50 16.16 348.68   Q 10.99 358.02 9.33 361.54   C 7.12 366.19 1.73 364.12 2.96 359.29   Q 7.43 341.80 15.54 325.57   Q 24.62 307.41 38.50 293.49   Q 40.20 291.79 42.16 291.08   Q 42.84 290.83 42.63 291.53   Q 42.15 293.16 40.94 294.40   Q 24.42 311.31 14.88 332.28   Q 8.76 345.75 4.58 360.74   A 1.16 1.14 -65.4 0 0 5.04 362.00   Q 6.43 362.97 7.34 361.25   Q 7.93 360.13 8.45 358.99   Q 12.74 349.45 16.73 343.64   C 20.46 338.22 27.75 336.47 32.47 332.71   Q 38.06 328.27 45.18 319.75   A 0.50 0.50 0.0 0 1 45.94 319.74   L 46.19 320.02   Q 46.80 320.70 46.30 321.47   Q 41.56 328.86 34.96 333.80   Q 34.55 334.11 34.61 334.63   Q 34.86 336.55 35.47 338.41   Q 38.81 348.66 43.49 359.88   Q 43.82 360.66 44.36 361.32   Q 44.81 361.88 45.37 362.12   Z"/>
    <path fill="#000000" d="   M 525.80 305.69   Q 520.18 309.85 513.37 313.30   A 0.65 0.64 -24.7 0 0 513.06 314.12   L 517.18 323.96   A 1.19 1.19 0.0 0 1 516.78 325.38   Q 508.88 331.05 499.40 335.38   Q 498.85 335.63 499.09 336.19   C 500.57 339.54 502.33 342.79 506.75 342.08   C 514.30 340.87 521.71 339.47 529.11 340.63   C 532.38 341.15 535.26 344.02 532.56 347.16   Q 531.30 348.64 529.62 349.71   Q 519.48 356.19 505.84 360.83   Q 500.56 362.62 496.18 362.23   C 489.65 361.65 485.80 351.63 485.14 346.23   A 1.10 1.10 0.0 0 1 486.58 345.05   C 489.53 346.01 489.25 348.81 490.38 351.12   C 491.70 353.84 493.19 357.92 496.20 358.78   Q 499.22 359.64 503.36 358.45   Q 515.80 354.90 527.20 348.36   Q 529.44 347.07 531.00 345.29   A 0.94 0.94 0.0 0 0 530.68 343.82   C 529.00 343.03 526.93 342.64 525.07 342.66   Q 516.69 342.73 507.66 344.34   C 501.63 345.41 499.50 341.88 497.60 337.05   Q 497.40 336.54 496.89 336.73   L 479.00 343.30   Q 478.31 343.55 478.01 342.88   L 471.55 328.52   Q 471.33 328.02 470.79 328.11   L 461.96 329.57   Q 461.41 329.66 461.45 330.22   C 461.90 336.47 459.80 341.50 458.09 347.32   C 456.88 351.44 463.26 358.21 465.72 361.28   C 467.24 363.18 467.91 366.24 465.39 367.71   C 462.48 369.40 459.10 366.89 456.98 365.01   Q 449.71 358.58 445.42 351.80   Q 440.30 343.70 442.15 334.61   Q 442.28 333.94 442.96 333.86   L 443.23 333.83   A 0.47 0.47 0.0 0 1 443.75 334.38   Q 442.01 343.91 448.32 352.08   Q 453.87 359.25 460.91 365.35   Q 462.12 366.39 463.39 366.31   A 1.55 1.55 0.0 0 0 464.49 363.79   Q 460.73 359.14 457.60 354.64   C 455.12 351.08 455.06 347.70 456.49 343.67   Q 458.61 337.66 458.98 330.32   Q 458.99 330.06 458.73 330.08   Q 444.78 330.90 432.35 336.24   A 0.83 0.83 0.0 0 1 431.38 335.99   Q 430.73 335.20 431.67 333.91   A 1.86 1.84 5.5 0 1 432.38 333.33   Q 440.82 329.41 450.31 327.85   C 457.48 326.68 464.84 326.15 472.11 324.57   Q 493.23 319.98 511.00 311.38   Q 521.36 306.36 529.28 299.99   Q 529.75 299.61 529.96 300.18   Q 530.44 301.52 529.99 302.88   Q 524.45 319.76 518.71 337.32   A 0.58 0.57 18.7 0 1 517.97 337.68   L 517.63 337.55   Q 516.77 337.24 517.00 336.34   Q 520.96 321.12 526.31 306.06   A 0.33 0.33 0.0 0 0 525.80 305.69   Z"/>
    <path fill="#000000" d="   M 511.20 365.28   Q 514.04 362.01 515.93 358.28   Q 516.46 357.23 517.63 357.03   Q 517.76 357.00 517.87 357.08   A 1.41 1.38 -62.4 0 1 518.34 358.64   C 517.55 360.94 513.48 369.22 509.82 367.55   Q 507.67 366.57 508.23 363.64   Q 508.30 363.26 508.62 363.03   Q 509.38 362.48 509.55 363.40   Q 509.74 364.45 510.25 365.22   A 0.60 0.60 0.0 0 0 511.20 365.28   Z"/>
</svg>