<svg xmlns="http://www.w3.org/2000/svg" version="1.1" viewBox="0.00 0.00 442.00 300.00">
    <path fill="#000000" d="   M 154.06 95.87   Q 152.75 96.09 153.08 97.33   Q 153.34 98.27 152.39 98.00   Q 151.73 97.82 151.18 98.23   A 0.66 0.65 -44.7 0 0 151.17 99.27   Q 151.32 99.39 151.41 99.55   Q 151.83 100.36 151.03 99.93   Q 149.69 99.21 148.89 100.29   Q 148.52 100.80 148.06 101.23   Q 145.35 103.73 142.61 106.11   Q 142.27 106.40 142.32 106.85   L 142.88 111.58   Q 142.96 112.28 143.63 112.04   Q 143.78 111.99 143.90 111.89   Q 144.27 111.60 144.57 111.96   Q 144.67 112.07 144.66 112.23   Q 144.64 112.50 144.38 112.42   Q 143.78 112.25 143.27 112.46   Q 142.59 112.75 143.03 113.35   L 143.83 114.41   Q 144.10 114.78 143.71 115.02   Q 142.70 115.64 143.34 116.66   Q 143.64 117.15 143.27 117.59   Q 142.27 118.78 142.02 120.37   Q 141.93 120.88 142.30 121.25   L 142.60 121.54   Q 143.24 122.17 142.37 121.99   Q 142.12 121.94 141.87 121.97   Q 141.38 122.03 141.09 122.42   L 138.61 125.69   A 0.77 0.76 -47.6 0 0 138.65 126.67   Q 139.06 127.11 138.82 127.66   Q 138.59 128.19 138.17 127.79   Q 137.88 127.52 137.73 127.17   Q 137.34 126.28 136.87 127.13   Q 136.52 127.79 136.54 128.54   Q 136.55 129.27 135.93 128.91   Q 134.96 128.35 134.59 129.44   A 0.65 0.64 -73.9 0 1 133.84 129.86   Q 132.62 129.59 131.69 130.51   Q 131.28 130.92 130.71 130.96   L 122.82 131.56   Q 122.22 131.60 121.73 131.26   Q 120.64 130.48 119.85 131.67   Q 119.32 132.49 119.36 131.51   L 119.38 130.93   Q 119.40 130.36 118.85 130.20   Q 115.95 129.36 113.99 127.31   Q 113.54 126.84 113.03 127.24   L 112.76 127.44   A 0.28 0.28 0.0 0 1 112.35 127.37   Q 111.97 126.74 112.16 125.97   Q 112.31 125.37 111.79 125.01   Q 109.85 123.67 109.17 121.15   A 1.56 1.54 -84.2 0 0 108.40 120.19   Q 107.54 119.73 107.97 118.86   Q 108.56 117.65 107.31 118.13   Q 106.21 118.56 105.06 118.39   A 0.79 0.79 0.0 0 0 104.17 119.00   L 103.10 123.74   Q 102.98 124.26 102.59 124.64   Q 102.04 125.16 101.74 125.88   Q 101.57 126.30 101.77 126.70   Q 101.89 126.94 102.09 126.97   Q 102.75 127.06 102.22 127.46   Q 101.73 127.83 101.23 127.50   A 0.56 0.56 0.0 0 0 100.37 127.84   Q 100.09 129.06 98.96 129.45   Q 98.35 129.66 98.62 130.24   Q 98.81 130.68 98.79 131.13   Q 98.73 132.03 98.19 131.31   L 97.97 131.01   Q 97.72 130.67 97.30 130.78   Q 96.56 131.00 96.12 131.63   A 0.44 0.43 -57.0 0 0 96.25 132.26   Q 96.48 132.41 96.41 132.61   Q 96.27 133.08 95.89 132.76   Q 95.51 132.44 95.05 132.37   Q 94.64 132.31 94.24 132.51   Q 91.25 134.02 87.66 134.50   Q 87.31 134.55 87.05 134.78   Q 86.82 134.98 86.84 135.35   Q 86.89 136.44 86.16 135.62   Q 84.99 134.29 82.90 134.03   Q 82.29 133.96 82.36 134.57   Q 82.42 135.04 82.01 135.34   Q 81.61 135.63 81.63 135.14   Q 81.65 134.81 81.78 134.52   Q 82.01 134.00 81.55 133.68   Q 81.02 133.32 80.47 133.54   Q 80.14 133.68 80.06 134.03   Q 79.91 134.66 79.31 134.85   Q 78.64 135.07 78.92 134.42   Q 79.13 133.92 79.54 133.53   Q 80.07 133.02 79.36 132.83   Q 77.39 132.30 75.97 131.03   Q 75.58 130.68 75.05 130.74   L 74.50 130.80   Q 73.67 130.89 73.88 129.92   Q 73.92 129.76 73.85 129.61   Q 73.69 129.28 73.36 129.05   Q 71.37 127.67 70.58 125.35   Q 70.39 124.79 69.81 124.70   L 68.71 124.54   Q 67.84 124.40 68.58 123.93   Q 68.80 123.78 69.07 123.72   Q 69.52 123.61 69.33 123.19   Q 68.17 120.66 68.26 117.61   A 1.26 1.25 -71.0 0 0 67.75 116.56   Q 66.78 115.84 65.45 116.33   Q 64.98 116.50 64.74 116.06   Q 64.11 114.89 63.03 115.75   Q 62.59 116.10 62.18 115.71   Q 61.00 114.55 59.01 114.52   Q 58.47 114.51 58.10 114.12   Q 57.63 113.63 57.02 113.91   Q 56.53 114.13 56.03 113.91   Q 55.53 113.69 55.17 113.26   A 0.83 0.82 58.9 0 0 54.22 113.02   Q 54.06 113.08 53.94 113.20   Q 53.35 113.75 53.24 112.96   Q 53.19 112.54 52.79 112.36   Q 52.17 112.09 51.97 112.74   Q 51.87 113.06 51.67 113.30   Q 51.07 113.99 51.08 113.08   Q 51.09 112.90 51.02 112.73   Q 50.77 112.05 50.14 112.41   L 46.27 114.62   A 0.98 0.96 -19.3 0 0 45.79 115.59   Q 45.90 116.31 45.47 116.92   C 44.63 118.11 44.68 119.67 45.87 120.63   Q 46.69 121.29 45.68 121.00   Q 45.55 120.97 45.42 120.92   Q 44.70 120.69 44.97 121.40   Q 46.57 125.65 49.33 128.65   Q 49.73 129.09 49.79 129.68   Q 49.88 130.72 50.86 130.79   Q 51.52 130.84 51.71 131.48   Q 51.78 131.73 51.84 131.99   Q 52.03 132.79 52.84 132.44   Q 53.03 132.37 53.21 132.53   Q 53.69 132.99 53.04 133.15   Q 52.11 133.38 51.78 134.27   A 1.51 1.50 -63.6 0 1 49.56 135.02   Q 46.33 132.97 44.14 129.67   Q 43.86 129.25 43.35 129.21   Q 42.63 129.16 41.98 129.58   A 1.92 1.89 -66.5 0 1 41.31 129.85   C 28.85 132.02 17.80 129.74 10.22 118.66   C 4.67 110.54 3.47 99.03 4.80 89.41   C 5.41 85.01 5.84 78.80 4.65 74.55   Q 1.33 62.81 0.64 53.86   Q -0.62 37.73 12.92 29.42   Q 14.99 28.14 19.51 26.95   Q 22.90 26.05 26.42 25.82   C 35.18 25.26 44.34 24.62 52.98 22.80   Q 58.15 21.72 62.85 19.44   Q 71.15 15.43 78.73 11.29   Q 86.08 7.27 93.26 4.52   Q 108.43 -1.29 122.64 5.05   Q 129.80 8.24 136.50 10.58   C 140.84 12.10 145.94 12.07 150.53 11.18   Q 159.16 9.51 168.92 10.07   Q 175.49 10.44 181.04 12.40   Q 188.43 15.02 192.82 19.46   Q 202.99 29.77 203.09 43.72   Q 203.25 64.54 189.11 80.05   Q 183.88 85.78 174.25 91.93   Q 173.72 92.28 173.93 92.87   Q 175.47 97.26 174.50 101.18   C 173.02 107.18 168.42 115.60 162.14 117.31   Q 161.45 117.50 160.78 117.22   Q 159.70 116.78 158.60 117.43   Q 157.66 118.00 158.21 117.05   Q 158.24 117.00 158.29 117.01   Q 158.75 117.07 159.13 116.84   Q 159.95 116.34 159.85 115.39   Q 159.81 115.00 159.43 114.90   Q 159.28 114.86 159.31 114.64   Q 159.33 114.44 159.53 114.41   L 160.61 114.26   Q 161.24 114.18 161.59 113.65   Q 162.07 112.93 162.94 112.76   Q 163.45 112.66 163.55 112.15   Q 163.72 111.26 164.53 110.82   Q 164.99 110.58 165.27 110.13   Q 166.45 108.23 167.79 106.23   C 168.84 104.68 169.36 102.70 169.90 100.91   Q 170.19 99.95 169.49 99.19   A 0.82 0.81 41.9 0 1 169.43 98.17   Q 169.51 98.07 169.60 97.99   Q 170.04 97.64 169.77 97.16   Q 169.20 96.15 169.17 94.82   Q 169.13 92.37 166.94 92.38   Q 166.37 92.38 166.70 91.92   Q 166.79 91.79 166.77 91.64   Q 166.74 91.33 166.48 91.16   Q 165.82 90.71 165.05 90.86   Q 164.69 90.93 164.48 90.64   Q 163.65 89.52 162.19 90.12   Q 160.99 90.61 159.71 90.72   A 0.94 0.93 -74.9 0 0 159.03 91.12   Q 158.18 92.40 156.86 93.17   Q 156.33 93.48 156.75 93.93   Q 156.93 94.14 156.92 94.42   Q 156.91 95.17 156.22 94.86   L 155.94 94.73   Q 155.40 94.49 155.28 95.07   L 155.06 96.15   Q 154.91 96.91 154.39 96.33   Q 154.26 96.18 154.21 95.97   A 0.13 0.13 0.0 0 0 154.06 95.87   Z   M 90.81 67.13   Q 91.14 66.87 91.23 66.48   Q 91.34 65.99 90.94 65.68   Q 89.35 64.46 88.00 62.61   Q 87.42 61.81 86.92 62.64   Q 86.78 62.88 86.57 62.70   Q 86.14 62.33 86.18 61.77   Q 86.31 59.67 84.15 58.06   Q 83.78 57.78 83.71 58.24   L 82.66 65.34   Q 82.58 65.89 83.07 66.15   Q 83.24 66.24 83.38 66.37   Q 83.97 66.91 83.17 66.91   Q 82.39 66.91 81.99 67.65   Q 81.74 68.12 82.10 68.52   Q 82.57 69.03 82.08 69.53   Q 81.17 70.46 81.52 71.64   Q 81.59 71.88 81.39 72.04   Q 80.90 72.44 80.81 73.09   Q 80.53 75.06 79.89 76.84   Q 79.72 77.33 79.92 77.81   Q 80.32 78.79 79.30 79.27   Q 78.96 79.43 78.82 79.78   Q 78.75 79.96 78.78 80.16   Q 78.86 80.75 79.45 80.63   Q 79.84 80.55 80.23 80.62   Q 80.63 80.69 80.32 80.96   Q 80.02 81.23 79.61 81.11   Q 78.43 80.76 78.25 81.98   L 77.80 84.96   Q 77.74 85.41 78.19 85.39   Q 79.87 85.35 81.18 84.50   Q 81.48 84.30 81.82 84.43   Q 83.45 85.06 85.27 84.91   C 87.12 84.75 89.01 85.95 90.20 87.32   Q 90.50 87.68 90.98 87.69   L 91.43 87.70   Q 92.33 87.72 91.87 88.49   Q 91.64 88.88 91.16 88.99   Q 90.53 89.14 90.24 89.72   Q 89.64 90.96 89.69 92.27   Q 89.71 92.87 89.24 92.50   Q 88.94 92.26 88.90 91.89   Q 88.87 91.56 88.57 91.69   Q 88.50 91.72 88.43 91.70   Q 87.95 91.54 87.67 91.98   Q 87.24 92.69 86.56 93.12   Q 85.90 93.53 85.99 92.76   Q 86.05 92.19 86.45 91.90   Q 87.12 91.41 86.30 91.34   Q 84.54 91.20 82.73 90.73   Q 81.75 90.48 80.90 91.06   Q 80.63 91.24 80.34 91.11   Q 78.97 90.46 77.54 91.14   Q 77.19 91.31 77.19 91.70   Q 77.19 91.89 77.05 92.05   Q 76.57 92.62 76.36 91.90   Q 76.19 91.30 75.62 91.28   Q 75.28 91.26 75.04 91.53   Q 74.16 92.48 74.98 93.43   A 0.33 0.32 59.6 0 1 74.85 93.94   Q 73.33 94.53 72.76 96.33   Q 72.59 96.86 73.05 97.18   L 73.38 97.42   Q 74.46 98.17 73.16 97.95   Q 72.74 97.88 72.34 97.74   A 0.65 0.64 -7.0 0 0 71.59 98.70   L 71.94 99.24   Q 72.35 99.87 71.61 99.98   Q 69.65 100.26 69.93 102.41   Q 70.01 103.04 69.37 103.00   Q 68.28 102.93 68.19 104.02   Q 68.13 104.87 67.34 105.21   Q 66.55 105.56 66.87 106.33   Q 67.07 106.83 66.54 106.88   Q 66.40 106.90 66.28 106.82   A 1.01 0.96 -60.3 0 0 64.87 107.25   Q 63.76 109.43 62.10 109.95   Q 61.51 110.14 61.99 110.55   Q 63.06 111.44 64.25 110.90   Q 64.93 110.59 65.05 111.34   Q 65.12 111.77 65.77 111.86   A 0.68 0.68 0.0 0 0 66.39 111.61   Q 66.73 111.21 67.24 111.36   Q 67.47 111.43 67.36 111.63   Q 67.29 111.76 67.16 111.81   A 0.30 0.29 50.5 0 0 67.11 112.34   Q 67.76 112.72 68.49 112.25   A 0.92 0.92 0.0 0 0 68.75 110.97   Q 68.24 110.22 69.10 109.87   A 1.77 1.74 -89.8 0 0 70.10 108.86   Q 71.45 105.30 74.39 102.76   Q 74.95 102.28 75.49 101.70   Q 76.20 100.94 77.45 101.19   Q 77.67 101.23 77.85 101.10   Q 77.97 101.02 78.08 100.94   Q 78.85 100.37 77.89 100.29   Q 77.41 100.25 77.15 99.82   Q 76.90 99.40 77.38 99.38   Q 77.93 99.36 78.17 99.77   Q 78.58 100.44 79.21 99.97   Q 79.96 99.41 80.93 99.48   Q 81.49 99.52 81.55 98.96   Q 81.60 98.44 81.88 98.03   Q 82.32 97.37 82.22 98.16   Q 82.10 99.06 82.60 99.62   A 0.61 0.60 -47.0 0 0 83.53 99.58   Q 83.78 99.25 84.14 99.05   Q 84.63 98.78 84.50 99.32   Q 84.34 99.94 83.79 100.08   A 0.38 0.37 67.1 0 0 83.56 100.65   Q 84.76 102.48 82.64 103.13   Q 72.10 106.41 72.15 117.73   C 72.17 122.53 75.14 126.48 78.99 128.79   Q 81.95 130.57 87.09 130.21   Q 87.72 130.16 87.62 129.54   C 87.35 127.72 87.48 126.28 88.34 124.54   C 89.21 122.78 91.44 122.76 92.82 123.85   Q 93.28 124.21 93.41 124.78   L 93.75 126.23   Q 94.02 127.41 94.84 126.53   Q 100.84 120.09 98.54 112.01   Q 97.31 107.70 92.79 104.86   C 91.36 103.97 89.34 103.74 87.76 103.05   A 1.65 1.65 0.0 0 1 87.60 100.11   L 90.76 98.31   Q 91.40 97.95 91.38 98.67   Q 91.38 98.88 91.40 99.06   Q 91.51 99.87 92.30 99.62   Q 92.65 99.51 93.04 99.40   Q 93.84 99.17 93.41 99.89   Q 93.32 100.04 93.21 100.18   Q 92.60 100.93 93.57 100.89   Q 93.97 100.87 94.36 100.74   Q 94.85 100.58 95.19 100.96   L 97.08 103.04   A 0.70 0.69 54.7 0 0 97.93 103.19   Q 98.16 103.06 98.38 102.92   Q 99.20 102.38 98.88 103.31   Q 98.49 104.46 99.55 104.90   Q 99.99 105.08 100.23 105.49   L 103.04 110.30   Q 103.21 110.60 103.11 110.93   L 103.00 111.25   Q 102.76 112.00 103.53 112.22   Q 104.00 112.35 103.94 112.85   A 0.58 0.58 0.0 0 0 104.77 113.43   L 107.10 112.24   Q 107.44 112.07 107.50 111.69   C 108.19 106.72 111.25 100.67 116.08 98.58   Q 116.22 98.52 116.25 98.37   Q 116.30 98.16 116.08 98.13   A 0.36 0.36 0.0 0 1 115.82 97.61   Q 115.92 97.41 116.10 97.27   Q 116.51 96.95 116.86 97.35   Q 117.39 97.97 118.13 97.54   Q 118.86 97.11 119.12 97.92   Q 119.28 98.41 119.64 98.75   Q 121.07 100.13 119.35 101.12   Q 110.14 106.46 111.67 116.06   Q 112.11 118.82 113.76 121.19   Q 115.61 123.86 117.69 125.08   Q 118.89 125.80 122.90 126.98   Q 123.51 127.16 123.53 126.53   C 123.57 124.76 124.60 120.61 126.95 120.32   C 129.89 119.96 130.53 123.00 130.24 125.25   Q 130.16 125.91 130.74 125.60   C 140.14 120.56 141.04 108.08 131.78 102.39   C 129.85 101.20 127.85 101.11 125.82 100.25   Q 124.49 99.68 124.22 98.05   Q 124.19 97.88 124.35 97.95   Q 124.49 98.01 124.63 98.01   Q 125.23 98.01 125.46 97.45   Q 126.38 95.27 129.07 95.53   A 0.63 0.63 0.0 0 1 129.57 95.89   Q 129.91 96.61 130.75 96.62   Q 131.21 96.63 131.62 96.85   C 134.36 98.29 137.04 99.56 138.97 102.15   Q 139.26 102.55 139.66 102.25   C 140.93 101.29 143.26 99.62 143.88 98.25   Q 144.19 97.54 145.01 97.38   A 0.70 0.69 16.8 0 0 145.37 97.19   L 148.04 94.74   Q 148.46 94.36 147.90 94.27   Q 147.34 94.17 147.09 93.70   Q 146.81 93.15 147.42 93.04   Q 148.25 92.90 148.48 93.76   Q 148.67 94.48 149.13 93.89   L 149.94 92.85   Q 150.37 92.31 149.69 92.22   L 146.92 91.83   Q 146.30 91.74 146.07 92.33   L 145.98 92.58   Q 145.79 93.09 145.36 92.75   Q 145.04 92.51 145.15 92.33   Q 145.50 91.80 144.90 91.61   Q 138.81 89.69 134.66 86.87   Q 133.47 86.05 131.99 86.27   Q 131.40 86.36 131.38 85.76   Q 131.35 84.96 130.69 84.59   Q 129.64 84.01 128.69 83.20   Q 128.47 83.02 128.19 83.11   Q 127.98 83.18 128.04 83.43   A 0.44 0.43 -13.2 0 1 127.71 83.95   Q 127.08 84.09 126.85 83.59   Q 126.79 83.46 126.90 83.35   L 127.11 83.13   Q 127.47 82.78 127.13 82.40   Q 126.10 81.25 124.89 80.88   Q 124.44 80.75 124.29 80.31   Q 123.50 78.07 121.55 76.67   Q 121.24 76.45 121.10 76.09   Q 120.35 74.23 118.78 72.94   Q 118.37 72.60 118.29 72.07   Q 118.13 70.96 116.96 71.29   A 0.35 0.34 -22.3 0 1 116.56 71.13   Q 116.42 70.87 116.51 70.71   Q 116.89 70.07 116.19 69.80   Q 112.95 68.56 110.00 69.84   Q 109.62 70.00 109.68 70.41   Q 109.70 70.55 109.69 70.69   Q 109.67 71.65 108.98 70.99   Q 108.08 70.14 107.03 70.69   A 0.34 0.34 0.0 0 0 106.87 71.12   Q 106.99 71.41 106.74 71.56   Q 106.33 71.80 106.09 71.38   Q 105.71 70.72 105.15 71.22   Q 104.74 71.58 104.18 71.58   L 99.16 71.55   A 1.10 1.07 70.8 0 1 98.30 71.12   Q 97.89 70.57 97.23 70.60   A 0.23 0.23 0.0 0 0 97.03 70.80   Q 97.02 70.96 96.95 71.10   Q 96.59 71.92 96.34 71.06   Q 95.75 69.08 93.47 68.63   Q 92.98 68.54 92.70 68.13   Q 92.11 67.28 90.93 67.42   Q 90.36 67.49 90.81 67.13   Z"/>
    <path fill="#000000" d="   M 86.13 67.22   L 86.11 66.72   Q 86.09 65.96 86.78 66.29   L 87.04 66.42   Q 87.58 66.69 87.18 67.15   Q 86.89 67.48 86.43 67.50   A 0.29 0.29 0.0 0 1 86.13 67.22   Z"/>
    <path fill="#000000" d="   M 118.44 75.20   Q 118.13 75.21 118.19 74.90   Q 118.33 74.27 119.00 74.11   Q 119.57 73.98 119.39 74.53   Q 119.17 75.20 118.44 75.20   Z"/>
    <path fill="#000000" d="   M 98.98 75.99   C 98.70 76.02 98.52 76.06 98.26 76.15   Q 97.96 76.24 98.08 75.95   Q 98.40 75.21 99.10 75.09   A 0.39 0.38 13.4 0 1 99.48 75.70   Q 99.30 75.95 98.98 75.99   Z"/>
    <path fill="#000000" d="   M 91.96 80.25   Q 92.19 80.93 91.93 81.61   A 0.31 0.31 0.0 0 1 91.38 81.66   Q 90.81 80.68 91.73 80.16   A 0.16 0.16 0.0 0 1 91.96 80.25   Z"/>
    <path fill="#000000" d="   M 99.75 80.14   Q 100.17 80.23 100.44 80.47   Q 100.90 80.87 100.30 80.98   L 99.91 81.06   Q 99.36 81.16 99.28 80.61   Q 99.19 80.01 99.75 80.14   Z"/>
    <path fill="#000000" d="   M 123.01 81.31   Q 123.11 81.90 122.56 81.64   Q 121.89 81.32 122.13 80.66   Q 122.31 80.19 122.65 80.56   Q 122.94 80.88 123.01 81.31   Z"/>
    <path fill="#000000" d="   M 84.85 82.59   Q 84.95 83.04 84.77 83.48   Q 84.50 84.15 84.13 83.52   Q 83.80 82.95 84.26 82.43   A 0.34 0.34 0.0 0 1 84.85 82.59   Z"/>
    <path fill="#000000" d="   M 89.19 84.05   Q 89.49 84.20 89.27 84.46   L 89.00 84.80   A 0.41 0.41 0.0 0 1 88.33 84.75   Q 88.17 84.48 88.18 84.16   A 0.40 0.40 0.0 0 1 88.76 83.82   L 89.19 84.05   Z"/>
    <path fill="#000000" d="   M 125.17 84.84   Q 125.21 84.69 125.40 84.67   Q 125.61 84.65 125.64 84.86   Q 125.66 85.03 125.75 85.17   Q 125.91 85.41 126.18 85.51   L 129.85 86.86   A 1.27 1.24 89.8 0 1 130.59 87.61   Q 130.93 88.59 132.01 88.77   Q 132.79 88.90 132.10 89.29   Q 130.17 90.37 129.78 92.62   Q 129.71 93.04 129.35 92.79   Q 128.09 91.90 126.39 91.65   Q 126.11 91.61 125.85 91.71   Q 125.71 91.76 125.64 91.89   Q 125.39 92.33 125.23 91.86   Q 124.91 90.96 123.93 90.77   Q 121.18 90.24 119.30 91.10   A 0.93 0.91 -47.7 0 1 118.61 91.14   Q 116.77 90.51 115.38 88.49   Q 114.88 87.76 115.58 87.24   Q 119.63 84.23 124.47 85.27   Q 125.02 85.38 125.17 84.84   Z"/>
    <path fill="#000000" d="   M 108.56 84.86   A 0.29 0.28 9.9 0 1 108.80 85.19   Q 108.75 85.49 108.48 85.63   Q 107.97 85.89 107.53 85.49   A 0.29 0.28 -39.4 0 1 107.58 85.04   Q 108.01 84.77 108.56 84.86   Z"/>
    <ellipse fill="#000000" cx="0.00" cy="0.00" transform="translate(100.73,85.80) rotate(20.0)" rx="0.64" ry="0.50"/>
    <path fill="#000000" d="   M 110.28 85.97   A 0.39 0.38 -53.2 0 1 110.72 85.90   Q 111.57 86.31 110.80 86.99   A 0.41 0.40 -41.6 0 1 110.22 86.96   Q 109.78 86.47 110.28 85.97   Z"/>
    <path fill="#000000" d="   M 133.84 88.23   A 0.62 0.61 39.3 0 1 133.74 87.28   Q 134.09 86.93 134.59 87.38   A 0.49 0.49 0.0 0 1 134.67 88.01   Q 134.32 88.56 133.84 88.23   Z"/>
    <path fill="#000000" d="   M 111.21 91.30   L 110.88 91.92   Q 110.41 92.79 110.11 91.85   L 110.02 91.57   Q 109.84 91.01 110.43 91.01   L 111.04 91.01   A 0.20 0.19 -75.5 0 1 111.21 91.30   Z"/>
    <path fill="#000000" d="   M 159.88 92.10   Q 160.28 92.11 160.61 92.35   A 0.38 0.38 0.0 0 1 160.45 93.04   Q 159.88 93.13 159.58 92.58   Q 159.32 92.09 159.88 92.10   Z"/>
    <path fill="#000000" d="   M 78.61 92.27   Q 79.05 92.19 79.48 92.34   A 0.36 0.36 0.0 0 1 79.45 93.04   Q 79.21 93.10 78.95 93.14   Q 78.66 93.18 78.45 92.98   Q 78.32 92.87 78.30 92.69   Q 78.26 92.33 78.61 92.27   Z"/>
    <path fill="#000000" d="   M 101.69 93.91   Q 101.18 93.87 101.06 93.37   Q 100.88 92.62 101.53 93.03   L 104.13 94.63   Q 104.17 94.66 104.14 94.69   L 103.95 94.89   A 0.26 0.26 0.0 0 1 103.55 94.87   Q 102.85 93.99 101.69 93.91   Z"/>
    <path fill="#000000" d="   M 90.68 93.74   A 0.33 0.33 0.0 0 1 90.75 93.15   Q 91.24 92.98 91.77 93.15   A 0.39 0.39 0.0 0 1 91.78 93.89   Q 91.22 94.09 90.68 93.74   Z"/>
    <path fill="#000000" d="   M 106.53 93.33   Q 106.82 93.42 106.70 93.70   L 106.57 93.98   A 0.44 0.44 0.0 0 1 105.88 94.14   L 105.62 93.92   Q 104.93 93.35 105.82 93.26   Q 106.19 93.22 106.53 93.33   Z"/>
    <path fill="#000000" d="   M 110.26 93.48   Q 110.57 93.22 110.71 93.60   Q 110.86 94.03 110.70 94.51   A 0.43 0.43 0.0 0 1 109.86 94.44   Q 109.77 93.89 110.26 93.48   Z"/>
    <path fill="#000000" d="   M 100.66 95.09   A 0.56 0.56 0.0 0 1 101.14 95.28   Q 101.50 95.69 101.06 96.03   A 0.40 0.37 -48.9 0 1 100.65 96.07   Q 99.10 95.25 100.66 95.09   Z"/>
    <path fill="#000000" d="   M 108.92 95.28   Q 108.83 95.75 108.50 96.04   Q 108.34 96.17 108.14 96.12   Q 107.94 96.06 107.79 95.92   A 0.30 0.29 -47.3 0 1 107.78 95.52   Q 108.17 95.10 108.74 95.07   A 0.18 0.18 0.0 0 1 108.92 95.28   Z"/>
    <path fill="#000000" d="   M 160.26 100.32   A 0.33 0.32 -37.2 0 1 160.82 100.39   Q 161.06 100.96 160.96 101.54   Q 160.86 102.17 160.40 101.73   Q 159.69 101.05 160.26 100.32   Z"/>
    <path fill="#000000" d="   M 157.73 101.66   Q 158.05 101.24 158.59 101.31   Q 159.09 101.37 158.81 101.79   Q 158.45 102.35 157.88 102.14   Q 157.48 101.99 157.73 101.66   Z"/>
    <path fill="#000000" d="   M 159.58 103.56   L 160.12 103.13   Q 160.70 102.66 160.77 103.40   Q 160.81 103.78 160.49 103.91   Q 160.12 104.06 159.72 104.01   Q 159.10 103.95 159.58 103.56   Z"/>
    <path fill="#000000" d="   M 120.57 162.27   Q 122.48 160.94 124.47 159.85   Q 125.05 159.53 124.99 158.88   Q 124.98 158.73 125.08 158.61   Q 125.32 158.35 125.66 158.30   Q 126.70 158.14 127.76 157.34   Q 131.51 154.49 134.07 151.64   Q 134.48 151.19 134.13 150.68   Q 134.05 150.56 134.11 150.43   Q 134.26 150.02 134.62 150.27   Q 135.01 150.53 135.46 150.45   Q 136.05 150.34 136.34 149.83   Q 137.92 147.09 140.07 144.71   Q 140.23 144.53 140.26 144.29   Q 140.31 143.93 140.14 143.93   Q 139.65 143.91 140.04 143.60   Q 140.37 143.34 140.78 143.29   Q 141.24 143.23 141.56 142.91   Q 143.22 141.22 142.96 139.62   Q 142.90 139.25 143.25 139.13   Q 144.80 138.62 144.74 137.01   A 1.36 1.33 -26.9 0 1 145.05 136.10   Q 145.21 135.91 145.46 135.83   Q 145.89 135.69 146.00 135.26   Q 146.44 133.49 147.63 132.09   A 1.24 1.23 -37.9 0 0 147.80 130.74   Q 147.47 130.08 148.12 129.99   Q 148.64 129.92 148.86 129.44   Q 149.63 127.77 149.37 126.16   Q 149.27 125.54 149.90 125.56   Q 150.06 125.57 150.18 125.46   Q 150.58 125.08 150.52 124.53   Q 150.46 124.01 150.86 123.56   Q 151.48 122.85 150.92 122.21   Q 150.63 121.88 150.90 121.54   Q 152.76 119.22 152.64 115.95   Q 152.62 115.41 152.94 114.97   Q 153.79 113.82 153.00 112.71   Q 152.73 112.34 153.13 112.11   Q 153.60 111.83 153.85 111.35   A 0.68 0.68 0.0 0 0 153.58 110.45   Q 153.39 110.34 153.26 110.16   Q 153.01 109.81 153.37 109.57   Q 155.19 108.41 154.93 105.75   A 0.67 0.67 0.0 0 1 155.61 105.02   Q 156.98 105.04 158.28 104.38   Q 159.13 103.95 158.50 104.67   Q 158.24 104.96 157.93 105.23   Q 157.48 105.61 157.71 106.16   Q 158.54 108.09 158.35 109.54   Q 158.10 111.53 157.95 113.55   Q 157.87 114.69 157.25 116.88   Q 156.86 118.23 156.60 119.52   Q 155.74 123.81 152.01 133.28   Q 151.62 134.28 150.96 135.00   C 150.30 135.71 150.42 136.58 149.95 137.43   Q 144.31 147.48 137.24 154.49   Q 132.86 158.82 126.56 162.91   Q 118.61 168.07 111.25 169.99   Q 108.95 170.60 106.42 170.32   Q 105.34 170.20 105.25 169.12   Q 105.23 168.91 105.28 168.70   Q 105.61 167.20 107.13 166.98   Q 111.35 166.38 115.85 164.57   Q 116.99 164.11 117.06 162.88   Q 117.10 162.23 117.50 162.75   Q 118.14 163.59 119.06 163.11   Q 119.50 162.88 119.38 162.40   L 119.27 161.99   Q 119.12 161.42 119.67 161.63   Q 119.94 161.74 119.94 161.93   Q 119.92 162.71 120.57 162.27   Z"/>
    <path fill="#000000" d="   M 153.35 106.50   Q 153.90 106.69 153.94 107.25   Q 153.99 108.00 153.31 107.69   Q 152.67 107.40 152.91 106.71   A 0.35 0.34 -69.7 0 1 153.35 106.50   Z"/>
    <path fill="#000000" d="   M 365.17 204.53   C 366.44 208.40 368.16 215.27 365.91 218.69   A 1.06 1.05 -49.7 0 1 364.26 218.83   C 363.35 217.83 362.83 216.68 362.68 215.25   Q 362.34 211.92 361.45 208.69   Q 361.34 208.29 361.43 207.89   Q 361.46 207.76 361.45 207.63   Q 361.45 207.49 361.39 207.36   Q 360.44 205.44 360.02 203.49   A 1.35 1.34 0.7 0 0 359.03 202.48   L 336.20 196.73   A 1.44 1.41 28.1 0 0 334.80 197.14   Q 332.02 200.15 328.18 202.23   Q 324.05 204.46 318.96 206.38   Q 313.69 208.36 309.56 208.30   Q 309.05 208.30 308.98 208.80   Q 307.95 216.06 305.71 223.18   C 301.66 236.09 293.01 249.27 280.65 255.34   Q 274.96 258.13 267.84 258.67   C 250.12 260.03 234.54 249.35 224.18 235.29   Q 223.49 234.36 222.66 235.15   Q 222.23 235.56 221.64 235.63   Q 216.66 236.21 212.24 240.21   Q 210.87 241.45 209.25 240.63   A 1.42 1.42 0.0 0 1 208.67 238.65   Q 212.49 232.18 220.38 230.78   Q 220.98 230.68 220.66 230.16   Q 212.88 217.75 210.21 202.80   Q 207.31 186.55 208.61 169.48   Q 209.65 155.79 215.10 142.89   Q 223.66 122.68 242.78 113.00   Q 255.91 106.35 270.86 107.69   Q 284.25 108.90 293.96 114.58   Q 303.11 119.95 312.93 125.55   Q 321.00 130.15 326.26 131.33   C 335.13 133.31 345.29 132.25 354.50 133.77   Q 361.41 134.90 368.72 138.78   Q 375.06 142.15 378.86 147.29   Q 380.35 149.31 381.75 151.42   Q 383.16 153.56 384.21 155.92   Q 386.24 160.46 386.97 165.42   Q 387.14 166.57 387.41 167.66   Q 387.64 168.58 387.75 169.52   Q 389.66 186.41 379.19 200.89   A 0.59 0.59 0.0 0 0 379.51 201.80   C 396.69 206.60 413.28 216.25 424.15 230.34   Q 425.28 231.81 426.29 233.54   Q 426.95 234.67 427.73 235.56   Q 428.43 236.34 429.12 237.52   Q 438.69 253.82 438.41 273.12   A 0.89 0.89 0.0 0 1 437.52 274.00   L 432.48 274.00   Q 431.52 274.00 431.58 273.04   Q 432.15 263.07 428.86 253.05   Q 428.39 251.62 427.76 250.26   Q 427.07 248.75 426.48 247.15   Q 425.65 244.92 424.47 243.00   Q 423.69 241.72 423.04 240.31   Q 422.45 239.04 421.58 237.98   Q 419.65 235.62 417.94 233.16   Q 415.50 229.66 411.90 226.88   A 0.39 0.39 0.0 0 0 411.29 227.07   C 410.37 229.87 407.33 236.13 403.82 236.27   Q 402.29 236.34 402.49 234.82   Q 402.87 231.85 404.88 229.66   C 406.13 228.29 406.71 226.04 407.58 224.32   A 1.31 1.30 -58.1 0 0 407.21 222.71   Q 394.46 212.81 378.73 207.91   Q 378.56 207.86 378.42 207.74   Q 378.30 207.64 378.17 207.54   Q 378.04 207.43 377.88 207.39   Q 371.84 205.64 365.68 203.99   Q 364.92 203.78 365.17 204.53   Z   M 245.43 195.88   Q 243.09 195.38 241.39 193.73   C 236.13 188.65 230.74 186.03 223.70 189.55   C 222.57 190.11 222.18 190.96 221.00 191.43   Q 220.50 191.63 220.16 192.05   C 218.33 194.33 214.98 199.27 215.55 202.20   Q 217.13 210.30 219.72 216.80   Q 221.38 220.95 225.91 228.56   C 227.12 230.59 228.58 232.10 229.90 234.01   C 232.26 237.40 235.83 240.80 238.85 243.29   Q 246.28 249.41 253.92 251.89   Q 263.66 255.04 273.77 252.53   Q 278.14 251.44 281.67 249.11   Q 285.99 246.26 288.98 243.04   Q 293.41 238.30 296.37 233.22   Q 301.61 224.26 304.06 214.07   Q 307.05 201.66 304.84 189.27   Q 304.60 187.94 305.89 187.56   L 306.20 187.46   A 1.15 1.15 0.0 0 1 307.61 188.17   Q 309.38 193.07 309.22 197.98   A 0.88 0.88 0.0 0 0 310.16 198.88   Q 310.57 198.85 311.15 198.39   Q 315.39 195.09 317.39 190.01   Q 319.98 183.49 318.58 175.24   Q 318.47 174.63 317.86 174.70   Q 309.29 175.67 301.83 174.48   Q 286.47 172.01 272.77 163.51   Q 259.88 155.51 252.05 143.78   Q 251.72 143.28 251.47 143.82   Q 241.74 164.62 228.01 182.33   A 0.35 0.35 0.0 0 0 228.29 182.89   Q 239.84 182.57 245.42 191.64   Q 246.46 193.32 246.29 195.24   Q 246.22 196.05 245.43 195.88   Z"/>
    <path fill="#000000" d="   M 58.15 123.04   Q 58.00 122.73 58.06 122.37   A 0.42 0.42 0.0 0 1 58.88 122.34   Q 58.97 122.71 58.82 123.04   A 0.37 0.37 0.0 0 1 58.15 123.04   Z"/>
    <path fill="#000000" d="   M 109.82 137.43   Q 110.09 137.04 110.56 136.90   Q 111.05 136.75 110.93 137.24   L 110.83 137.61   Q 110.63 138.40 109.93 137.96   L 109.70 137.82   A 0.30 0.30 0.0 0 0 109.26 138.18   Q 109.52 138.87 109.28 139.50   A 0.63 0.62 -64.9 0 1 108.39 139.83   Q 107.45 139.29 106.62 140.07   Q 106.30 140.37 105.90 140.19   Q 105.76 140.12 105.68 139.99   Q 105.59 139.85 105.70 139.73   Q 106.49 138.85 105.57 138.03   A 2.07 2.05 -78.5 0 1 105.02 137.19   Q 104.34 135.26 104.17 133.29   C 104.12 132.69 103.93 132.38 103.56 131.92   A 0.72 0.72 0.0 0 1 103.50 131.12   Q 104.31 129.62 105.72 129.60   A 1.43 1.43 0.0 0 1 107.13 130.72   Q 107.35 131.72 108.31 131.73   Q 108.91 131.74 108.76 132.31   Q 108.63 132.84 108.26 133.26   A 0.83 0.83 0.0 0 0 109.09 134.62   Q 109.57 134.50 109.80 134.90   Q 110.17 135.56 109.57 136.02   Q 108.89 136.56 109.13 137.33   A 0.39 0.39 0.0 0 0 109.82 137.43   Z"/>
    <path fill="#000000" d="   M 67.48 135.59   Q 66.35 133.74 64.80 132.68   Q 64.07 132.17 64.75 131.60   Q 65.39 131.05 66.25 130.79   Q 66.89 130.59 67.47 130.91   L 69.25 131.89   Q 69.66 132.11 69.89 132.52   L 72.30 136.78   Q 72.53 137.18 72.98 137.11   L 73.67 137.01   Q 74.23 136.92 74.02 137.44   Q 73.87 137.82 73.48 137.90   A 0.50 0.50 0.0 0 0 73.10 138.53   Q 73.31 139.25 74.06 139.31   Q 74.55 139.35 74.61 139.83   Q 74.94 142.43 76.76 144.94   A 0.86 0.86 0.0 0 0 77.69 145.27   L 78.20 145.12   Q 78.98 144.91 78.60 145.62   Q 78.36 146.06 77.92 146.01   Q 77.43 145.95 77.66 146.38   Q 78.56 148.12 79.92 148.98   Q 80.38 149.26 80.38 149.79   Q 80.38 150.01 80.46 150.21   Q 80.65 150.70 81.17 150.59   Q 81.58 150.50 82.04 150.47   Q 83.18 150.41 82.18 150.96   L 81.86 151.13   Q 81.47 151.34 81.76 151.69   L 83.97 154.27   Q 84.46 154.84 84.64 154.11   Q 84.73 153.79 85.00 153.62   A 0.45 0.45 0.0 0 1 85.53 154.34   Q 84.83 154.98 85.26 155.70   A 0.64 0.63 -33.8 0 0 86.19 155.88   Q 86.44 155.70 86.75 155.69   Q 87.55 155.68 86.98 156.25   Q 86.86 156.36 86.80 156.52   Q 86.57 157.16 87.21 157.40   Q 87.70 157.58 88.22 157.29   Q 89.02 156.82 88.92 157.74   Q 88.86 158.29 89.22 158.73   Q 89.98 159.70 90.98 159.02   Q 91.24 158.85 91.49 159.04   Q 91.67 159.18 91.57 159.34   A 1.23 1.23 0.0 0 0 91.95 161.00   Q 97.31 164.49 101.44 168.81   Q 101.82 169.20 102.33 169.42   C 103.46 169.91 103.74 171.04 104.54 171.93   Q 112.27 180.55 113.58 190.87   Q 114.01 194.21 112.90 197.78   Q 111.95 200.84 109.82 203.31   Q 104.57 209.37 96.87 214.11   Q 87.40 219.95 76.46 219.88   Q 72.95 219.85 70.53 218.04   Q 69.99 217.64 69.89 218.30   Q 69.05 223.94 67.50 229.99   Q 63.61 245.15 59.06 260.17   C 58.22 262.93 57.04 265.20 54.92 267.10   A 0.40 0.40 0.0 0 1 54.25 266.83   Q 53.70 260.00 56.24 253.28   Q 56.88 251.59 57.21 249.66   Q 57.51 247.94 57.96 246.36   Q 61.86 232.86 65.40 218.69   Q 65.82 217.02 66.44 215.26   Q 66.81 214.22 67.15 213.12   Q 67.51 211.97 68.26 211.18   Q 73.14 206.08 79.51 204.57   Q 82.84 203.78 83.61 206.80   Q 83.73 207.25 84.19 207.15   Q 90.38 205.83 96.13 208.64   Q 96.57 208.86 96.98 208.58   Q 99.57 206.84 101.96 204.82   Q 102.58 204.30 101.80 204.09   Q 101.63 204.05 101.58 203.82   Q 101.53 203.51 101.84 203.51   Q 102.24 203.50 102.41 203.82   Q 102.71 204.37 103.16 203.94   Q 103.57 203.54 103.54 202.98   Q 103.52 202.55 103.90 202.35   Q 107.46 200.53 108.67 196.45   Q 108.85 195.86 108.23 195.75   Q 108.10 195.73 107.97 195.64   Q 107.51 195.32 108.05 195.16   Q 108.45 195.04 108.75 194.77   A 0.70 0.70 0.0 0 0 108.82 193.81   L 108.16 193.01   Q 107.82 192.59 108.28 192.32   L 108.61 192.14   Q 109.12 191.84 108.94 191.28   C 108.26 189.22 108.69 187.20 107.72 185.11   Q 105.65 180.69 102.83 176.46   Q 101.96 175.16 100.64 174.63   Q 100.28 174.48 100.22 174.10   Q 100.05 172.96 98.91 172.96   Q 98.50 172.96 98.43 172.55   Q 98.11 170.66 95.95 169.84   Q 95.42 169.63 95.19 169.10   Q 94.81 168.20 93.92 168.67   Q 93.38 168.96 93.16 168.39   Q 93.07 168.15 93.17 167.91   Q 93.37 167.45 93.01 167.10   Q 92.78 166.89 92.49 166.80   Q 91.89 166.63 91.66 167.21   Q 91.59 167.38 91.42 167.38   Q 90.76 167.42 91.03 166.82   Q 91.69 165.37 90.23 164.73   A 2.04 2.01 81.3 0 1 89.48 164.17   Q 88.66 163.18 87.77 164.09   Q 87.48 164.38 87.44 163.97   Q 87.28 162.52 85.68 161.43   Q 85.18 161.09 84.88 161.62   Q 84.80 161.78 84.59 161.75   Q 84.18 161.71 84.24 161.30   C 84.37 160.56 84.18 159.91 83.54 159.49   Q 82.18 158.59 81.13 157.43   Q 80.77 157.02 80.21 156.93   Q 80.04 156.90 79.87 156.96   Q 79.23 157.21 79.36 156.53   Q 79.75 154.60 77.75 153.80   Q 77.33 153.63 77.23 153.19   Q 76.89 151.74 75.49 150.96   Q 75.05 150.72 75.08 150.22   Q 75.18 148.35 73.27 147.62   Q 72.89 147.47 73.00 147.08   Q 73.61 144.87 71.28 144.13   Q 70.91 144.01 71.01 143.63   Q 71.55 141.48 69.48 139.92   Q 69.10 139.63 69.18 139.15   Q 69.41 137.82 68.28 136.72   Q 67.86 136.31 67.36 136.63   Q 67.03 136.85 66.63 136.84   Q 66.10 136.83 66.33 136.36   Q 66.50 136.02 66.86 135.90   Q 67.02 135.85 67.17 135.93   Q 67.95 136.35 67.48 135.59   Z"/>
    <path fill="#000000" d="   M 68.31 147.82   Q 68.94 150.08 70.47 151.16   Q 70.87 151.44 70.67 151.88   Q 70.20 152.94 71.11 153.89   Q 71.46 154.24 71.93 154.11   L 72.40 153.98   Q 72.93 153.84 72.77 154.36   Q 72.63 154.82 72.21 155.03   Q 71.67 155.29 71.92 155.83   Q 72.26 156.60 73.14 156.50   A 0.11 0.11 0.0 0 1 73.26 156.64   Q 72.71 158.43 74.62 160.30   Q 74.84 160.52 74.98 160.24   Q 75.05 160.09 75.18 159.99   Q 75.43 159.82 75.64 160.04   Q 75.80 160.20 75.75 160.35   Q 75.64 160.69 75.31 160.65   Q 75.21 160.64 75.13 160.58   Q 74.49 160.14 74.74 160.87   Q 75.03 161.72 75.77 162.25   Q 76.38 162.69 76.41 163.44   Q 76.45 164.26 76.86 164.95   Q 77.30 165.72 76.42 165.80   Q 75.02 165.92 74.65 167.29   Q 74.46 167.98 74.02 167.41   Q 73.68 166.97 74.12 166.61   Q 74.75 166.07 74.17 165.48   Q 72.97 164.27 71.75 163.88   Q 71.22 163.71 71.45 163.20   Q 71.52 163.06 71.68 162.94   Q 71.86 162.81 71.74 162.63   Q 70.84 161.30 70.33 159.79   Q 69.96 158.67 68.80 158.81   Q 68.26 158.88 68.41 158.36   Q 68.46 158.17 68.61 158.02   Q 68.91 157.71 68.80 157.29   Q 68.20 155.05 66.56 154.74   Q 65.83 154.60 66.28 154.01   Q 66.43 153.80 66.74 153.84   Q 67.13 153.88 66.96 153.53   L 64.16 147.70   Q 63.97 147.29 63.96 146.84   Q 63.96 146.07 63.18 145.98   Q 62.13 145.87 62.81 145.06   Q 63.73 143.97 62.74 143.03   A 1.58 1.57 21.5 0 1 62.23 141.87   Q 62.23 139.58 60.56 138.83   Q 59.79 138.48 60.44 137.94   L 60.81 137.64   Q 61.24 137.28 60.97 136.79   Q 60.47 135.86 59.53 136.05   A 0.32 0.32 0.0 0 1 59.16 135.68   Q 59.20 135.49 59.33 135.35   Q 59.55 135.11 59.82 135.29   L 60.14 135.49   Q 60.88 135.97 60.68 135.11   L 60.44 134.02   Q 60.32 133.46 60.75 133.08   Q 61.55 132.38 61.96 131.37   Q 62.23 130.67 62.68 131.27   Q 63.01 131.70 62.61 132.08   Q 62.09 132.57 62.75 132.87   Q 63.53 133.21 63.67 134.07   A 1.28 1.28 0.0 0 0 64.26 134.96   Q 64.99 135.42 64.69 136.34   A 1.67 1.66 47.0 0 0 64.66 137.27   L 65.92 141.96   Q 66.09 142.59 66.64 142.94   Q 67.52 143.48 66.93 144.22   Q 66.80 144.39 66.87 144.58   Q 67.49 146.31 68.89 146.84   Q 69.91 147.23 68.86 147.52   Q 68.71 147.56 68.55 147.54   Q 68.22 147.50 68.31 147.82   Z"/>
    <path fill="#000000" d="   M 126.66 132.31   L 126.80 133.03   Q 126.93 133.73 126.30 133.41   Q 126.15 133.33 126.04 133.21   Q 125.74 132.90 125.95 132.54   Q 126.08 132.31 126.31 132.16   Q 126.60 131.96 126.66 132.31   Z"/>
    <ellipse fill="#000000" cx="0.00" cy="0.00" transform="translate(131.49,133.69) rotate(119.4)" rx="0.87" ry="0.43"/>
    <path fill="#000000" d="   M 134.01 134.78   L 133.91 133.47   Q 133.87 132.93 134.38 133.12   Q 134.51 133.17 134.61 133.31   Q 134.68 133.39 134.69 133.50   Q 134.76 134.21 134.01 134.78   Z"/>
    <path fill="#000000" d="   M 93.39 133.58   Q 93.53 133.21 93.87 133.40   Q 94.35 133.67 94.23 134.19   Q 94.00 135.25 93.32 134.40   Q 93.17 134.21 93.39 133.58   Z"/>
    <path fill="#000000" d="   M 119.05 134.55   A 0.47 0.47 0.0 0 1 118.34 134.00   Q 118.46 133.69 118.69 133.46   Q 119.09 133.07 119.25 133.60   Q 119.45 134.27 119.05 134.55   Z"/>
    <path fill="#000000" d="   M 134.01 134.78   Q 133.64 135.99 133.10 136.16   Q 132.19 136.46 132.65 135.64   Q 132.91 135.18 134.01 134.78   Z"/>
    <path fill="#000000" d="   M 126.20 135.72   A 0.28 0.28 0.0 0 1 125.95 136.15   Q 125.16 136.11 125.09 135.31   A 0.31 0.31 0.0 0 1 125.59 135.04   Q 125.96 135.32 126.20 135.72   Z"/>
    <path fill="#000000" d="   M 94.73 137.10   Q 95.20 137.20 95.52 137.47   Q 96.35 138.16 95.35 137.74   Q 93.91 137.12 92.45 136.31   Q 91.85 135.98 92.53 136.03   Q 93.30 136.09 93.94 136.68   Q 94.28 137.00 94.73 137.10   Z"/>
    <path fill="#000000" d="   M 136.13 136.70   L 135.54 137.04   Q 134.90 137.40 135.06 136.68   Q 135.12 136.42 135.27 136.19   Q 135.46 135.91 135.79 135.91   Q 136.10 135.91 136.27 136.21   A 0.36 0.35 -29.7 0 1 136.13 136.70   Z"/>
    <path fill="#000000" d="   M 127.75 136.57   Q 128.03 137.07 127.66 137.63   Q 127.33 138.11 127.12 137.56   Q 126.92 137.04 127.23 136.55   Q 127.50 136.14 127.75 136.57   Z"/>
    <path fill="#000000" d="   M 63.95 157.11   Q 65.30 160.34 67.23 162.61   Q 67.55 162.98 67.66 163.45   Q 68.07 165.09 69.59 165.89   A 0.93 0.93 0.0 0 1 70.08 166.76   Q 69.99 168.81 71.09 170.58   Q 71.37 171.03 70.85 171.10   Q 70.70 171.12 70.56 171.09   Q 70.41 171.05 70.35 170.91   Q 70.10 170.32 69.49 170.33   A 0.35 0.35 0.0 0 0 69.15 170.72   Q 69.22 171.43 68.50 171.76   Q 67.99 172.00 68.11 171.44   Q 68.20 171.05 68.47 170.79   Q 68.85 170.43 68.47 170.05   L 66.71 168.31   Q 66.40 168.01 66.22 167.63   Q 65.90 166.93 65.16 166.72   Q 64.56 166.55 64.90 166.02   Q 64.98 165.90 65.08 165.80   Q 65.11 165.76 65.08 165.72   L 63.75 163.55   Q 63.47 163.10 62.94 163.13   L 62.58 163.15   Q 62.20 163.17 62.33 162.82   L 62.62 161.99   Q 62.80 161.49 62.50 161.05   L 59.79 157.17   Q 59.49 156.74 59.46 156.22   L 59.43 155.75   Q 59.38 155.01 58.74 155.39   Q 58.49 155.54 58.26 155.34   Q 57.92 155.04 58.03 154.60   Q 58.14 154.20 58.46 153.93   A 0.68 0.67 79.3 0 0 58.68 153.60   Q 58.87 152.96 58.53 152.77   Q 58.24 152.60 57.96 152.78   Q 57.64 152.98 57.28 152.87   A 0.37 0.36 41.7 0 1 57.24 152.19   Q 58.40 151.66 57.67 150.65   C 56.82 149.49 56.46 147.32 56.01 145.96   Q 55.82 145.41 55.26 145.58   L 54.73 145.75   A 0.38 0.38 0.0 0 1 54.37 145.09   L 54.91 144.65   Q 55.46 144.20 54.85 143.83   Q 53.64 143.10 53.76 141.78   Q 53.80 141.30 53.32 141.27   L 53.05 141.25   Q 52.93 141.24 52.92 141.35   Q 52.48 144.97 52.79 148.70   Q 52.85 149.34 53.47 149.21   Q 53.61 149.18 53.73 149.29   Q 54.01 149.51 53.77 149.78   Q 52.50 151.17 53.65 152.84   Q 53.94 153.28 53.96 153.80   C 54.01 154.87 54.48 155.69 54.72 156.70   Q 55.04 158.03 56.19 158.30   Q 56.51 158.38 56.23 158.56   Q 55.65 158.91 55.86 159.55   A 1.02 1.00 -86.0 0 0 56.38 160.16   Q 57.01 160.47 56.92 161.18   Q 56.65 163.35 58.35 164.46   Q 58.79 164.75 58.83 165.28   L 58.89 166.12   Q 58.92 166.60 59.18 167.02   L 63.37 173.77   A 0.74 0.71 78.9 0 0 63.85 174.11   L 64.54 174.25   A 0.60 0.60 0.0 0 1 64.98 175.06   Q 64.90 175.25 64.89 175.45   Q 64.86 175.76 65.02 176.03   Q 65.58 177.00 65.77 178.24   Q 65.86 178.82 65.30 178.98   Q 64.19 179.29 64.72 180.40   Q 64.88 180.74 64.53 180.87   L 64.28 180.95   Q 64.09 181.01 64.03 180.82   Q 63.93 180.48 64.06 180.14   Q 64.23 179.68 63.84 179.37   Q 62.31 178.18 60.44 178.18   A 0.37 0.37 0.0 0 1 60.08 177.71   L 60.34 176.76   A 0.79 0.79 0.0 0 0 59.91 175.83   Q 58.32 175.11 57.73 173.71   Q 57.50 173.18 56.94 173.04   Q 56.02 172.82 56.24 171.87   Q 56.35 171.40 56.06 171.02   L 53.29 167.26   Q 53.06 166.94 52.95 166.56   Q 52.76 165.86 52.05 165.63   Q 51.38 165.41 51.72 164.80   Q 51.83 164.61 51.88 164.41   A 0.70 0.70 0.0 0 0 50.80 163.66   Q 50.57 163.81 50.30 163.75   Q 49.48 163.55 50.15 163.04   Q 50.38 162.86 50.51 162.62   Q 50.78 162.13 50.51 161.64   L 47.26 155.71   Q 46.76 154.79 46.38 155.77   Q 45.67 157.61 46.58 159.42   Q 46.67 159.60 46.61 159.79   Q 45.81 162.30 47.28 163.76   Q 47.48 163.96 47.43 164.24   Q 47.19 165.60 47.95 166.79   Q 48.98 168.45 49.01 169.78   Q 49.01 170.06 49.25 170.22   Q 49.73 170.56 50.15 170.15   Q 50.37 169.95 50.52 170.21   Q 50.61 170.35 50.74 170.39   A 0.04 0.03 55.6 0 1 50.73 170.46   Q 49.95 170.34 49.81 170.96   Q 49.75 171.23 49.87 171.48   Q 52.18 176.13 55.29 180.11   Q 55.70 180.63 56.09 180.08   Q 56.23 179.88 56.51 179.91   A 0.33 0.32 -83.0 0 1 56.79 180.28   L 56.66 181.26   Q 56.59 181.79 56.95 182.17   Q 70.56 196.58 89.78 201.07   Q 90.26 201.18 90.68 200.93   L 90.99 200.75   Q 91.53 200.43 91.93 200.91   Q 93.03 202.20 94.78 201.67   Q 95.16 201.55 95.26 201.16   L 95.38 200.67   A 0.03 0.03 0.0 0 1 95.42 200.65   Q 97.06 201.42 98.94 201.78   Q 99.65 201.92 99.32 202.56   C 98.40 204.30 95.39 204.79 93.57 204.69   Q 85.84 204.28 77.85 200.78   Q 73.66 198.96 69.75 196.78   Q 62.14 192.54 56.38 186.73   Q 55.88 186.22 55.53 186.85   C 53.98 189.67 52.11 192.27 50.59 195.17   Q 41.06 213.32 34.05 229.77   Q 25.84 249.00 18.05 272.74   Q 17.63 274.01 16.29 274.00   L 13.74 273.99   Q 12.25 273.98 12.71 272.57   Q 16.43 261.20 19.70 251.64   Q 20.11 250.45 20.75 249.38   C 21.39 248.31 21.41 247.06 21.93 245.93   Q 22.74 244.18 23.31 242.42   Q 23.90 240.58 24.59 238.86   Q 33.40 216.74 44.99 197.02   Q 47.30 193.11 49.99 189.04   C 51.10 187.35 51.55 185.71 53.29 184.46   A 0.56 0.56 0.0 0 0 53.40 183.65   C 47.72 176.70 42.97 168.05 42.13 158.81   C 41.78 155.00 42.68 146.16 48.90 150.47   Q 49.48 150.88 49.34 150.18   Q 48.49 146.01 49.05 141.80   Q 49.58 137.84 53.29 137.13   Q 53.76 137.03 54.14 137.33   Q 54.92 137.95 55.84 138.07   A 0.91 0.90 -86.1 0 1 56.63 138.98   Q 56.58 140.88 58.10 141.61   A 0.77 0.77 0.0 0 1 58.43 142.72   Q 57.76 143.79 58.96 144.06   Q 59.58 144.20 59.17 144.69   Q 58.90 145.01 58.89 145.43   Q 58.88 146.02 59.25 146.47   Q 60.18 147.65 60.43 149.06   Q 60.52 149.55 60.94 149.82   Q 61.90 150.44 61.66 151.57   Q 61.55 152.11 62.09 152.01   Q 62.34 151.96 62.53 152.14   Q 62.84 152.42 62.83 152.89   Q 62.82 153.10 62.76 153.33   Q 62.65 153.75 63.07 153.89   Q 64.40 154.36 63.36 155.48   A 0.29 0.29 0.0 0 0 63.60 155.97   L 64.87 155.85   Q 65.63 155.77 65.07 156.29   Q 64.72 156.61 64.29 156.61   Q 63.74 156.60 63.95 157.11   Z"/>
    <path fill="#000000" d="   M 113.19 137.14   L 113.49 137.28   Q 113.67 137.36 113.63 137.55   Q 113.58 137.78 113.41 137.97   Q 112.93 138.54 112.68 137.83   Q 112.64 137.70 112.62 137.55   Q 112.54 136.85 113.19 137.14   Z"/>
    <path fill="#000000" d="   M 87.36 138.07   Q 85.80 137.95 84.61 138.88   Q 84.07 139.31 84.09 138.62   Q 84.10 138.31 84.39 138.24   Q 85.82 137.93 87.13 137.36   Q 87.52 137.18 87.49 137.61   L 87.46 137.98   Q 87.45 138.07 87.36 138.07   Z"/>
    <path fill="#000000" d="   M 122.90 138.97   Q 123.06 139.30 122.75 139.10   L 121.82 138.50   Q 121.42 138.24 121.75 137.90   Q 121.87 137.78 122.06 137.78   Q 122.33 137.79 122.45 138.04   L 122.90 138.97   Z"/>
    <path fill="#000000" d="   M 117.38 138.80   C 117.79 138.89 118.01 138.97 118.46 138.99   A 0.25 0.25 0.0 0 1 118.69 139.30   Q 118.60 139.65 118.24 139.68   Q 117.44 139.74 117.10 139.17   Q 116.80 138.65 117.38 138.80   Z"/>
    <path fill="#000000" d="   M 98.38 139.62   Q 98.24 139.52 98.21 139.34   Q 98.13 138.85 98.57 139.09   L 99.36 139.54   A 0.27 0.26 34.6 0 1 99.44 139.95   Q 99.23 140.18 98.95 140.27   Q 98.74 140.33 98.57 140.18   Q 98.33 139.98 98.38 139.62   Z"/>
    <path fill="#000000" d="   M 127.15 139.12   A 0.50 0.50 0.0 0 1 127.87 139.50   Q 127.93 139.88 127.53 140.08   A 0.50 0.50 0.0 0 1 126.81 139.57   Q 126.85 139.27 127.15 139.12   Z"/>
    <path fill="#000000" d="   M 123.68 140.89   L 123.23 140.86   Q 122.61 140.82 122.78 140.23   L 122.93 139.73   A 0.25 0.24 -54.4 0 1 123.37 139.65   L 123.93 140.45   A 0.28 0.28 0.0 0 1 123.68 140.89   Z"/>
    <path fill="#000000" d="   M 86.17 140.01   Q 86.28 139.74 86.58 139.74   Q 87.18 139.75 87.30 140.28   A 0.57 0.56 7.0 0 1 86.50 140.90   Q 85.93 140.63 86.17 140.01   Z"/>
    <path fill="#000000" d="   M 104.50 140.42   Q 104.03 140.80 103.48 140.75   A 0.30 0.30 0.0 0 1 103.36 140.19   Q 103.99 139.84 104.74 139.97   Q 105.50 140.11 104.75 140.30   Q 104.61 140.33 104.50 140.42   Z"/>
    <path fill="#000000" d="   M 121.03 140.95   Q 120.30 141.04 119.85 140.49   Q 119.47 140.02 120.07 139.98   Q 120.96 139.92 121.14 140.78   A 0.14 0.13 80.2 0 1 121.03 140.95   Z"/>
    <path fill="#000000" d="   M 60.18 140.79   Q 60.70 140.14 61.15 140.68   A 0.53 0.52 35.1 0 1 61.24 141.19   Q 60.99 141.95 60.30 141.52   A 0.51 0.49 -55.0 0 1 60.18 140.79   Z"/>
    <path fill="#000000" d="   M 133.81 140.61   L 134.20 140.53   Q 134.88 140.40 134.73 141.08   Q 134.69 141.23 134.60 141.36   Q 134.48 141.52 134.28 141.54   Q 133.77 141.60 133.54 141.25   A 0.42 0.41 -22.8 0 1 133.81 140.61   Z"/>
    <path fill="#000000" d="   M 81.41 141.98   A 0.58 0.57 -57.6 0 1 82.20 141.80   Q 82.47 141.96 82.60 142.23   Q 82.88 142.80 82.25 142.78   L 81.75 142.76   Q 81.23 142.75 81.31 142.24   Q 81.33 142.10 81.41 141.98   Z"/>
    <path fill="#000000" d="   M 86.23 142.40   A 0.44 0.44 0.0 0 1 86.94 142.71   Q 86.97 143.16 86.66 143.49   Q 86.36 143.80 86.14 143.43   Q 85.75 142.79 86.23 142.40   Z"/>
    <path fill="#000000" d="   M 89.09 145.05   Q 88.45 145.02 88.12 144.44   Q 87.88 144.01 88.38 143.99   Q 88.89 143.98 89.06 144.43   Q 89.25 144.97 89.81 145.09   Q 90.41 145.21 90.95 145.63   Q 91.39 145.96 90.85 146.02   Q 90.15 146.10 89.82 145.50   Q 89.58 145.07 89.09 145.05   Z"/>
    <path fill="#000000" d="   M 81.64 145.07   Q 82.03 144.79 82.49 144.72   Q 83.06 144.63 82.95 145.19   Q 82.87 145.59 82.50 145.66   Q 82.02 145.77 81.63 145.42   A 0.22 0.22 0.0 0 1 81.64 145.07   Z"/>
    <path fill="#000000" d="   M 86.04 145.04   Q 86.56 144.90 86.94 145.31   A 0.41 0.41 0.0 0 1 86.64 146.00   Q 86.19 146.01 85.86 145.67   A 0.38 0.38 0.0 0 1 86.04 145.04   Z"/>
    <path fill="#000000" d="   M 115.88 146.85   Q 115.94 146.47 116.32 146.46   Q 116.62 146.44 116.86 146.67   Q 117.26 147.03 116.84 147.37   Q 116.59 147.57 116.30 147.64   Q 115.72 147.80 115.82 147.20   L 115.88 146.85   Z"/>
    <path fill="#000000" d="   M 126.20 146.58   Q 126.43 146.87 126.49 147.24   Q 126.62 148.01 125.87 147.81   L 125.55 147.72   Q 125.30 147.66 125.35 147.40   Q 125.46 146.84 125.86 146.54   A 0.25 0.25 0.0 0 1 126.20 146.58   Z"/>
    <path fill="#000000" d="   M 71.74 149.23   C 71.37 149.14 71.13 149.07 70.74 149.19   Q 70.22 149.35 70.24 148.80   Q 70.24 148.66 70.31 148.52   Q 70.38 148.35 70.56 148.35   Q 71.32 148.35 71.92 148.90   Q 72.49 149.41 71.74 149.23   Z"/>
    <path fill="#000000" d="   M 103.97 151.14   Q 103.97 150.94 104.16 150.82   Q 104.56 150.55 104.62 151.03   L 104.75 152.31   A 0.56 0.56 0.0 0 0 105.60 152.73   Q 106.09 152.44 106.33 151.85   A 0.26 0.26 0.0 0 1 106.76 151.76   L 106.97 151.99   Q 107.00 152.02 106.98 152.05   Q 106.78 152.47 106.48 152.76   Q 105.79 153.43 106.75 153.38   C 109.85 153.21 111.13 150.78 113.65 149.48   A 0.41 0.40 -24.8 0 0 113.84 148.98   Q 113.73 148.70 113.95 148.60   Q 114.76 148.21 114.54 149.08   Q 114.30 150.04 114.91 150.86   A 1.11 1.09 -53.8 0 1 115.06 151.89   Q 114.36 153.84 112.59 154.89   Q 112.18 155.14 112.49 155.50   Q 112.75 155.79 112.80 156.17   Q 112.94 157.13 112.23 156.46   Q 112.12 156.35 112.07 156.19   Q 111.94 155.75 111.48 155.76   Q 111.03 155.76 110.65 156.02   Q 110.17 156.35 110.55 156.79   Q 110.79 157.06 110.80 157.44   Q 110.81 157.88 110.39 157.74   Q 110.02 157.62 109.90 157.30   Q 109.70 156.76 109.13 156.78   Q 107.31 156.86 106.12 157.55   Q 105.74 157.77 105.44 157.45   Q 105.28 157.29 105.38 157.13   Q 105.69 156.67 105.15 156.54   Q 101.63 155.69 101.20 152.55   Q 101.11 151.92 101.64 151.55   Q 102.46 150.97 103.22 151.52   Q 103.94 152.04 103.97 151.14   Z"/>
    <path fill="#000000" d="   M 89.12 149.51   Q 89.38 149.66 89.33 150.00   Q 89.09 151.67 88.44 150.14   Q 88.35 149.91 88.52 149.64   Q 88.76 149.28 89.12 149.51   Z"/>
    <path fill="#000000" d="   M 110.05 159.58   A 0.47 0.46 -15.3 0 1 110.33 159.10   Q 110.46 159.04 110.59 159.04   Q 111.05 159.03 110.98 159.48   L 110.91 159.95   Q 110.82 160.52 110.37 160.16   Q 110.09 159.94 110.05 159.58   Z"/>
    <path fill="#000000" d="   M 136.33 200.46   Q 136.83 196.98 136.89 193.97   Q 137.24 177.22 136.54 161.68   Q 136.46 159.71 138.52 159.69   Q 140.46 159.67 142.24 160.57   Q 148.53 163.73 153.09 166.57   Q 167.36 175.46 180.27 186.49   Q 185.26 190.76 189.06 194.95   Q 189.85 195.82 190.81 195.14   Q 197.83 190.12 205.20 187.07   Q 207.56 186.10 207.88 188.63   Q 207.91 188.92 207.80 189.23   Q 206.80 192.03 204.93 193.09   Q 189.33 201.93 173.58 212.92   Q 172.32 213.79 173.68 214.50   C 176.37 215.90 179.02 216.79 182.12 216.15   Q 184.73 215.61 187.34 215.94   A 1.05 1.04 11.4 0 1 188.22 217.26   Q 187.67 219.24 185.76 219.91   Q 176.91 223.02 170.46 216.88   A 1.26 1.26 0.0 0 0 168.68 216.92   C 167.52 218.15 166.07 218.88 164.92 220.08   C 162.74 222.36 160.14 223.96 158.01 226.28   C 155.47 229.06 152.73 231.59 150.48 234.65   Q 148.77 236.98 147.35 239.23   Q 140.92 249.46 142.01 263.23   Q 142.45 268.84 143.72 273.52   Q 143.85 273.96 143.38 273.97   L 139.57 274.00   Q 139.10 274.00 138.98 273.54   Q 135.51 259.85 138.15 248.44   C 140.94 236.42 149.35 226.21 158.82 217.76   Q 170.50 207.35 184.23 198.83   Q 184.68 198.55 184.36 198.14   Q 182.62 195.91 180.47 194.02   Q 162.10 177.84 141.40 165.80   Q 140.42 165.23 140.48 166.37   Q 141.02 175.69 141.09 185.47   Q 141.12 188.47 141.17 191.53   Q 141.27 196.75 140.48 203.01   C 140.24 204.84 139.86 207.39 137.43 207.32   C 134.26 207.23 132.60 205.16 130.71 202.28   Q 126.05 195.19 120.37 188.51   Q 119.49 187.47 118.46 188.36   Q 117.99 188.76 117.40 188.72   Q 116.90 188.69 116.60 188.29   Q 115.48 186.80 116.08 185.09   C 117.55 180.82 122.43 183.55 124.43 185.70   C 126.90 188.36 129.30 190.94 131.29 193.98   Q 133.44 197.26 135.76 200.59   Q 136.22 201.25 136.33 200.46   Z"/>
    <path fill="#000000" d="   M 60.47 160.85   Q 61.04 160.59 61.25 161.10   A 0.42 0.40 52.9 0 1 61.20 161.52   Q 60.89 161.91 60.45 161.90   Q 60.33 161.90 60.24 161.82   Q 59.95 161.59 60.18 161.13   A 0.60 0.56 -0.9 0 1 60.47 160.85   Z"/>
    <path fill="#000000" d="   M 83.55 165.05   Q 83.98 164.90 84.35 165.32   A 0.42 0.42 0.0 0 1 84.27 165.95   Q 83.92 166.18 83.43 165.82   A 0.44 0.44 0.0 0 1 83.55 165.05   Z"/>
    <path fill="#000000" d="   M 89.14 164.95   Q 89.66 164.84 89.92 165.30   Q 90.20 165.81 89.64 165.90   Q 89.14 165.98 88.88 165.53   Q 88.62 165.07 89.14 164.95   Z"/>
    <path fill="#000000" d="   M 80.94 169.23   C 81.23 169.04 81.55 168.74 81.82 168.58   Q 82.28 168.31 82.14 168.83   Q 81.88 169.87 81.07 169.76   Q 80.31 169.65 80.94 169.23   Z"/>
    <path fill="#000000" d="   M 89.83 173.08   Q 89.90 173.18 89.79 173.19   Q 89.17 173.29 88.47 173.15   Q 87.78 173.02 88.39 172.69   Q 89.24 172.23 89.83 173.08   Z"/>
    <path fill="#000000" d="   M 80.67 173.55   Q 81.59 174.03 80.55 174.02   L 79.49 174.01   A 0.33 0.33 0.0 0 1 79.43 173.35   Q 80.05 173.22 80.67 173.55   Z"/>
    <path fill="#000000" d="   M 85.05 174.73   L 85.30 174.91   Q 85.53 175.07 85.36 175.29   Q 85.14 175.57 84.82 175.71   Q 84.39 175.89 84.27 175.44   Q 84.20 175.17 84.34 174.90   Q 84.59 174.40 85.05 174.73   Z"/>
    <path fill="#000000" d="   M 287.19 187.20   Q 286.57 188.02 285.31 188.13   A 2.09 2.06 -23.1 0 1 283.61 187.46   C 279.18 182.58 272.87 175.73 266.00 181.48   Q 260.68 185.94 259.01 191.34   A 1.27 1.24 74.5 0 1 258.73 191.85   Q 257.53 193.26 256.75 192.74   Q 255.53 191.93 255.80 190.72   Q 257.42 183.48 262.32 179.04   C 271.95 170.30 280.89 176.29 287.20 184.91   Q 288.05 186.06 287.19 187.20   Z"/>
    <path fill="#000000" d="   M 80.03 176.62   Q 80.14 176.00 80.59 175.65   A 0.33 0.33 0.0 0 1 81.11 175.98   Q 80.94 176.74 80.29 176.87   Q 79.98 176.94 80.03 176.62   Z"/>
    <path fill="#000000" d="   M 82.39 178.70   Q 82.61 178.83 82.68 179.05   A 0.23 0.22 -16.1 0 1 82.52 179.33   Q 82.03 179.44 81.55 179.37   A 0.34 0.34 0.0 0 1 81.30 178.88   Q 81.49 178.50 81.88 178.33   Q 82.00 178.28 82.12 178.30   Q 82.25 178.34 82.27 178.53   Q 82.29 178.64 82.39 178.70   Z"/>
    <path fill="#000000" d="   M 86.12 179.86   Q 85.91 179.55 86.03 179.22   Q 86.25 178.57 86.76 179.03   Q 87.21 179.43 86.86 179.88   Q 86.47 180.38 86.12 179.86   Z"/>
    <path fill="#000000" d="   M 90.70 180.56   Q 90.54 179.35 91.65 179.38   A 0.24 0.23 -88.8 0 1 91.88 179.63   Q 91.81 180.50 91.04 180.77   A 0.26 0.26 0.0 0 1 90.70 180.56   Z"/>
    <path fill="#000000" d="   M 66.18 179.76   A 0.40 0.39 40.0 0 1 66.88 179.70   Q 67.24 180.26 66.83 180.80   A 0.37 0.36 51.0 0 1 66.21 180.73   Q 65.98 180.27 66.18 179.76   Z"/>
    <path fill="#000000" d="   M 61.54 180.98   L 60.98 180.75   A 0.32 0.32 0.0 0 1 60.90 180.21   Q 61.22 179.92 61.63 179.97   Q 61.78 179.99 61.86 180.12   Q 62.07 180.46 61.93 180.81   A 0.30 0.29 -68.0 0 1 61.54 180.98   Z"/>
    <path fill="#000000" d="   M 80.44 180.82   L 79.26 181.25   Q 78.93 181.37 79.05 181.04   Q 79.40 180.07 80.33 180.11   A 0.37 0.37 0.0 0 1 80.44 180.82   Z"/>
    <ellipse fill="#000000" cx="0.00" cy="0.00" transform="translate(84.41,180.66) rotate(46.3)" rx="0.61" ry="0.46"/>
    <path fill="#000000" d="   M 93.81 179.98   Q 94.05 180.01 94.26 180.14   Q 94.76 180.43 94.36 180.86   Q 94.21 181.01 94.00 181.10   Q 93.54 181.29 93.28 180.87   Q 93.19 180.73 93.18 180.55   Q 93.16 179.89 93.81 179.98   Z"/>
    <path fill="#000000" d="   M 82.72 182.36   A 0.35 0.34 30.5 0 1 82.32 182.46   Q 82.11 182.37 81.95 182.20   Q 81.78 182.02 81.85 181.80   Q 81.97 181.47 82.32 181.36   Q 82.53 181.30 82.69 181.46   Q 83.10 181.87 82.72 182.36   Z"/>
    <path fill="#000000" d="   M 84.93 183.18   Q 84.92 183.49 84.81 183.78   Q 84.55 184.45 84.14 183.86   Q 83.69 183.21 84.33 182.82   A 0.40 0.40 0.0 0 1 84.93 183.18   Z"/>
    <path fill="#000000" d="   M 77.52 186.34   Q 77.72 185.80 77.93 186.33   Q 78.20 187.00 77.89 187.59   A 0.30 0.30 0.0 0 1 77.32 187.45   Q 77.33 186.87 77.52 186.34   Z"/>
    <path fill="#000000" d="   M 88.41 186.72   Q 88.62 186.20 89.17 186.10   Q 89.87 185.96 89.56 186.61   Q 89.36 187.02 89.00 187.23   A 0.41 0.41 0.0 0 1 88.41 186.72   Z"/>
    <path fill="#000000" d="   M 94.94 186.75   Q 95.02 187.27 94.67 187.53   A 0.43 0.42 -23.8 0 1 93.99 187.27   Q 93.90 186.69 94.37 186.46   A 0.40 0.40 0.0 0 1 94.94 186.75   Z"/>
    <path fill="#000000" d="   M 86.86 188.36   A 0.18 0.18 0.0 0 1 86.56 188.48   Q 86.11 188.07 86.02 187.49   A 0.41 0.40 1.5 0 1 86.51 187.03   Q 86.66 187.06 86.80 187.14   Q 86.93 187.21 86.92 187.36   L 86.86 188.36   Z"/>
    <path fill="#000000" d="   M 75.06 191.15   Q 75.39 191.70 75.11 192.24   Q 74.85 192.75 74.86 192.18   Q 74.88 190.79 74.60 189.78   Q 74.42 189.10 75.04 189.44   Q 75.08 189.47 75.10 189.52   Q 75.20 189.75 75.13 189.97   Q 75.08 190.13 75.01 190.28   A 0.95 0.94 -48.6 0 0 75.06 191.15   Z"/>
    <path fill="#000000" d="   M 87.42 189.35   Q 88.23 189.62 88.21 190.53   Q 88.19 191.07 87.75 190.75   Q 87.12 190.29 87.16 189.52   A 0.20 0.19 10.4 0 1 87.42 189.35   Z"/>
    <ellipse fill="#000000" cx="0.00" cy="0.00" transform="translate(84.48,193.09) rotate(106.0)" rx="0.72" ry="0.47"/>
    <path fill="#000000" d="   M 95.55 194.34   Q 95.08 193.55 95.68 193.04   Q 96.20 192.59 96.24 193.28   Q 96.27 193.80 96.12 194.27   Q 95.92 194.93 95.55 194.34   Z"/>
    <path fill="#000000" d="   M 101.22 193.94   Q 100.84 193.72 100.77 193.34   A 0.42 0.42 0.0 0 1 101.08 192.85   Q 101.44 192.77 101.67 193.10   Q 101.92 193.46 101.74 193.80   A 0.38 0.37 -59.8 0 1 101.22 193.94   Z"/>
    <ellipse fill="#000000" cx="0.00" cy="0.00" transform="translate(118.41,195.33) rotate(-38.7)" rx="2.71" ry="2.54"/>
    <path fill="#000000" d="   M 88.37 193.86   Q 88.79 193.92 89.11 194.18   Q 89.44 194.44 89.13 194.73   Q 88.72 195.11 88.30 194.76   Q 88.00 194.51 88.05 194.11   Q 88.08 193.82 88.37 193.86   Z"/>
    <path fill="#000000" d="   M 86.06 195.11   Q 86.42 194.94 86.74 195.07   A 0.46 0.45 -43.4 0 1 86.71 195.92   Q 86.21 196.08 85.92 195.67   A 0.38 0.37 59.6 0 1 86.06 195.11   Z"/>
    <ellipse fill="#000000" cx="0.00" cy="0.00" transform="translate(93.50,195.51) rotate(-2.0)" rx="0.67" ry="0.46"/>
    <path fill="#000000" d="   M 91.24 198.09   Q 91.29 197.69 91.79 197.76   A 0.39 0.38 -85.6 0 1 92.11 198.14   Q 92.11 198.81 91.27 198.94   A 0.26 0.26 0.0 0 1 90.97 198.69   Q 90.97 198.47 91.13 198.31   Q 91.23 198.22 91.24 198.09   Z"/>
    <ellipse fill="#000000" cx="0.00" cy="0.00" transform="translate(269.08,208.65) rotate(60.9)" rx="5.00" ry="3.59"/>
    <ellipse fill="#000000" cx="0.00" cy="0.00" transform="translate(247.08,214.52) rotate(59.7)" rx="5.30" ry="3.47"/>
    <path fill="#000000" d="   M 258.48 222.53   L 258.80 215.19   A 1.07 1.06 -76.9 0 1 260.29 214.26   C 262.62 215.26 261.96 221.98 261.62 223.83   A 1.10 1.10 0.0 0 1 260.14 224.66   L 259.78 224.52   Q 258.42 223.99 258.48 222.53   Z"/>
    <path fill="#000000" d="   M 323.85 235.87   Q 323.10 237.36 322.43 238.78   Q 322.09 239.51 321.29 239.42   L 319.72 239.23   A 0.85 0.85 0.0 0 1 318.96 238.37   C 319.06 231.43 323.77 225.32 329.47 221.97   Q 332.39 220.26 335.68 221.20   Q 336.27 221.37 336.11 221.96   Q 335.27 225.01 333.39 226.11   Q 326.76 230.00 323.85 235.87   Z"/>
    <path fill="#000000" d="   M 265.22 232.50   Q 265.93 231.50 266.80 230.95   Q 270.20 228.79 272.59 231.25   C 276.61 235.41 273.99 241.51 269.43 243.49   Q 263.39 246.12 259.11 241.68   Q 255.82 238.25 258.61 233.88   Q 258.88 233.46 259.38 233.45   L 263.55 233.38   A 2.10 2.09 17.0 0 0 265.22 232.50   Z"/>
    <path fill="#000000" d="   M 177.70 258.63   Q 175.88 260.34 173.47 260.53   A 1.25 1.24 -86.6 0 1 172.16 259.05   Q 172.93 255.22 175.35 253.55   Q 176.79 252.57 177.60 251.03   Q 178.90 248.58 180.19 246.05   Q 181.41 243.64 181.60 241.66   Q 181.83 239.23 182.04 236.81   A 1.61 1.61 0.0 0 1 183.75 235.35   C 184.92 235.43 185.51 236.47 185.60 237.54   Q 186.59 250.27 177.70 258.63   Z"/>
    <path fill="#000000" d="   M 376.94 251.73   Q 371.38 248.11 366.07 247.26   Q 363.87 246.91 361.05 247.29   A 1.66 1.65 -81.0 0 1 359.34 244.93   C 360.25 243.04 365.04 242.41 366.87 242.55   Q 373.64 243.07 379.99 247.50   Q 382.59 249.31 383.11 252.09   A 1.00 0.99 -6.1 0 1 382.15 253.27   Q 379.39 253.33 376.94 251.73   Z"/>
    <path fill="#000000" d="   M 288.22 277.23   Q 283.53 280.35 278.83 283.37   C 276.17 285.08 269.35 288.45 268.13 283.10   Q 267.57 280.67 268.91 278.68   C 278.91 263.87 294.18 252.97 311.76 250.90   Q 317.32 250.24 322.90 250.97   C 335.57 252.62 346.63 260.49 353.56 271.06   A 0.85 0.84 57.7 0 0 354.71 271.32   Q 360.73 267.65 367.75 268.79   Q 368.96 268.99 369.79 270.11   A 1.34 1.34 0.0 0 1 368.97 272.22   C 367.44 272.52 366.21 273.04 364.59 273.11   Q 360.85 273.27 357.23 275.15   A 0.59 0.59 0.0 0 0 356.97 275.95   Q 358.78 279.41 359.20 283.04   A 1.04 1.03 9.4 0 1 357.73 284.09   Q 355.85 283.21 354.79 281.58   Q 352.06 277.38 349.22 273.50   Q 342.74 264.70 334.83 260.06   Q 331.04 257.83 326.83 256.62   C 315.78 253.43 303.31 255.67 293.41 261.12   Q 285.81 265.32 281.18 269.86   Q 276.19 274.76 271.95 280.05   Q 271.39 280.74 271.82 281.49   A 1.04 1.04 0.0 0 0 273.23 281.88   Q 279.39 278.46 284.95 274.40   Q 294.20 267.65 304.94 262.46   Q 306.28 261.81 307.63 262.04   A 1.58 1.58 0.0 0 1 308.26 264.90   Q 292.18 276.03 283.82 291.78   A 1.44 1.42 89.5 0 1 283.24 292.38   Q 281.87 293.15 281.38 292.53   Q 280.30 291.14 280.77 289.94   Q 282.76 284.91 285.23 281.70   Q 286.87 279.57 288.50 277.54   Q 289.36 276.47 288.22 277.23   Z"/>
    <path fill="#000000" d="   M 249.63 280.34   Q 253.00 286.22 254.38 291.17   A 1.37 1.31 48.4 0 1 254.35 291.97   Q 253.39 294.68 250.55 291.14   A 2.79 2.39 18.7 0 1 250.17 290.50   Q 244.25 276.56 231.04 265.23   A 1.43 1.43 0.0 0 1 231.82 262.72   C 234.66 262.43 238.89 265.44 240.98 267.22   Q 250.12 275.02 259.26 282.53   Q 262.13 284.88 260.20 281.71   C 252.19 268.53 238.73 255.52 223.41 254.49   C 214.34 253.88 204.56 259.28 197.97 265.34   A 1.27 1.27 0.0 0 1 195.88 264.71   Q 195.66 263.82 196.28 263.03   C 198.79 259.81 202.02 257.75 205.63 255.72   Q 208.88 253.90 212.13 252.69   Q 225.00 247.93 238.26 254.92   Q 255.09 263.78 264.42 281.38   C 265.25 282.94 265.72 284.92 264.47 286.45   Q 262.53 288.82 259.54 287.12   Q 254.66 284.34 250.07 280.00   Q 248.69 278.69 249.63 280.34   Z"/>
    <path fill="#000000" d="   M 408.68 269.81   C 407.17 270.77 406.08 272.20 405.01 273.59   A 1.05 1.03 18.3 0 1 404.18 274.00   L 400.24 273.99   Q 399.20 273.98 399.76 273.10   C 400.29 272.26 400.35 271.33 400.99 270.59   C 402.36 269.01 403.06 267.24 404.72 265.88   C 407.64 263.46 413.89 259.99 417.69 261.78   A 1.49 1.48 -56.1 0 1 418.15 264.13   L 416.37 266.07   Q 416.00 266.46 415.49 266.62   Q 412.13 267.62 408.68 269.81   Z"/>
    <path fill="#000000" d="   M 153.38 265.36   C 156.92 267.17 159.31 270.40 161.83 273.21   Q 162.52 273.98 161.49 273.98   L 157.58 274.00   Q 156.69 274.01 156.11 273.33   Q 152.68 269.34 147.60 266.45   A 1.38 1.37 37.8 0 1 147.32 264.27   C 148.79 262.83 151.87 264.58 153.38 265.36   Z"/>
    <path fill="#000000" d="   M 312.98 266.91   Q 314.96 265.47 316.01 267.70   A 1.56 1.55 -29.9 0 1 315.48 269.64   Q 306.58 275.72 298.97 284.07   Q 294.66 288.80 290.29 293.13   Q 289.19 294.22 287.67 293.68   Q 287.07 293.46 287.09 292.39   A 1.07 1.04 -25.1 0 1 287.35 291.70   Q 293.40 284.58 299.06 278.46   Q 304.68 272.40 311.72 267.79   Q 312.36 267.37 312.98 266.91   Z"/>
    <path fill="#000000" d="   M 233.75 273.59   Q 242.32 282.34 247.37 292.80   Q 248.35 294.82 246.92 295.90   Q 246.70 296.07 246.38 296.05   Q 244.60 295.91 243.82 294.48   Q 236.49 281.11 225.41 270.70   Q 224.50 269.85 224.70 268.62   Q 224.83 267.81 225.65 267.77   Q 226.42 267.73 227.05 268.08   Q 229.99 269.74 233.75 273.59   Z"/>
    <path fill="#000000" d="   M 298.14 296.15   Q 297.77 296.62 297.16 296.75   Q 295.57 297.10 295.24 296.19   A 1.89 1.88 56.2 0 1 295.61 294.31   Q 305.09 283.80 315.91 274.85   C 316.70 274.20 317.58 273.90 318.43 273.21   Q 321.83 270.45 325.88 269.19   Q 326.35 269.04 326.70 269.39   C 327.86 270.54 327.19 272.44 325.95 273.25   Q 314.59 280.57 305.00 290.32   C 303.84 291.51 302.31 292.12 301.97 293.92   A 1.01 1.01 0.0 0 0 303.32 295.05   Q 305.90 294.09 307.85 292.79   Q 314.28 288.50 320.73 285.02   C 327.17 281.55 333.38 281.05 340.53 281.79   Q 343.68 282.12 347.08 282.07   A 1.63 1.63 0.0 0 1 348.56 284.41   Q 347.72 286.14 345.24 286.10   Q 339.41 286.00 334.11 285.87   Q 330.18 285.78 325.49 287.54   Q 317.58 290.51 310.96 295.12   C 307.95 297.21 300.91 301.20 298.85 296.26   Q 298.58 295.62 298.14 296.15   Z"/>
    <path fill="#000000" d="   M 232.11 290.18   Q 226.51 282.34 218.76 274.98   A 1.74 1.71 -76.5 0 1 218.26 274.15   Q 217.62 271.77 220.49 272.34   A 1.61 1.56 69.9 0 1 221.19 272.68   Q 228.09 278.47 234.00 285.55   Q 236.80 288.90 238.82 293.21   A 1.48 1.47 -34.3 0 1 238.49 294.92   C 237.31 296.02 235.76 295.12 234.95 294.05   Q 233.54 292.17 232.11 290.18   Z"/>
    <path fill="#000000" d="   M 225.92 294.34   C 221.30 290.05 216.12 285.37 212.13 280.69   A 1.48 1.47 37.6 0 1 211.92 279.10   Q 212.23 278.42 212.86 278.37   Q 215.10 278.19 216.48 279.61   Q 222.18 285.49 228.89 292.88   A 1.05 1.03 -60.9 0 1 229.14 293.80   Q 228.97 294.57 228.37 294.75   Q 226.86 295.21 225.92 294.34   Z"/>
</svg>