<svg xmlns="http://www.w3.org/2000/svg" version="1.1" viewBox="0.00 0.00 524.00 243.00">
    <path fill="#000000" d="   M 281.69 67.74   Q 282.46 66.78 282.67 65.71   Q 283.38 62.18 283.07 57.66   A 1.24 1.24 0.0 0 1 283.84 56.43   L 284.10 56.32   A 0.41 0.41 0.0 0 1 284.66 56.63   Q 285.86 62.98 283.07 68.13   C 282.17 69.78 280.59 70.57 279.99 72.44   C 278.42 77.41 276.85 81.22 273.23 85.39   C 269.10 90.15 263.76 92.06 257.67 90.81   C 249.42 89.13 243.74 81.65 241.89 73.64   A 0.72 0.71 82.7 0 0 241.17 73.08   C 234.77 73.26 230.61 67.00 232.45 61.10   Q 232.61 60.58 232.34 60.13   Q 227.69 52.49 226.25 44.06   C 225.87 41.84 225.68 38.90 226.51 36.78   C 227.05 35.38 226.81 34.16 227.56 32.83   C 232.58 23.93 239.99 21.07 249.77 19.44   C 253.20 18.87 255.13 17.08 257.89 15.46   Q 263.93 11.95 270.89 11.17   C 273.00 10.94 274.76 12.02 276.87 12.01   Q 277.44 12.01 277.89 12.37   Q 278.76 13.08 279.92 13.03   A 1.10 1.07 65.7 0 1 280.73 13.35   C 281.94 14.59 283.53 15.04 284.72 16.30   Q 287.14 18.85 288.50 21.89   C 290.23 25.75 291.27 30.77 290.73 35.01   C 290.01 40.79 287.52 51.80 282.75 55.79   A 3.04 3.03 -17.8 0 0 281.67 57.88   Q 281.42 61.17 281.05 64.89   Q 280.92 66.20 281.22 67.63   Q 281.34 68.18 281.69 67.74   Z   M 243.13 66.98   Q 242.31 66.61 242.13 65.75   C 241.55 63.10 238.89 58.54 235.35 60.38   Q 234.28 60.93 234.07 62.05   Q 233.04 67.32 236.37 70.00   C 237.77 71.13 239.04 71.02 240.54 71.78   Q 240.98 72.01 241.47 71.95   Q 243.13 71.77 243.50 73.43   C 246.76 88.09 263.27 97.25 273.86 82.19   C 280.52 72.70 280.37 60.77 280.00 49.43   C 279.93 47.16 279.19 45.25 278.98 43.02   Q 278.93 42.48 278.39 42.44   C 268.62 41.76 259.95 39.47 251.64 34.47   Q 251.18 34.19 251.14 34.73   Q 250.79 39.57 248.14 43.41   Q 246.40 45.94 243.49 48.79   A 1.05 1.04 -68.9 0 1 242.85 49.08   Q 242.17 49.14 242.02 49.77   Q 241.90 50.28 242.24 50.68   C 242.70 51.22 242.98 51.80 242.97 52.52   C 242.92 54.79 244.00 56.62 244.00 58.94   Q 244.00 62.78 244.00 66.42   Q 244.00 67.38 243.13 66.98   Z"/>
    <path fill="#000000" d="   M 473.49 126.51   Q 475.75 126.75 478.36 126.94   Q 480.69 127.11 483.00 128.09   C 491.88 131.88 496.88 139.68 500.69 148.05   Q 504.40 156.20 508.19 164.32   Q 510.80 169.93 514.58 173.47   A 1.08 1.08 0.0 0 1 514.92 174.38   Q 514.90 174.51 514.85 174.63   Q 514.71 174.97 514.36 174.87   Q 513.05 174.51 512.29 173.51   Q 506.96 166.44 504.36 159.89   Q 500.45 150.05 496.13 142.64   Q 493.93 138.86 490.26 134.99   Q 483.30 127.67 473.67 127.96   Q 473.07 127.98 472.64 127.58   Q 471.56 126.61 470.37 127.33   C 467.70 128.92 462.86 129.64 460.14 129.81   Q 457.35 129.97 453.60 128.85   Q 453.12 128.71 452.73 128.38   L 451.82 127.63   Q 451.17 127.09 451.15 127.93   Q 450.99 133.22 445.43 135.23   Q 444.91 135.42 445.21 135.89   Q 448.54 140.92 448.94 145.61   Q 449.10 147.47 448.06 149.12   Q 446.90 150.96 447.05 148.79   C 447.24 145.99 447.45 143.14 446.20 140.53   C 445.08 138.19 443.54 135.13 440.30 136.21   Q 439.81 136.37 439.77 136.90   C 439.50 140.49 440.51 144.48 443.48 146.56   Q 444.74 147.44 445.85 148.37   A 0.77 0.76 -56.7 0 1 446.04 149.31   L 445.92 149.55   A 0.36 0.35 -53.4 0 1 445.35 149.64   Q 444.16 148.42 442.62 147.91   Q 442.21 147.78 442.00 147.39   Q 441.31 146.08 439.89 145.11   Q 439.46 144.81 439.03 145.13   C 436.15 147.36 434.30 148.94 430.41 149.86   Q 429.50 150.07 429.20 149.19   L 429.11 148.93   A 0.61 0.61 0.0 0 1 429.50 148.16   C 430.82 147.74 431.77 148.28 433.10 147.60   Q 436.20 146.03 438.48 143.40   Q 438.87 142.96 438.69 142.40   Q 437.83 139.76 438.09 137.19   A 1.08 1.08 0.0 0 0 436.37 136.21   Q 431.16 140.09 430.95 146.45   Q 430.94 146.84 430.55 146.86   L 430.28 146.87   Q 430.10 146.88 430.07 146.69   Q 429.25 140.15 434.52 135.90   A 0.85 0.85 0.0 0 0 434.46 134.53   Q 429.64 131.34 427.45 126.37   A 0.34 0.33 77.2 0 1 427.74 125.90   L 428.00 125.89   A 1.08 1.06 73.2 0 1 428.97 126.42   C 432.28 132.07 437.73 136.83 444.71 134.09   Q 448.25 132.71 449.76 129.28   C 450.69 127.16 447.61 122.45 445.40 125.86   C 443.58 128.65 439.62 129.43 436.48 128.18   Q 433.05 126.83 429.43 125.76   Q 426.55 124.90 423.88 122.61   Q 420.46 119.68 417.63 115.58   A 0.79 0.77 62.9 0 0 416.74 115.28   Q 412.40 116.79 408.56 115.24   Q 407.83 114.95 407.83 115.74   C 407.82 118.74 408.71 121.45 409.03 124.24   Q 409.22 125.90 408.19 124.58   C 407.78 124.06 407.31 123.19 407.21 122.53   Q 406.65 118.76 406.23 114.89   Q 406.05 113.28 405.54 111.75   C 404.31 108.10 405.26 102.48 406.48 99.16   Q 408.38 93.98 409.38 88.40   Q 410.00 84.91 409.53 81.77   Q 408.90 77.62 409.77 73.18   Q 410.22 70.86 409.99 68.41   Q 409.92 67.75 410.31 67.22   Q 411.05 66.19 411.03 64.92   Q 411.02 64.36 411.39 63.93   Q 411.99 63.22 412.07 62.24   A 2.29 2.25 -29.5 0 1 412.30 61.44   C 415.22 55.80 418.22 52.35 424.14 49.86   Q 426.43 48.90 429.16 48.80   Q 432.20 48.68 434.74 47.67   C 444.48 43.81 455.59 43.53 464.98 48.49   Q 469.15 50.70 472.35 54.67   Q 475.63 58.74 477.05 63.05   C 480.58 73.69 480.35 85.60 479.88 97.35   Q 479.74 101.07 480.94 103.69   Q 482.73 107.58 486.04 110.47   C 488.65 112.74 485.19 117.14 483.47 118.79   Q 480.51 121.63 477.19 123.84   Q 475.32 125.07 473.41 126.07   Q 472.72 126.42 473.49 126.51   Z   M 443.08 86.29   Q 441.57 84.54 440.08 82.69   Q 434.97 76.32 431.40 68.26   C 430.82 66.94 431.21 65.92 430.34 64.74   A 1.64 1.63 -64.1 0 1 430.00 63.74   L 430.00 62.67   Q 430.00 61.89 429.32 62.28   Q 427.07 63.59 425.49 65.41   Q 422.00 69.43 420.48 73.70   Q 419.08 77.61 417.95 82.06   A 0.59 0.58 16.3 0 0 418.34 82.76   Q 418.81 82.92 419.26 82.69   C 424.09 80.30 428.59 84.42 429.22 89.21   A 0.88 0.87 -87.2 0 0 429.88 89.95   L 431.99 90.44   Q 432.59 90.59 433.09 90.21   C 434.80 88.91 436.12 86.96 438.33 86.57   C 442.10 85.90 444.73 88.73 446.91 91.44   Q 447.08 91.66 447.28 91.47   L 447.62 91.13   A 0.32 0.31 41.6 0 0 447.59 90.66   Q 446.33 89.67 445.22 88.58   Q 444.12 87.49 443.08 86.29   Z   M 422.1390 96.8596   A 6.59 5.70 89.4 0 0 427.7697 90.2103   A 6.59 5.70 89.4 0 0 422.0010 83.6804   A 6.59 5.70 89.4 0 0 416.3703 90.3297   A 6.59 5.70 89.4 0 0 422.1390 96.8596   Z   M 439.5034 101.2098   A 6.67 5.62 90.4 0 0 445.1699 94.5792   A 6.67 5.62 90.4 0 0 439.5966 87.8702   A 6.67 5.62 90.4 0 0 433.9301 94.5008   A 6.67 5.62 90.4 0 0 439.5034 101.2098   Z   M 430.97 104.21   Q 432.29 104.76 430.88 104.99   Q 429.36 105.23 428.09 104.51   C 425.63 103.12 427.53 98.43 428.64 96.67   Q 429.06 95.99 429.00 95.20   L 428.94 94.54   Q 428.88 93.76 428.34 94.32   C 427.33 95.35 427.04 96.53 425.65 97.22   Q 420.39 99.82 416.63 95.47   Q 416.18 94.95 416.02 95.62   C 415.10 99.46 415.81 102.60 415.94 106.31   C 416.20 113.03 421.64 119.43 426.96 123.01   C 432.24 126.56 439.01 124.69 444.77 123.24   C 446.08 122.91 447.34 123.00 448.68 122.96   Q 449.11 122.95 449.40 122.62   Q 452.26 119.24 456.06 116.11   C 457.79 114.67 459.63 112.33 460.12 110.03   Q 460.40 108.73 461.58 108.13   Q 471.08 103.27 466.47 94.36   C 464.76 91.05 460.39 91.59 457.70 93.04   C 453.90 95.10 451.30 93.07 447.49 92.67   A 0.59 0.59 0.0 0 0 446.84 93.26   C 446.83 97.15 445.52 100.68 441.76 102.41   Q 439.50 103.45 437.21 102.32   C 433.46 100.48 431.86 96.49 432.70 92.49   Q 432.82 91.92 432.23 91.90   L 430.24 91.84   A 1.33 1.33 0.0 0 0 429.26 94.11   C 430.89 95.76 428.90 99.64 428.26 101.46   A 1.57 1.57 0.0 0 0 429.14 103.44   L 430.97 104.21   Z   M 443.77 125.02   L 436.46 126.15   A 0.12 0.12 0.0 0 0 436.36 126.29   L 436.36 126.32   A 3.65 1.35 -8.8 0 0 440.18 127.10   L 440.51 127.05   A 3.65 1.35 -8.8 0 0 443.91 125.15   L 443.91 125.12   A 0.12 0.12 0.0 0 0 443.77 125.02   Z"/>
    <path fill="#000000" d="   M 271.32 54.25   C 269.97 54.04 269.01 54.97 267.63 54.86   Q 267.04 54.82 267.42 54.37   C 269.02 52.47 272.14 52.88 274.27 53.81   Q 275.06 54.16 274.45 54.76   Q 274.28 54.92 274.06 54.86   Q 272.75 54.47 271.32 54.25   Z"/>
    <path fill="#000000" d="   M 256.45 54.91   C 253.62 54.79 251.96 54.77 250.49 57.26   A 0.82 0.82 0.0 0 1 249.45 57.58   L 249.18 57.46   A 0.40 0.40 0.0 0 1 248.99 56.90   Q 250.77 53.62 254.57 53.34   A 2.00 1.99 -29.3 0 1 255.86 53.70   Q 256.44 54.11 256.56 54.79   A 0.10 0.10 0.0 0 1 256.45 54.91   Z"/>
    <path fill="#000000" d="   M 262.01 63.90   C 261.95 65.64 263.06 66.75 263.70 68.23   Q 263.99 68.90 263.27 68.99   C 262.05 69.14 261.00 68.00 260.99 66.83   Q 260.97 62.92 261.04 59.30   Q 261.06 58.62 261.56 59.08   L 262.10 59.59   A 0.68 0.68 0.0 0 1 262.32 60.19   Q 262.08 62.04 262.01 63.90   Z"/>
    <circle fill="#000000" cx="271.17" cy="61.09" r="1.83"/>
    <ellipse fill="#000000" cx="0.00" cy="0.00" transform="translate(254.09,61.27) rotate(7.8)" rx="2.00" ry="1.72"/>
    <path fill="#000000" d="   M 68.41 84.91   Q 68.69 85.27 69.07 85.50   Q 69.50 85.77 69.76 86.20   Q 72.16 90.03 72.57 91.15   Q 74.97 97.71 75.21 104.69   Q 75.22 105.13 75.66 105.12   L 86.57 104.90   A 1.45 1.43 4.7 0 0 87.95 103.74   C 88.51 100.82 89.82 96.86 92.64 95.35   Q 94.59 94.31 96.31 95.51   Q 97.70 96.48 98.36 98.46   Q 100.28 104.29 97.41 109.88   C 93.70 117.12 87.72 112.71 87.98 106.57   Q 88.00 105.99 87.43 105.97   Q 84.01 105.84 80.66 106.63   Q 78.32 107.18 75.88 106.97   Q 75.18 106.90 75.02 107.59   Q 74.25 110.85 73.76 114.21   Q 71.42 130.34 61.87 142.25   Q 58.42 146.55 52.49 150.23   Q 48.40 152.77 41.99 153.58   C 28.21 155.33 15.38 150.96 8.49 138.54   Q 7.41 136.59 6.38 134.48   C 5.82 133.34 6.26 132.31 5.64 131.34   C 4.68 129.86 5.13 128.26 4.60 126.55   Q 3.82 124.05 4.20 121.45   Q 8.03 95.50 32.03 86.75   Q 33.85 86.09 35.51 85.98   Q 36.82 85.90 38.04 85.49   C 40.49 84.67 43.08 85.03 45.49 86.06   A 1.12 1.12 0.0 0 0 47.05 84.99   Q 47.03 84.55 47.23 84.17   Q 53.61 71.65 65.74 64.80   Q 70.06 62.37 76.10 60.86   Q 85.87 58.43 93.91 62.59   Q 101.90 66.72 102.06 75.54   C 102.10 77.97 101.34 80.62 100.71 82.98   C 100.16 85.03 98.58 87.43 96.50 88.27   Q 95.86 88.53 95.41 89.08   Q 95.09 89.47 95.34 89.90   Q 98.38 95.08 103.12 99.33   C 106.58 102.43 107.84 106.30 104.24 110.16   Q 102.74 111.77 101.48 113.50   Q 101.19 113.91 101.31 114.40   Q 102.21 117.97 102.02 122.27   Q 101.33 137.51 88.02 143.79   Q 84.01 145.69 80.48 146.03   Q 79.99 146.08 80.09 145.59   L 80.15 145.31   Q 80.17 145.20 80.27 145.17   C 90.04 142.06 97.67 137.91 99.82 127.01   Q 100.95 121.23 100.00 115.51   Q 99.63 113.33 100.98 111.82   C 103.56 108.94 107.11 105.71 103.51 101.85   Q 101.92 100.14 99.90 98.27   C 98.99 97.42 97.80 97.15 97.58 95.76   A 1.82 1.82 0.0 0 0 97.20 94.92   Q 94.58 91.76 92.57 87.64   C 91.93 86.34 91.93 85.05 91.97 83.63   A 0.64 0.64 0.0 0 0 91.02 83.05   C 88.27 84.58 85.25 86.07 81.95 86.08   Q 77.73 86.08 73.64 86.01   C 71.89 85.98 70.33 85.05 68.72 84.48   Q 67.84 84.17 68.41 84.91   Z   M 92.4781 112.0293   A 7.88 4.02 98.7 0 0 97.6437 104.8481   A 7.88 4.02 98.7 0 0 94.8619 96.4507   A 7.88 4.02 98.7 0 0 89.6963 103.6319   A 7.88 4.02 98.7 0 0 92.4781 112.0293   Z"/>
    <path fill="#000000" d="   M 237.92 62.62   C 237.94 64.03 238.51 65.41 239.72 66.18   A 0.64 0.63 -59.2 0 1 239.93 67.03   L 239.78 67.28   Q 239.64 67.53 239.38 67.41   Q 236.09 65.90 237.00 62.67   Q 237.11 62.29 237.50 62.24   Q 237.69 62.21 237.80 62.33   Q 237.91 62.45 237.92 62.62   Z"/>
    <path fill="#000000" d="   M 267.75 75.10   A 0.04 0.04 0.0 0 1 267.80 75.10   L 267.81 75.11   A 3.66 1.63 -39.0 0 1 265.99 78.68   L 265.79 78.84   A 3.66 1.63 -39.0 0 1 261.92 79.88   L 261.91 79.87   A 0.04 0.04 0.0 0 1 261.92 79.82   L 267.75 75.10   Z"/>
    <ellipse fill="#000000" cx="0.00" cy="0.00" transform="translate(421.82,89.99) rotate(61.9)" rx="2.04" ry="1.64"/>
    <path fill="#000000" d="   M 273.02 93.88   C 274.10 94.10 275.17 93.90 276.28 94.17   Q 298.31 99.43 307.70 119.44   C 308.38 120.89 309.26 122.07 310.15 123.39   C 311.28 125.06 311.10 130.13 311.07 131.31   Q 310.90 138.61 311.13 145.67   C 311.37 152.82 310.80 159.95 310.90 167.11   Q 311.08 179.17 310.94 189.48   A 2.64 2.63 0.3 0 1 308.30 192.08   L 210.47 192.07   A 2.46 2.45 -0.1 0 1 208.01 189.63   Q 208.00 187.25 207.99 184.74   C 207.97 181.03 206.87 177.40 207.03 173.79   Q 207.22 169.23 206.65 165.24   Q 206.03 160.96 206.02 156.74   C 206.00 152.30 206.31 147.80 205.59 143.51   C 204.67 138.02 205.27 132.61 204.51 127.19   C 203.84 122.41 209.57 123.76 212.09 123.30   Q 212.82 123.16 213.11 122.49   Q 216.37 115.03 222.00 108.58   C 229.23 100.29 239.57 96.18 250.04 93.88   Q 250.57 93.77 250.78 93.27   Q 251.09 92.55 251.02 91.74   Q 250.81 89.04 253.04 90.51   Q 255.47 92.12 259.50 92.44   Q 265.86 92.96 270.12 89.39   A 0.66 0.66 0.0 0 1 271.05 89.48   Q 272.04 90.67 271.93 92.45   Q 271.85 93.64 273.02 93.88   Z   M 215.83 120.20   C 215.40 121.00 214.89 121.79 214.37 122.51   Q 213.91 123.15 214.70 123.14   Q 231.79 122.96 249.76 122.99   C 263.99 123.01 278.15 121.91 292.37 122.11   Q 299.26 122.20 306.15 122.01   A 0.86 0.86 0.0 0 0 306.89 120.75   C 303.72 114.66 299.59 108.63 294.22 104.33   Q 284.81 96.79 272.46 95.19   Q 271.73 95.10 271.15 95.53   C 265.13 100.01 257.44 100.53 251.91 95.54   Q 251.48 95.16 250.93 95.27   Q 240.26 97.39 232.15 102.05   Q 222.61 107.55 215.83 120.20   Z"/>
    <ellipse fill="#000000" cx="0.00" cy="0.00" transform="translate(439.37,94.41) rotate(81.2)" rx="2.39" ry="1.39"/>
    <path fill="#000000" d="   M 462.56 98.49   Q 462.15 97.94 462.18 97.23   Q 462.27 95.28 463.32 96.92   Q 464.88 99.39 463.31 102.42   A 0.27 0.19 -80.8 0 1 463.21 102.52   L 462.52 102.91   A 0.34 0.34 0.0 0 1 462.03 102.51   L 462.82 100.00   Q 463.07 99.18 462.56 98.49   Z"/>
    <ellipse fill="#000000" cx="0.00" cy="0.00" transform="translate(199.04,106.08) rotate(69.1)" rx="7.48" ry="0.84"/>
    <path fill="#000000" d="   M 92.49 104.58   L 93.23 102.63   A 0.81 0.81 0.0 0 1 94.56 102.34   L 95.55 103.33   A 0.81 0.81 0.0 0 1 95.72 104.25   L 94.59 106.65   A 0.81 0.81 0.0 0 1 93.11 106.62   L 92.50 105.19   A 0.81 0.81 0.0 0 1 92.49 104.58   Z"/>
    <path fill="#000000" d="   M 259.34 112.35   C 257.04 111.52 254.10 109.74 251.70 110.26   C 248.00 111.08 246.28 113.25 244.28 116.13   Q 243.99 116.56 243.48 116.60   A 0.36 0.36 0.0 0 1 243.11 116.10   Q 246.29 108.14 254.22 109.09   C 259.22 109.69 262.84 114.38 267.90 109.68   Q 271.19 106.62 274.34 102.42   A 0.38 0.37 39.7 0 1 274.90 102.37   L 275.11 102.57   A 0.69 0.69 0.0 0 1 275.21 103.46   C 271.42 108.99 266.77 115.04 259.34 112.35   Z"/>
    <rect fill="#000000" x="-0.72" y="-6.09" transform="translate(189.66,109.40) rotate(-43.5)" width="1.44" height="12.18" rx="0.70"/>
    <rect fill="#000000" x="-0.75" y="-5.69" transform="translate(323.24,111.00) rotate(30.2)" width="1.50" height="11.38" rx="0.71"/>
    <path fill="#000000" d="   M 327.93 116.58   Q 327.01 117.94 325.61 118.07   Q 324.30 118.20 325.23 117.26   L 328.13 114.38   Q 328.49 114.02 328.99 113.90   Q 329.75 113.73 330.12 112.99   A 1.55 1.55 0.0 0 1 330.90 112.24   Q 331.46 111.99 331.97 111.58   Q 334.04 109.94 332.91 112.32   Q 332.25 113.73 330.81 114.18   A 1.65 1.64 9.4 0 0 330.01 114.75   Q 329.47 115.46 328.76 115.84   Q 328.25 116.10 327.93 116.58   Z"/>
    <path fill="#000000" d="   M 425.93 111.94   C 428.36 113.32 428.73 114.42 432.27 114.00   Q 432.73 113.94 432.84 114.39   L 432.90 114.64   Q 432.93 114.75 432.83 114.79   Q 427.87 116.64 425.34 112.56   Q 424.44 111.10 425.93 111.94   Z"/>
    <path fill="#000000" d="   M 187.98 115.97   C 189.34 116.07 190.16 117.20 191.41 117.04   Q 192.00 116.96 191.99 117.56   L 191.98 118.50   Q 191.96 119.46 191.36 118.72   Q 190.80 118.03 189.97 118.03   C 188.49 118.02 186.81 117.08 185.46 116.49   A 0.77 0.77 0.0 0 1 185.03 115.57   L 185.11 115.30   A 0.38 0.38 0.0 0 1 185.65 115.07   C 186.47 115.49 187.00 115.91 187.98 115.97   Z"/>
    <path fill="#000000" d="   M 330.99 120.65   L 332.15 119.65   Q 332.85 119.06 333.02 119.95   Q 333.29 121.37 331.86 121.78   Q 329.45 122.48 326.22 121.90   Q 325.95 121.85 325.98 121.58   L 326.05 120.86   Q 326.07 120.61 326.32 120.67   Q 328.14 121.08 330.07 121.01   Q 330.59 120.99 330.99 120.65   Z"/>
    <path fill="#000000" d="   M 424.88 125.37   C 425.03 130.06 421.35 136.08 418.55 139.53   A 0.54 0.53 -54.2 0 1 417.86 139.65   L 417.61 139.50   A 0.61 0.60 35.9 0 1 417.46 138.60   Q 422.51 132.55 423.14 125.87   Q 423.21 125.07 424.00 124.91   L 424.25 124.87   Q 424.86 124.74 424.88 125.37   Z"/>
    <circle fill="#000000" cx="84.94" cy="126.02" r="0.98"/>
    <path fill="#000000" d="   M 91.77 126.17   C 92.42 128.94 93.75 128.57 95.81 129.56   A 0.34 0.33 -71.7 0 1 95.99 129.94   L 95.92 130.22   Q 95.70 131.10 94.83 130.90   Q 90.63 129.99 91.01 126.22   Q 91.24 123.94 91.77 126.17   Z"/>
    <path fill="#000000" d="   M 408.36 126.63   Q 408.21 125.04 409.08 126.38   C 411.45 130.00 408.04 134.36 405.61 136.84   A 0.34 0.34 0.0 0 1 405.03 136.60   Q 405.03 136.46 404.93 136.34   Q 404.84 136.25 404.91 136.14   C 406.76 133.34 408.70 130.14 408.36 126.63   Z"/>
    <path fill="#000000" d="   M 78.59 127.80   Q 77.98 128.14 77.42 127.78   Q 77.08 127.56 77.04 127.14   Q 76.95 126.28 77.73 126.68   Q 78.30 126.98 78.65 127.55   Q 78.75 127.70 78.59 127.80   Z"/>
    <path fill="#000000" d="   M 129.04 151.04   Q 130.37 150.58 130.95 149.40   Q 131.23 148.80 130.66 148.47   L 125.61 145.51   Q 124.77 145.01 125.41 144.28   L 126.06 143.53   A 0.65 0.64 38.7 0 0 125.95 142.58   Q 124.81 141.74 123.35 141.95   Q 113.73 143.32 111.00 151.89   Q 110.82 152.45 110.29 152.17   L 109.96 151.99   A 0.46 0.46 0.0 0 1 109.73 151.44   Q 112.80 141.78 122.95 140.83   Q 123.58 140.77 123.37 140.18   L 122.59 137.93   Q 122.44 137.48 122.57 137.02   Q 123.25 134.68 125.17 133.22   Q 128.20 130.92 131.33 128.40   Q 134.95 125.48 138.06 128.74   Q 140.03 130.80 142.25 133.51   C 144.03 135.67 143.30 138.49 141.19 140.07   C 138.07 142.42 134.78 144.89 133.13 148.59   C 131.79 151.60 128.84 154.09 125.65 155.43   C 120.06 157.76 114.48 160.32 113.79 167.05   Q 113.72 167.74 113.04 167.83   L 112.70 167.88   A 0.41 0.41 0.0 0 1 112.25 167.34   Q 114.33 161.10 111.03 156.02   Q 108.49 152.10 105.19 155.72   Q 102.82 158.32 100.38 160.99   A 0.81 0.80 -53.0 0 1 99.37 161.14   L 99.07 160.97   A 0.30 0.30 0.0 0 1 99.00 160.51   Q 101.57 157.62 104.46 154.39   C 105.88 152.80 107.60 152.33 109.62 152.70   Q 110.54 152.87 111.14 153.61   Q 113.77 156.90 114.30 160.24   A 0.42 0.42 0.0 0 0 114.96 160.51   C 116.37 159.48 117.31 157.93 118.85 157.08   Q 122.78 154.90 126.94 153.21   Q 128.26 152.67 129.04 151.04   Z   M 138.51 131.35   Q 137.44 129.91 136.23 129.25   Q 134.11 128.09 132.13 129.64   Q 128.49 132.51 124.93 135.53   A 2.53 2.52 -34.0 0 0 124.32 138.63   Q 125.96 141.79 129.90 142.34   Q 131.98 142.64 133.29 144.33   A 0.51 0.51 0.0 0 0 134.06 144.37   Q 136.79 141.51 139.78 139.40   C 140.71 138.75 141.16 137.67 141.79 136.74   Q 142.11 136.27 141.87 135.75   Q 141.20 134.27 140.19 133.29   Q 139.31 132.43 138.51 131.35   Z   M 131.85 147.26   L 132.01 146.36   Q 132.15 145.58 131.52 145.10   Q 129.78 143.78 127.60 143.95   Q 127.24 143.97 127.07 144.29   Q 126.97 144.50 127.05 144.70   Q 127.27 145.23 127.84 145.31   Q 130.45 145.68 131.23 147.34   Q 131.67 148.29 131.85 147.26   Z"/>
    <path fill="#000000" d="   M 314.09 137.57   C 322.32 148.25 321.56 160.11 314.22 171.58   A 0.48 0.48 0.0 0 1 313.51 171.69   L 313.24 171.48   A 0.41 0.41 0.0 0 1 313.14 170.96   Q 316.65 164.72 318.15 157.92   C 319.72 150.85 316.88 143.98 313.14 138.14   Q 312.94 137.82 313.26 137.63   L 313.54 137.47   A 0.42 0.42 0.0 0 1 314.09 137.57   Z"/>
    <path fill="#000000" d="   M 411.92 167.02   C 412.04 166.18 412.46 166.02 412.76 165.33   Q 416.21 157.33 417.80 150.18   C 418.84 145.50 417.17 140.51 411.75 139.97   Q 398.47 138.65 392.24 149.59   Q 385.88 160.76 382.43 171.98   Q 381.19 176.00 383.16 180.29   A 0.66 0.66 0.0 0 1 382.26 181.16   Q 381.20 180.62 381.11 179.21   Q 380.89 175.49 381.02 171.73   Q 381.04 171.19 381.37 170.76   C 382.23 169.67 381.84 168.58 382.31 167.33   Q 386.29 156.71 391.37 147.91   Q 394.39 142.67 401.10 139.71   Q 408.33 136.52 415.41 139.65   Q 417.57 140.60 418.36 142.54   Q 419.40 145.10 419.24 147.77   Q 418.80 155.41 414.77 164.13   C 414.11 165.56 413.90 167.01 413.06 168.35   Q 412.49 169.25 412.06 170.27   Q 410.77 173.27 408.88 176.75   Q 408.75 177.00 408.48 177.00   L 407.25 177.00   A 0.14 0.14 0.0 0 1 407.13 176.79   L 411.69 167.74   Q 411.86 167.40 411.92 167.02   Z"/>
    <path fill="#000000" d="   M 204.09 163.67   Q 204.41 164.30 205.95 166.44   Q 206.29 166.92 205.70 166.96   L 205.02 167.01   Q 204.49 167.04 204.23 166.59   L 201.31 161.59   Q 201.02 161.10 201.05 160.54   C 201.14 158.46 199.91 157.14 199.97 155.09   C 200.03 153.03 199.77 150.90 200.38 148.89   Q 200.88 147.26 201.01 145.59   C 201.11 144.32 201.75 143.49 202.24 142.38   A 0.69 0.69 0.0 0 1 203.00 141.98   L 203.36 142.04   Q 203.84 142.12 203.69 142.59   C 203.16 144.30 202.21 146.12 202.09 147.86   C 201.93 150.08 201.11 151.80 201.32 154.07   Q 201.77 159.12 204.09 163.67   Z"/>
    <path fill="#000000" d="   M 129.04 151.04   Q 128.28 151.11 127.58 150.82   Q 127.07 150.61 126.83 150.11   C 125.87 148.04 124.16 146.00 121.74 145.99   C 120.44 145.99 119.82 146.69 118.66 146.96   Q 117.99 147.12 118.34 146.53   Q 119.49 144.59 121.51 144.67   Q 125.33 144.81 128.18 149.01   Q 129.07 150.33 129.04 151.04   Z"/>
    <path fill="#000000" d="   M 78.34 154.60   Q 79.12 157.85 79.52 161.41   Q 79.57 161.94 79.06 162.07   L 78.52 162.20   A 0.45 0.44 86.5 0 1 77.97 161.71   Q 78.18 159.97 77.76 158.31   Q 76.41 152.87 73.93 147.42   A 0.89 0.88 55.8 0 1 74.11 146.42   L 74.30 146.23   A 0.26 0.25 54.3 0 1 74.71 146.30   L 77.26 151.39   Q 77.50 151.88 77.99 152.14   L 97.45 162.47   A 0.89 0.88 27.5 0 1 97.83 163.64   L 97.69 163.92   A 0.37 0.37 0.0 0 1 97.18 164.08   L 78.78 154.26   Q 78.19 153.94 78.34 154.60   Z"/>
    <path fill="#000000" d="   M 115.61 151.60   Q 115.12 152.26 114.32 152.16   Q 113.68 152.07 114.04 151.53   Q 116.61 147.77 122.57 149.46   A 1.62 1.59 -4.4 0 1 123.59 150.32   L 123.71 150.58   A 0.31 0.31 0.0 0 1 123.38 151.02   Q 119.75 150.52 116.43 151.10   A 1.32 1.31 13.3 0 0 115.61 151.60   Z"/>
    <path fill="#000000" d="   M 66.21 152.06   Q 65.76 156.22 64.29 160.62   C 63.83 162.01 64.13 163.25 63.78 164.67   A 1.18 1.18 0.0 0 1 61.87 165.28   L 50.74 155.76   Q 50.34 155.42 49.93 155.73   Q 36.42 165.71 32.43 181.92   Q 31.95 183.87 31.97 185.85   C 31.98 187.78 31.05 189.24 31.02 191.17   Q 30.88 204.70 31.03 218.43   A 0.44 0.43 1.2 0 1 30.56 218.87   L 30.24 218.85   Q 29.51 218.79 29.48 218.06   C 29.10 209.72 28.58 201.42 29.79 193.37   C 30.12 191.17 30.01 188.97 29.98 186.75   C 29.95 184.97 31.09 183.87 30.99 182.03   Q 30.97 181.47 31.23 180.98   C 32.06 179.43 31.97 177.80 32.60 176.15   Q 37.64 162.84 48.95 154.83   Q 50.66 153.62 52.23 155.00   L 61.30 162.90   A 0.91 0.91 0.0 0 0 62.80 162.27   C 62.94 159.95 63.76 158.03 64.04 155.75   Q 64.35 153.28 65.30 150.89   A 1.39 1.39 0.0 0 1 67.58 150.43   L 74.81 157.75   A 0.59 0.58 -49.5 0 1 74.86 158.51   L 74.61 158.84   A 0.50 0.50 0.0 0 1 73.85 158.89   L 66.93 151.81   Q 66.30 151.17 66.21 152.06   Z"/>
    <path fill="#000000" d="   M 134.94 178.83   Q 133.75 179.25 132.42 179.11   Q 131.88 179.05 132.23 178.63   Q 132.88 177.84 133.78 177.37   C 135.25 176.60 136.55 175.04 137.67 173.84   Q 137.99 173.49 138.02 173.00   Q 138.03 172.71 137.92 172.45   Q 137.58 171.60 137.16 172.42   L 136.89 172.95   Q 136.65 173.43 136.19 173.69   C 134.58 174.60 133.68 176.57 131.92 177.06   Q 131.55 177.16 131.28 176.95   Q 130.91 176.67 131.24 176.34   L 137.61 169.94   A 1.20 1.19 63.7 0 0 137.94 168.96   L 137.88 168.49   A 0.33 0.33 0.0 0 0 137.32 168.29   L 132.07 173.26   Q 131.56 173.74 131.01 173.31   L 130.70 173.06   Q 130.29 172.75 130.70 172.43   Q 133.86 170.00 136.74 166.60   Q 137.41 165.80 136.63 165.11   Q 136.45 164.96 136.22 164.88   A 1.10 1.10 0.0 0 0 135.05 165.25   Q 132.01 169.10 128.14 171.43   A 1.43 1.43 0.0 0 1 125.97 170.18   L 126.08 165.61   Q 126.09 164.92 125.46 165.18   Q 123.33 166.03 121.84 167.61   Q 117.80 171.94 111.85 174.32   Q 111.42 174.50 111.11 174.16   Q 110.97 174.01 110.99 173.80   Q 111.02 173.52 111.26 173.37   C 114.21 171.56 117.54 170.02 119.94 167.52   C 122.31 165.04 125.17 163.43 127.77 161.25   Q 131.36 158.24 135.15 154.71   A 1.33 1.33 0.0 0 1 137.18 154.97   Q 139.88 159.25 141.70 163.56   Q 142.00 164.27 142.02 165.02   Q 142.04 165.59 142.52 165.92   A 1.13 1.11 18.4 0 1 143.01 166.88   Q 142.98 167.74 143.35 168.50   Q 143.55 168.92 143.35 169.36   Q 142.16 171.93 139.74 173.27   Q 139.25 173.55 139.09 174.08   Q 138.70 175.38 137.49 175.98   Q 137.00 176.22 137.00 176.76   L 137.00 178.58   Q 137.00 179.07 136.75 179.49   Q 135.20 182.01 132.29 182.95   Q 128.16 184.28 124.16 184.15   Q 119.73 184.00 115.29 183.93   Q 115.06 183.93 115.06 183.70   L 115.07 183.44   A 0.43 0.43 0.0 0 1 115.49 183.03   Q 121.02 182.96 126.43 182.90   C 128.23 182.88 129.62 182.09 131.36 181.86   A 0.79 0.78 -80.0 0 0 131.97 181.43   Q 132.22 180.96 132.70 181.02   Q 133.29 181.09 133.75 180.71   Q 134.58 180.03 135.18 179.14   Q 135.54 178.61 134.94 178.83   Z   M 138.29 166.12   Q 138.10 166.67 138.54 167.01   Q 139.02 167.39 139.01 167.99   L 138.99 171.49   Q 138.99 172.32 139.63 171.79   Q 141.02 170.63 141.83 168.80   Q 142.02 168.37 141.63 168.09   Q 140.68 167.44 141.01 166.17   Q 141.14 165.63 140.89 165.13   L 136.85 157.02   A 1.19 1.19 0.0 0 0 134.99 156.67   L 128.96 162.16   Q 127.83 163.18 128.59 164.50   L 130.03 167.02   Q 130.53 167.89 131.25 167.20   L 135.05 163.58   A 1.68 1.68 0.0 0 1 137.69 164.01   L 138.20 164.95   Q 138.50 165.52 138.29 166.12   Z   M 127.29 169.20   A 0.53 0.52 21.7 0 0 127.62 169.95   Q 128.70 170.27 128.96 169.18   Q 129.18 168.24 128.90 167.38   Q 128.64 166.61 128.27 167.33   L 127.29 169.20   Z"/>
    <path fill="#000000" d="   M 338.39 162.40   C 339.09 159.58 339.93 157.21 342.19 155.24   Q 342.62 154.86 343.12 155.15   L 343.41 155.32   A 0.23 0.23 0.0 0 1 343.46 155.66   C 339.92 159.78 338.48 163.79 341.45 169.05   Q 344.50 174.47 341.14 179.44   A 0.49 0.46 14.4 0 1 340.76 179.65   L 340.30 179.66   Q 339.89 179.66 340.05 179.29   C 341.23 176.37 341.70 172.48 340.13 169.59   C 339.03 167.56 337.81 164.75 338.39 162.40   Z"/>
    <path fill="#000000" d="   M 336.55 172.46   Q 336.91 172.92 336.74 173.49   L 336.63 173.86   Q 336.44 174.49 335.99 174.00   C 332.50 170.16 330.91 164.10 334.10 159.45   Q 334.67 158.62 334.89 159.60   Q 335.04 160.29 334.63 160.89   Q 334.29 161.39 334.18 161.97   Q 333.06 167.94 336.55 172.46   Z"/>
    <ellipse fill="#000000" cx="0.00" cy="0.00" transform="translate(72.75,167.18) rotate(67.0)" rx="1.81" ry="1.64"/>
    <path fill="#000000" d="   M 177.81 171.00   C 180.33 166.14 188.03 166.06 192.34 167.64   Q 195.22 168.69 198.34 170.96   C 202.99 174.36 203.78 182.22 198.20 185.10   Q 194.50 187.01 190.97 187.00   Q 185.49 186.98 178.58 187.03   C 175.56 187.05 173.84 183.64 174.38 180.98   Q 175.49 175.48 177.81 171.00   Z   M 190.71 173.32   Q 188.04 177.53 188.11 183.66   Q 188.12 184.95 189.41 184.98   C 194.02 185.12 198.62 185.39 200.50 180.14   C 202.37 174.93 196.99 171.53 193.22 169.53   C 189.13 167.37 184.61 167.34 180.86 169.86   Q 179.37 170.86 178.17 173.68   C 176.38 177.90 175.44 180.39 176.24 184.51   Q 176.34 185.04 176.87 185.05   L 186.44 185.25   A 0.52 0.52 0.0 0 0 186.97 184.66   C 186.51 181.24 186.74 176.47 189.01 173.58   A 1.63 1.60 13.0 0 1 189.94 173.01   L 190.43 172.91   Q 191.06 172.78 190.71 173.32   Z"/>
    <path fill="#000000" d="   M 450.59 183.65   Q 451.42 183.06 452.40 182.85   Q 452.83 182.76 453.08 182.40   L 457.60 176.09   A 0.68 0.67 38.4 0 1 458.59 175.98   L 458.85 176.20   Q 459.42 176.71 458.92 177.28   L 455.25 181.49   Q 455.03 181.74 455.01 182.07   Q 455.00 182.22 454.98 182.37   Q 454.94 182.69 454.68 182.88   Q 453.81 183.52 454.00 184.47   A 0.91 0.91 0.0 0 0 455.51 184.97   C 457.00 183.60 458.31 182.35 459.44 180.50   Q 460.20 179.25 461.17 178.16   Q 461.54 177.75 462.07 177.88   Q 462.20 177.91 462.33 177.95   Q 462.99 178.17 462.58 178.74   Q 460.06 182.25 457.76 184.87   Q 456.86 185.90 458.23 185.96   L 459.21 186.01   Q 460.76 186.08 461.49 184.71   Q 462.89 182.10 465.54 180.08   Q 465.94 179.78 466.36 180.04   Q 466.85 180.34 466.48 180.77   L 462.99 184.74   A 0.75 0.75 0.0 0 0 463.85 185.93   Q 466.48 184.79 468.42 181.27   A 0.72 0.71 -57.1 0 1 469.48 181.04   L 469.85 181.32   A 0.65 0.65 0.0 0 1 469.95 182.27   Q 468.25 184.21 466.36 186.13   C 465.46 187.05 464.24 187.12 463.05 187.37   Q 462.63 187.46 462.26 187.25   C 460.28 186.19 458.91 188.52 456.86 186.64   A 0.71 0.71 0.0 0 0 456.08 186.52   Q 455.01 187.02 453.79 187.04   A 0.92 0.91 75.9 0 1 452.96 186.54   Q 452.03 184.67 450.03 185.00   Q 449.55 185.08 449.18 184.77   C 447.72 183.54 447.56 181.79 448.69 180.30   Q 449.66 179.01 450.07 177.62   Q 450.26 177.00 450.80 176.64   Q 451.93 175.91 452.26 174.62   Q 452.34 174.29 452.66 174.16   Q 454.10 173.61 455.01 172.39   Q 455.31 172.00 455.79 172.00   L 456.25 171.99   A 1.12 1.09 29.8 0 0 456.79 171.85   Q 459.17 170.56 461.83 171.08   Q 471.39 172.96 478.24 180.87   A 0.67 0.66 -44.0 0 1 478.22 181.76   L 478.00 181.99   A 0.35 0.35 0.0 0 1 477.49 181.99   C 473.22 177.25 466.46 172.60 459.96 172.59   C 455.76 172.59 452.24 176.48 450.40 179.94   C 449.75 181.15 450.07 182.04 449.97 183.31   Q 449.91 184.14 450.59 183.65   Z"/>
    <path fill="#000000" d="   M 88.40 215.32   Q 83.64 218.11 78.22 221.26   C 76.51 222.26 73.15 224.40 71.21 224.02   Q 69.36 223.66 71.14 223.02   Q 73.33 222.24 75.41 221.13   C 84.82 216.11 93.22 210.83 100.91 203.16   C 102.58 201.49 104.89 199.08 105.02 196.62   Q 105.44 188.90 103.27 182.62   Q 103.10 182.15 103.60 182.06   L 103.87 182.02   Q 104.54 181.91 104.72 182.56   Q 106.57 189.27 107.01 195.50   A 0.32 0.32 0.0 0 0 107.50 195.75   Q 110.70 193.86 111.63 190.33   Q 114.11 180.97 106.75 174.50   A 1.47 1.47 0.0 0 0 104.63 174.67   C 100.10 180.17 94.05 184.80 86.94 185.14   C 83.42 185.31 79.88 185.27 76.53 184.27   C 70.45 182.44 63.74 179.24 59.96 174.22   Q 59.71 173.89 59.84 173.49   Q 59.92 173.26 60.12 173.21   A 0.72 0.72 0.0 0 1 60.83 173.39   Q 65.03 177.48 70.67 180.44   Q 77.67 184.11 85.62 183.84   C 93.45 183.57 99.72 178.71 104.36 172.66   A 1.00 1.00 0.0 0 1 105.67 172.41   C 108.06 173.83 109.89 175.01 111.41 177.52   Q 116.05 185.15 111.88 193.56   C 110.64 196.06 107.15 197.50 105.35 200.04   Q 102.57 203.98 99.42 206.64   Q 94.13 211.10 92.25 213.87   Q 86.49 222.34 80.78 230.58   A 1.16 1.15 19.1 0 1 79.76 231.07   L 79.34 231.04   Q 78.77 231.01 79.09 230.54   L 89.11 216.09   Q 90.50 214.09 88.40 215.32   Z"/>
    <path fill="#000000" d="   M 75.87 174.46   L 76.60 175.60   A 0.99 0.99 0.0 0 1 76.54 176.75   L 75.75 177.74   A 0.99 0.99 0.0 0 1 74.14 177.66   L 73.45 176.58   A 0.99 0.99 0.0 0 1 73.48 175.46   L 74.24 174.42   A 0.99 0.99 0.0 0 1 75.87 174.46   Z"/>
    <rect fill="#000000" x="139.63" y="180.00" width="29.36" height="1.20" rx="0.34"/>
    <rect fill="#000000" x="346.06" y="180.00" width="30.96" height="1.20" rx="0.58"/>
    <path fill="#000000" d="   M 444.85 181.07   A 0.17 0.17 0.0 0 1 444.68 181.24   L 409.96 181.24   A 3.67 0.34 0.0 0 1 406.29 180.90   L 406.29 180.30   A 3.67 0.34 -0.0 0 1 409.96 179.96   L 444.68 179.96   A 0.17 0.17 0.0 0 1 444.85 180.13   L 444.85 181.07   Z"/>
    <rect fill="#000000" x="479.81" y="179.99" width="39.20" height="1.22" rx="0.44"/>
    <path fill="#000000" d="   M 344.79 205.97   Q 347.92 205.58 351.37 206.05   Q 351.68 206.09 351.73 206.40   Q 351.75 206.55 351.65 206.68   Q 351.59 206.76 351.51 206.77   Q 350.22 206.94 349.22 207.68   A 1.81 1.77 -60.6 0 1 348.02 208.03   Q 343.46 207.69 339.43 208.70   C 336.90 209.34 333.86 208.18 332.62 205.65   Q 330.70 201.72 327.82 199.14   Q 324.49 196.14 323.57 191.08   C 322.99 187.91 325.78 186.37 328.70 186.87   A 0.86 0.85 -82.4 0 0 329.69 186.11   Q 329.96 183.51 332.92 183.12   Q 335.72 182.76 343.92 183.05   A 1.62 1.57 64.4 0 1 344.84 183.39   Q 345.49 183.91 346.28 183.91   Q 346.93 183.91 346.95 184.56   Q 347.20 190.70 347.02 196.74   Q 346.94 199.27 346.01 201.39   Q 345.16 203.34 344.39 205.46   Q 344.18 206.04 344.79 205.97   Z   M 344.55 185.74   Q 338.26 186.76 331.65 185.70   Q 331.13 185.61 331.10 186.13   Q 330.56 194.67 331.23 197.74   Q 332.11 201.80 334.17 205.35   Q 335.21 207.13 337.44 207.14   C 342.42 207.15 342.60 205.48 344.50 201.63   Q 344.98 200.65 344.99 199.60   C 344.99 197.73 346.00 196.16 346.01 194.17   Q 346.03 190.01 345.94 185.79   A 0.46 0.45 -6.0 0 0 345.40 185.36   Q 345.25 185.38 345.12 185.48   Q 344.87 185.69 344.55 185.74   Z   M 324.94 192.11   A 0.63 0.63 0.0 0 0 325.04 192.51   L 328.80 198.40   A 0.63 0.63 0.0 0 0 329.96 198.01   L 329.10 188.33   A 0.63 0.63 0.0 0 0 328.33 187.77   L 325.74 188.40   A 0.63 0.63 0.0 0 0 325.26 188.94   L 324.94 192.11   Z"/>
    <ellipse fill="#000000" cx="0.00" cy="0.00" transform="translate(151.44,195.74) rotate(67.0)" rx="3.32" ry="0.83"/>
    <rect fill="#000000" x="207.69" y="193.10" width="103.24" height="4.92" rx="2.42"/>
    <path fill="#000000" d="   M 149.70 208.59   L 149.75 222.11   Q 149.76 222.65 150.19 222.97   L 152.09 224.40   Q 153.07 225.14 151.84 225.11   Q 146.52 225.01 141.14 224.98   C 139.25 224.97 137.92 223.86 135.91 223.97   C 134.71 224.04 134.26 223.34 133.33 222.83   A 0.76 0.75 42.5 0 1 133.27 221.54   L 134.98 220.39   Q 135.44 220.08 135.99 220.03   C 137.66 219.85 139.15 219.17 140.85 219.07   Q 144.34 218.88 147.43 219.43   Q 148.00 219.53 148.00 218.96   L 148.00 207.73   A 1.68 1.68 0.0 0 1 149.79 206.05   Q 151.10 206.14 152.13 205.42   Q 152.66 205.04 153.31 205.04   Q 154.71 205.04 155.95 204.25   Q 156.43 203.95 156.99 204.02   Q 158.77 204.25 159.71 202.73   Q 161.81 199.33 163.91 195.80   Q 165.24 193.56 167.61 194.42   Q 171.27 195.76 174.61 197.03   Q 176.39 197.70 175.41 199.34   L 170.21 208.04   A 1.23 1.15 62.4 0 0 170.04 208.66   L 170.03 221.18   A 1.74 1.73 81.7 0 1 168.80 222.84   L 158.66 225.87   A 0.96 0.96 0.0 0 1 157.42 224.95   L 157.40 211.24   Q 157.40 210.97 157.14 210.86   Q 151.24 208.49 149.74 208.54   Q 149.70 208.55 149.70 208.59   Z   M 174.07 198.84   A 0.30 0.30 0.0 0 0 173.91 198.40   L 166.25 195.60   A 0.30 0.30 0.0 0 0 165.90 195.72   L 160.90 203.18   A 0.30 0.30 0.0 0 0 161.02 203.63   L 168.68 207.05   A 0.30 0.30 0.0 0 0 169.06 206.94   L 174.07 198.84   Z   M 156.72 209.22   A 0.32 0.32 0.0 0 0 156.84 209.24   L 166.18 208.62   A 0.32 0.32 0.0 0 0 166.28 208.00   L 159.06 205.26   A 0.32 0.32 0.0 0 0 158.86 205.25   L 152.40 207.14   A 0.32 0.32 0.0 0 0 152.39 207.75   L 156.72 209.22   Z   M 159.00 223.28   A 0.73 0.73 0.0 0 0 159.93 223.98   L 168.41 221.52   A 0.73 0.73 0.0 0 0 168.94 220.82   L 168.95 209.78   A 0.73 0.73 0.0 0 0 168.05 209.07   L 159.55 211.06   A 0.73 0.73 0.0 0 0 158.99 211.77   L 159.00 223.28   Z"/>
    <path fill="#000000" d="   M 149.07 199.92   Q 150.06 200.27 150.40 201.31   Q 150.59 201.91 149.97 201.99   C 148.27 202.21 148.25 200.40 146.67 199.95   A 0.46 0.38 -11.3 0 1 146.47 199.84   L 142.66 196.19   A 0.71 0.69 34.0 0 1 142.50 195.41   L 142.61 195.12   A 0.42 0.42 0.0 0 1 143.28 194.97   L 148.36 199.50   Q 148.67 199.78 149.07 199.92   Z"/>
    <path fill="#000000" d="   M 398.00 214.30   L 398.00 203.03   A 0.93 0.92 80.1 0 1 398.61 202.16   C 402.04 200.91 407.89 198.68 411.52 200.04   Q 415.26 201.44 419.03 202.73   A 1.29 1.28 7.1 0 1 419.91 203.86   Q 420.40 210.57 419.97 216.64   A 1.97 1.97 0.0 0 1 418.59 218.39   L 408.65 221.43   A 1.07 1.07 0.0 0 1 407.27 220.41   L 407.26 207.04   A 0.92 0.90 11.1 0 0 406.68 206.20   L 401.38 204.13   Q 399.52 203.41 399.55 205.41   Q 399.63 210.58 399.61 215.66   Q 399.61 216.24 399.47 216.80   Q 399.16 218.16 400.55 218.73   Q 401.93 219.29 402.89 220.45   A 0.32 0.31 -20.2 0 1 402.65 220.96   Q 399.31 221.08 395.57 220.93   C 393.10 220.84 390.91 219.96 388.46 219.97   C 387.06 219.99 386.06 219.19 384.73 218.97   A 1.47 1.47 0.0 0 1 383.63 216.93   Q 384.02 216.03 385.01 215.95   A 2.56 2.55 26.7 0 0 386.14 215.58   Q 387.30 214.88 388.87 214.93   Q 393.26 215.07 397.32 214.99   Q 398.00 214.98 398.00 214.30   Z   M 415.57 203.85   Q 416.76 203.62 415.65 203.14   C 413.57 202.24 409.12 200.31 406.84 201.36   C 405.38 202.04 403.81 202.07 402.24 202.14   Q 401.61 202.16 402.10 202.57   L 403.35 203.60   A 1.76 1.72 60.2 0 0 404.68 203.98   Q 405.83 203.82 406.81 204.43   C 409.01 205.80 410.35 204.41 412.44 204.26   Q 414.02 204.14 415.57 203.85   Z   M 408.96 219.00   A 0.57 0.57 0.0 0 0 409.70 219.55   L 418.53 216.87   A 0.57 0.57 0.0 0 0 418.94 216.33   L 418.90 205.34   A 0.57 0.57 0.0 0 0 418.23 204.78   L 409.49 206.40   A 0.57 0.57 0.0 0 0 409.03 206.96   L 408.96 219.00   Z"/>
    <path fill="#000000" d="   M 148.17 205.56   A 0.16 0.16 0.0 0 1 148.24 205.78   L 148.04 206.13   A 1.82 0.98 29.0 0 1 145.97 206.11   L 143.30 204.62   A 1.82 0.98 29.0 0 1 142.18 202.88   L 142.38 202.53   A 0.16 0.16 0.0 0 1 142.59 202.47   L 148.17 205.56   Z"/>
    <path fill="#000000" d="   M 442.96 226.17   L 443.02 214.65   Q 443.02 213.96 443.60 213.59   Q 445.64 212.29 447.72 210.92   Q 449.47 209.78 451.57 209.92   Q 457.81 210.34 463.64 211.08   Q 464.22 211.16 464.22 211.74   L 464.22 225.71   A 1.33 1.33 0.0 0 1 463.83 226.65   L 458.70 231.73   Q 458.28 232.14 457.75 231.92   L 457.27 231.73   Q 456.79 231.54 456.30 231.70   Q 454.78 232.19 453.02 231.98   Q 452.20 231.88 451.49 232.30   C 449.53 233.45 447.36 232.79 445.20 233.39   Q 441.27 234.48 436.01 232.75   Q 433.01 231.76 434.10 228.69   A 0.99 0.96 88.1 0 1 434.62 228.12   Q 438.22 226.52 442.01 227.00   A 0.85 0.84 -86.1 0 0 442.96 226.17   Z   M 458.64 219.12   Q 458.84 219.14 458.85 219.35   L 459.04 228.48   Q 459.05 229.39 459.69 228.74   L 462.42 225.95   Q 463.00 225.35 463.00 224.52   L 463.00 212.55   A 0.60 0.60 0.0 0 0 462.36 211.95   Q 456.41 212.28 450.91 211.32   Q 450.05 211.17 449.32 211.65   Q 448.58 212.14 446.88 213.26   Q 446.14 213.74 447.02 213.77   L 457.49 214.09   Q 458.07 214.11 458.02 214.69   L 457.95 215.44   A 0.51 0.51 0.0 0 1 457.34 215.89   Q 451.43 214.64 445.02 215.05   Q 444.55 215.08 444.49 215.55   Q 443.77 221.94 444.05 228.60   A 0.37 0.37 0.0 0 0 444.40 228.95   C 446.47 229.06 448.47 228.78 450.48 229.37   Q 453.91 230.38 457.62 229.89   Q 457.98 229.85 457.99 229.48   L 458.04 219.38   Q 458.04 219.06 458.37 219.09   L 458.64 219.12   Z"/>
</svg>